<svg width="12" height="10" viewBox="0 0 12 10" fill="none" xmlns="http://www.w3.org/2000/svg">
<g id="menu-line-horizontal">
<path id="combo shape" fill-rule="evenodd" clip-rule="evenodd" d="M0.25 1C0.25 0.585786 0.585786 0.25 1 0.25H11C11.4142 0.25 11.75 0.585786 11.75 1C11.75 1.41421 11.4142 1.75 11 1.75H1C0.585786 1.75 0.25 1.41421 0.25 1ZM0.25 5C0.25 4.58579 0.585786 4.25 1 4.25H11C11.4142 4.25 11.75 4.58579 11.75 5C11.75 5.41421 11.4142 5.75 11 5.75H1C0.585786 5.75 0.25 5.41421 0.25 5ZM1 8.25C0.585786 8.25 0.25 8.58579 0.25 9C0.25 9.41421 0.585786 9.75 1 9.75H11C11.4142 9.75 11.75 9.41421 11.75 9C11.75 8.58579 11.4142 8.25 11 8.25H1Z" fill="white"/>
</g>
</svg>
