<svg width="50" height="50" viewBox="0 0 50 50" fill="none" xmlns="http://www.w3.org/2000/svg">
<g id="Group 4">
<rect id="Rectangle 1058" x="2" y="2" width="45" height="45" rx="22.5" fill="white"/>
<g id="Group">
<path id="Vector" d="M47.9269 16.6578C46.7417 15.8017 46.0891 14.3886 46.2009 12.9307C46.2355 12.4814 46.1969 12.0381 46.0952 11.6193C45.7333 10.1187 44.5562 8.89261 42.9847 8.51646C42.2732 8.34566 41.6328 7.99797 41.1123 7.52014C40.5939 7.03825 40.1934 6.42826 39.9678 5.73288C39.3253 3.76668 37.3513 2.56094 35.3102 2.88423C34.5884 3.00013 33.8606 2.92286 33.1979 2.6809C32.531 2.43691 31.9313 2.02618 31.4556 1.46906C30.4045 0.240948 28.7781 -0.245009 27.2757 0.116918C26.8569 0.218582 26.4463 0.385312 26.062 0.621174C24.8158 1.38569 23.2646 1.45076 21.9594 0.787905C21.0385 0.320247 20.0139 0.220616 19.0706 0.448344C18.1272 0.676073 17.2612 1.2332 16.6554 2.06888C16.0576 2.89236 15.1977 3.45559 14.2381 3.68738C13.8132 3.78905 13.3741 3.82768 12.9268 3.79311C10.8633 3.63452 8.99501 4.99682 8.51522 7.00775C8.34445 7.7194 7.99477 8.35989 7.51702 8.88041C7.03723 9.3989 6.4253 9.79946 5.73001 10.0252C4.74604 10.3464 3.95724 11.0011 3.44899 11.8307C2.94277 12.6603 2.72321 13.6627 2.88585 14.6855C3.11557 16.1291 2.5809 17.589 1.46885 18.5386C0.240914 19.5898 -0.244973 21.2205 0.116901 22.721C0.218551 23.1399 0.385256 23.5486 0.621084 23.9329C0.856912 24.3152 1.02362 24.7259 1.12527 25.1468C1.35703 26.1065 1.24725 27.1313 0.78779 28.0361C-0.145356 29.8803 0.397454 32.1291 2.07061 33.345C3.25382 34.201 3.90844 35.6142 3.7946 37.072C3.63602 39.1318 4.99813 41.0044 7.00877 41.4843C8.43187 41.8218 9.57441 42.8771 10.0298 44.2658C10.6702 46.232 12.6463 47.4378 14.6874 47.1145C15.4091 46.9986 16.1369 47.0758 16.7997 47.3178C17.4625 47.5638 18.0683 47.9746 18.542 48.5297C19.8878 50.0994 22.1729 50.4613 23.9355 49.3775C24.3177 49.1417 24.7264 48.9749 25.1492 48.8733C26.1088 48.6415 27.1314 48.7513 28.0381 49.2108C28.9591 49.6785 29.9817 49.7761 30.927 49.5483C31.8724 49.3206 32.7364 48.7675 33.3442 47.9298C33.9419 47.1063 34.8019 46.5431 35.7615 46.3113C36.1864 46.2097 36.6255 46.171 37.0728 46.2056C37.5221 46.2402 37.9652 46.2015 38.384 46.0999C39.8844 45.7379 41.1103 44.5607 41.4864 42.9889C41.8259 41.5677 42.879 40.4229 44.2716 39.9695C45.2556 39.6482 46.0464 38.9955 46.5506 38.1639C47.0568 37.3343 47.2784 36.3299 47.1158 35.3092C46.884 33.8655 47.4207 32.4056 48.5307 31.4561C50.1002 30.11 50.4601 27.8226 49.3785 26.0618C48.6141 24.8153 48.549 23.2599 49.2138 21.9586C50.147 20.1144 49.6042 17.8655 47.931 16.6496L47.9269 16.6578ZM29.9979 45.7074C18.5826 48.4646 7.05553 41.4213 4.29878 30.0063C1.54203 18.5894 8.58434 7.06062 19.9996 4.30347C31.4129 1.54632 42.942 8.58965 45.6988 20.0066C48.4555 31.4215 41.4091 42.9503 29.9979 45.7074Z" fill="#E30D16"/>
<path id="Vector_2" d="M13.8032 21.1718C13.6365 21.0864 13.4616 21.0661 13.2766 21.1108L12.6484 21.2633L13.0205 22.8046L13.2258 22.7558C13.4006 22.7131 13.547 22.6683 13.6548 22.6216C13.7666 22.5768 13.8703 22.5138 13.9699 22.4304C14.0695 22.3471 14.1325 22.2413 14.161 22.1092C14.1874 21.977 14.1793 21.8225 14.1346 21.6395C14.0797 21.4158 13.9719 21.2613 13.8052 21.1738L13.8032 21.1718ZM38.6627 24.724C38.5143 24.6365 38.3313 24.6203 38.1178 24.6711L37.6787 24.7768L37.9857 26.0477L38.2053 25.9948C38.3272 25.9643 38.4391 25.9277 38.5326 25.885C38.6281 25.8423 38.7155 25.7854 38.7948 25.7162C38.8721 25.6491 38.927 25.5678 38.9575 25.4682C38.9859 25.3665 38.9859 25.2567 38.9575 25.1367C38.9107 24.9456 38.8152 24.8094 38.6647 24.724H38.6627ZM14.7404 24.2665C14.6692 24.1689 14.592 24.0957 14.5127 24.053C14.4334 24.0083 14.3419 23.9798 14.2403 23.9676C14.1346 23.9554 14.0451 23.9534 13.9658 23.9656C13.8865 23.9737 13.7991 23.99 13.7015 24.0144C13.6649 24.0225 13.5429 24.055 13.3335 24.1079L13.7442 25.8057L13.856 25.7793C13.9211 25.765 13.9882 25.7488 14.0512 25.7345C14.1163 25.7162 14.1793 25.6979 14.2403 25.6817C14.3013 25.6613 14.3582 25.643 14.4131 25.6186C14.4659 25.5983 14.5208 25.5759 14.5676 25.5515C14.6143 25.5271 14.6611 25.4987 14.7018 25.4661C14.7424 25.4336 14.779 25.399 14.8115 25.3604C14.8441 25.3218 14.8685 25.2811 14.8868 25.2303C14.9071 25.1794 14.9193 25.1245 14.9315 25.0696C14.9376 25.0127 14.9396 24.9476 14.9356 24.8744C14.9315 24.8012 14.9173 24.724 14.8969 24.6406C14.8603 24.4922 14.8075 24.3661 14.7384 24.2665H14.7404ZM13.8032 21.1698C13.6365 21.0844 13.4616 21.0641 13.2766 21.1088L12.6484 21.2613L13.0205 22.8025L13.2258 22.7537C13.4006 22.711 13.547 22.6663 13.6548 22.6195C13.7666 22.5748 13.8703 22.5118 13.9699 22.4284C14.0695 22.345 14.1325 22.2393 14.161 22.1071C14.1874 21.975 14.1793 21.8204 14.1346 21.6374C14.0797 21.4138 13.9719 21.2592 13.8052 21.1718L13.8032 21.1698ZM14.7404 24.2665C14.6692 24.1689 14.592 24.0957 14.5127 24.053C14.4334 24.0083 14.3419 23.9798 14.2403 23.9676C14.1346 23.9554 14.0451 23.9534 13.9658 23.9656C13.8865 23.9737 13.7991 23.99 13.7015 24.0144C13.6649 24.0225 13.5429 24.055 13.3335 24.1079L13.7442 25.8057L13.856 25.7793C13.9211 25.765 13.9882 25.7488 14.0512 25.7345C14.1163 25.7162 14.1793 25.6979 14.2403 25.6817C14.3013 25.6613 14.3582 25.643 14.4131 25.6186C14.4659 25.5983 14.5208 25.5759 14.5676 25.5515C14.6143 25.5271 14.6611 25.4987 14.7018 25.4661C14.7424 25.4336 14.779 25.399 14.8115 25.3604C14.8441 25.3218 14.8685 25.2811 14.8868 25.2303C14.9071 25.1794 14.9193 25.1245 14.9315 25.0696C14.9376 25.0127 14.9396 24.9476 14.9356 24.8744C14.9315 24.8012 14.9173 24.724 14.8969 24.6406C14.8603 24.4922 14.8075 24.3661 14.7384 24.2665H14.7404ZM38.6627 24.724C38.5143 24.6365 38.3313 24.6203 38.1178 24.6711L37.6787 24.7768L37.9857 26.0477L38.2053 25.9948C38.3272 25.9643 38.4391 25.9277 38.5326 25.885C38.6281 25.8423 38.7155 25.7854 38.7948 25.7162C38.8721 25.6491 38.927 25.5678 38.9575 25.4682C38.9859 25.3665 38.9859 25.2567 38.9575 25.1367C38.9107 24.9456 38.8152 24.8094 38.6647 24.724H38.6627ZM38.6627 24.724C38.5143 24.6365 38.3313 24.6203 38.1178 24.6711L37.6787 24.7768L37.9857 26.0477L38.2053 25.9948C38.3272 25.9643 38.4391 25.9277 38.5326 25.885C38.6281 25.8423 38.7155 25.7854 38.7948 25.7162C38.8721 25.6491 38.927 25.5678 38.9575 25.4682C38.9859 25.3665 38.9859 25.2567 38.9575 25.1367C38.9107 24.9456 38.8152 24.8094 38.6647 24.724H38.6627ZM14.7404 24.2665C14.6692 24.1689 14.592 24.0957 14.5127 24.053C14.4334 24.0083 14.3419 23.9798 14.2403 23.9676C14.1346 23.9554 14.0451 23.9534 13.9658 23.9656C13.8865 23.9737 13.7991 23.99 13.7015 24.0144C13.6649 24.0225 13.5429 24.055 13.3335 24.1079L13.7442 25.8057L13.856 25.7793C13.9211 25.765 13.9882 25.7488 14.0512 25.7345C14.1163 25.7162 14.1793 25.6979 14.2403 25.6817C14.3013 25.6613 14.3582 25.643 14.4131 25.6186C14.4659 25.5983 14.5208 25.5759 14.5676 25.5515C14.6143 25.5271 14.6611 25.4987 14.7018 25.4661C14.7424 25.4336 14.779 25.399 14.8115 25.3604C14.8441 25.3218 14.8685 25.2811 14.8868 25.2303C14.9071 25.1794 14.9193 25.1245 14.9315 25.0696C14.9376 25.0127 14.9396 24.9476 14.9356 24.8744C14.9315 24.8012 14.9173 24.724 14.8969 24.6406C14.8603 24.4922 14.8075 24.3661 14.7384 24.2665H14.7404ZM13.8032 21.1698C13.6365 21.0844 13.4616 21.0641 13.2766 21.1088L12.6484 21.2613L13.0205 22.8025L13.2258 22.7537C13.4006 22.711 13.547 22.6663 13.6548 22.6195C13.7666 22.5748 13.8703 22.5118 13.9699 22.4284C14.0695 22.345 14.1325 22.2393 14.161 22.1071C14.1874 21.975 14.1793 21.8204 14.1346 21.6374C14.0797 21.4138 13.9719 21.2592 13.8052 21.1718L13.8032 21.1698ZM13.8032 21.1698C13.6365 21.0844 13.4616 21.0641 13.2766 21.1088L12.6484 21.2613L13.0205 22.8025L13.2258 22.7537C13.4006 22.711 13.547 22.6663 13.6548 22.6195C13.7666 22.5748 13.8703 22.5118 13.9699 22.4284C14.0695 22.345 14.1325 22.2393 14.161 22.1071C14.1874 21.975 14.1793 21.8204 14.1346 21.6374C14.0797 21.4138 13.9719 21.2592 13.8052 21.1718L13.8032 21.1698ZM14.7404 24.2665C14.6692 24.1689 14.592 24.0957 14.5127 24.053C14.4334 24.0083 14.3419 23.9798 14.2403 23.9676C14.1346 23.9554 14.0451 23.9534 13.9658 23.9656C13.8865 23.9737 13.7991 23.99 13.7015 24.0144C13.6649 24.0225 13.5429 24.055 13.3335 24.1079L13.7442 25.8057L13.856 25.7793C13.9211 25.765 13.9882 25.7488 14.0512 25.7345C14.1163 25.7162 14.1793 25.6979 14.2403 25.6817C14.3013 25.6613 14.3582 25.643 14.4131 25.6186C14.4659 25.5983 14.5208 25.5759 14.5676 25.5515C14.6143 25.5271 14.6611 25.4987 14.7018 25.4661C14.7424 25.4336 14.779 25.399 14.8115 25.3604C14.8441 25.3218 14.8685 25.2811 14.8868 25.2303C14.9071 25.1794 14.9193 25.1245 14.9315 25.0696C14.9376 25.0127 14.9396 24.9476 14.9356 24.8744C14.9315 24.8012 14.9173 24.724 14.8969 24.6406C14.8603 24.4922 14.8075 24.3661 14.7384 24.2665H14.7404ZM38.6627 24.724C38.5143 24.6365 38.3313 24.6203 38.1178 24.6711L37.6787 24.7768L37.9857 26.0477L38.2053 25.9948C38.3272 25.9643 38.4391 25.9277 38.5326 25.885C38.6281 25.8423 38.7155 25.7854 38.7948 25.7162C38.8721 25.6491 38.927 25.5678 38.9575 25.4682C38.9859 25.3665 38.9859 25.2567 38.9575 25.1367C38.9107 24.9456 38.8152 24.8094 38.6647 24.724H38.6627ZM38.6627 24.724C38.5143 24.6365 38.3313 24.6203 38.1178 24.6711L37.6787 24.7768L37.9857 26.0477L38.2053 25.9948C38.3272 25.9643 38.4391 25.9277 38.5326 25.885C38.6281 25.8423 38.7155 25.7854 38.7948 25.7162C38.8721 25.6491 38.927 25.5678 38.9575 25.4682C38.9859 25.3665 38.9859 25.2567 38.9575 25.1367C38.9107 24.9456 38.8152 24.8094 38.6647 24.724H38.6627ZM14.7404 24.2665C14.6692 24.1689 14.592 24.0957 14.5127 24.053C14.4334 24.0083 14.3419 23.9798 14.2403 23.9676C14.1346 23.9554 14.0451 23.9534 13.9658 23.9656C13.8865 23.9737 13.7991 23.99 13.7015 24.0144C13.6649 24.0225 13.5429 24.055 13.3335 24.1079L13.7442 25.8057L13.856 25.7793C13.9211 25.765 13.9882 25.7488 14.0512 25.7345C14.1163 25.7162 14.1793 25.6979 14.2403 25.6817C14.3013 25.6613 14.3582 25.643 14.4131 25.6186C14.4659 25.5983 14.5208 25.5759 14.5676 25.5515C14.6143 25.5271 14.6611 25.4987 14.7018 25.4661C14.7424 25.4336 14.779 25.399 14.8115 25.3604C14.8441 25.3218 14.8685 25.2811 14.8868 25.2303C14.9071 25.1794 14.9193 25.1245 14.9315 25.0696C14.9376 25.0127 14.9396 24.9476 14.9356 24.8744C14.9315 24.8012 14.9173 24.724 14.8969 24.6406C14.8603 24.4922 14.8075 24.3661 14.7384 24.2665H14.7404ZM13.8032 21.1698C13.6365 21.0844 13.4616 21.0641 13.2766 21.1088L12.6484 21.2613L13.0205 22.8025L13.2258 22.7537C13.4006 22.711 13.547 22.6663 13.6548 22.6195C13.7666 22.5748 13.8703 22.5118 13.9699 22.4284C14.0695 22.345 14.1325 22.2393 14.161 22.1071C14.1874 21.975 14.1793 21.8204 14.1346 21.6374C14.0797 21.4138 13.9719 21.2592 13.8052 21.1718L13.8032 21.1698ZM13.8032 21.1698C13.6365 21.0844 13.4616 21.0641 13.2766 21.1088L12.6484 21.2613L13.0205 22.8025L13.2258 22.7537C13.4006 22.711 13.547 22.6663 13.6548 22.6195C13.7666 22.5748 13.8703 22.5118 13.9699 22.4284C14.0695 22.345 14.1325 22.2393 14.161 22.1071C14.1874 21.975 14.1793 21.8204 14.1346 21.6374C14.0797 21.4138 13.9719 21.2592 13.8052 21.1718L13.8032 21.1698ZM14.7404 24.2665C14.6692 24.1689 14.592 24.0957 14.5127 24.053C14.4334 24.0083 14.3419 23.9798 14.2403 23.9676C14.1346 23.9554 14.0451 23.9534 13.9658 23.9656C13.8865 23.9737 13.7991 23.99 13.7015 24.0144C13.6649 24.0225 13.5429 24.055 13.3335 24.1079L13.7442 25.8057L13.856 25.7793C13.9211 25.765 13.9882 25.7488 14.0512 25.7345C14.1163 25.7162 14.1793 25.6979 14.2403 25.6817C14.3013 25.6613 14.3582 25.643 14.4131 25.6186C14.4659 25.5983 14.5208 25.5759 14.5676 25.5515C14.6143 25.5271 14.6611 25.4987 14.7018 25.4661C14.7424 25.4336 14.779 25.399 14.8115 25.3604C14.8441 25.3218 14.8685 25.2811 14.8868 25.2303C14.9071 25.1794 14.9193 25.1245 14.9315 25.0696C14.9376 25.0127 14.9396 24.9476 14.9356 24.8744C14.9315 24.8012 14.9173 24.724 14.8969 24.6406C14.8603 24.4922 14.8075 24.3661 14.7384 24.2665H14.7404ZM38.6627 24.724C38.5143 24.6365 38.3313 24.6203 38.1178 24.6711L37.6787 24.7768L37.9857 26.0477L38.2053 25.9948C38.3272 25.9643 38.4391 25.9277 38.5326 25.885C38.6281 25.8423 38.7155 25.7854 38.7948 25.7162C38.8721 25.6491 38.927 25.5678 38.9575 25.4682C38.9859 25.3665 38.9859 25.2567 38.9575 25.1367C38.9107 24.9456 38.8152 24.8094 38.6647 24.724H38.6627ZM38.6627 24.724C38.5143 24.6365 38.3313 24.6203 38.1178 24.6711L37.6787 24.7768L37.9857 26.0477L38.2053 25.9948C38.3272 25.9643 38.4391 25.9277 38.5326 25.885C38.6281 25.8423 38.7155 25.7854 38.7948 25.7162C38.8721 25.6491 38.927 25.5678 38.9575 25.4682C38.9859 25.3665 38.9859 25.2567 38.9575 25.1367C38.9107 24.9456 38.8152 24.8094 38.6647 24.724H38.6627ZM14.7404 24.2665C14.6692 24.1689 14.592 24.0957 14.5127 24.053C14.4334 24.0083 14.3419 23.9798 14.2403 23.9676C14.1346 23.9554 14.0451 23.9534 13.9658 23.9656C13.8865 23.9737 13.7991 23.99 13.7015 24.0144C13.6649 24.0225 13.5429 24.055 13.3335 24.1079L13.7442 25.8057L13.856 25.7793C13.9211 25.765 13.9882 25.7488 14.0512 25.7345C14.1163 25.7162 14.1793 25.6979 14.2403 25.6817C14.3013 25.6613 14.3582 25.643 14.4131 25.6186C14.4659 25.5983 14.5208 25.5759 14.5676 25.5515C14.6143 25.5271 14.6611 25.4987 14.7018 25.4661C14.7424 25.4336 14.779 25.399 14.8115 25.3604C14.8441 25.3218 14.8685 25.2811 14.8868 25.2303C14.9071 25.1794 14.9193 25.1245 14.9315 25.0696C14.9376 25.0127 14.9396 24.9476 14.9356 24.8744C14.9315 24.8012 14.9173 24.724 14.8969 24.6406C14.8603 24.4922 14.8075 24.3661 14.7384 24.2665H14.7404ZM13.6548 22.6195C13.7666 22.5748 13.8703 22.5118 13.9699 22.4284C14.0695 22.345 14.1325 22.2393 14.161 22.1071C14.1874 21.975 14.1793 21.8204 14.1346 21.6374C14.0797 21.4138 13.9719 21.2592 13.8052 21.1718C13.6385 21.0864 13.4637 21.0661 13.2787 21.1108L12.6505 21.2633L13.0225 22.8046L13.2278 22.7558C13.4027 22.7131 13.549 22.6683 13.6568 22.6216L13.6548 22.6195ZM20.3474 5.74928C9.73107 8.31326 3.18075 19.0389 5.74436 29.6568C8.30797 40.2726 19.032 46.8259 29.6484 44.2599C40.2627 41.6959 46.817 30.9703 44.2534 20.3544C41.6898 9.73453 30.9637 3.18326 20.3494 5.74724L20.3474 5.74928ZM37.3595 13.4351L38.1524 16.7148L36.7496 17.0544L36.0726 15.6067L35.542 15.7348L36.6399 20.2772L37.4592 20.0799L37.8922 21.8753L33.444 22.9489L33.011 21.1535L33.8302 20.9563L32.7324 16.4139L32.2343 16.5339L32.2811 18.1341L30.8783 18.4736L30.0855 15.1939L37.3575 13.4372L37.3595 13.4351ZM26.9242 10.9321L27.2047 9.60237L28.0606 10.6576L29.4125 10.5153L28.6725 11.656L29.2275 12.8983L27.9142 12.5466L26.9059 13.4575L26.8327 12.0972L25.6535 11.4201L26.9221 10.9301L26.9242 10.9321ZM27.8349 16.0459C27.839 16.0011 27.8695 15.8893 27.9244 15.7084L29.3455 15.3647L29.9676 17.9389L28.4347 18.3089C28.3127 18.0649 28.1236 17.8657 27.8695 17.7193C27.6174 17.5688 27.3633 17.5221 27.1153 17.583C26.9689 17.6176 26.8611 17.6847 26.7981 17.7823C26.733 17.8799 26.7188 18.0039 26.7554 18.1564C26.7798 18.2561 26.8408 18.3313 26.9404 18.3862C27.04 18.4391 27.164 18.4757 27.3165 18.494C27.469 18.5123 27.6438 18.5265 27.837 18.5367C28.0321 18.5428 28.2375 18.557 28.457 18.5773C28.6746 18.5997 28.8962 18.6302 29.1178 18.6709C29.3414 18.7095 29.5589 18.7786 29.7764 18.8783C29.996 18.982 30.1993 19.108 30.3863 19.2605C30.5754 19.413 30.7482 19.6184 30.9027 19.8807C31.0593 20.1389 31.1833 20.4398 31.2727 20.7855C31.3622 21.123 31.3886 21.4666 31.352 21.8164C31.3134 22.1681 31.2239 22.4914 31.0796 22.7903C30.9353 23.0912 30.7299 23.3515 30.4616 23.5772C30.1952 23.8029 29.8842 23.9554 29.5366 24.0408C29.1767 24.1282 28.8677 24.1547 28.6095 24.1201C28.3493 24.0855 28.0626 23.992 27.7495 23.8354L27.6784 24.3377L26.0662 24.726L25.4421 22.1397L27.0482 21.7513C27.1945 21.9729 27.3999 22.1519 27.6682 22.28C27.9346 22.4121 28.1907 22.4467 28.4347 22.3877C28.581 22.3532 28.699 22.2861 28.7884 22.1844C28.8779 22.0827 28.9084 21.9648 28.8758 21.8265C28.8494 21.7127 28.7864 21.6252 28.6949 21.5622C28.6034 21.4971 28.5099 21.4585 28.4184 21.4422C28.3249 21.4239 28.2131 21.4158 28.083 21.4117C27.8736 21.4036 27.6886 21.3914 27.528 21.3812C27.3673 21.369 27.1925 21.3507 27.0075 21.3243C26.8225 21.2999 26.6578 21.2694 26.5135 21.2328C26.3691 21.1942 26.2167 21.1454 26.0622 21.0844C25.9076 21.0234 25.7674 20.9543 25.6474 20.8729C25.5254 20.7916 25.4055 20.696 25.2876 20.5822C25.1676 20.4683 25.064 20.3402 24.9745 20.2019C24.885 20.0596 24.8017 19.899 24.7224 19.718C24.6452 19.537 24.5821 19.3358 24.5293 19.1162C24.3382 18.3232 24.3788 17.6461 24.6533 17.0849C24.9277 16.5217 25.436 16.1516 26.178 15.9727C26.8205 15.8182 27.3755 15.8426 27.8431 16.0459H27.8349ZM25.0009 27.841L24.6939 26.5661L27.841 25.8057L28.148 27.0806L27.5889 27.2148L28.3859 30.5189L29.0791 30.3521L29.0873 29.0061L30.1241 28.756L30.7442 31.3261L26.1313 32.4403L25.8141 31.139L26.3325 31.013L25.5356 27.7089L25.0009 27.839V27.841ZM20.0241 29.0427L19.7172 27.7678L22.8643 27.0074L23.1712 28.2822L22.6122 28.4164L23.4091 31.7205L24.1003 31.5538L24.1084 30.2078L25.1453 29.9577L25.7653 32.5278L21.1545 33.642L20.8353 32.3427L21.3537 32.2167L20.5568 28.9126L20.0241 29.0407V29.0427ZM18.8145 26.4787L18.3815 24.6874L19.1703 24.4963L18.0725 19.9498L17.2837 20.1409L16.8588 18.3801L23.1855 16.8511L23.9743 20.1145L22.6386 20.4419L21.8965 19.0267L20.8333 19.2829L21.1728 20.6899L22.1934 20.4439L22.6183 22.2007L21.5977 22.4467L21.9311 23.8293L23.0228 23.565L23.0147 23.2437L23.0086 21.8347L24.3707 21.5053L25.1981 24.9334L18.8165 26.4746L18.8145 26.4787ZM21.0691 11.5726L21.4655 9.69793L22.6731 11.1863L24.5801 10.983L23.5392 12.5933L24.3219 14.342L22.4698 13.8479L21.0488 15.1329L20.9431 13.2196L19.2841 12.2619L21.0711 11.5726H21.0691ZM16.0313 13.5612L16.3139 12.2314L17.1698 13.2867L18.5218 13.1444L17.7818 14.285L18.3368 15.5274L17.0234 15.1756L16.013 16.0886L15.9399 14.7283L14.7607 14.0512L16.0293 13.5612H16.0313ZM10.2536 26.6515L11.1135 26.4441L10.0198 21.8957L9.1903 22.0949L8.7654 20.3382L12.8253 19.352C13.2299 19.2544 13.5897 19.1853 13.9069 19.1446C14.224 19.106 14.531 19.0999 14.8258 19.1263C15.1226 19.1548 15.3808 19.2239 15.5902 19.3398C15.8036 19.4516 15.9886 19.6204 16.1472 19.842C16.3058 20.0637 16.4257 20.3402 16.5071 20.6757C16.6067 21.0884 16.5802 21.4788 16.4298 21.8469C16.2794 22.2169 16.0395 22.5118 15.7122 22.7375V22.7476C16.2468 22.77 16.6941 22.9286 17.0539 23.2234C17.4138 23.5182 17.6618 23.9432 17.796 24.5044C17.8854 24.8785 17.8915 25.2181 17.8122 25.5292C17.733 25.8403 17.5764 26.1087 17.3487 26.3343C17.119 26.558 16.8425 26.7532 16.5172 26.9118C16.1899 27.0704 15.8118 27.2026 15.3828 27.3063L10.6825 28.4408L10.2495 26.6495L10.2536 26.6515ZM15.1226 33.9145C15.0941 34.1686 15.0291 34.4045 14.9234 34.6221C14.8176 34.8396 14.6692 35.0267 14.4741 35.1914C14.2789 35.3561 14.0553 35.4659 13.8011 35.5269C13.5409 35.5899 13.3173 35.6102 13.1262 35.5858C12.9391 35.5594 12.7318 35.4903 12.5041 35.3764L12.4533 35.7424L11.2843 36.025L10.8309 34.1483L11.9979 33.8657C12.1036 34.0263 12.254 34.1524 12.4472 34.25C12.6403 34.3455 12.8253 34.3699 13.0022 34.3272C13.1079 34.3008 13.1953 34.252 13.2604 34.1788C13.3274 34.1056 13.3478 34.0202 13.3234 33.9206C13.3031 33.8392 13.2604 33.7742 13.1933 33.7274C13.1262 33.6806 13.0611 33.6522 12.994 33.64C12.9249 33.6278 12.8436 33.6196 12.748 33.6176C12.5956 33.6115 12.4614 33.6034 12.3455 33.5952C12.2276 33.5851 12.1036 33.5729 11.9653 33.5546C11.8312 33.5363 11.7092 33.5119 11.6075 33.4854C11.5018 33.457 11.3941 33.4224 11.2802 33.3777C11.1684 33.3329 11.0668 33.2821 10.9773 33.2232C10.8899 33.1662 10.8004 33.0951 10.715 33.0137C10.6276 32.9304 10.5524 32.8389 10.4873 32.7352C10.4223 32.6335 10.3613 32.5176 10.3064 32.3854C10.2495 32.2512 10.2007 32.1069 10.1621 31.9483C10.0238 31.3729 10.0543 30.8808 10.2536 30.4701C10.4508 30.0634 10.8208 29.793 11.3595 29.6629C11.8271 29.549 12.2296 29.5693 12.5712 29.7178C12.5732 29.6873 12.5956 29.6059 12.6342 29.4738L13.6649 29.2257L14.1163 31.0963L13.0062 31.3647C12.9168 31.1858 12.7785 31.0414 12.5935 30.9337C12.4085 30.8259 12.2256 30.7934 12.0446 30.8361C11.9389 30.8625 11.8637 30.9072 11.8129 30.9784C11.7661 31.0516 11.758 31.139 11.7844 31.2509C11.8027 31.3241 11.8454 31.379 11.9186 31.4176C11.9897 31.4562 12.0833 31.4847 12.193 31.4989C12.3028 31.5131 12.4289 31.5213 12.5691 31.5274C12.7094 31.5335 12.8578 31.5436 13.0184 31.5599C13.177 31.5741 13.3356 31.5985 13.4982 31.625C13.6609 31.6555 13.8194 31.7063 13.98 31.7795C14.1366 31.8507 14.285 31.9422 14.4212 32.056C14.5574 32.1679 14.6835 32.3163 14.7973 32.5054C14.9091 32.6945 14.9986 32.9141 15.0636 33.1662C15.1287 33.4102 15.147 33.6603 15.1226 33.9145ZM15.5759 33.6135L16.1493 33.4753L15.3523 30.1712L14.779 30.3094L14.47 29.0325L19.0646 27.9224L19.6358 30.2911L18.6661 30.5311L18.1274 29.5002L17.3569 29.6873L17.6049 30.712L18.3469 30.5331L18.6539 31.808L17.9119 31.9869L18.1538 32.9914L18.9467 32.8002L18.9406 32.5664L18.9324 31.5436L19.9225 31.3037L20.5243 33.7945L15.889 34.9149L15.5739 33.6135H15.5759ZM23.2607 38.5016L22.9801 39.8334L22.1202 38.7761L20.7682 38.9225L21.5062 37.7798L20.9512 36.5374L22.2665 36.8871L23.2749 35.9762L23.3481 37.3365L24.5272 38.0156L23.2587 38.5036L23.2607 38.5016ZM29.1157 37.8591L28.7193 39.7338L27.5117 38.2454L25.6068 38.4487L26.6456 36.8404L25.865 35.0877L27.715 35.5818L29.1381 34.2967L29.2418 36.2121L30.9027 37.1677L29.1137 37.857L29.1157 37.8591ZM34.1535 35.8705L33.8729 37.2023L33.015 36.145L31.6631 36.2914L32.4011 35.1487L31.846 33.9063L33.1594 34.2581L34.1677 33.3472L34.2409 34.7075L35.4201 35.3866L34.1515 35.8746L34.1535 35.8705ZM35.7108 30.1264L31.0755 31.2468L30.7604 29.9455L31.3337 29.8072L30.5368 26.5031L29.9635 26.6414L29.6545 25.3645L34.2511 24.2543L34.8224 26.6231L33.8526 26.863L33.3098 25.8342L32.5393 26.0212L32.7873 27.046L33.5294 26.8671L33.8363 28.1419L33.0943 28.3209L33.3362 29.3253L34.1291 29.1342L34.123 28.9004L34.1189 27.8756L35.107 27.6377L35.7087 30.1285L35.7108 30.1264ZM41.2548 28.7865C41.1612 28.8089 41.086 28.8251 41.0332 28.8373C40.9762 28.8475 40.9051 28.8638 40.8136 28.88C40.7201 28.8983 40.6469 28.9085 40.5879 28.9085C40.531 28.9126 40.4578 28.9126 40.3785 28.9085C40.2972 28.9044 40.2281 28.8943 40.1752 28.876C40.1203 28.8556 40.0614 28.8292 39.9984 28.7967C39.9353 28.7601 39.8825 28.7174 39.8398 28.6645C39.7971 28.6116 39.7544 28.5445 39.7158 28.4652C39.6772 28.388 39.6446 28.2985 39.6202 28.2009L39.4495 27.4933C39.4149 27.351 39.3763 27.2351 39.3397 27.1416C39.301 27.0521 39.2482 26.9667 39.1831 26.8915C39.1201 26.8183 39.0347 26.7695 38.9331 26.7512C38.8314 26.7329 38.7094 26.741 38.5651 26.7756L38.2114 26.861L38.5041 28.0748L38.9432 27.9691L39.2584 29.2704C38.62 29.425 37.6421 29.6608 36.3227 29.9821L36.0076 28.6787L36.5667 28.5445L35.7697 25.2404L35.2086 25.3767L34.8996 24.0998L38.5753 23.2112C38.8741 23.14 39.1445 23.1055 39.3864 23.1075C39.6263 23.1116 39.852 23.1543 40.0533 23.2397C40.2566 23.323 40.4294 23.4633 40.5696 23.6565C40.712 23.8456 40.8177 24.0937 40.8888 24.3905C40.9742 24.7402 40.9295 25.0554 40.7567 25.336C40.5859 25.6146 40.3033 25.8443 39.9049 26.0212C40.285 26.0151 40.5696 26.07 40.7587 26.1798C40.9518 26.2896 41.0718 26.4563 41.1267 26.678L41.208 27.0155C41.2243 27.0846 41.2426 27.1395 41.2649 27.1782C41.2853 27.2168 41.3178 27.2493 41.3666 27.2778C41.4133 27.3042 41.4804 27.3164 41.5658 27.3144C41.6492 27.3103 41.7589 27.2941 41.8952 27.2615L42.2103 28.5628L41.2609 28.7926L41.2548 28.7865ZM38.1199 24.6711L37.6808 24.7768L37.9877 26.0477L38.2073 25.9948C38.3293 25.9643 38.4411 25.9277 38.5346 25.885C38.6302 25.8423 38.7176 25.7854 38.7969 25.7162C38.8741 25.6491 38.929 25.5678 38.9595 25.4682C38.988 25.3665 38.988 25.2567 38.9595 25.1367C38.9127 24.9456 38.8172 24.8094 38.6668 24.724C38.5183 24.6365 38.3354 24.6203 38.1219 24.6711H38.1199ZM14.9376 25.0696C14.9437 25.0127 14.9457 24.9476 14.9417 24.8744C14.9376 24.8012 14.9234 24.724 14.903 24.6406C14.8664 24.4922 14.8136 24.3661 14.7444 24.2665C14.6733 24.1689 14.596 24.0957 14.5168 24.053C14.4375 24.0083 14.346 23.9798 14.2443 23.9676C14.1386 23.9554 14.0492 23.9534 13.9699 23.9656C13.8906 23.9737 13.8032 23.99 13.7056 24.0144C13.669 24.0225 13.547 24.055 13.3376 24.1079L13.7483 25.8057L13.8601 25.7793C13.9252 25.765 13.9922 25.7488 14.0553 25.7345C14.1203 25.7162 14.1833 25.6979 14.2443 25.6817C14.3053 25.6613 14.3622 25.643 14.4171 25.6186C14.47 25.5983 14.5249 25.5759 14.5716 25.5515C14.6184 25.5271 14.6652 25.4987 14.7058 25.4661C14.7465 25.4336 14.7831 25.399 14.8156 25.3604C14.8481 25.3218 14.8725 25.2811 14.8908 25.2303C14.9112 25.1794 14.9234 25.1245 14.9356 25.0696H14.9376ZM13.6568 22.6195C13.7686 22.5748 13.8723 22.5118 13.9719 22.4284C14.0715 22.345 14.1345 22.2393 14.163 22.1071C14.1894 21.975 14.1813 21.8204 14.1366 21.6374C14.0817 21.4138 13.9739 21.2592 13.8072 21.1718C13.6405 21.0864 13.4657 21.0661 13.2807 21.1108L12.6525 21.2633L13.0245 22.8046L13.2299 22.7558C13.4047 22.7131 13.5511 22.6683 13.6588 22.6216L13.6568 22.6195ZM13.8072 21.1698C13.6405 21.0844 13.4657 21.0641 13.2807 21.1088L12.6525 21.2613L13.0245 22.8025L13.2299 22.7537C13.4047 22.711 13.5511 22.6663 13.6588 22.6195C13.7706 22.5748 13.8743 22.5118 13.9739 22.4284C14.0736 22.345 14.1366 22.2393 14.165 22.1071C14.1915 21.975 14.1833 21.8204 14.1386 21.6374C14.0837 21.4138 13.976 21.2592 13.8093 21.1718L13.8072 21.1698ZM14.7444 24.2665C14.6733 24.1689 14.596 24.0957 14.5168 24.053C14.4375 24.0083 14.346 23.9798 14.2443 23.9676C14.1386 23.9554 14.0492 23.9534 13.9699 23.9656C13.8906 23.9737 13.8032 23.99 13.7056 24.0144C13.669 24.0225 13.547 24.055 13.3376 24.1079L13.7483 25.8057L13.8601 25.7793C13.9252 25.765 13.9922 25.7488 14.0553 25.7345C14.1203 25.7162 14.1833 25.6979 14.2443 25.6817C14.3053 25.6613 14.3622 25.643 14.4171 25.6186C14.47 25.5983 14.5249 25.5759 14.5716 25.5515C14.6184 25.5271 14.6652 25.4987 14.7058 25.4661C14.7465 25.4336 14.7831 25.399 14.8156 25.3604C14.8481 25.3218 14.8725 25.2811 14.8908 25.2303C14.9112 25.1794 14.9234 25.1245 14.9356 25.0696C14.9417 25.0127 14.9437 24.9476 14.9396 24.8744C14.9356 24.8012 14.9213 24.724 14.901 24.6406C14.8644 24.4922 14.8115 24.3661 14.7424 24.2665H14.7444ZM38.6668 24.724C38.5183 24.6365 38.3354 24.6203 38.1219 24.6711L37.6828 24.7768L37.9898 26.0477L38.2093 25.9948C38.3313 25.9643 38.4431 25.9277 38.5366 25.885C38.6322 25.8423 38.7196 25.7854 38.7989 25.7162C38.8762 25.6491 38.931 25.5678 38.9615 25.4682C38.99 25.3665 38.99 25.2567 38.9615 25.1367C38.9148 24.9456 38.8192 24.8094 38.6688 24.724H38.6668ZM38.6668 24.724C38.5183 24.6365 38.3354 24.6203 38.1219 24.6711L37.6828 24.7768L37.9898 26.0477L38.2093 25.9948C38.3313 25.9643 38.4431 25.9277 38.5366 25.885C38.6322 25.8423 38.7196 25.7854 38.7989 25.7162C38.8762 25.6491 38.931 25.5678 38.9615 25.4682C38.99 25.3665 38.99 25.2567 38.9615 25.1367C38.9148 24.9456 38.8192 24.8094 38.6688 24.724H38.6668ZM14.7444 24.2665C14.6733 24.1689 14.596 24.0957 14.5168 24.053C14.4375 24.0083 14.346 23.9798 14.2443 23.9676C14.1386 23.9554 14.0492 23.9534 13.9699 23.9656C13.8906 23.9737 13.8032 23.99 13.7056 24.0144C13.669 24.0225 13.547 24.055 13.3376 24.1079L13.7483 25.8057L13.8601 25.7793C13.9252 25.765 13.9922 25.7488 14.0553 25.7345C14.1203 25.7162 14.1833 25.6979 14.2443 25.6817C14.3053 25.6613 14.3622 25.643 14.4171 25.6186C14.47 25.5983 14.5249 25.5759 14.5716 25.5515C14.6184 25.5271 14.6652 25.4987 14.7058 25.4661C14.7465 25.4336 14.7831 25.399 14.8156 25.3604C14.8481 25.3218 14.8725 25.2811 14.8908 25.2303C14.9112 25.1794 14.9234 25.1245 14.9356 25.0696C14.9417 25.0127 14.9437 24.9476 14.9396 24.8744C14.9356 24.8012 14.9213 24.724 14.901 24.6406C14.8644 24.4922 14.8115 24.3661 14.7424 24.2665H14.7444ZM13.8072 21.1698C13.6405 21.0844 13.4657 21.0641 13.2807 21.1088L12.6525 21.2613L13.0245 22.8025L13.2299 22.7537C13.4047 22.711 13.5511 22.6663 13.6588 22.6195C13.7706 22.5748 13.8743 22.5118 13.9739 22.4284C14.0736 22.345 14.1366 22.2393 14.165 22.1071C14.1915 21.975 14.1833 21.8204 14.1386 21.6374C14.0837 21.4138 13.976 21.2592 13.8093 21.1718L13.8072 21.1698ZM13.8072 21.1698C13.6405 21.0844 13.4657 21.0641 13.2807 21.1088L12.6525 21.2613L13.0245 22.8025L13.2299 22.7537C13.4047 22.711 13.5511 22.6663 13.6588 22.6195C13.7706 22.5748 13.8743 22.5118 13.9739 22.4284C14.0736 22.345 14.1366 22.2393 14.165 22.1071C14.1915 21.975 14.1833 21.8204 14.1386 21.6374C14.0837 21.4138 13.976 21.2592 13.8093 21.1718L13.8072 21.1698ZM14.7444 24.2665C14.6733 24.1689 14.596 24.0957 14.5168 24.053C14.4375 24.0083 14.346 23.9798 14.2443 23.9676C14.1386 23.9554 14.0492 23.9534 13.9699 23.9656C13.8906 23.9737 13.8032 23.99 13.7056 24.0144C13.669 24.0225 13.547 24.055 13.3376 24.1079L13.7483 25.8057L13.8601 25.7793C13.9252 25.765 13.9922 25.7488 14.0553 25.7345C14.1203 25.7162 14.1833 25.6979 14.2443 25.6817C14.3053 25.6613 14.3622 25.643 14.4171 25.6186C14.47 25.5983 14.5249 25.5759 14.5716 25.5515C14.6184 25.5271 14.6652 25.4987 14.7058 25.4661C14.7465 25.4336 14.7831 25.399 14.8156 25.3604C14.8481 25.3218 14.8725 25.2811 14.8908 25.2303C14.9112 25.1794 14.9234 25.1245 14.9356 25.0696C14.9417 25.0127 14.9437 24.9476 14.9396 24.8744C14.9356 24.8012 14.9213 24.724 14.901 24.6406C14.8644 24.4922 14.8115 24.3661 14.7424 24.2665H14.7444ZM38.6668 24.724C38.5183 24.6365 38.3354 24.6203 38.1219 24.6711L37.6828 24.7768L37.9898 26.0477L38.2093 25.9948C38.3313 25.9643 38.4431 25.9277 38.5366 25.885C38.6322 25.8423 38.7196 25.7854 38.7989 25.7162C38.8762 25.6491 38.931 25.5678 38.9615 25.4682C38.99 25.3665 38.99 25.2567 38.9615 25.1367C38.9148 24.9456 38.8192 24.8094 38.6688 24.724H38.6668ZM38.6668 24.724C38.5183 24.6365 38.3354 24.6203 38.1219 24.6711L37.6828 24.7768L37.9898 26.0477L38.2093 25.9948C38.3313 25.9643 38.4431 25.9277 38.5366 25.885C38.6322 25.8423 38.7196 25.7854 38.7989 25.7162C38.8762 25.6491 38.931 25.5678 38.9615 25.4682C38.99 25.3665 38.99 25.2567 38.9615 25.1367C38.9148 24.9456 38.8192 24.8094 38.6688 24.724H38.6668ZM14.7444 24.2665C14.6733 24.1689 14.596 24.0957 14.5168 24.053C14.4375 24.0083 14.346 23.9798 14.2443 23.9676C14.1386 23.9554 14.0492 23.9534 13.9699 23.9656C13.8906 23.9737 13.8032 23.99 13.7056 24.0144C13.669 24.0225 13.547 24.055 13.3376 24.1079L13.7483 25.8057L13.8601 25.7793C13.9252 25.765 13.9922 25.7488 14.0553 25.7345C14.1203 25.7162 14.1833 25.6979 14.2443 25.6817C14.3053 25.6613 14.3622 25.643 14.4171 25.6186C14.47 25.5983 14.5249 25.5759 14.5716 25.5515C14.6184 25.5271 14.6652 25.4987 14.7058 25.4661C14.7465 25.4336 14.7831 25.399 14.8156 25.3604C14.8481 25.3218 14.8725 25.2811 14.8908 25.2303C14.9112 25.1794 14.9234 25.1245 14.9356 25.0696C14.9417 25.0127 14.9437 24.9476 14.9396 24.8744C14.9356 24.8012 14.9213 24.724 14.901 24.6406C14.8644 24.4922 14.8115 24.3661 14.7424 24.2665H14.7444ZM13.8072 21.1698C13.6405 21.0844 13.4657 21.0641 13.2807 21.1088L12.6525 21.2613L13.0245 22.8025L13.2299 22.7537C13.4047 22.711 13.5511 22.6663 13.6588 22.6195C13.7706 22.5748 13.8743 22.5118 13.9739 22.4284C14.0736 22.345 14.1366 22.2393 14.165 22.1071C14.1915 21.975 14.1833 21.8204 14.1386 21.6374C14.0837 21.4138 13.976 21.2592 13.8093 21.1718L13.8072 21.1698ZM13.8072 21.1698C13.6405 21.0844 13.4657 21.0641 13.2807 21.1088L12.6525 21.2613L13.0245 22.8025L13.2299 22.7537C13.4047 22.711 13.5511 22.6663 13.6588 22.6195C13.7706 22.5748 13.8743 22.5118 13.9739 22.4284C14.0736 22.345 14.1366 22.2393 14.165 22.1071C14.1915 21.975 14.1833 21.8204 14.1386 21.6374C14.0837 21.4138 13.976 21.2592 13.8093 21.1718L13.8072 21.1698ZM14.7444 24.2665C14.6733 24.1689 14.596 24.0957 14.5168 24.053C14.4375 24.0083 14.346 23.9798 14.2443 23.9676C14.1386 23.9554 14.0492 23.9534 13.9699 23.9656C13.8906 23.9737 13.8032 23.99 13.7056 24.0144C13.669 24.0225 13.547 24.055 13.3376 24.1079L13.7483 25.8057L13.8601 25.7793C13.9252 25.765 13.9922 25.7488 14.0553 25.7345C14.1203 25.7162 14.1833 25.6979 14.2443 25.6817C14.3053 25.6613 14.3622 25.643 14.4171 25.6186C14.47 25.5983 14.5249 25.5759 14.5716 25.5515C14.6184 25.5271 14.6652 25.4987 14.7058 25.4661C14.7465 25.4336 14.7831 25.399 14.8156 25.3604C14.8481 25.3218 14.8725 25.2811 14.8908 25.2303C14.9112 25.1794 14.9234 25.1245 14.9356 25.0696C14.9417 25.0127 14.9437 24.9476 14.9396 24.8744C14.9356 24.8012 14.9213 24.724 14.901 24.6406C14.8644 24.4922 14.8115 24.3661 14.7424 24.2665H14.7444ZM38.6668 24.724C38.5183 24.6365 38.3354 24.6203 38.1219 24.6711L37.6828 24.7768L37.9898 26.0477L38.2093 25.9948C38.3313 25.9643 38.4431 25.9277 38.5366 25.885C38.6322 25.8423 38.7196 25.7854 38.7989 25.7162C38.8762 25.6491 38.931 25.5678 38.9615 25.4682C38.99 25.3665 38.99 25.2567 38.9615 25.1367C38.9148 24.9456 38.8192 24.8094 38.6688 24.724H38.6668Z" fill="#E30D16"/>
</g>
</g>
</svg>
