<svg width="33" height="32" viewBox="0 0 33 32" fill="none" xmlns="http://www.w3.org/2000/svg">
<g id="best-seller">
<g id="Group">
<path id="Vector" d="M16.5 1.375C8.04313 1.375 1.1875 8.23063 1.1875 16.6875C1.1875 17.1084 1.20519 17.5252 1.2385 17.9375L1.42537 18H31.5668L31.7615 17.9375C31.7948 17.5252 31.8125 17.1084 31.8125 16.6875C31.8125 8.23063 24.9569 1.375 16.5 1.375Z" fill="#D8ECFE"/>
<g id="Group_2">
<g id="Group_3">
<path id="Vector_2" d="M13.7681 8.07032C13.7681 7.93245 13.8802 7.82032 14.0181 7.82032H18.6744V3.67982C18.6744 3.51407 18.5401 3.37976 18.3744 3.37976H10.3071C10.3105 3.44295 10.3125 3.50651 10.3125 3.57051C10.3125 5.50482 8.73881 7.07851 6.8045 7.07851C6.31981 7.07851 5.85781 6.97964 5.4375 6.80114V18H13.7681V8.07032Z" fill="#EA9B58"/>
<g id="Group_4">
<path id="Vector_3" d="M6.92275 10.7118C6.85388 10.6558 6.75519 10.6558 6.68631 10.7118L5.4375 11.7263V17.9376H7.38806V11.0898L6.92275 10.7118Z" fill="#D88A55"/>
</g>
<path id="Vector_4" d="M10.3071 3.37976C10.3105 3.44295 10.3125 3.50651 10.3125 3.57051C10.3125 4.00851 10.2311 4.4277 10.0838 4.8147V6.66551C10.0838 6.83126 10.2182 6.96557 10.3839 6.96557H13.7281C13.8939 6.96557 14.0282 6.8312 14.0282 6.66551V3.37976H10.3071Z" fill="#F6A96C"/>
</g>
<g id="Group_5">
<g id="Group_6">
<path id="Vector_5" d="M11.9464 19.8433C11.9464 20.1952 12.2327 20.4815 12.5847 20.4815H13.7681V17.9375H11.9465L11.9464 19.8433Z" fill="#4FC123"/>
<path id="Vector_6" d="M26.9942 27.7516H18.5558C18.5579 27.7773 18.5597 27.803 18.5597 27.8292V27.8997C18.5597 28.4374 18.1222 28.8749 17.5845 28.8749H14.8424C14.7288 28.8749 14.6154 28.8541 14.5052 28.8132L14.4946 28.8092H11.5726C10.4711 28.8092 9.575 27.9132 9.575 26.8118V17.9375H1.23849C1.87462 25.8096 8.46406 32 16.5 32C20.5737 32 24.2751 30.4084 27.0182 27.8141L26.9942 27.7516Z" fill="#4FC123"/>
</g>
<path id="Vector_7" d="M30.2609 17.9375V23.2905L30.3234 23.2788C31.1069 21.6384 31.6079 19.8371 31.7615 17.9375H30.2609Z" fill="#4FC123"/>
</g>
<path id="Vector_8" d="M30.0109 7.75793H14.0181C13.8455 7.75793 13.7056 7.89787 13.7056 8.07044V20.4816H14.4946L14.5052 20.4777C14.6154 20.4367 14.7287 20.4159 14.8424 20.4159H17.5845C18.1222 20.4159 18.5597 20.8534 18.5597 21.3912V21.4617C18.5597 21.9994 18.1222 22.4369 17.5845 22.4369V22.5619C18.1222 22.5619 18.5597 22.9994 18.5597 23.5372V23.6077C18.5597 23.7473 18.5297 23.8799 18.4767 24.0001H29.8515L30.0002 23.9376C30.1125 23.7294 30.2207 23.5187 30.3234 23.3048V8.07044C30.3234 7.89781 30.1835 7.75793 30.0109 7.75793Z" fill="#FE646F"/>
<g id="Group_7">
<g id="Group_8">
<path id="Vector_9" d="M19.2382 7.82035V5.59804C19.2382 4.06123 20.4885 2.81091 22.0254 2.81091C23.5622 2.81091 24.8125 4.06123 24.8125 5.59804V7.82041H25.75V5.59804C25.75 3.54429 24.0792 1.87341 22.0254 1.87341C19.9716 1.87341 18.3007 3.54429 18.3007 5.59804V7.82041L19.2382 7.82035Z" fill="#FD4755"/>
<path id="Vector_10" d="M14.4834 20.4191C14.5956 20.3773 14.7162 20.3534 14.8424 20.3534H16.5625V8.07044C16.5625 7.89787 16.7024 7.75793 16.875 7.75793H14.0181C13.8455 7.75793 13.7056 7.89787 13.7056 8.07044V20.4191L14.4834 20.4191Z" fill="#FD4755"/>
<path id="Vector_11" d="M18.5011 23.9375C18.3655 24.3132 18.0064 24.5829 17.5845 24.5829V24.7079C18.1222 24.7079 18.5597 25.1454 18.5597 25.6832V25.7537C18.5597 26.2914 18.1222 26.7289 17.5845 26.7289V26.8539C18.1172 26.8539 18.5508 27.2834 18.559 27.8141H27.0192C28.2042 26.6934 29.2103 25.3854 29.9902 23.9375H18.5011Z" fill="#FD4755"/>
</g>
<g id="Group_9">
<path id="Vector_12" d="M22.0145 16.6817C19.9607 16.6817 18.2898 15.0109 18.2898 12.9571V10.375C18.2898 10.1161 18.4996 9.90625 18.7585 9.90625C19.0175 9.90625 19.2273 10.1161 19.2273 10.375V12.9571C19.2273 14.4939 20.4776 15.7443 22.0145 15.7443C23.5513 15.7443 24.8016 14.4939 24.8016 12.9571V10.375C24.8016 10.1161 25.0114 9.90625 25.2704 9.90625C25.5293 9.90625 25.7391 10.1161 25.7391 10.375V12.9571C25.7391 15.0109 24.0683 16.6817 22.0145 16.6817Z" fill="white"/>
</g>
</g>
<g id="Group_10">
<path id="Vector_13" d="M9.575 26.8118V21.8534H7.914V27.4375H9.67594C9.61081 27.2405 9.575 27.0303 9.575 26.8118Z" fill="#FED2A4"/>
<g id="Group_11">
<path id="Vector_14" d="M7.68863 20.5394H1.67638C2.53181 23.8408 4.46088 26.7096 7.06881 28.7513H7.68863C7.84763 28.7513 7.9765 28.6224 7.9765 28.4634V20.8274C7.9765 20.6684 7.84763 20.5394 7.68863 20.5394Z" fill="#0182FC"/>
</g>
<path id="Vector_15" d="M7.68863 20.5394H1.67638C1.85069 21.2121 2.07031 21.8665 2.33044 22.5H7.68863C7.84763 22.5 7.9765 22.6289 7.9765 22.7879V20.8273C7.9765 20.6684 7.84763 20.5394 7.68863 20.5394Z" fill="#0172FB"/>
<path id="Vector_16" d="M13.8671 27.8997V27.8292C13.8671 27.2915 14.3046 26.854 14.8423 26.854V26.729C14.3046 26.729 13.8671 26.2915 13.8671 25.7537V25.6832C13.8671 25.1455 14.3046 24.708 14.8423 24.708V24.583C14.3046 24.583 13.8671 24.1455 13.8671 23.6077V23.5372C13.8671 22.9995 14.3046 22.562 14.8423 22.562V22.437C14.3046 22.437 13.8671 21.9995 13.8671 21.4617V21.3912C13.8671 20.8747 14.2709 20.4519 14.7793 20.4192H12.5847C12.2667 20.4192 12.0089 20.1614 12.0089 19.8434V17.782C12.0089 16.9376 11.3244 16.2532 10.4801 16.2532H9.95049C9.70862 16.2532 9.51256 16.4492 9.51256 16.6911V26.812C9.51256 27.9497 10.4349 28.8721 11.5726 28.8721H14.7793C14.2709 28.839 13.8671 28.4162 13.8671 27.8997Z" fill="#FED2A4"/>
<path id="Vector_17" d="M10.4688 26.8117V16.6909C10.4688 16.5008 10.5902 16.3394 10.7595 16.2789C10.6689 16.2621 10.5756 16.2529 10.4801 16.2529H9.95049C9.70862 16.2529 9.51256 16.449 9.51256 16.6909V26.8117C9.51256 27.9495 10.4349 28.8718 11.5726 28.8718H12.5289C11.3911 28.8718 10.4688 27.9495 10.4688 26.8117Z" fill="#FFBD86"/>
<path id="Vector_18" d="M18.6223 21.4616V21.3911C18.6223 20.8204 18.1553 20.3534 17.5845 20.3534H14.8424C14.2716 20.3534 13.8046 20.8204 13.8046 21.3911V21.4616C13.8046 22.0324 14.2716 22.4994 14.8424 22.4994C14.2716 22.4994 13.8046 22.9664 13.8046 23.5371V23.6076C13.8046 24.1784 14.2716 24.6454 14.8424 24.6454C14.2716 24.6454 13.8046 25.1124 13.8046 25.6831V25.7536C13.8046 26.3244 14.2716 26.7914 14.8424 26.7914C14.2716 26.7914 13.8046 27.2584 13.8046 27.8291V27.8996C13.8046 28.4704 14.2716 28.9374 14.8424 28.9374H17.5845C18.1553 28.9374 18.6223 28.4704 18.6223 27.8996V27.8291C18.6223 27.2584 18.1553 26.7914 17.5845 26.7914C18.1553 26.7914 18.6223 26.3244 18.6223 25.7536V25.6831C18.6223 25.1124 18.1553 24.6454 17.5845 24.6454C18.1553 24.6454 18.6223 24.1784 18.6223 23.6076V23.5371C18.6223 22.9664 18.1553 22.4994 17.5845 22.4994C18.1553 22.4994 18.6223 22.0324 18.6223 21.4616Z" fill="#FFBD86"/>
<g id="Group_12">
<path id="Vector_19" d="M18.2123 21.8335H15.4701C14.8994 21.8335 14.4324 21.3665 14.4324 20.7958V20.7253C14.4324 20.6195 14.4486 20.5173 14.4784 20.4209C14.086 20.5693 13.8046 20.9485 13.8046 21.3911V21.4616C13.8046 22.0323 14.2716 22.4993 14.8424 22.4993H17.5845C18.0494 22.4993 18.4454 22.1894 18.5763 21.766C18.4627 21.8089 18.3403 21.8335 18.2123 21.8335Z" fill="#F6A96C"/>
<path id="Vector_20" d="M18.2123 23.9999H15.4701C14.8994 23.9999 14.4324 23.5329 14.4324 22.9622V22.8917C14.4324 22.7771 14.4519 22.6671 14.4866 22.5638C14.09 22.71 13.8046 23.0913 13.8046 23.5371V23.6076C13.8046 24.1783 14.2716 24.6453 14.8424 24.6453H17.5845C18.0408 24.6453 18.4299 24.3467 18.568 23.9354C18.4568 23.9763 18.3373 23.9999 18.2123 23.9999Z" fill="#F6A96C"/>
<path id="Vector_21" d="M18.2123 26.146H15.4701C14.8994 26.146 14.4324 25.679 14.4324 25.1083V25.0378C14.4324 24.9232 14.4519 24.8132 14.4866 24.71C14.09 24.8561 13.8046 25.2375 13.8046 25.6832V25.7537C13.8046 26.3245 14.2716 26.7915 14.8424 26.7915H17.5845C18.0408 26.7915 18.4299 26.4928 18.568 26.0815C18.4568 26.1225 18.3373 26.146 18.2123 26.146Z" fill="#F6A96C"/>
<path id="Vector_22" d="M18.2123 28.2711H15.4701C14.8994 28.2711 14.4324 27.8041 14.4324 27.2333V27.1628C14.4324 27.0573 14.4486 26.9553 14.4782 26.8591C14.0859 27.0076 13.8046 27.3867 13.8046 27.8293V27.8998C13.8046 28.4705 14.2716 28.9375 14.8424 28.9375H17.5845C18.0497 28.9375 18.4458 28.6272 18.5764 28.2034C18.4628 28.2464 18.3404 28.2711 18.2123 28.2711Z" fill="#F6A96C"/>
</g>
</g>
<g id="Group_13">
<path id="Vector_23" d="M6.8045 7.07848C6.05906 7.07848 5.36769 6.84404 4.79881 6.44604V11.8512C4.79881 12.009 4.982 12.0962 5.10456 11.9967L6.68625 10.7116C6.75513 10.6557 6.85381 10.6557 6.92269 10.7116L8.50444 11.9967C8.62694 12.0962 8.81019 12.009 8.81019 11.8512V6.44604C8.24131 6.84404 7.54994 7.07848 6.8045 7.07848Z" fill="#FD4755"/>
<path id="Vector_24" d="M4.79881 6.52454V11.8512C4.79881 12.0091 4.982 12.0963 5.10456 11.9967L6.68625 10.7117C6.70231 10.6986 6.72006 10.6889 6.73863 10.682V7.13935C6.02025 7.12622 5.35356 6.90191 4.79881 6.52454Z" fill="#FB2B3A"/>
<g id="Group_14">
<g id="Group_15">
<path id="Vector_25" d="M6.80449 7.141C8.77643 7.141 10.375 5.54243 10.375 3.5705C10.375 1.59857 8.77643 0 6.80449 0C4.83256 0 3.23399 1.59857 3.23399 3.5705C3.23399 5.54243 4.83256 7.141 6.80449 7.141Z" fill="#FAC600"/>
</g>
<g id="Group_16">
<path id="Vector_26" d="M6.80449 5.89408C8.08779 5.89408 9.12812 4.85375 9.12812 3.57045C9.12812 2.28715 8.08779 1.24683 6.80449 1.24683C5.52119 1.24683 4.48087 2.28715 4.48087 3.57045C4.48087 4.85375 5.52119 5.89408 6.80449 5.89408Z" fill="#E8B800"/>
</g>
<path id="Vector_27" d="M5.77418 3.57045C5.77418 2.51164 6.48262 1.61889 7.45118 1.3387C7.2458 1.27926 7.02899 1.24683 6.80449 1.24683C5.52118 1.24683 4.48087 2.28714 4.48087 3.57045C4.48087 4.85376 5.52118 5.89414 6.80449 5.89414C7.02899 5.89414 7.2458 5.86164 7.45118 5.80226C6.48262 5.52201 5.77418 4.62926 5.77418 3.57045Z" fill="#D7AA02"/>
<g id="Group_17">
<g id="Group_18">
<path id="Vector_28" d="M6.93193 2.29529L7.25968 2.95935C7.28036 3.00129 7.32043 3.03035 7.36668 3.0371L8.09949 3.1436C8.21605 3.16054 8.26261 3.30379 8.17824 3.38604L7.64799 3.90292C7.61449 3.93554 7.59918 3.9826 7.60711 4.02873L7.7323 4.7586C7.75224 4.87473 7.63036 4.96329 7.52605 4.90842L6.87061 4.56379C6.82918 4.54204 6.77974 4.54204 6.7383 4.56379L6.08286 4.90835C5.97861 4.96317 5.85674 4.8746 5.87661 4.75854L6.0018 4.02867C6.00974 3.98254 5.99443 3.93548 5.96093 3.90285L5.43068 3.38598C5.3463 3.30373 5.39286 3.16048 5.50943 3.14354L6.24224 3.03704C6.28855 3.03029 6.32855 3.00123 6.34924 2.95929L6.67699 2.29523C6.72918 2.18967 6.8798 2.18967 6.93193 2.29529Z" fill="#FAC600"/>
</g>
</g>
</g>
</g>
</g>
</g>
</g>
</svg>
