<svg width="28" height="28" viewBox="0 0 28 28" fill="none" xmlns="http://www.w3.org/2000/svg">
<g id="burning 1">
<g id="Group">
<path id="Vector" d="M7.21351 16.3653C6.59729 15.9217 6.07259 15.3631 5.66826 14.7203C3.97667 22.4195 8.11957 26.5781 14.0372 26.5781C19.9548 26.5781 22.9101 21.9463 22.7028 15.4219C22.0953 16.0189 21.3105 16.4027 20.4663 16.5156C21.2409 14.4239 21.5701 11.165 20.9948 9.44278C19.6836 10.7188 18.6646 10.9506 18.6646 10.9506C19.5 7.59041 18.7784 4.42969 14.565 1.42188C14.31 3.80997 13.1797 7.4375 12.0267 8.65725C11.4048 8.0419 10.8984 7.32006 10.5313 6.52597C7.21767 11.1744 7.21351 16.3653 7.21351 16.3653Z" fill="#F5502F"/>
<path id="Vector_2" d="M17.1148 6.49683C17.0423 6.49693 16.9712 6.47642 16.9099 6.43769C16.8486 6.39897 16.7996 6.34361 16.7685 6.27808C16.6082 5.94155 16.4191 5.61952 16.2033 5.31558C16.1732 5.27457 16.1517 5.22798 16.1398 5.17854C16.128 5.1291 16.1261 5.0778 16.1343 5.02763C16.1425 4.97745 16.1606 4.92941 16.1876 4.88632C16.2145 4.84322 16.2498 4.80592 16.2913 4.7766C16.3329 4.74729 16.3798 4.72654 16.4295 4.71557C16.4791 4.70459 16.5304 4.70362 16.5805 4.7127C16.6305 4.72178 16.6782 4.74073 16.7208 4.76845C16.7634 4.79617 16.8001 4.8321 16.8287 4.87414C17.0701 5.21425 17.2816 5.57464 17.4609 5.95127C17.4885 6.00964 17.5009 6.07404 17.497 6.1385C17.493 6.20295 17.4728 6.26536 17.4383 6.31993C17.4038 6.3745 17.356 6.41945 17.2995 6.45061C17.2429 6.48176 17.1794 6.49811 17.1148 6.49814V6.49683Z" fill="#D63922"/>
<path id="Vector_3" d="M9.41852 19.6833C9.00239 19.3835 8.64815 19.0061 8.3753 18.5718C7.23321 23.7695 10.0301 26.5781 14.0252 26.5781C18.0202 26.5781 20.0152 23.4499 19.8754 19.0465C19.4654 19.4494 18.9358 19.7084 18.3661 19.7848C18.8891 18.3725 19.1113 16.1726 18.7228 15.0099C17.8378 15.8713 17.1498 16.028 17.1498 16.028C17.7137 13.7593 17.2266 11.6254 14.3822 9.59497C14.2098 11.2072 13.4468 13.6561 12.6685 14.4794C12.2489 14.064 11.9071 13.5767 11.6594 13.0407C10.3022 14.9999 9.52552 17.3023 9.41852 19.6833Z" fill="#F9D42F"/>
<path id="Vector_4" d="M11.7031 22.9894C11.3534 22.7056 11.0201 22.4021 10.705 22.0802C10.1034 24.9308 11.9606 26.5782 14.0129 26.5782C16.0652 26.5782 17.9649 24.1172 16.543 20.5763C16.2816 20.8361 15.966 21.0349 15.6188 21.1584C15.9084 19.9931 15.6581 18.8968 14.1969 17.8538C14.1083 18.6819 13.7156 19.94 13.3164 20.363C13.0549 20.0968 12.8173 19.8081 12.6064 19.5003C11.4159 21.3146 11.7031 22.9894 11.7031 22.9894Z" fill="#FB9401"/>
</g>
</g>
</svg>
