<svg width="20" height="20" viewBox="0 0 20 20" fill="none" xmlns="http://www.w3.org/2000/svg">
<g id="Huge-icon/ecommerce/outline/cart" clip-path="url(#clip0_405_31)">
<path id="Ellipse 653" d="M9.16667 17.0833C9.16667 17.7737 8.60703 18.3333 7.91667 18.3333C7.22632 18.3333 6.66667 17.7737 6.66667 17.0833C6.66667 16.393 7.22632 15.8333 7.91667 15.8333C8.60703 15.8333 9.16667 16.393 9.16667 17.0833Z" stroke="white" stroke-width="1.5"/>
<path id="Ellipse 654" d="M16.6667 17.0833C16.6667 17.7737 16.107 18.3333 15.4167 18.3333C14.7263 18.3333 14.1667 17.7737 14.1667 17.0833C14.1667 16.393 14.7263 15.8333 15.4167 15.8333C16.107 15.8333 16.6667 16.393 16.6667 17.0833Z" stroke="white" stroke-width="1.5"/>
<path id="Rectangle 1055" d="M5.00001 3.33335H15C16.841 3.33335 18.3333 4.82574 18.3333 6.66669V10.8334C18.3333 12.6743 16.841 14.1667 15 14.1667H8.33334C6.49239 14.1667 5.00001 12.6743 5.00001 10.8334V3.33335ZM5.00001 3.33335C5.00001 2.41288 4.25381 1.66669 3.33334 1.66669H1.66667M5.00001 6.66669H17.9167" stroke="white" stroke-width="1.5" stroke-linecap="round" stroke-linejoin="round"/>
</g>
<defs>
<clipPath id="clip0_405_31">
<rect width="20" height="20" fill="white"/>
</clipPath>
</defs>
</svg>
