<svg xmlns="http://www.w3.org/2000/svg" width="40" height="41" viewBox="0 0 40 41" fill="none">
    <g clip-path="url(#clip0_1006_6562)">
        <path
            d="M4 0.62793H36C37.933 0.62793 39.5 2.19493 39.5 4.12793V36.1279C39.5 38.0609 37.933 39.6279 36 39.6279H4C2.067 39.6279 0.5 38.0609 0.5 36.1279V4.12793C0.5 2.19493 2.067 0.62793 4 0.62793Z"
            fill="white" stroke="#D9D9D9" />
        <path
            d="M10.1972 9.12793C9.55098 9.12793 9.01758 9.66068 9.01758 10.307V28.6323C9.01758 29.2786 9.55098 29.8114 10.1972 29.8114H28.5215C29.1677 29.8114 29.7011 29.2786 29.7011 28.6323V10.307C29.7011 9.66068 29.1677 9.12793 28.5215 9.12793H10.1972Z"
            fill="#E4A862" />
        <path
            d="M12.9863 22.1328H26.0125C26.1387 22.1328 26.241 22.2351 26.241 22.3612V29.654C26.241 29.7802 26.1387 29.8825 26.0125 29.8825H12.9863C12.8601 29.8825 12.7578 29.7802 12.7578 29.654V22.3613C12.7578 22.235 12.8601 22.1328 12.9863 22.1328Z"
            fill="#1C92D3" />
        <path
            d="M25.1514 27.946C24.7464 28.0668 24.4265 28.3867 24.3056 28.7918C24.2894 28.8461 24.2405 28.8841 24.1837 28.8841H14.8179C14.7611 28.8841 14.7122 28.8461 14.696 28.7918C14.5752 28.3868 14.2553 28.0668 13.8502 27.946C13.7958 27.9298 13.7579 27.8808 13.7578 27.8241V24.1918C13.7578 24.135 13.7958 24.0861 13.8502 24.0699C14.2553 23.9491 14.5751 23.6292 14.696 23.2241C14.7122 23.1697 14.7611 23.1318 14.8178 23.1318H24.1838C24.2405 23.1318 24.2895 23.1697 24.3057 23.2241C24.4265 23.6291 24.7464 23.949 25.1514 24.0698C25.2058 24.086 25.2437 24.135 25.2437 24.1917V27.8241C25.2437 27.8808 25.2058 27.9298 25.1514 27.946Z"
            fill="#40C0F2" />
        <path
            d="M19.5008 24.0889C18.5867 24.0889 17.8457 24.8299 17.8457 25.744C17.8457 26.6581 18.5867 27.3992 19.5008 27.3992C20.4149 27.3992 21.156 26.6581 21.156 25.744C21.156 24.8299 20.4149 24.0889 19.5008 24.0889Z"
            fill="#1C92D3" />
        <path
            d="M15.7832 9.12793V14.1116C15.7832 14.2063 15.8211 14.2972 15.8883 14.3639L16.9554 15.4337C17.0946 15.5735 17.3209 15.5735 17.4601 15.4337L18.2775 14.6163L19.0924 15.4337C19.2315 15.5735 19.4578 15.5735 19.597 15.4337L20.4118 14.6163L21.2293 15.4337C21.3685 15.5735 21.5948 15.5735 21.7339 15.4337L22.8011 14.3639C22.8682 14.2972 22.9061 14.2063 22.9062 14.1116V9.12793H15.7832Z"
            fill="#FFDFB9" />
        <path
            d="M27.9615 25.1513H23.9712C23.5114 25.1513 23.1386 25.3286 23.1386 25.7884C23.051 26.6008 24.7347 27.5627 25.9897 27.5627C26.5981 27.5627 27.2892 27.5627 27.6702 27.5625C27.8566 27.5625 28.0352 27.6364 28.1687 27.7699L28.1755 27.7767C28.3956 27.9969 28.4403 28.4679 28.2844 28.7373L26.6915 29.8739H26.0369H25.0187H20.2188C20.7436 30.5311 23.2626 31.8618 23.4632 32.1171C23.6863 32.401 24.0161 32.5036 24.3755 32.5376L27.6656 32.9258C28.1399 32.9706 28.6163 32.8684 29.0307 32.6333C29.9588 32.1068 31.6683 31.2432 32.4482 31H35.1301V26.357H33.8387C33.596 26.357 33.3573 26.2957 33.1447 26.1787L31.3422 25.2843C30.7733 25.006 30.1363 24.8971 29.5072 24.9706L27.9615 25.1513Z"
            fill="#FCD7C3" />
        <path
            d="M29.5066 24.9706L27.9609 25.1512H23.9707C23.5108 25.1512 23.1381 25.3285 23.1381 25.7883C23.1058 26.0869 23.313 26.4057 23.6503 26.6896C24.1442 27.1053 24.776 27.3212 25.4216 27.3212H27.9609L29.5066 27.1405C30.1357 27.067 30.7726 27.1759 31.3416 27.4542L33.1441 28.3486C33.3567 28.4656 33.5954 28.527 33.8381 28.527H35.1294V26.357H33.8381C33.5954 26.357 33.3567 26.2956 33.1441 26.1786L31.3416 25.2842C30.7726 25.0059 30.1356 24.8971 29.5066 24.9706Z"
            fill="#FFCDAC" />
        <path
            d="M36.2489 25.9906V31.3644C36.2489 31.5636 36.0874 31.725 35.8883 31.725H34.9426C34.7434 31.725 34.582 31.5636 34.582 31.3644V25.9905C34.582 25.7914 34.7434 25.6299 34.9426 25.6299L35.8883 25.63C36.0874 25.6299 36.2489 25.7914 36.2489 25.9906Z"
            fill="#464C50" />
        <path
            d="M34.582 25.9905V27.8131H36.2489V25.9905C36.2489 25.7913 36.0875 25.6299 35.8883 25.6299H34.9427C34.7435 25.6299 34.582 25.7913 34.582 25.9905Z"
            fill="#33393A" />
    </g>
    <defs>
        <clipPath id="clip0_1006_6562">
            <rect width="40" height="40" fill="white" transform="translate(0 0.12793)" />
        </clipPath>
    </defs>
</svg>