<svg width="33" height="32" viewBox="0 0 33 32" fill="none" xmlns="http://www.w3.org/2000/svg">
<g id="huge-icon/shipping and delivery/outline/delivery-time">
<path id="Vector" d="M19 25.3333V9.33333M19 25.3333H21.6666M19 25.3333H12.3333M19 9.33333C19 6.38781 16.6122 4 13.6666 4H8.33331C5.3878 4 2.99998 6.38781 2.99998 9.33333V20C2.99998 22.487 4.7022 24.5764 7.00511 25.1666M19 9.33333H23.2788C23.9563 9.33333 24.6084 9.5912 25.1026 10.0546L28.8238 13.5432C29.3616 14.0473 29.6666 14.7515 29.6666 15.4886V22.6667C29.6666 24.1394 28.4727 25.3333 27 25.3333M27 25.3333C27 26.8061 25.8061 28 24.3333 28C22.8606 28 21.6666 26.8061 21.6666 25.3333M27 25.3333C27 23.8606 25.8061 22.6667 24.3333 22.6667C22.8606 22.6667 21.6666 23.8606 21.6666 25.3333M12.3333 25.3333C12.3333 26.8061 11.1394 28 9.66665 28C8.19389 28 6.99998 26.8061 6.99998 25.3333C6.99998 25.2773 7.00171 25.2218 7.00511 25.1666M12.3333 25.3333C12.3333 23.8606 11.1394 22.6667 9.66665 22.6667C8.24988 22.6667 7.09116 23.7715 7.00511 25.1666" stroke="#FF6600" stroke-width="1.5"/>
<path id="Vector 1976" d="M11 10V14.6667H14.3333" stroke="#FF6600" stroke-width="1.5" stroke-linecap="round" stroke-linejoin="round"/>
</g>
</svg>
