<svg width="16" height="16" viewBox="0 0 16 16" fill="none" xmlns="http://www.w3.org/2000/svg">
<g id="flash 1">
<g id="Group">
<g id="Group_2">
<path id="Vector" d="M12.5084 5.48747C12.4647 5.39359 12.3705 5.33334 12.2668 5.33334H9.10679L12.2254 0.409344C12.2774 0.327219 12.2806 0.223219 12.2337 0.138156C12.1868 0.0528125 12.0972 0 12.0001 0H7.73345C7.63239 0 7.54011 0.0570625 7.49479 0.147469L3.49479 8.14747C3.45345 8.22987 3.45798 8.328 3.50651 8.40666C3.55533 8.48531 3.64092 8.53331 3.73345 8.53331H6.47558L3.48757 15.6298C3.43664 15.7512 3.48198 15.892 3.59423 15.9608C3.63742 15.9872 3.68542 16 3.73317 16C3.8097 16 3.88517 15.9672 3.93745 15.9053L12.4708 5.77197C12.5377 5.69253 12.5521 5.58159 12.5084 5.48747Z" fill="#F23611"/>
</g>
</g>
</g>
</svg>
