<svg width="27" height="27" viewBox="0 0 27 27" fill="none" xmlns="http://www.w3.org/2000/svg">
<g id="flash 1">
<g id="Group">
<g id="Group_2">
<path id="Vector" d="M21.1079 9.2601C21.0341 9.10169 20.8752 9.00002 20.7002 9.00002H15.3677L20.6304 0.690768C20.7182 0.552182 20.7236 0.376682 20.6444 0.233139C20.5652 0.0891211 20.414 0 20.2502 0H13.0502C12.8796 0 12.7239 0.096293 12.6475 0.248854L5.89746 13.7489C5.82769 13.8879 5.83534 14.0535 5.91723 14.1862C5.9996 14.319 6.14404 14.4 6.30019 14.4H10.9275L5.88528 26.3754C5.79932 26.5801 5.87584 26.8177 6.06526 26.9338C6.13814 26.9784 6.21914 26.9999 6.29971 26.9999C6.42886 26.9999 6.55621 26.9446 6.64444 26.8402L21.0445 9.7402C21.1574 9.60615 21.1817 9.41894 21.1079 9.2601Z" fill="white"/>
</g>
</g>
</g>
</svg>
