<svg width="32" height="32" viewBox="0 0 32 32" fill="none" xmlns="http://www.w3.org/2000/svg">
<g id="Huge-icon/interface/outline/gift">
<path id="Vector" d="M5.33342 14.6667H26.6667M5.33342 14.6667C3.86066 14.6667 2.66675 13.4728 2.66675 12V10.6667C2.66675 9.19391 3.86066 8 5.33342 8H26.6667C28.1395 8 29.3334 9.19391 29.3334 10.6667V12C29.3334 13.4728 28.1395 14.6667 26.6667 14.6667M5.33342 14.6667L5.33341 26.6667C5.33341 28.1394 6.52732 29.3333 8.00008 29.3333H24.0001C25.4728 29.3333 26.6667 28.1394 26.6667 26.6667V14.6667M16.0001 8H21.3334C22.8062 8 24.0001 6.80609 24.0001 5.33333C24.0001 3.86057 22.8062 2.66666 21.3334 2.66666C18.3879 2.66666 16.0001 5.05448 16.0001 8ZM16.0001 8H10.6667C9.19399 8 8.00008 6.80609 8.00008 5.33333C8.00008 3.86057 9.19399 2.66666 10.6667 2.66666C13.6123 2.66666 16.0001 5.05448 16.0001 8ZM16.0001 8V29.3333" stroke="#FF6600" stroke-width="1.5" stroke-linecap="round"/>
</g>
</svg>
