<svg xmlns="http://www.w3.org/2000/svg" width="40" height="41" viewBox="0 0 40 41" fill="none">
    <g clip-path="url(#clip0_1006_6583)">
        <path fill-rule="evenodd" clip-rule="evenodd"
            d="M37.2973 0.12793H2.7027C1.21622 0.12793 0 1.34415 0 2.83063V37.4252C0 38.9117 1.21622 40.1279 2.7027 40.1279H37.2973C38.7838 40.1279 40 38.9117 40 37.4252V2.83063C40 1.34415 38.7838 0.12793 37.2973 0.12793Z"
            fill="#A50064" />
        <path
            d="M27.6749 18.9113C30.8506 18.9113 33.4181 16.3437 33.4181 13.168C33.4181 9.99237 30.8506 7.4248 27.6749 7.4248C24.4992 7.4248 21.9316 9.99237 21.9316 13.168C21.9316 16.3437 24.4992 18.9113 27.6749 18.9113ZM27.6749 10.7221C29.0262 10.7221 30.1208 11.8167 30.1208 13.168C30.1208 14.5194 29.0262 15.614 27.6749 15.614C26.3235 15.614 25.2289 14.5194 25.2289 13.168C25.2289 11.8167 26.3235 10.7221 27.6749 10.7221Z"
            fill="white" />
        <path
            d="M27.6749 21.3975C24.4992 21.3975 21.9316 23.965 21.9316 27.1407C21.9316 30.3164 24.4992 32.8839 27.6749 32.8839C30.8506 32.8839 33.4181 30.3164 33.4181 27.1407C33.4181 23.965 30.8506 21.3975 27.6749 21.3975ZM27.6749 29.5867C26.3235 29.5867 25.2289 28.4921 25.2289 27.1407C25.2289 25.7894 26.3235 24.6948 27.6749 24.6948C29.0262 24.6948 30.1208 25.7894 30.1208 27.1407C30.1208 28.4921 29.0262 29.5867 27.6749 29.5867Z"
            fill="white" />
        <path
            d="M15.973 21.3975C15 21.3975 14.1081 21.7218 13.3919 22.2623C12.6757 21.7218 11.7703 21.3975 10.8108 21.3975C8.43243 21.3975 6.5 23.3299 6.5 25.7083V32.8975H9.7973V25.6677C9.7973 25.1272 10.2297 24.6948 10.7703 24.6948C11.3108 24.6948 11.7432 25.1272 11.7432 25.6677V32.8839H15.0405V25.6677C15.0405 25.1272 15.473 24.6948 16.0135 24.6948C16.5541 24.6948 16.9865 25.1272 16.9865 25.6677V32.8839H20.2703V25.6948C20.2703 23.3299 18.3514 21.3975 15.973 21.3975Z"
            fill="white" />
        <path
            d="M15.9728 7.4248C14.9998 7.4248 14.108 7.74913 13.3917 8.28967C12.6755 7.74913 11.7701 7.4248 10.8107 7.4248C8.41876 7.4248 6.48633 9.35724 6.48633 11.7356V18.9113H9.78363V11.6951C9.78363 11.1545 10.2161 10.7221 10.7566 10.7221C11.2971 10.7221 11.7296 11.1545 11.7296 11.6951V18.9113H15.0269V11.6951C15.0269 11.1545 15.4593 10.7221 15.9998 10.7221C16.5404 10.7221 16.9728 11.1545 16.9728 11.6951V18.9113H20.2701V11.7356C20.2701 9.35724 18.3512 7.4248 15.9728 7.4248Z"
            fill="white" />
    </g>
    <defs>
        <clipPath id="clip0_1006_6583">
            <rect width="40" height="40" fill="white" transform="translate(0 0.12793)" />
        </clipPath>
    </defs>
</svg>