<svg xmlns="http://www.w3.org/2000/svg" width="140" height="33" viewBox="0 0 140 33" fill="none">
    <mask id="mask0_1006_6600" style="mask-type:alpha" maskUnits="userSpaceOnUse" x="36" y="6"
        width="32" height="21">
        <path
            d="M66.182 6.12793H37.818C36.8139 6.12793 36 6.94188 36 7.94593V24.3099C36 25.314 36.8139 26.1279 37.818 26.1279H66.182C67.1861 26.1279 68 25.314 68 24.3099V7.94593C68 6.94188 67.1861 6.12793 66.182 6.12793Z"
            fill="white" />
    </mask>
    <g mask="url(#mask0_1006_6600)">
        <path fill-rule="evenodd" clip-rule="evenodd"
            d="M45.8106 10.8195L43.2656 17.3395L42.2356 11.7955C42.1166 11.1765 41.6396 10.8195 41.1096 10.8195H36.9486L36.8906 11.0975C37.7446 11.2855 38.7146 11.5875 39.3026 11.9125C39.6626 12.1105 39.7656 12.2835 39.8836 12.7545L41.8336 20.3985H44.4176L48.3786 10.8195H45.8106ZM49.4276 10.8195L47.4056 20.3985H49.8506L51.8716 10.8195H49.4276ZM63.4456 13.4065L64.1856 17.0045H62.1586L63.4456 13.4065ZM63.0866 10.8195C62.6186 10.8195 62.2226 11.0965 62.0466 11.5225L58.3786 20.3985H60.9446L61.4546 18.9685H64.5906L64.8876 20.3985H67.1476L65.1756 10.8195H63.0866ZM52.5406 13.8105C52.5226 15.1905 53.7536 15.9605 54.6806 16.4175C55.6326 16.8875 55.9516 17.1875 55.9486 17.6075C55.9416 18.2505 55.1886 18.5345 54.4846 18.5455C53.2566 18.5655 52.5426 18.2095 51.9746 17.9405L51.5316 20.0395C52.1016 20.3055 53.1556 20.5375 54.2506 20.5475C56.8176 20.5475 58.4976 19.2635 58.5066 17.2705C58.5166 14.7435 55.0566 14.6035 55.0806 13.4735C55.0886 13.1305 55.4106 12.7655 56.1186 12.6725C56.4686 12.6255 57.4336 12.5895 58.5286 13.1005L58.9586 11.0705C58.3686 10.8525 57.6106 10.6445 56.6696 10.6445C54.2526 10.6445 52.5536 11.9465 52.5406 13.8105Z"
            fill="#1A1F71" />
    </g>
    <path d="M84.3887 9.58691H91.5677V22.5119H84.3887V9.58691Z" fill="#FF5F00" />
    <path
        d="M84.8444 16.0507C84.8414 13.5277 85.9974 11.1447 87.9784 9.5867C84.6134 6.9387 79.7824 7.3247 76.8804 10.4727C73.9774 13.6227 73.9774 18.4767 76.8804 21.6257C79.7824 24.7747 84.6134 25.1597 87.9784 22.5117C85.9984 20.9547 84.8424 18.5717 84.8444 16.0507Z"
        fill="#EB001B" />
    <path
        d="M101.253 16.0506C101.253 19.1976 99.4595 22.0676 96.6335 23.4426C93.8085 24.8186 90.4466 24.4566 87.9776 22.5116C89.9566 20.9536 91.1125 18.5716 91.1125 16.0496C91.1125 13.5276 89.9566 11.1446 87.9766 9.5866C90.4466 7.6416 93.8065 7.2806 96.6325 8.6556C99.4585 10.0306 101.252 12.9016 101.252 16.0476L101.253 16.0506Z"
        fill="#F79E1B" />
    <path
        d="M137.561 22.0701C137.561 24.4121 135.654 26.3181 133.312 26.3181H110.199V9.49312C110.199 7.15212 112.106 5.24512 114.447 5.24512H137.561V22.0701Z"
        fill="white" />
    <path
        d="M130.035 17.7554H131.791C131.841 17.7554 131.959 17.7384 132.009 17.7384C132.343 17.6714 132.628 17.3704 132.628 16.9524C132.628 16.5514 132.343 16.2504 132.008 16.1664C131.958 16.1494 131.858 16.1494 131.791 16.1494H130.035V17.7554Z"
        fill="url(#paint0_linear_1006_6600)" />
    <path
        d="M131.589 6.66602C129.918 6.66602 128.547 8.02102 128.547 9.71002V12.871H132.845C132.945 12.871 133.062 12.871 133.146 12.888C134.116 12.938 134.836 13.44 134.836 14.31C134.836 14.995 134.35 15.58 133.447 15.698V15.731C134.434 15.798 135.187 16.351 135.187 17.203C135.187 18.123 134.35 18.725 133.247 18.725H128.529V24.913H132.995C134.667 24.913 136.038 23.558 136.038 21.869V6.66602H131.59H131.589Z"
        fill="url(#paint1_linear_1006_6600)" />
    <path
        d="M132.41 14.5104C132.41 14.1094 132.126 13.8414 131.791 13.7914C131.758 13.7914 131.674 13.7744 131.624 13.7744H130.035V15.2464H131.625C131.675 15.2464 131.775 15.2464 131.791 15.2304C132.126 15.1804 132.41 14.9124 132.41 14.5104Z"
        fill="url(#paint2_linear_1006_6600)" />
    <path
        d="M114.766 6.66699C113.093 6.66699 111.722 8.02099 111.722 9.71099V17.22C112.575 17.638 113.462 17.906 114.348 17.906C115.401 17.906 115.97 17.27 115.97 16.4V12.855H118.579V16.384C118.579 17.755 117.726 18.876 114.833 18.876C113.077 18.876 111.705 18.491 111.705 18.491V24.897H116.171C117.843 24.897 119.215 23.542 119.215 21.853V6.66699H114.766Z"
        fill="url(#paint3_linear_1006_6600)" />
    <path
        d="M123.179 6.66702C121.507 6.66702 120.135 8.02102 120.135 9.71102V13.691C120.905 13.039 122.243 12.621 124.4 12.721C125.554 12.771 126.792 13.089 126.792 13.089V14.377C126.173 14.059 125.437 13.775 124.484 13.707C122.844 13.591 121.858 14.394 121.858 15.798C121.858 17.22 122.845 18.023 124.484 17.889C125.437 17.822 126.173 17.521 126.792 17.22V18.508C126.792 18.508 125.571 18.826 124.4 18.876C122.243 18.976 120.905 18.558 120.135 17.906V24.93H124.601C126.273 24.93 127.645 23.575 127.645 21.886V6.66602L123.179 6.66702Z"
        fill="url(#paint4_linear_1006_6600)" />
    <path
        d="M27.305 7.12793C28.793 7.12793 30 8.33493 30 9.82293V22.4329C30 23.9209 28.793 25.1279 27.305 25.1279H4.695C3.207 25.1279 2 23.9209 2 22.4329V9.82293C2 8.33493 3.207 7.12793 4.695 7.12793H27.305ZM27.305 8.12793H4.695C3.808 8.12793 3.08 8.80893 3.006 9.67693L3 9.82293V22.4329C3 23.3199 3.681 24.0479 4.549 24.1219L4.695 24.1279H27.305C28.192 24.1279 28.92 23.4469 28.994 22.5789L29 22.4329V9.82293C29 8.93593 28.319 8.20793 27.451 8.13393L27.305 8.12793Z"
        fill="#242424" />
    <path
        d="M8.146 21.3419L8.676 19.7359H10.962L11.492 21.3419H12.663L10.458 15.1279H9.205L7 21.3419H8.146ZM10.699 18.8789H8.934L9.804 16.2259H9.834L10.699 18.8789ZM15.954 21.3419V16.0679H17.81V15.1279H12.986V16.0669H14.846V21.3419H15.954ZM19.571 21.3419V16.9319H19.601L21.397 21.3419H22.155L23.951 16.9319H23.981V21.3419H24.981V15.1279H23.697L21.793 19.8699H21.759L19.855 15.1279H18.568V21.3419H19.571Z"
        fill="black" />
    <path
        d="M26 10.1279H23C22.4477 10.1279 22 10.5756 22 11.1279V12.1279C22 12.6802 22.4477 13.1279 23 13.1279H26C26.5523 13.1279 27 12.6802 27 12.1279V11.1279C27 10.5756 26.5523 10.1279 26 10.1279Z"
        fill="#0D5CB6" />
    <defs>
        <linearGradient id="paint0_linear_1006_6600" x1="128.543" y1="16.9541" x2="136.061"
            y2="16.9541" gradientUnits="userSpaceOnUse">
            <stop stop-color="#007940" />
            <stop offset="0.2285" stop-color="#00873F" />
            <stop offset="0.7433" stop-color="#40A737" />
            <stop offset="1" stop-color="#5CB531" />
        </linearGradient>
        <linearGradient id="paint1_linear_1006_6600" x1="128.543" y1="15.7818" x2="136.059"
            y2="15.7818" gradientUnits="userSpaceOnUse">
            <stop stop-color="#007940" />
            <stop offset="0.2285" stop-color="#00873F" />
            <stop offset="0.7433" stop-color="#40A737" />
            <stop offset="1" stop-color="#5CB531" />
        </linearGradient>
        <linearGradient id="paint2_linear_1006_6600" x1="128.543" y1="14.5079" x2="136.062"
            y2="14.5079" gradientUnits="userSpaceOnUse">
            <stop stop-color="#007940" />
            <stop offset="0.2285" stop-color="#00873F" />
            <stop offset="0.7433" stop-color="#40A737" />
            <stop offset="1" stop-color="#5CB531" />
        </linearGradient>
        <linearGradient id="paint3_linear_1006_6600" x1="111.718" y1="15.7827" x2="119.351"
            y2="15.7827" gradientUnits="userSpaceOnUse">
            <stop stop-color="#1F286F" />
            <stop offset="0.4751" stop-color="#004E94" />
            <stop offset="0.8261" stop-color="#0066B1" />
            <stop offset="1" stop-color="#006FBC" />
        </linearGradient>
        <linearGradient id="paint4_linear_1006_6600" x1="120.092" y1="15.7821" x2="127.505"
            y2="15.7821" gradientUnits="userSpaceOnUse">
            <stop stop-color="#6C2C2F" />
            <stop offset="0.1735" stop-color="#882730" />
            <stop offset="0.5731" stop-color="#BE1833" />
            <stop offset="0.8585" stop-color="#DC0436" />
            <stop offset="1" stop-color="#E60039" />
        </linearGradient>
    </defs>
</svg>