<svg width="32" height="32" viewBox="0 0 32 32" fill="none" xmlns="http://www.w3.org/2000/svg">
<g id="sale-tag" clip-path="url(#clip0_291_5104)">
<path id="Vector" d="M28.5518 0H21.1472C19.5217 0 17.3479 0.900391 16.1987 2.0498L1.00684 17.2415C0.357422 17.8906 0 18.7563 0 19.6794C0 20.6025 0.357666 21.4683 1.00684 22.1174L9.88232 30.9932C10.5315 31.6423 11.3975 32 12.3203 32C13.2434 32 14.1091 31.6423 14.7585 30.9932L29.9502 15.8013C31.0996 14.6521 32 12.4783 32 10.8528V3.44775C31.9998 1.54663 30.4529 0 28.5518 0ZM26.7546 6.625C26.5803 6.80005 26.3384 6.8999 26.0916 6.8999C25.8447 6.8999 25.6033 6.7998 25.429 6.625C25.2539 6.45068 25.1541 6.20923 25.1541 5.9624C25.1541 5.71533 25.2542 5.47363 25.429 5.29932C25.6028 5.125 25.8447 5.0249 26.0916 5.0249C26.3384 5.0249 26.5803 5.125 26.7546 5.29932C26.929 5.47363 27.0291 5.71558 27.0291 5.9624C27.0291 6.20923 26.929 6.45068 26.7546 6.625Z" fill="#FF4949"/>
<path id="Vector_2" d="M26.7546 5.29932C26.929 5.47363 27.0291 5.71558 27.0291 5.9624C27.0291 6.20923 26.929 6.45068 26.7546 6.625C26.5803 6.80005 26.3384 6.8999 26.0916 6.8999C25.8447 6.8999 25.6033 6.7998 25.429 6.625L5.47217 26.5828L9.88232 30.9932C10.5315 31.6423 11.3975 31.9998 12.3203 32C13.2434 32 14.1091 31.6423 14.7585 30.9929L29.9502 15.8013C31.0996 14.6519 32 12.4783 32 10.8528V3.44775C31.9998 2.51099 31.6235 1.66064 31.0151 1.03857L26.7546 5.29932Z" fill="#FF2323"/>
<g id="Group">
<path id="Vector_3" d="M8.70679 20.7181C8.36597 20.3775 8.45117 19.8804 8.96216 19.369C9.55884 18.7725 9.99195 18.879 10.2122 18.659C10.4678 18.4034 10.2546 17.963 10.0913 17.7999C9.62256 17.3311 8.59302 18.1619 8.17407 18.5809C7.35742 19.3975 6.81079 20.6685 7.86865 21.7266C9.55152 23.4095 11.5044 20.8035 12.5696 21.8687C12.9956 22.2947 12.8181 22.8555 12.3918 23.2818C11.6677 24.0059 10.9292 23.651 10.6379 23.942C10.418 24.1622 10.5315 24.6451 10.7302 24.8441C11.1421 25.2559 12.321 25.0145 13.2512 24.0841C14.2312 23.1043 14.4158 21.8685 13.4004 20.8531C11.5613 19.014 9.58716 21.5989 8.70679 20.7181Z" fill="#FEF4F5"/>
<path id="Vector_4" d="M18.6335 17.6652L12.7964 14.5693C12.5195 14.4201 12.1575 14.5835 11.8877 14.8535C11.625 15.1159 11.4614 15.4782 11.6106 15.7553L14.7065 21.5922C14.7278 21.6276 14.7493 21.663 14.7634 21.6774C14.9907 21.9045 15.4807 21.727 15.729 21.4785C15.8853 21.3225 15.9565 21.1518 15.8572 20.9814L15.1824 19.7673L16.8086 18.1411L18.0227 18.8159C18.1934 18.915 18.3635 18.8442 18.5198 18.6879C18.7683 18.4394 18.9387 17.9421 18.7185 17.7221C18.6975 17.7009 18.6689 17.6865 18.6335 17.6652ZM14.6499 18.8513L13.0876 16.0532L15.8855 17.6157L14.6499 18.8513Z" fill="#FEF4F5"/>
<path id="Vector_5" d="M21.438 14.1504L19.7053 15.8831L15.6082 11.7857C15.4092 11.5869 15.0898 11.7361 14.8625 11.9632C14.6282 12.1975 14.4861 12.51 14.6848 12.709L19.3005 17.3247C19.4922 17.5164 19.7905 17.417 19.9966 17.211L22.2476 14.96C22.4321 14.7754 22.3184 14.4771 22.1196 14.2783C21.9138 14.0723 21.6228 13.9656 21.438 14.1504Z" fill="#FEF4F5"/>
<path id="Vector_6" d="M25.8547 10.5577C25.6345 10.3375 25.3362 10.2523 25.1516 10.4369L23.1421 12.4464L21.7148 11.0192L22.7942 9.93983C22.9929 9.74109 22.8936 9.45691 22.7302 9.29358C22.5386 9.10193 22.2544 9.03113 22.0698 9.2157L20.9905 10.2948L19.5703 8.87464L21.5798 6.86536C21.7644 6.68055 21.6792 6.38245 21.4592 6.16224C21.2673 5.97059 20.9692 5.85682 20.7703 6.05555L18.2424 8.58362C18.0364 8.78943 17.937 9.08777 18.1289 9.27942L22.7373 13.8878C22.9292 14.0797 23.2273 13.9804 23.4334 13.7743L25.9612 11.2465C26.1599 11.0477 26.0464 10.7494 25.8547 10.5577Z" fill="#FEF4F5"/>
</g>
<path id="Vector_7" d="M12.5696 21.8689C12.9956 22.2949 12.8181 22.8557 12.3921 23.282C11.6677 24.0061 10.9292 23.6511 10.6382 23.9421C10.418 24.1624 10.5317 24.6453 10.7305 24.8442C11.1423 25.2561 12.321 25.0146 13.2512 24.0842C14.2312 23.1045 14.4158 21.8687 13.4004 20.8533C12.8948 20.3477 12.3789 20.177 11.8784 20.176L9.82739 22.2273C10.8992 21.9653 11.9065 21.2058 12.5696 21.8689Z" fill="#D5EDED"/>
<path id="Vector_8" d="M15.8853 17.6157L14.6499 18.8513L14.1316 17.9229L13.2356 18.8188L14.7065 21.5923C14.7278 21.6277 14.7493 21.6631 14.7634 21.6775C14.9907 21.9045 15.4807 21.7271 15.729 21.4785C15.8853 21.3225 15.9565 21.1519 15.8572 20.9814L15.1824 19.7671L16.8086 18.1411L18.0227 18.8157C18.1934 18.915 18.3635 18.8442 18.5198 18.6877C18.7683 18.4392 18.9387 17.9421 18.7185 17.7222C18.6973 17.7009 18.6689 17.6865 18.6335 17.6653L15.8601 16.1941L14.957 17.0972L15.8853 17.6157Z" fill="#D5EDED"/>
<path id="Vector_9" d="M19.3008 17.3247C19.4924 17.5166 19.7908 17.4172 19.9966 17.2112L22.2476 14.96C22.4321 14.7756 22.3186 14.4773 22.1199 14.2786C21.9138 14.0725 21.6228 13.9658 21.438 14.1506L19.7053 15.8833L17.9382 14.1162L17.0151 15.0393L19.3008 17.3247Z" fill="#D5EDED"/>
<path id="Vector_10" d="M25.1516 10.437L23.1421 12.4465L21.7148 11.0193L22.7942 9.93994C22.9868 9.74707 22.8992 9.47461 22.7446 9.30933L20.4517 11.6023L22.7373 13.8879C22.929 14.0798 23.2273 13.9805 23.4333 13.7744L25.9609 11.2466C26.1599 11.0479 26.0461 10.7495 25.8547 10.5579C25.6345 10.3376 25.3362 10.2524 25.1516 10.437Z" fill="#D5EDED"/>
</g>
<defs>
<clipPath id="clip0_291_5104">
<rect width="32" height="32" fill="white"/>
</clipPath>
</defs>
</svg>
