<svg width="51" height="51" viewBox="0 0 51 51" fill="none" xmlns="http://www.w3.org/2000/svg">
<path id="Star 1" d="M25.5 0L28.6545 4.5714L33.0163 1.13289L34.6832 6.43099L39.8647 4.43091L39.8959 9.98496L45.4367 9.60101L43.8294 14.9175L49.2373 16.1838L46.1343 20.7903L50.9287 23.5944L46.6058 27.0817L50.3607 31.1743L45.2019 33.2324L47.5836 38.25L42.0475 38.6962L42.8444 44.1928L37.4227 42.9873L36.564 48.4747L31.7385 45.7247L29.3006 50.7152L25.5 46.665L21.6994 50.7152L19.2615 45.7247L14.436 48.4747L13.5773 42.9873L8.1556 44.1928L8.95254 38.6962L3.41635 38.25L5.79806 33.2324L0.639338 31.1743L4.39418 27.0817L0.0713024 23.5944L4.86565 20.7903L1.76272 16.1838L7.17057 14.9175L5.5633 9.60101L11.1041 9.98496L11.1353 4.43091L16.3169 6.43099L17.9837 1.13289L22.3455 4.5714L25.5 0Z" fill="#FCD751"/>
</svg>
