<svg width="33" height="32" viewBox="0 0 33 32" fill="none" xmlns="http://www.w3.org/2000/svg">
<g id="Huge-icon/ecommerce/outline/store 01">
<path id="Rectangle 743" d="M27.3333 16V24C27.3333 26.9455 24.9455 29.3333 22 29.3333H11.3333C8.38783 29.3333 6.00002 26.9455 6.00002 24V16" stroke="#FF6600" stroke-width="1.5" stroke-linejoin="round"/>
<path id="Vector" d="M23.025 2.66666H10.3084C7.88523 2.66666 5.70621 4.32634 4.80628 6.85739L3.79564 9.69983C3.48971 10.5603 3.27824 11.481 3.50137 12.3665C4.02983 14.4637 5.74434 16 7.7778 16C10.2324 16 12.2222 13.7614 12.2222 11C12.2222 13.7614 14.2121 16 16.6667 16C19.1213 16 21.1111 13.7614 21.1111 11C21.1111 13.7614 23.101 16 25.5556 16C27.589 16 29.3035 14.4637 29.832 12.3665C30.0551 11.481 29.8437 10.5603 29.5377 9.69983L28.5271 6.85739C27.6272 4.32634 25.4481 2.66666 23.025 2.66666Z" stroke="#FF6600" stroke-width="1.5" stroke-linejoin="round"/>
<path id="Rectangle 744" d="M12.6667 25.3333C12.6667 23.1242 14.4575 21.3333 16.6667 21.3333C18.8758 21.3333 20.6667 23.1242 20.6667 25.3333V29.3333H12.6667V25.3333Z" stroke="#FF6600" stroke-width="1.5" stroke-linejoin="round"/>
</g>
</svg>
