<svg xmlns="http://www.w3.org/2000/svg" width="40" height="41" viewBox="0 0 40 41" fill="none">
    <path
        d="M2.725 7.62793C3.81875 7.62793 4.70625 8.51543 4.70625 9.6092L4.705 9.98038H14.58C15.935 9.98038 16.5913 10.3629 17.6113 11.6554L17.795 11.8929L19.8075 14.6867H37.8275C39.0275 14.6867 40 15.6779 40 16.9017V31.2955C40 32.5192 39.0275 33.5104 37.8275 33.5104H13.9375C12.7375 33.5104 11.7663 32.5192 11.7663 31.2955L11.765 24.7317H10.04C9.005 24.7317 8.01875 24.2604 7.1025 23.4904C6.895 23.3154 6.70125 23.1342 6.52125 22.9492L6.20875 22.6105L6.13375 22.5229H4.66375C4.47625 23.4229 3.67875 24.0979 2.725 24.0979H1.98125C0.8875 24.0979 0 23.2104 0 22.1167V9.6092C0 8.51543 0.8875 7.62793 1.98125 7.62793H2.725ZM37.745 15.8629H15.2087L18.9275 19.2479C19.9113 20.1429 19.3463 21.3305 18.085 21.9417C16.99 22.4729 15.6463 22.4892 14.5775 21.8267L14.3675 21.6855L12.94 20.3867V31.2367C12.94 31.8417 13.4237 32.3342 14.02 32.3342H37.745C38.3413 32.3342 38.8237 31.8417 38.8237 31.2354V16.9605C38.8237 16.3555 38.3413 15.8629 37.745 15.8629ZM4.705 21.3467H6.7125L6.9275 21.6379L7.05375 21.7904L7.14125 21.8904C7.35375 22.1279 7.59375 22.3679 7.8575 22.5905C8.51 23.1379 9.18 23.4817 9.825 23.5455L10.0375 23.5554H11.7637V20.2705H10.9813C9.68127 20.2705 8.75875 19.8229 8.2075 19.0467L8.095 18.8755C7.79625 18.3817 7.6775 17.8842 7.6525 17.3942L7.6475 17.1842H8.8225C8.8225 17.5467 8.89375 17.9229 9.10255 18.2667C9.39 18.7442 9.89627 19.0417 10.7425 19.0879L10.98 19.0942H13.2675L15.11 20.7742C15.7763 21.2592 16.7687 21.2729 17.5725 20.8829C18.1975 20.5792 18.3325 20.2954 18.1363 20.1179L14.1113 16.4554L14.1163 15.0179V14.6867L18.4237 14.6892L16.9113 12.5917C15.9937 11.3879 15.625 11.1454 14.58 11.1454H4.705V21.3467ZM2.725 8.61918H1.98125C1.47625 8.61918 1.06 8.99667 0.998755 9.48538L0.991246 9.61038V22.1155C0.991246 22.6205 1.36875 23.0379 1.8575 23.0992L1.9825 23.1067H2.725C3.23 23.1067 3.64625 22.7292 3.7075 22.2404L3.715 22.1155V9.6092C3.715 9.10418 3.3375 8.68793 2.84875 8.62668L2.72375 8.61918H2.725Z"
        fill="#242424" />
    <path
        d="M25.8825 29.9808C29.1313 29.9808 31.765 27.3471 31.765 24.0983C31.765 20.8495 29.1313 18.2158 25.8825 18.2158C22.6337 18.2158 20 20.8495 20 24.0983C20 27.3471 22.6337 29.9808 25.8825 29.9808Z"
        fill="#0D5CB6" />
    <path
        d="M26.9931 23.9068L25.0631 23.4418C24.7757 23.3731 24.5757 23.1493 24.5757 22.8993C24.5757 22.5868 24.8757 22.3343 25.2457 22.3343H26.4519C26.7207 22.3343 26.9769 22.4055 27.1907 22.5368C27.2894 22.5955 27.4281 22.5768 27.5131 22.5043L27.8857 22.1893C28.0007 22.0931 27.9819 21.9355 27.8531 21.8518C27.4531 21.5931 26.9657 21.4518 26.4519 21.4518H26.4057V20.7893C26.4057 20.6693 26.2894 20.5693 26.1431 20.5693H25.6207C25.4769 20.5693 25.3594 20.6681 25.3594 20.7893V21.4518H25.2444C24.2444 21.4518 23.4419 22.1768 23.5369 23.0368C23.6044 23.6481 24.1594 24.1431 24.8594 24.3118L26.7031 24.7555C26.9894 24.8243 27.1907 25.0481 27.1907 25.2981C27.1907 25.6105 26.8894 25.8631 26.5207 25.8631H25.3144C25.0457 25.8631 24.7894 25.7931 24.5744 25.6618C24.4769 25.6018 24.3394 25.6218 24.2531 25.6931L23.8807 26.0081C23.7657 26.1043 23.7844 26.2618 23.9119 26.3455C24.3131 26.6055 24.8007 26.7455 25.3144 26.7455H25.3594V27.4081C25.3594 27.5293 25.4769 27.6281 25.6219 27.6281H26.1444C26.2881 27.6281 26.4057 27.5293 26.4057 27.4081V26.7455H26.4494C27.1957 26.7455 27.8994 26.3705 28.1394 25.7755C28.4719 24.9581 27.9019 24.1268 26.9919 23.9068H26.9931Z"
        fill="white" />
</svg>