<svg xmlns="http://www.w3.org/2000/svg" width="40" height="41" viewBox="0 0 40 41" fill="none">
    <path fill-rule="evenodd" clip-rule="evenodd"
        d="M32.3359 21.5172H31.5047L31.9078 20.3092L32.3359 21.5172ZM9.35281 20.1564L8.51253 21.0402L8.47064 21.0836L8.00461 21.5744L7.57986 22.0212L7.53847 22.0652H7.53803L7.1442 22.4788V22.4794L7.10287 22.5228C6.98483 22.647 6.85434 22.7488 6.71566 22.8294C6.64546 22.8701 6.57371 22.9049 6.50028 22.9346C6.33658 23.001 6.16475 23.0399 5.99181 23.0514C5.88579 23.0589 5.7781 23.056 5.67258 23.0423C5.44418 23.0136 5.22006 22.937 5.01558 22.8124C4.92803 22.7592 4.83831 22.7037 4.76371 22.6259C4.76321 22.6259 4.76321 22.6259 4.76266 22.6253L3.15119 20.9305C3.12455 20.8995 3.10063 20.866 3.08055 20.8299C3.02937 20.7389 3 20.6334 3 20.5204C3 20.5026 3.00061 20.4849 3.00217 20.4677C3.00434 20.4415 3.00818 20.4161 3.01307 20.3916L3.02281 20.351C3.04456 20.2754 3.07993 20.204 3.12894 20.1398C3.14196 20.1235 3.15553 20.1074 3.17021 20.0913L3.19741 20.0631L4.82735 18.3483H4.82796L5.81559 17.3097C6.03587 17.078 6.38669 17.0676 6.61776 17.2798L9.35281 20.1564ZM28.1741 19.4294L28.9608 19.4263H29.9161C30.4415 19.4263 30.8714 19.8785 30.8714 20.431V20.5548C30.8714 21.1076 30.4412 21.5287 29.9161 21.5454L29.4803 21.5595C29.8306 21.3901 29.9772 20.9621 29.9335 20.5768C29.8984 20.2672 29.747 19.9698 29.4945 19.9642L29.3353 19.9605V22.7145C29.3353 22.7681 29.3441 22.7904 29.3709 22.8375C29.4135 22.9124 29.4707 22.9873 29.5293 23.0622C29.5449 23.0816 29.5602 23.101 29.5755 23.1204H28.2205C28.2409 23.0943 28.2608 23.0677 28.2798 23.0405C28.3208 22.9814 28.3573 22.9191 28.3846 22.8496C28.4023 22.8048 28.4108 22.7716 28.4108 22.724V19.7657C28.4054 19.6115 28.2596 19.5238 28.1741 19.4294ZM34.6804 21.4022L33.4501 19.547L33.3249 19.4264H34.5378L35.3596 20.8289L35.4258 20.7722L35.9225 19.9955C36.0447 19.8047 36.0281 19.5831 35.8541 19.4264H37L35.6753 21.402L35.6748 22.8354L35.9082 23.1273H34.4847L34.6852 22.8397C34.6853 22.3619 34.6689 21.8787 34.6804 21.4022ZM31.3399 19.4263C31.438 19.5681 31.4672 19.618 31.4782 19.744C31.4857 19.832 31.4801 19.8822 31.4533 19.9642L30.5382 22.755C30.4953 22.8698 30.4068 22.9965 30.2779 23.1196H31.2766C31.2023 23.0505 31.1552 22.9682 31.1378 22.8701C31.1222 22.7805 31.1227 22.747 31.1413 22.6608L31.3442 21.9979H32.5064L32.6876 22.5086C32.7066 22.5621 32.7173 22.6119 32.7222 22.6693C32.738 22.86 32.6799 23.0171 32.5359 23.1279H34.1015C33.9479 22.9841 33.8069 22.8334 33.7273 22.6506L32.5844 19.4262L31.3399 19.4263Z"
        fill="#005AAA" />
    <path fill-rule="evenodd" clip-rule="evenodd"
        d="M18.5877 19.8739L19.8575 19.1156L20.1079 19.5943L18.884 20.0626L18.5877 19.8739ZM18.9121 22.3643V20.8342C18.9121 20.7172 18.8985 20.6286 18.8713 20.5682C18.8457 20.5097 18.8014 20.4496 18.7384 20.3875V20.3662H19.372C19.4708 20.3662 19.5543 20.3615 19.6224 20.3527C19.6855 20.3459 19.7451 20.3243 19.8013 20.289H19.8217V22.3856C19.8217 22.5063 19.8336 22.5984 19.8575 22.6623C19.8812 22.7351 19.9307 22.7998 20.0056 22.8565V22.8778H18.7281V22.8565C18.8082 22.7856 18.8593 22.7146 18.8814 22.6435C18.9019 22.5745 18.9121 22.4814 18.9121 22.3643ZM20.9303 19.261H22.0117L22.9193 21.9709L23.689 19.7262C23.7031 19.639 23.6909 19.6106 23.6588 19.5355C23.6162 19.4445 23.5706 19.3559 23.5282 19.2648H24.3358C24.2879 19.4481 24.2171 19.6492 24.1562 19.8338L23.1132 22.99C22.8286 22.9309 22.5112 22.8135 22.2658 22.5713C22.0811 22.389 22.0154 22.1817 21.9243 21.9346L21.0522 19.5295C21.0177 19.4346 20.9753 19.3496 20.9303 19.261ZM16.301 22.0358L15.537 19.8397C15.5183 19.7881 15.4995 19.7365 15.4809 19.6852C15.4519 19.6107 15.4272 19.5521 15.4068 19.5094C15.3761 19.4457 15.3267 19.3756 15.2585 19.2991V19.2884H16.4466V19.3099L16.4364 19.3444C16.45 19.4421 16.4765 19.5621 16.5156 19.7042L17.2621 21.964L17.8841 19.9827L17.915 19.8877L17.947 19.7729C17.9519 19.7497 17.9551 19.7329 17.9567 19.7221C17.9584 19.7113 17.9591 19.6954 17.9591 19.6738C17.9591 19.5204 17.8808 19.3957 17.724 19.2991V19.2883H18.6592V19.3018L17.4559 22.9914L17.0496 22.8451C16.9797 22.8184 16.9168 22.7918 16.8605 22.7653C16.8043 22.7386 16.7541 22.7102 16.7098 22.68C16.6298 22.6249 16.5569 22.5483 16.4914 22.4498C16.4259 22.3513 16.3624 22.2133 16.301 22.0358ZM25.2476 20.5309V22.4673C25.2476 22.5459 25.2651 22.56 25.3115 22.623L25.5245 22.9121H24.5068C24.5643 22.821 24.6215 22.7299 24.6787 22.6388C24.723 22.5637 24.7421 22.5381 24.7421 22.451V19.7456L24.4559 19.261H25.5108L27.2186 21.5517V19.7263C27.2186 19.6391 27.2019 19.6107 27.1576 19.5356C27.1004 19.4445 27.0405 19.3559 26.9833 19.2649H28L27.788 19.5541C27.7417 19.617 27.7242 19.631 27.7242 19.7097V23.0047C27.3392 22.9519 26.9804 22.8538 26.6613 22.4293L25.2476 20.5309ZM5.03327 22.3931C5.03833 22.3983 5.04339 22.4034 5.04839 22.4085C5.12203 22.4845 5.21133 22.5394 5.29838 22.5915C5.50053 22.7136 5.72209 22.7886 5.94788 22.8167C6.05214 22.8301 6.15861 22.8329 6.26347 22.8255C6.43444 22.8144 6.60436 22.7762 6.76615 22.7113C6.83874 22.6823 6.90973 22.6481 6.97902 22.6084C7.11617 22.5294 7.24512 22.4297 7.36186 22.3082L7.40272 22.2657V22.2652L7.792 21.8604H7.7925L7.98931 21.6548L8.45014 21.175L8.7141 20.8993L8.7555 20.8569L10.4292 19.114L11.1196 18.335L11.161 18.2925C11.3718 18.0731 11.7137 18.0731 11.9244 18.2925L12.3024 18.686H12.303L12.3153 18.6989C12.1481 18.6906 11.9793 18.7532 11.8529 18.8822L10.5738 20.1924L10.5609 20.2086L8.33504 22.4896L8.3318 22.4868L7.51199 23.3256L7.45716 23.386C7.39261 23.4515 7.25766 23.5754 7.07696 23.6643C6.99524 23.7047 6.91193 23.7337 6.82972 23.7517C6.78077 23.7618 6.73073 23.7685 6.68185 23.7707H6.64467C6.51462 23.7707 6.38665 23.7405 6.26408 23.6823L5.87854 23.282L5.72154 23.1179L5 22.3581L5.03327 22.3931ZM14.35 21.6138L12.496 23.5735L10.5923 25.5865C10.5315 25.6497 10.468 25.7068 10.4009 25.7583C10.3987 25.7606 10.396 25.7628 10.3933 25.765C10.3842 25.7718 10.375 25.7791 10.3654 25.7858C10.3643 25.7869 10.3632 25.7874 10.3622 25.7886C10.075 26.0025 9.72285 26.1279 9.34325 26.1279C8.87439 26.1279 8.44854 25.9364 8.13355 25.6245L8.09 25.5842L7.76247 25.2433L6.84258 24.2847L6.49257 23.9202C6.54255 23.9286 6.59309 23.9325 6.64363 23.9325L6.68614 23.9319C6.74476 23.9297 6.80338 23.9224 6.86084 23.9101C6.95493 23.8899 7.05007 23.8563 7.14361 23.8105C7.34471 23.7113 7.49472 23.5742 7.56621 23.5014C7.5942 23.4727 7.61515 23.4487 7.62379 23.4381L8.33136 22.7142L8.33405 22.7175L10.7669 20.2249L10.7798 20.2086L11.9616 18.9974C12.1208 18.8354 12.3692 18.8142 12.5498 18.9436L12.83 19.2353C12.8306 19.2353 12.8306 19.2358 12.8306 19.2358L14.35 20.8181C14.3634 20.8322 14.3763 20.8468 14.3881 20.8617C14.5602 21.0831 14.5473 21.409 14.35 21.6138Z"
        fill="#ED1C24" />
    <path
        d="M9.35349 20.5808L9.19885 20.7343L8.92752 20.463C8.88482 20.4202 8.88537 20.3513 8.92801 20.3095C8.97125 20.2672 9.04001 20.2672 9.08265 20.3101L9.35349 20.5808ZM8.89605 21.0353L8.74141 21.1883L7.88843 20.3343C7.57173 20.0177 7.1095 19.9064 6.6814 20.044C6.62436 20.0626 6.56258 20.0315 6.54383 19.9749C6.52518 19.9174 6.55664 19.8561 6.61417 19.8375C7.12062 19.6743 7.66874 19.8062 8.04356 20.1813L8.89605 21.0353ZM7.98173 21.9437L7.82709 22.0974L6.97034 21.2397C6.92765 21.1974 6.9283 21.1285 6.97083 21.086C7.01407 21.0437 7.08333 21.0442 7.12548 21.0867L7.98173 21.9437ZM8.43862 21.4898L8.28398 21.6433L7.42936 20.7873C7.22095 20.5781 6.87966 20.5768 6.66962 20.7841C6.45958 20.9917 6.458 21.3303 6.66695 21.5389L7.21763 22.091C7.26032 22.1334 7.26032 22.2022 7.21714 22.2446C7.17444 22.287 7.10514 22.2864 7.0625 22.244L6.51138 21.6921C6.21813 21.3981 6.21971 20.9217 6.51563 20.6298C6.8115 20.3382 7.29135 20.3403 7.58455 20.6343L8.43862 21.4898ZM7.02154 22.8066C7.02002 22.8077 7.01838 22.8082 7.01675 22.8093C6.94957 22.8458 6.8813 22.8777 6.81096 22.9047L6.0528 22.1451C5.57835 21.67 5.51063 20.9257 5.89129 20.3746C5.92537 20.3255 5.99358 20.3127 6.0432 20.3466C6.09331 20.3806 6.10558 20.4484 6.07145 20.4981C5.75001 20.9628 5.80759 21.5909 6.20799 21.992L7.02154 22.8066ZM8.50264 19.8837C8.45999 19.9255 8.39014 19.9245 8.3475 19.8822C7.63624 19.1702 6.47512 19.1658 5.75862 19.872C5.04261 20.5787 5.03782 21.7324 5.74902 22.4442L6.30559 23.0021C6.30935 23.0057 6.31306 23.01 6.31519 23.0143C6.31252 23.0143 6.3099 23.0147 6.30723 23.0147C6.20591 23.0217 6.10351 23.019 6.00274 23.0073L5.59384 22.5973C4.79789 21.8007 4.80269 20.5087 5.60453 19.7177C6.40691 18.9269 7.70669 18.9321 8.50264 19.7289L8.50416 19.7305C8.54691 19.7728 8.54577 19.8411 8.50264 19.8837ZM26.8711 24.1206C26.8711 24.1832 26.8217 24.2319 26.7581 24.2319C26.6922 24.2319 26.6404 24.1832 26.6404 24.1206C26.6404 24.0579 26.6921 24.0069 26.7581 24.0069C26.8217 24.0069 26.8711 24.0579 26.8711 24.1206ZM22.896 24.3479C22.8513 24.3479 22.8466 24.3317 22.8395 24.3039C22.8324 24.239 22.875 24.211 22.9456 24.1368C22.9643 24.1183 22.9761 24.102 22.9761 24.0835C22.9761 24.0439 22.9572 24.0255 22.9335 24.0232C22.9101 24.0209 22.8631 24.0278 22.83 24.044C22.8042 24.0534 22.7829 24.0534 22.7664 24.0185L22.7572 23.9999C22.743 23.9653 22.7664 23.9534 22.79 23.942C22.8465 23.9188 22.8841 23.914 22.9287 23.914C23.0207 23.914 23.0961 23.9652 23.0937 24.0835C23.0937 24.1855 22.9571 24.2275 22.95 24.3039C22.95 24.3225 22.9313 24.3435 22.9077 24.348H22.896V24.3479ZM30.124 24.0997C30.0888 24.0463 30.0982 24.0323 30.1618 24.0323H30.1852C30.2488 24.0323 30.2725 24.0463 30.3029 24.102L30.402 24.2899C30.4254 24.3363 30.4183 24.3479 30.3665 24.3479H30.3428C30.2982 24.3479 30.2653 24.3293 30.2417 24.2922L30.124 24.0997ZM20.5659 24.2923C20.5425 24.3295 20.5094 24.348 20.4647 24.348H20.4413C20.3917 24.348 20.3801 24.3364 20.4059 24.29L20.5047 24.102C20.5354 24.0464 20.5591 24.0324 20.6227 24.0324H20.6461C20.7097 24.0324 20.7191 24.0464 20.6836 24.0997L20.5659 24.2923ZM26.2195 24.8562C26.2195 24.6914 26.1157 24.6103 25.911 24.6103C25.7016 24.6103 25.5981 24.6914 25.5981 24.8562V24.884C25.5981 25.051 25.6732 25.1346 25.911 25.1346C26.1488 25.1346 26.2195 25.051 26.2195 24.884V24.8562ZM29.1074 25.1579C29.1074 25.3806 29.1851 25.4804 29.4466 25.4804C29.703 25.4804 29.7855 25.3806 29.7855 25.1579V24.942C29.7855 24.7193 29.703 24.6195 29.4466 24.6195C29.1899 24.6195 29.1074 24.7193 29.1074 24.942V25.1579ZM24.3505 25.0953H24.0752C23.8655 25.0953 23.7691 25.1509 23.7691 25.297C23.7691 25.4294 23.856 25.4944 24.0326 25.4944C24.2491 25.4944 24.3505 25.4455 24.3505 25.2715V25.0953ZM27.8572 25.0953H27.5818C27.3724 25.0953 27.2757 25.1509 27.2757 25.297C27.2757 25.4294 27.3629 25.4944 27.5395 25.4944C27.756 25.4944 27.8572 25.4455 27.8572 25.2715V25.0953ZM26.6688 24.5522C26.6688 24.4942 26.6806 24.4779 26.7442 24.4779H26.77C26.8288 24.4779 26.8454 24.4943 26.8454 24.5522V25.5478C26.8454 25.6104 26.8288 25.6218 26.77 25.6218H26.7442C26.6806 25.6218 26.6688 25.6104 26.6688 25.5478V24.5522ZM30.2606 24.5522C30.2606 24.4942 30.2771 24.4779 30.336 24.4779H30.3617C30.4253 24.4779 30.4371 24.4943 30.4371 24.5522V25.5478C30.4371 25.6104 30.4253 25.6218 30.3617 25.6218H30.336C30.2771 25.6218 30.2606 25.6104 30.2606 25.5478V24.5522ZM20.3801 24.5522C20.3801 24.4943 20.3964 24.4779 20.4552 24.4779H20.4812C20.5448 24.4779 20.5564 24.4943 20.5564 24.5522V25.5478C20.5564 25.6104 20.5448 25.622 20.4812 25.622H20.4552C20.3964 25.622 20.3801 25.6105 20.3801 25.5478V24.5522ZM32.0184 24.0718C32.0184 24.0093 32.0352 23.9976 32.0938 23.9976H32.1198C32.1834 23.9976 32.1952 24.0093 32.1952 24.0718V24.6125C32.2656 24.508 32.3881 24.4548 32.5646 24.4548C32.8542 24.4548 33 24.5893 33 24.8608V25.5478C33 25.6104 32.9884 25.6219 32.9246 25.6219H32.8965C32.8329 25.6219 32.821 25.6104 32.821 25.5478V24.8817C32.821 24.6984 32.7388 24.6194 32.5199 24.6194C32.294 24.6194 32.1952 24.7077 32.1952 24.9213V25.5478C32.1952 25.6104 32.1833 25.6219 32.1198 25.6219H32.0937C32.0351 25.6219 32.0183 25.6104 32.0183 25.5478V24.0718H32.0184ZM30.9124 25.5478C30.9124 25.6104 30.9006 25.6219 30.837 25.6219H30.811C30.7522 25.6219 30.7359 25.6104 30.7359 25.5478V24.8887C30.7359 24.5985 30.9006 24.4547 31.228 24.4547C31.5738 24.4547 31.7175 24.6078 31.7175 24.8887V25.5478C31.7175 25.6104 31.7057 25.6219 31.6421 25.6219H31.6137C31.5504 25.6219 31.5386 25.6104 31.5386 25.5478V24.8887C31.5386 24.703 31.4655 24.6194 31.228 24.6194C30.9899 24.6194 30.9124 24.7053 30.9124 24.8887V25.5478ZM19.8931 25.3018C19.8578 25.434 19.8201 25.5245 19.7754 25.5733C19.7306 25.6196 19.66 25.6428 19.5588 25.6428C19.4576 25.6428 19.3846 25.6196 19.3399 25.5733C19.2953 25.5245 19.2575 25.434 19.2222 25.3018L18.935 24.1924C18.9185 24.1298 18.9304 24.1137 18.9962 24.1137H19.0221C19.088 24.1137 19.1092 24.1297 19.1257 24.1924L19.4128 25.3225C19.4435 25.4502 19.4765 25.4803 19.5588 25.4803C19.6366 25.4803 19.6719 25.4502 19.7024 25.3225L19.9896 24.1924C20.006 24.1298 20.0272 24.1137 20.0932 24.1137H20.119C20.1849 24.1137 20.1967 24.1297 20.1802 24.1924L19.8931 25.3018ZM30.1691 24.283C30.1691 24.3318 30.1525 24.348 30.1031 24.348H29.9618V25.1603C29.9618 25.4828 29.79 25.6451 29.4466 25.6451C29.0911 25.6451 28.9311 25.4828 28.9311 25.1603V24.9444C28.9311 24.6172 29.0934 24.4548 29.4182 24.4548C29.5995 24.4548 29.7219 24.5104 29.7855 24.6242V24.3479H29.4652C29.4111 24.3479 29.3992 24.3318 29.3992 24.2829V24.2644C29.3992 24.2157 29.4111 24.1994 29.4652 24.1994H29.7855V24.0718C29.7855 24.0092 29.7971 23.9976 29.8607 23.9976H29.8867C29.9455 23.9976 29.9618 24.0092 29.9618 24.0718V24.1994H30.1031C30.1525 24.1994 30.1691 24.2157 30.1691 24.2644V24.283ZM21.4061 24.935C21.4061 24.631 21.5733 24.4548 21.9311 24.4548C22.0089 24.4548 22.0772 24.4639 22.1385 24.4849C22.1947 24.5035 22.2089 24.5198 22.2089 24.5731V24.5964C22.2089 24.6544 22.1947 24.6705 22.1385 24.652C22.0796 24.6311 22.011 24.6195 21.9359 24.6195C21.6723 24.6195 21.5828 24.7216 21.5828 24.9375V25.1626C21.5828 25.3971 21.6887 25.4805 21.9501 25.4805C22.0299 25.4805 22.1006 25.4712 22.1618 25.4504C22.216 25.4317 22.2325 25.4504 22.2325 25.5084V25.5315C22.2325 25.5803 22.2159 25.5989 22.1571 25.6151C22.0912 25.636 22.0184 25.6452 21.9382 25.6452C21.578 25.6452 21.4061 25.492 21.4061 25.165V24.935ZM24.5268 25.2785C24.5268 25.536 24.3739 25.6451 24.035 25.6451C23.7644 25.6451 23.5925 25.5384 23.5925 25.297C23.5925 25.0557 23.7525 24.9583 24.0728 24.9583H24.3505V24.819C24.3505 24.6612 24.2423 24.6078 24.042 24.6078C23.9385 24.6078 23.8516 24.6171 23.7832 24.6332C23.7267 24.6449 23.7078 24.6309 23.7078 24.5753V24.5567C23.7078 24.5033 23.722 24.4894 23.7785 24.4777C23.856 24.4617 23.9409 24.4547 24.0326 24.4547C24.3621 24.4547 24.5268 24.5752 24.5268 24.8189V25.2785ZM28.0338 25.2785C28.0338 25.536 27.8809 25.6451 27.5419 25.6451C27.2712 25.6451 27.0994 25.5384 27.0994 25.297C27.0994 25.0557 27.2594 24.9583 27.5794 24.9583H27.8571V24.819C27.8571 24.6612 27.7489 24.6078 27.5489 24.6078C27.4454 24.6078 27.3582 24.6171 27.2899 24.6332C27.2334 24.6449 27.2145 24.6309 27.2145 24.5753V24.5567C27.2145 24.5033 27.2286 24.4894 27.2851 24.4777C27.3629 24.4617 27.4478 24.4547 27.5395 24.4547C27.869 24.4547 28.0337 24.5752 28.0337 24.8189V25.2785H28.0338ZM22.5759 25.2113C22.5759 25.3946 22.6534 25.4804 22.8912 25.4804C23.129 25.4804 23.2044 25.3969 23.2044 25.2113V24.5522C23.2044 24.4942 23.2207 24.4779 23.2796 24.4779H23.3056C23.3692 24.4779 23.381 24.4943 23.381 24.5522V25.2113C23.381 25.492 23.2372 25.6451 22.8912 25.6451C22.5641 25.6451 22.3993 25.5013 22.3993 25.2113V24.5522C22.3993 24.4942 22.4159 24.4779 22.4747 24.4779H22.5005C22.564 24.4779 22.5759 24.4943 22.5759 24.5522V25.2113H22.5759ZM25.6803 25.5965C25.6075 25.6313 25.5697 25.6962 25.5697 25.7867C25.5697 25.9375 25.6569 25.977 25.911 25.977C26.1559 25.977 26.2499 25.9375 26.2499 25.7799C26.2499 25.6335 26.163 25.6081 25.911 25.6081C25.8098 25.608 25.7321 25.6034 25.6803 25.5965ZM26.3984 24.884C26.3984 25.1532 26.2357 25.2878 25.911 25.2878C25.7838 25.2878 25.7016 25.2948 25.6616 25.3064C25.6238 25.318 25.6051 25.341 25.6051 25.376C25.6051 25.4085 25.6238 25.4294 25.6637 25.4409C25.7039 25.4503 25.7862 25.4549 25.911 25.4549C26.1065 25.4549 26.2405 25.478 26.3135 25.5269C26.3889 25.5734 26.4265 25.6545 26.4265 25.7728C26.4265 25.9051 26.3889 25.9956 26.3112 26.049C26.2357 26.1024 26.1018 26.1279 25.911 26.1279C25.7158 26.1279 25.5791 26.1024 25.5037 26.049C25.4306 25.998 25.3931 25.9166 25.3931 25.8054C25.3931 25.6939 25.4377 25.6105 25.525 25.557C25.4614 25.5269 25.4283 25.4759 25.4283 25.4039C25.4283 25.3019 25.4919 25.2415 25.619 25.2229C25.4871 25.1695 25.4214 25.0559 25.4214 24.8841V24.8563C25.4214 24.6034 25.6027 24.4549 25.9109 24.4549C26.0029 24.4549 26.0827 24.471 26.1535 24.5013L26.2877 24.3829C26.3276 24.3481 26.3463 24.3481 26.3841 24.3829L26.4004 24.3991C26.4383 24.4339 26.4383 24.4524 26.4004 24.4896L26.2945 24.5964C26.3629 24.659 26.3983 24.745 26.3983 24.8563V24.884H26.3984Z"
        fill="#009EDB" />
    <rect x="0.5" y="0.62793" width="39" height="39" rx="4.5" stroke="#D9D9D9" />
</svg>