<svg width="24" height="24" viewBox="0 0 24 24" fill="none" xmlns="http://www.w3.org/2000/svg">
<g id="c&#195;&#161; h&#225;&#187;&#147;i-01 1" clip-path="url(#clip0_111_1217)">
<g id="Group">
<g id="Layer 1">
<g id="Group_2">
<g id="Group_3">
<path id="Vector" d="M8.51789 7.22947C8.12631 6.96421 7.57473 6.85052 7.10736 6.8421C7.23368 6.91789 7.3642 6.99789 7.49894 7.0821C8.31578 7.59579 8.74105 7.87368 9.33894 8.64842C9.21684 8.08842 8.96841 7.54105 8.51789 7.22947Z" fill="url(#paint0_linear_111_1217)"/>
<path id="Vector_2" d="M16.9179 16.08C17.0863 15.6211 17.2548 15.1579 17.3432 14.6779C17.4358 14.1684 17.5411 13.6505 17.6674 13.1495C17.7937 12.6484 17.979 12.1642 18.1179 11.6632C18.3916 10.6821 18.5769 9.68421 18.7032 8.67369C18.7369 8.40421 18.7663 8.12632 18.7453 7.85263C18.7242 7.59579 18.6611 7.34737 18.5811 7.10316C18.5011 6.85895 18.4211 6.61474 18.3537 6.37053C18.2863 6.24 18.2063 6.10947 18.1179 5.97895C17.7263 5.42316 17.0948 4.97684 16.4379 4.50947C15.7811 4.04211 15.5032 3.65053 14.6779 3.54105C13.8526 3.43158 13.7769 3.40632 13.3011 3.47369C13.2253 3.48632 13.1495 3.49474 13.0779 3.50316C14.1853 3.93263 15.3221 4.3579 16.1979 5.16632C16.4758 5.42316 16.699 5.71369 16.9179 6.02105C17.1705 6.37895 17.419 6.74948 17.5495 7.17474C17.6758 7.58737 17.7095 8.01684 17.6884 8.44632C17.6716 8.87579 17.6295 9.31369 17.5242 9.73053C17.3979 10.2274 17.2379 10.7074 17.1284 11.2126C17.019 11.7179 16.9011 12.2232 16.7621 12.7242C16.4884 13.7263 16.1642 14.7116 15.7516 15.6632C15.339 16.6189 14.8632 17.5453 14.4295 18.4884C14.2148 18.96 14.0042 19.4358 13.8232 19.92C13.8105 19.9495 13.8021 19.9747 13.7937 20.0042C14.0463 20.3537 14.219 20.5558 14.219 20.5558C14.3074 20.5642 14.4379 20.5305 14.72 20.379C14.9558 20.2526 15.3726 20.0674 15.9748 19.8568C16.1011 19.0653 16.2358 18.2779 16.4505 17.5032C16.5853 17.0189 16.7495 16.5474 16.9179 16.0758V16.08Z" fill="url(#paint1_linear_111_1217)"/>
<path id="Vector_3" d="M11.4905 9.84843C11.5747 9.60001 11.6295 9.33475 11.68 9.0737C11.7347 8.80001 11.7768 8.52212 11.7684 8.24422C11.7432 7.37264 11.2968 6.59791 10.4547 6.29054C9.96211 6.10949 9.44843 6.03791 8.93895 5.94107C8.41264 5.84001 7.89053 5.72212 7.35579 5.66738C7.04 5.63791 6.73685 5.62949 6.42106 5.66317C6.19369 5.68843 5.97053 5.68843 5.73895 5.68422C5.45685 5.6758 5.19579 5.73475 4.9179 5.75159H4.88C5.26316 5.89896 5.6379 6.05896 6.03369 6.25264C7.30106 6.22317 8.61895 6.10106 9.64211 7.00212C10.1347 7.4358 10.2905 8.17686 10.3074 8.80843C10.32 9.17475 10.3074 9.56633 10.24 9.94528C10.7579 10.7369 10.9095 11.0695 11.04 11.9453C11.0779 11.76 11.1158 11.579 11.1537 11.3937C11.2547 10.8758 11.3263 10.3453 11.4905 9.84422V9.84843Z" fill="url(#paint2_linear_111_1217)"/>
<path id="Vector_4" d="M17.9832 17.8232C18.1305 16.9726 18.2653 16.0884 18.5558 15.2758C18.7032 14.8632 18.9053 14.4674 19.0863 14.0674C19.2716 13.6632 19.4526 13.2589 19.6211 12.8505C19.8232 12.3579 20.0126 11.861 20.1684 11.36C20.1221 11.1453 20.0295 10.7326 19.8737 10.2695C19.6505 9.59157 19.4821 9.24631 19.2169 8.65684C19.0611 8.31578 18.9979 8.14315 18.9432 7.97894C18.9516 8.30315 18.9095 8.62736 18.8632 8.95157C18.8169 9.30105 18.7621 9.65052 18.699 9.99578C18.6105 10.4884 18.5011 10.981 18.3705 11.4653C18.2358 11.9621 18.0547 12.4421 17.92 12.9347C17.7811 13.44 17.6926 13.9537 17.5832 14.4674C17.4779 14.9558 17.3558 15.4274 17.1874 15.8947C16.8421 16.8505 16.5432 17.7979 16.3579 18.7958C16.2947 19.1242 16.24 19.4568 16.1853 19.7895C16.6569 19.6337 17.2295 19.4653 17.9116 19.3053C17.8695 19.1621 17.8442 19.0105 17.8442 18.8589C17.8442 18.5095 17.9158 18.1684 17.9747 17.8274L17.9832 17.8232Z" fill="url(#paint3_linear_111_1217)"/>
<path id="Vector_5" d="M13.2042 12.6653C13.4484 11.6042 13.6505 10.5389 13.8821 9.47369C13.9958 8.95158 14.1263 8.42526 14.2105 7.89474C14.2905 7.37684 14.2611 6.87158 14.0758 6.37474C13.9284 5.98737 13.7347 5.63369 13.3853 5.3979C13.0695 5.18316 12.7032 5.05263 12.3326 4.96421C11.4569 4.75369 10.539 4.69474 9.64212 4.70737C9.08633 4.71579 8.53475 4.74526 7.97896 4.77895C7.49054 4.80842 6.99791 4.82948 6.50948 4.88842C6.00843 4.94737 5.51159 5.04 5.0358 5.21684C4.74948 5.32211 4.4758 5.44842 4.1937 5.5579C4.26106 5.56632 4.32843 5.58316 4.3958 5.6C4.51791 5.56211 4.64001 5.52 4.76212 5.4779C5.0737 5.36842 5.38527 5.28 5.70106 5.2C6.01685 5.12 6.34527 5.04 6.6737 5.06948C7.02317 5.09895 7.37264 5.16211 7.71791 5.22526C8.43791 5.35579 9.1537 5.51579 9.8737 5.64211C10.3958 5.73474 10.9432 5.78105 11.44 5.98737C12.2147 6.30737 12.6611 7.01474 12.9095 7.79369C13.0442 8.21474 13.12 8.65684 13.12 9.10316C13.12 9.58737 13.0147 10.0463 12.8716 10.5053C12.56 11.5074 12.3916 12.5474 12.24 13.5789C12.1979 13.8526 12.1684 14.1305 12.1305 14.4042C12.0969 14.6568 12.0337 14.9095 12.0126 15.1621C11.9874 15.4358 11.9958 15.7179 11.9495 15.9916C11.9369 16.0632 11.9326 16.1305 11.9242 16.2021C12.0421 16.5726 12.1726 16.9347 12.3158 17.2926C12.3663 16.7958 12.3958 16.2947 12.4758 15.8021C12.6526 14.7453 12.96 13.7137 13.2 12.6695L13.2042 12.6653Z" fill="url(#paint4_linear_111_1217)"/>
<path id="Vector_6" d="M13.2632 17.2674C13.5032 16.5516 13.9116 15.9074 14.1347 15.1831C14.3621 14.4505 14.5684 13.701 14.7579 12.9558C14.9558 12.1852 15.1032 11.4063 15.2547 10.6274C15.36 10.0968 15.4695 9.5663 15.5663 9.03157C15.6505 8.55157 15.7432 8.06314 15.7179 7.57051C15.6716 6.66946 15.28 5.67157 14.4968 5.16209C14.0674 4.8842 13.5453 4.80841 13.0737 4.62735C12.8126 4.5263 12.5516 4.40841 12.2779 4.33262C12.0253 4.26525 11.7684 4.22735 11.5074 4.19367C10.9726 4.11788 10.4463 4.01683 9.91158 3.9663C9.7979 3.95367 9.68842 3.94525 9.57474 3.93683C8.59369 4.1642 7.84421 4.07157 6.70316 4.3663C5.52421 4.66525 4.62316 4.94314 4.08842 5.21683C3.86948 5.33051 3.58737 5.44841 3.30106 5.58736C3.49895 5.54525 3.68842 5.52841 3.88211 5.53262C4.18106 5.42314 4.46737 5.29262 4.76632 5.17472C5.67579 4.82525 6.65685 4.75788 7.61685 4.70314C8.67369 4.63999 9.73895 4.56841 10.7958 4.65683C11.52 4.71999 12.2821 4.80841 12.9642 5.0863C13.2674 5.21262 13.5663 5.37262 13.7979 5.60841C14.08 5.89893 14.2526 6.30314 14.3495 6.69051C14.4758 7.17472 14.459 7.65051 14.3621 8.13893C14.2568 8.66946 14.139 9.19578 14.0295 9.7263C13.8021 10.7874 13.6042 11.8568 13.3516 12.9095C13.1032 13.941 12.7874 14.9684 12.6442 16.021C12.5684 16.5684 12.5474 17.1284 12.4716 17.6758C12.4716 17.6758 12.4716 17.6758 12.4716 17.68C12.6063 18.0084 12.7579 18.32 12.9137 18.6105C12.9305 18.5431 12.9474 18.4758 12.9642 18.4126C13.0695 18.0337 13.1326 17.6421 13.259 17.2674H13.2632Z" fill="url(#paint5_linear_111_1217)"/>
<path id="Vector_7" d="M11.8863 14.7284C11.9958 14.0968 12.059 13.4568 12.1642 12.8253C12.2695 12.2021 12.3621 11.5663 12.5305 10.96C12.6905 10.4 12.9011 9.85263 12.9263 9.26316C12.9642 8.3579 12.7158 7.33474 12.1432 6.61474C11.5748 5.90737 10.6779 5.86105 9.84843 5.70948C9.31791 5.61263 8.79159 5.50316 8.26528 5.3979C7.98738 5.34316 7.7137 5.29263 7.4358 5.24632C7.17475 5.20421 6.89686 5.14105 6.63159 5.14948C6.10949 5.16211 5.56633 5.33053 5.07791 5.49895C4.93054 5.54948 4.78317 5.60421 4.6358 5.65053C4.72422 5.66316 4.80843 5.67579 4.89686 5.66737C5.05686 5.65895 5.21686 5.61684 5.37686 5.60421C5.72212 5.57474 6.06317 5.61684 6.40843 5.57895C7.43159 5.46948 8.42949 5.74316 9.42738 5.92421C10.2484 6.07158 11.1663 6.26105 11.6379 7.02737C12.1305 7.84 11.9874 8.85895 11.7221 9.72632C11.6463 9.97895 11.5748 10.2189 11.5242 10.4758C11.4737 10.7326 11.4232 10.9937 11.3726 11.2505C11.2926 11.6716 11.2042 12.0884 11.1158 12.5053C11.1158 12.5347 11.1242 12.5642 11.1242 12.5937C11.2421 13.5958 11.4695 14.6653 11.7853 15.7179C11.7853 15.7011 11.7853 15.6884 11.7895 15.6716C11.8105 15.3474 11.8316 15.0358 11.8863 14.7158V14.7284Z" fill="url(#paint6_linear_111_1217)"/>
<path id="Vector_8" d="M15.2295 16.3663C15.9916 14.7242 16.5431 13.0063 16.9221 11.2379C17.0316 10.7368 17.1874 10.2526 17.3137 9.75578C17.4358 9.27999 17.4905 8.78315 17.4947 8.29052C17.4989 7.79367 17.4442 7.29262 17.2295 6.83788C17.0274 6.40841 16.741 5.99578 16.4421 5.62525C15.5537 4.5221 14.1895 4.02946 12.8968 3.5242C12.5937 3.5621 12.3158 3.58315 12.0295 3.57894C11.6421 3.57052 10.7874 3.63788 9.82315 3.86525C10.1389 3.89473 10.4505 3.93262 10.7621 3.97894C11.1832 4.04631 11.6168 4.09683 12.0337 4.18104C12.4337 4.26104 12.8 4.41683 13.1789 4.55999C13.5747 4.71157 13.9958 4.79999 14.3832 4.97262C14.6947 5.11157 14.9558 5.34736 15.1705 5.60841C15.621 6.15157 15.8737 6.83367 15.9074 7.53683C15.9326 8.02525 15.8526 8.50525 15.7684 8.98946C15.6758 9.5242 15.5663 10.0547 15.461 10.5853C15.2547 11.6421 15.0442 12.6863 14.7495 13.7221C14.6063 14.2147 14.48 14.7158 14.3284 15.2042C14.1726 15.6926 13.9368 16.1389 13.7263 16.6021C13.5116 17.0821 13.3853 17.5621 13.2589 18.0674C13.1958 18.3242 13.1116 18.5726 13.061 18.8295C13.061 18.8379 13.061 18.8463 13.0568 18.8547C13.2674 19.221 13.4737 19.541 13.6589 19.8063C13.7895 19.4653 13.9326 19.1242 14.0842 18.7874C14.4505 17.9705 14.8547 17.1705 15.2295 16.3579V16.3663Z" fill="url(#paint7_linear_111_1217)"/>
<path id="Vector_9" d="M20.9305 18.0169C21.0105 17.4948 21.381 17.1032 21.7137 16.72C22.0084 16.379 22.3116 16 22.3958 15.5453C22.421 15.4021 22.4295 15.2548 22.421 15.1116C22.1179 14.7916 21.7474 14.4548 21.44 14.0674C21.0316 14.9642 20.7495 15.9116 20.3831 16.8295C20.2147 17.2548 19.9495 17.6379 19.7895 18.0674C19.68 18.3579 19.6674 18.6358 19.7221 18.9137C20.1726 18.8253 20.5979 18.7453 21.0274 18.6526C20.9516 18.4421 20.8968 18.2316 20.9305 18.0126V18.0169Z" fill="url(#paint8_linear_111_1217)"/>
<path id="Vector_10" d="M10.1095 8.82949C10.0926 8.2358 9.97054 7.4737 9.49896 7.05686C8.94317 6.56423 8.29054 6.34949 7.55369 6.31159C7.09896 6.29054 6.64001 6.31159 6.18527 6.32844C6.43369 6.45475 6.69475 6.5937 6.96422 6.7537C7.12422 6.7537 7.28422 6.7537 7.44001 6.78317C7.88633 6.85896 8.40001 6.96002 8.7579 7.25475C9.25896 7.67159 9.50738 8.34107 9.59159 8.9937C9.68422 9.12423 9.78527 9.26738 9.89054 9.42738C9.95369 9.52002 10.0126 9.61265 10.0674 9.69686C10.1053 9.40212 10.1095 9.10738 10.1053 8.82949H10.1095Z" fill="url(#paint9_linear_111_1217)"/>
<path id="Vector_11" d="M23.7263 16.96C23.6632 16.8337 23.5958 16.7326 23.52 16.6358C23.3053 17.0442 22.8926 17.3811 22.8463 17.8737C22.8337 18.0379 22.8337 18.2021 22.8379 18.3663C23.3558 18.299 23.76 18.2526 23.7895 18.2358C23.8484 18.2021 24 17.8863 24 17.8863C24 17.8863 23.9453 17.3979 23.7263 16.9642V16.96Z" fill="url(#paint10_linear_111_1217)"/>
<path id="Vector_12" d="M22.6569 17.8021C22.7411 17.28 23.2295 16.939 23.3937 16.4716C23.2379 16.2821 23.0653 16.0716 22.88 15.7179C22.8126 15.5916 22.7242 15.4611 22.619 15.339C22.619 15.4105 22.6105 15.4863 22.5937 15.5579C22.5137 15.979 22.2695 16.3411 22 16.6653C21.6674 17.0611 21.2126 17.4779 21.1326 18.0126C21.099 18.2232 21.1411 18.4253 21.2042 18.6232C21.6295 18.539 22.16 18.459 22.6358 18.3958C22.6274 18.1979 22.6232 18 22.6569 17.8105V17.8021Z" fill="url(#paint11_linear_111_1217)"/>
<path id="Vector_13" d="M19.5747 18.0674C19.739 17.6252 20.0084 17.2295 20.1811 16.7916C20.56 15.8274 20.859 14.8295 21.3011 13.8905C21.2463 13.8147 21.1958 13.7431 21.1495 13.6631C20.6358 12.8084 20.4421 12.0084 20.2779 11.6505C20.1474 12.0463 19.9958 12.4337 19.84 12.8168C19.6716 13.2252 19.4905 13.6337 19.3095 14.0337C19.12 14.4421 18.9095 14.8505 18.7621 15.28C18.4842 16.08 18.3411 16.9389 18.1979 17.7726C18.139 18.1179 18.0547 18.4631 18.059 18.8126C18.059 18.9684 18.08 19.1158 18.1179 19.2589C18.64 19.1368 19.1074 19.0442 19.5453 18.9558C19.4737 18.6652 19.4737 18.3663 19.5832 18.0716L19.5747 18.0674Z" fill="url(#paint12_linear_111_1217)"/>
</g>
<path id="Vector_14" style="mix-blend-mode:multiply" opacity="0.8" d="M23.7263 16.96C23.6632 16.8337 23.5958 16.7326 23.52 16.6358C23.4779 16.5811 23.4358 16.5263 23.3895 16.4716C23.2337 16.2821 23.0611 16.0716 22.8758 15.7179C22.8084 15.5916 22.72 15.4611 22.6147 15.3389C22.5516 15.2632 22.4842 15.1874 22.4126 15.1116C22.1095 14.7916 21.739 14.4547 21.4316 14.0674C21.3853 14.0084 21.3432 13.9537 21.2968 13.8905C21.2421 13.8147 21.1916 13.7432 21.1453 13.6632C20.6316 12.8084 20.4379 12.0084 20.2737 11.6505C20.2484 11.5958 20.2232 11.5495 20.1979 11.5158C20.1979 11.5158 20.1895 11.4568 20.1684 11.36C20.1221 11.1453 20.0295 10.7326 19.8737 10.2695C19.6505 9.59158 19.4821 9.24632 19.2168 8.65684C19.0611 8.31579 18.9979 8.14316 18.9432 7.97895C18.9053 7.85684 18.8716 7.73895 18.8168 7.55369C18.7158 7.22105 18.5853 6.8 18.3537 6.37474C18.2863 6.24421 18.2063 6.11369 18.1179 5.98316C17.7263 5.42737 17.0947 4.98105 16.4379 4.51369C15.7811 4.04632 15.5032 3.65474 14.6779 3.54526C13.8526 3.43579 13.7768 3.41053 13.3011 3.4779C13.2253 3.49053 13.1495 3.49895 13.0779 3.50737C13.0147 3.51579 12.9558 3.52421 12.8968 3.52842C12.5937 3.56632 12.3158 3.58737 12.0295 3.58316C11.6421 3.57474 10.7874 3.64211 9.82316 3.86948C9.77263 3.88211 9.7179 3.89474 9.66737 3.90737C9.63369 3.91579 9.60421 3.92421 9.57474 3.92842C8.59369 4.15579 7.84421 4.06316 6.70316 4.3579C5.52421 4.65684 4.62316 4.93474 4.08842 5.20842C3.86948 5.32211 3.58737 5.44 3.30106 5.57895C3.49895 5.53684 3.68842 5.52 3.88211 5.52421C3.98316 5.52421 4.08842 5.53684 4.18948 5.55369C4.25685 5.56211 4.32421 5.57895 4.39158 5.59579C4.44632 5.60842 4.50106 5.62526 4.55579 5.64211C4.58106 5.64211 4.60632 5.64632 4.63158 5.65053C4.62316 5.65053 4.61895 5.65053 4.61474 5.65474C4.67369 5.67579 4.73263 5.69684 4.79579 5.7179C4.82106 5.73053 4.85053 5.73895 4.87579 5.74737C5.25895 5.89474 5.63369 6.05474 6.02948 6.24842C6.08 6.27369 6.13053 6.29895 6.18106 6.32421C6.42948 6.45053 6.69053 6.58948 6.96 6.74948C7.00632 6.77895 7.05685 6.80421 7.10316 6.83369C7.22948 6.90948 7.36 6.98948 7.49474 7.07369C8.31158 7.58737 8.73685 7.86526 9.33474 8.64C9.41474 8.74527 9.50316 8.85895 9.59158 8.98948C9.68421 9.12 9.78527 9.26316 9.89053 9.42316C9.95369 9.51579 10.0126 9.60842 10.0674 9.69263C10.1263 9.78105 10.1811 9.86526 10.2316 9.94105C10.7495 10.7326 10.9011 11.0653 11.0316 11.9411C11.0568 12.1095 11.0821 12.2947 11.1074 12.5053C11.1074 12.5347 11.1158 12.5642 11.1158 12.5937C11.2337 13.5958 11.4611 14.6653 11.7768 15.7179C11.8232 15.8737 11.8737 16.0295 11.9242 16.1853C12.0421 16.5558 12.1726 16.9179 12.3158 17.2758C12.3663 17.4063 12.4168 17.5326 12.4716 17.6632C12.4716 17.6632 12.4716 17.6632 12.4716 17.6674C12.6063 17.9958 12.7579 18.3074 12.9137 18.5979C12.96 18.6821 13.0063 18.7663 13.0526 18.8505C13.2632 19.2168 13.4695 19.5368 13.6547 19.8021C13.7011 19.8695 13.7474 19.9368 13.7895 19.9958C14.0421 20.3453 14.2147 20.5474 14.2147 20.5474C14.3032 20.5558 14.4337 20.5221 14.7158 20.3705C14.9516 20.2442 15.3684 20.0589 15.9705 19.8484C16.0421 19.8232 16.1137 19.7979 16.1895 19.7726C16.6611 19.6168 17.2337 19.4484 17.9158 19.2884C17.9326 19.2884 17.9495 19.28 17.9663 19.2758C18.0126 19.2632 18.059 19.2547 18.1053 19.2421C18.6274 19.12 19.0947 19.0274 19.5326 18.9389C19.5958 18.9263 19.6547 18.9137 19.7179 18.9011C20.1684 18.8126 20.5937 18.7326 21.0232 18.64C21.0484 18.6358 21.0737 18.6316 21.099 18.6232C21.1326 18.6147 21.1663 18.6105 21.2042 18.6021C21.6295 18.5179 22.16 18.4379 22.6358 18.3747C22.7074 18.3663 22.7747 18.3537 22.8379 18.3495C23.3558 18.2821 23.76 18.2358 23.7895 18.2189C23.8484 18.1853 24 17.8695 24 17.8695C24 17.8695 23.9453 17.3811 23.7263 16.9474V16.96ZM10.9684 11.0905C10.8042 10.5432 10.4505 9.98737 10.4084 9.78526C10.3621 9.58316 10.5558 8.96421 10.4632 8.15158C10.2695 6.43369 8.19369 6.07158 7.17053 6.11369C6.75369 6.13053 6.50106 6.11369 6.25264 6.12211C6.00421 6.13053 6.09263 6.08 5.76842 5.93263C5.44421 5.78526 5.63369 5.75579 6.4379 5.73053C7.2379 5.70526 8.16421 5.76842 9.98316 6.23158C11.8021 6.69053 11.7137 8.14316 11.4232 9.49053C11.1326 10.8379 11.1326 11.6379 10.9726 11.0947L10.9684 11.0905ZM11.5705 14.2947C11.4147 13.4105 11.2253 12.8926 11.2758 12.6526C11.3263 12.4126 11.6295 11.1368 11.8947 10.1221C12.1642 9.10737 12.1516 8.36632 12.0632 7.83158C11.9663 7.26316 11.9116 7.04 11.3853 6.55579C10.859 6.07158 9.88211 5.93263 8.78737 5.71369C7.69264 5.49895 7.08632 5.3979 6.56 5.40632C6.03369 5.41474 5.22527 5.57474 5.94527 5.34737C6.66948 5.12 7.25895 5.26316 8.06737 5.42316C8.87579 5.58316 10.7242 5.94105 11.0147 6.04211C11.3053 6.14316 12.4295 6.44211 12.6442 7.99579C12.8632 9.54948 12.4758 10 12.1516 11.4316C11.8232 12.8632 11.7263 15.1789 11.5705 14.2905V14.2947ZM12.3032 16.6905C12.2611 16.4884 12.0463 16.1095 12.0884 15.6547C12.2821 13.6758 12.6105 11.9705 12.8968 10.9979C13.1832 10.0211 13.4232 9.4779 13.2126 7.86105C12.9811 6.09263 12.2779 5.73474 10.7958 5.53684C9.31369 5.33895 8.41685 5.18737 7.75579 5.05684C7.28421 4.96 6.61895 4.95579 7.51158 4.91369C8.4 4.86737 10.5726 4.6779 12.4 5.10316C14.2274 5.52421 14.1137 6.72842 13.8905 8.64842C13.6674 10.5642 13.3558 11.6758 12.8421 13.5916C12.3284 15.5074 12.3411 16.8968 12.299 16.6947L12.3032 16.6905ZM12.9305 18.1726C12.9095 18.24 12.6611 17.8905 12.6653 17.6168C12.6863 16.4716 13.099 14.7579 13.3895 13.5874C13.68 12.4211 14.5137 9.63369 14.6147 7.74316C14.7158 5.85684 14.0253 5.33474 13.1705 5.05263C12.3158 4.77474 11.8526 4.60632 10.8632 4.55158C9.87369 4.49684 8.73685 4.57263 7.34316 4.61053C5.95369 4.64421 6.01685 4.6779 6.56421 4.52211C7.18316 4.34526 8.18106 4.24421 8.65685 4.18948C9.13685 4.13474 9.7979 3.98737 10.1137 4.03369C10.4295 4.08 11.819 4.25684 12.5432 4.52211C13.2674 4.78737 14.08 4.95579 14.7242 5.4779C15.3684 6 15.8611 7.49895 15.4611 8.99369C15.0611 10.4884 14.5895 12.9937 14.2232 14.3495C13.8568 15.7095 13.4779 16.1558 13.2337 16.9726C12.9895 17.7895 12.9516 18.1011 12.9305 18.1684V18.1726ZM13.6632 19.3053C13.6632 19.3053 13.2716 18.9137 13.2211 18.7747C13.2211 18.7747 13.4484 17.7389 13.8653 16.7116C14.2821 15.6842 14.5853 14.8758 14.8674 13.6295C15.1495 12.3832 15.9874 10.0547 16.0547 8.18527C16.1221 6.31579 15.5411 5.20421 14.3495 4.81263C13.9874 4.69474 13.5074 4.55579 13.1284 4.37474C12.7453 4.1979 12.2653 4.17684 11.8147 4.08C11.3642 3.98737 10.4716 3.84 10.5474 3.82316C10.7368 3.78105 11.7811 3.63369 12.3074 3.65474C12.8337 3.67579 12.8547 3.58316 12.9684 3.61684C13.0779 3.65053 14.5768 4.30737 15.0737 4.55579C15.5705 4.80421 16.3158 5.45684 16.8884 6.36632C17.4611 7.27579 17.6168 8.51369 16.8884 10.8884C16.16 13.2589 15.8232 14.88 14.9053 16.7074C13.9874 18.5347 13.6716 19.3011 13.6716 19.3011L13.6632 19.3053ZM15.84 19.5074C15.84 19.6968 15.1874 19.7095 14.6358 20.1095C14.0884 20.5095 13.979 19.9116 14.4463 18.9558V18.9179C14.4463 18.9179 15.4358 17.0021 15.979 15.7011C16.4884 14.4842 16.6105 14.0253 16.9895 12.5095C17.2253 11.5705 17.3937 11.0063 17.7011 9.54948C18.0084 8.09684 18.1263 6.90948 16.9895 5.76421C15.8526 4.62316 15.2674 4.30316 14.3326 3.92421C13.76 3.68842 13.9537 3.77684 14.5263 3.70105C15.099 3.62526 15.8316 4.13895 16.8884 4.96421C17.7432 5.62948 19.0147 6.71158 18.5137 8.88C17.8021 11.9537 17.6547 12.6358 17.4232 13.4821C17.1916 14.3284 17.3768 14.6232 16.6779 16.1895C15.9747 17.7558 15.8442 19.3137 15.8442 19.5032L15.84 19.5074ZM17.7726 18.1768C17.5705 19.1032 17.7726 18.9221 17.2211 19.12C16.6695 19.3221 16.5347 19.4021 16.5853 19.12C16.6358 18.8379 16.6021 17.8821 17.12 16.4884C17.6379 15.0947 17.7558 14.6568 17.9537 13.5832C18.1558 12.5053 18.8716 10.9937 19.0653 8.88C19.0863 8.63158 19.12 8.86316 19.3558 9.47369C19.5916 10.0842 19.7558 10.9095 19.8232 11.2674C19.8905 11.6211 19.9621 11.6716 18.9516 13.7937C17.9368 15.9158 17.9705 17.2505 17.7684 18.1768H17.7726ZM19.5747 17.4274C19.2168 18.2189 19.3305 18.32 19.3474 18.6526C19.3642 18.9853 19.2463 18.8589 18.5474 19.0358C18.1558 19.1368 18.1642 19.2042 18.1853 18.8589C18.2063 18.5095 18.3621 17.4568 18.5642 16.5432C18.8042 15.4611 18.8505 15.4484 19.4863 14.0463C20.1263 12.6442 20.2653 12.0674 20.3326 12.4C20.4 12.7326 20.8253 13.36 21.0105 13.6547C21.1958 13.9453 21.0021 13.8358 20.5684 14.9474C20.1347 16.0589 19.9326 16.6358 19.5747 17.4274ZM20.8505 18.3032C20.9053 18.5811 20.219 18.5979 19.8611 18.72C19.8611 18.72 19.6716 18.2821 20.1053 17.5579C20.5389 16.8337 20.6611 16.6611 20.9221 15.8863C21.0905 15.3937 21.4063 14.56 21.44 14.4042C21.4737 14.2484 21.6463 14.7368 21.8147 14.8842C21.9874 15.0316 22.2611 15.1705 22.2568 15.3263C22.2568 15.4863 21.9916 16.1768 21.44 16.8084C20.8842 17.4442 20.7621 17.8653 20.8505 18.2989V18.3032ZM22.5305 17.6716C22.4505 17.9453 22.4716 18.2484 22.4716 18.2484C22.4716 18.2484 21.7474 18.3411 21.44 18.3874C21.3305 18.4042 21.1368 18.0547 21.3347 17.6716C21.5326 17.2884 21.5747 17.2758 21.7221 17.1326C22.0547 16.8084 22.6105 16 22.6779 15.8105C22.7453 15.6211 22.8337 16.0421 22.9558 16.1895C23.0779 16.3411 23.2674 16.4253 23.2126 16.5474C23.1579 16.6653 22.6105 17.3937 22.5347 17.6716H22.5305ZM23.3137 18.1768C22.9137 18.2611 22.7705 18.2442 23.0737 17.5537C23.2084 17.2421 23.52 16.7832 23.52 16.7832C23.52 16.7832 23.6295 16.9558 23.8063 17.4947C23.9832 18.0379 23.7137 18.0926 23.3137 18.1768Z" fill="url(#paint13_linear_111_1217)"/>
<path id="Vector_15" style="mix-blend-mode:multiply" opacity="0.8" d="M23.7263 16.96C23.6632 16.8337 23.5958 16.7326 23.52 16.6358C23.4779 16.5811 23.4358 16.5263 23.3895 16.4716C23.2337 16.2821 23.0611 16.0716 22.8758 15.7179C22.8084 15.5916 22.72 15.4611 22.6147 15.3389C22.5516 15.2632 22.4842 15.1874 22.4126 15.1116C22.1095 14.7916 21.739 14.4547 21.4316 14.0674C21.3853 14.0084 21.3432 13.9537 21.2968 13.8905C21.2421 13.8147 21.1916 13.7432 21.1453 13.6632C20.6316 12.8084 20.4379 12.0084 20.2737 11.6505C20.2484 11.5958 20.2232 11.5495 20.1979 11.5158C20.1979 11.5158 20.1895 11.4568 20.1684 11.36C20.1221 11.1453 20.0295 10.7326 19.8737 10.2695C19.6505 9.59158 19.4821 9.24632 19.2168 8.65684C19.0611 8.31579 18.9979 8.14316 18.9432 7.97895C18.9053 7.85684 18.8716 7.73895 18.8168 7.55369C18.7158 7.22105 18.5853 6.8 18.3537 6.37474C18.2863 6.24421 18.2063 6.11369 18.1179 5.98316C17.7263 5.42737 17.0947 4.98105 16.4379 4.51369C15.7811 4.04632 15.5032 3.65474 14.6779 3.54526C13.8526 3.43579 13.7768 3.41053 13.3011 3.4779C13.2253 3.49053 13.1495 3.49895 13.0779 3.50737C13.0147 3.51579 12.9558 3.52421 12.8968 3.52842C12.5937 3.56632 12.3158 3.58737 12.0295 3.58316C11.6421 3.57474 10.7874 3.64211 9.82316 3.86948C9.77263 3.88211 9.7179 3.89474 9.66737 3.90737C9.63369 3.91579 9.60421 3.92421 9.57474 3.92842C8.59369 4.15579 7.84421 4.06316 6.70316 4.3579C5.52421 4.65684 4.62316 4.93474 4.08842 5.20842C3.86948 5.32211 3.58737 5.44 3.30106 5.57895C3.49895 5.53684 3.68842 5.52 3.88211 5.52421C3.98316 5.52421 4.08842 5.53684 4.18948 5.55369C4.25685 5.56211 4.32421 5.57895 4.39158 5.59579C4.44632 5.60842 4.50106 5.62526 4.55579 5.64211C4.58106 5.64211 4.60632 5.64632 4.63158 5.65053C4.62316 5.65053 4.61895 5.65053 4.61474 5.65474C4.67369 5.67579 4.73263 5.69684 4.79579 5.7179C4.82106 5.73053 4.85053 5.73895 4.87579 5.74737C5.25895 5.89474 5.63369 6.05474 6.02948 6.24842C6.08 6.27369 6.13053 6.29895 6.18106 6.32421C6.42948 6.45053 6.69053 6.58948 6.96 6.74948C7.00632 6.77895 7.05685 6.80421 7.10316 6.83369C7.22948 6.90948 7.36 6.98948 7.49474 7.07369C8.31158 7.58737 8.73685 7.86526 9.33474 8.64C9.41474 8.74527 9.50316 8.85895 9.59158 8.98948C9.68421 9.12 9.78527 9.26316 9.89053 9.42316C9.95369 9.51579 10.0126 9.60842 10.0674 9.69263C10.1263 9.78105 10.1811 9.86526 10.2316 9.94105C10.7495 10.7326 10.9011 11.0653 11.0316 11.9411C11.0568 12.1095 11.0821 12.2947 11.1074 12.5053C11.1074 12.5347 11.1158 12.5642 11.1158 12.5937C11.2337 13.5958 11.4611 14.6653 11.7768 15.7179C11.8232 15.8737 11.8737 16.0295 11.9242 16.1853C12.0421 16.5558 12.1726 16.9179 12.3158 17.2758C12.3663 17.4063 12.4168 17.5326 12.4716 17.6632C12.4716 17.6632 12.4716 17.6632 12.4716 17.6674C12.6063 17.9958 12.7579 18.3074 12.9137 18.5979C12.96 18.6821 13.0063 18.7663 13.0526 18.8505C13.2632 19.2168 13.4695 19.5368 13.6547 19.8021C13.7011 19.8695 13.7474 19.9368 13.7895 19.9958C14.0421 20.3453 14.2147 20.5474 14.2147 20.5474C14.3032 20.5558 14.4337 20.5221 14.7158 20.3705C14.9516 20.2442 15.3684 20.0589 15.9705 19.8484C16.0421 19.8232 16.1137 19.7979 16.1895 19.7726C16.6611 19.6168 17.2337 19.4484 17.9158 19.2884C17.9326 19.2884 17.9495 19.28 17.9663 19.2758C18.0126 19.2632 18.059 19.2547 18.1053 19.2421C18.6274 19.12 19.0947 19.0274 19.5326 18.9389C19.5958 18.9263 19.6547 18.9137 19.7179 18.9011C20.1684 18.8126 20.5937 18.7326 21.0232 18.64C21.0484 18.6358 21.0737 18.6316 21.099 18.6232C21.1326 18.6147 21.1663 18.6105 21.2042 18.6021C21.6295 18.5179 22.16 18.4379 22.6358 18.3747C22.7074 18.3663 22.7747 18.3537 22.8379 18.3495C23.3558 18.2821 23.76 18.2358 23.7895 18.2189C23.8484 18.1853 24 17.8695 24 17.8695C24 17.8695 23.9453 17.3811 23.7263 16.9474V16.96Z" fill="url(#paint14_radial_111_1217)"/>
<g id="Group_4">
<path id="Vector_16" d="M13.3558 12.9095C13.6084 11.8568 13.8063 10.7874 14.0337 9.72631C14.1474 9.19578 14.2653 8.66947 14.3663 8.13894C14.4632 7.65052 14.48 7.17473 14.3537 6.69052C14.2526 6.30315 14.0842 5.89894 13.8021 5.60841C13.5705 5.37263 13.2716 5.20841 12.9684 5.08631C12.2905 4.80841 11.5284 4.71999 10.8 4.65684C9.74316 4.56842 8.6779 4.63999 7.62106 4.70315C6.65685 4.75789 5.68001 4.82947 4.77053 5.17473C4.47159 5.28841 4.18527 5.42315 3.88632 5.53263C3.98737 5.53263 4.09264 5.54526 4.19369 5.5621C4.4758 5.45263 4.74948 5.32631 5.0358 5.22105C5.50737 5.04841 6.00843 4.95578 6.50948 4.89263C6.9979 4.83368 7.48632 4.80841 7.97895 4.78315C8.53474 4.74947 9.08632 4.71999 9.64211 4.71157C10.539 4.70315 11.4568 4.75789 12.3326 4.96842C12.7032 5.05684 13.0695 5.18736 13.3853 5.4021C13.7347 5.6421 13.9284 5.99157 14.0758 6.37894C14.2611 6.87578 14.2905 7.38105 14.2105 7.89894C14.1263 8.42947 13.9958 8.95157 13.8821 9.47789C13.6505 10.5389 13.4484 11.6084 13.2042 12.6695C12.9642 13.7137 12.6568 14.741 12.48 15.8021C12.3958 16.2947 12.3705 16.7958 12.32 17.2926C12.3705 17.4232 12.4211 17.5495 12.4758 17.68C12.5516 17.1326 12.5768 16.5726 12.6484 16.0253C12.7916 14.9726 13.1074 13.9453 13.3558 12.9137V12.9095Z" fill="url(#paint15_linear_111_1217)"/>
<path id="Vector_17" d="M11.52 10.4842C11.5705 10.2274 11.6379 9.98315 11.7179 9.73473C11.9832 8.86736 12.1305 7.84841 11.6337 7.03578C11.1663 6.26946 10.2442 6.07999 9.42317 5.93262C8.42527 5.75157 7.42738 5.47788 6.40422 5.58736C6.05896 5.62525 5.7179 5.58315 5.37264 5.61262C5.21264 5.62525 5.05685 5.66736 4.89264 5.67578C4.80422 5.67999 4.72001 5.67578 4.63159 5.65894C4.62317 5.65894 4.61896 5.65894 4.61475 5.66315C4.67369 5.6842 4.73264 5.70525 4.7958 5.72631C4.82106 5.73894 4.85054 5.74736 4.8758 5.75578H4.91369C5.19159 5.73894 5.45264 5.67999 5.73475 5.68841C5.96211 5.69262 6.18948 5.68841 6.41685 5.66736C6.73264 5.63367 7.0358 5.6421 7.35159 5.67157C7.88632 5.7221 8.40843 5.83999 8.93475 5.94525C9.44422 6.04631 9.96211 6.11788 10.4505 6.29473C11.2926 6.60209 11.739 7.37683 11.7642 8.24841C11.7726 8.52631 11.7305 8.8042 11.6758 9.07788C11.6253 9.33473 11.5705 9.59999 11.4863 9.85262C11.3179 10.3495 11.2505 10.8842 11.1495 11.4021C11.1116 11.5831 11.0779 11.7684 11.0358 11.9537C11.0611 12.1221 11.0863 12.3074 11.1116 12.5179C11.2 12.101 11.2884 11.6842 11.3684 11.2631C11.419 11.0063 11.4695 10.7495 11.52 10.4884V10.4842Z" fill="url(#paint16_linear_111_1217)"/>
<path id="Vector_18" d="M12.021 15.1537C12.0421 14.901 12.1053 14.6484 12.1389 14.3958C12.1768 14.1221 12.2063 13.8442 12.2484 13.5705C12.4 12.5347 12.5684 11.4947 12.88 10.4968C13.0232 10.0379 13.1284 9.57893 13.1284 9.09472C13.1284 8.65262 13.0484 8.2063 12.9179 7.78525C12.6695 7.0063 12.2274 6.29893 11.4484 5.97893C10.9516 5.77262 10.4042 5.7263 9.8821 5.63367C9.1621 5.50735 8.44631 5.34735 7.72631 5.21683C7.38105 5.15367 7.03157 5.09051 6.6821 5.06104C6.35368 5.03577 6.02526 5.11156 5.70947 5.19156C5.38947 5.27156 5.07789 5.35998 4.77052 5.46946C4.65263 5.51156 4.53052 5.55367 4.40421 5.59156C4.45894 5.60419 4.51368 5.62104 4.56842 5.63788C4.59368 5.63788 4.61894 5.64209 4.64421 5.6463C4.79157 5.59998 4.93894 5.54525 5.08631 5.49472C5.57473 5.3263 6.1221 5.15788 6.63999 5.14525C6.90526 5.13683 7.17894 5.19998 7.44421 5.24209C7.7221 5.2884 7.99578 5.33893 8.27368 5.39367C8.79999 5.49472 9.32631 5.6084 9.85684 5.70525C10.6863 5.85683 11.5832 5.90314 12.1516 6.61051C12.7284 7.33051 12.9726 8.35367 12.9347 9.25893C12.9095 9.8484 12.6947 10.3958 12.5389 10.9558C12.3663 11.5621 12.2737 12.2021 12.1726 12.821C12.0674 13.4526 12.0042 14.0926 11.8947 14.7242C11.84 15.0442 11.8189 15.3558 11.7979 15.68C11.7979 15.6968 11.7979 15.7095 11.7937 15.7263C11.84 15.8821 11.8905 16.0379 11.941 16.1937C11.9453 16.1221 11.9537 16.0547 11.9663 15.9831C12.0126 15.7095 12.0042 15.4274 12.0295 15.1537H12.021Z" fill="url(#paint17_linear_111_1217)"/>
<path id="Vector_19" d="M13.2632 18.0758C13.3895 17.5705 13.5158 17.0863 13.7305 16.6105C13.9368 16.1431 14.1768 15.701 14.3326 15.2126C14.4884 14.7242 14.6147 14.2231 14.7537 13.7305C15.0484 12.6947 15.2589 11.6463 15.4653 10.5937C15.5705 10.0631 15.68 9.53261 15.7726 8.99787C15.8568 8.51787 15.9368 8.03787 15.9116 7.54524C15.8737 6.84208 15.6253 6.15997 15.1747 5.61682C14.96 5.35576 14.6989 5.11997 14.3874 4.98103C14 4.80839 13.5789 4.72418 13.1832 4.56839C12.8042 4.42103 12.4379 4.26945 12.0379 4.18945C11.6168 4.10945 11.1874 4.05471 10.7663 3.98734C10.4547 3.94103 10.1389 3.89892 9.82737 3.87366C9.77684 3.88629 9.72211 3.89892 9.67158 3.91155C9.6379 3.91997 9.60842 3.92839 9.57895 3.9326C9.69263 3.94103 9.80211 3.94945 9.91579 3.96208C10.4505 4.01682 10.9811 4.11787 11.5116 4.18945C11.7726 4.22313 12.0295 4.26103 12.2821 4.32839C12.5558 4.40418 12.8168 4.52208 13.0779 4.62313C13.5495 4.80839 14.0716 4.87997 14.5011 5.15787C15.2842 5.67155 15.6716 6.66524 15.7221 7.56629C15.7474 8.05471 15.6547 8.54313 15.5705 9.02734C15.4779 9.56208 15.3642 10.0926 15.2589 10.6231C15.1074 11.4021 14.96 12.181 14.7621 12.9516C14.5726 13.6968 14.3621 14.4421 14.1389 15.1789C13.9158 15.9031 13.5074 16.5431 13.2674 17.2631C13.1453 17.6379 13.0821 18.0294 12.9726 18.4084C12.9558 18.4716 12.9389 18.5389 12.9221 18.6063C12.9684 18.6905 13.0147 18.7747 13.0611 18.8589C13.0611 18.8505 13.0611 18.8421 13.0653 18.8337C13.1158 18.5768 13.2 18.3242 13.2632 18.0716V18.0758Z" fill="url(#paint18_linear_111_1217)"/>
<path id="Vector_20" d="M14.4379 18.4926C14.8716 17.5495 15.3474 16.6231 15.76 15.6674C16.1726 14.7158 16.4969 13.7263 16.7705 12.7284C16.9053 12.2274 17.0274 11.7221 17.1369 11.2168C17.2463 10.7158 17.4063 10.2316 17.5326 9.73472C17.6379 9.31788 17.68 8.87578 17.6969 8.45051C17.7137 8.02104 17.68 7.59157 17.5579 7.17893C17.4316 6.75788 17.179 6.38314 16.9263 6.02525C16.7074 5.71788 16.4842 5.42735 16.2063 5.17051C15.3305 4.36209 14.1895 3.93683 13.0863 3.50735C13.0232 3.51578 12.9642 3.5242 12.9053 3.52841C14.1979 4.03367 15.5663 4.53051 16.4505 5.62946C16.7495 5.99999 17.0358 6.41262 17.2379 6.84209C17.4526 7.29683 17.5074 7.79788 17.5032 8.29472C17.499 8.78314 17.44 9.2842 17.3221 9.75999C17.1958 10.2568 17.04 10.741 16.9305 11.2421C16.5516 13.0105 15.9958 14.7284 15.2379 16.3705C14.8632 17.1831 14.459 17.9831 14.0926 18.8C13.9411 19.1368 13.8021 19.4737 13.6674 19.8189C13.7137 19.8863 13.76 19.9537 13.8021 20.0126C13.8105 19.9831 13.8232 19.9579 13.8316 19.9284C14.0126 19.4442 14.2232 18.9684 14.4379 18.4968V18.4926Z" fill="url(#paint19_linear_111_1217)"/>
<path id="Vector_21" d="M17.1958 15.8947C17.3642 15.4231 17.4863 14.9516 17.5916 14.4674C17.701 13.9537 17.7895 13.44 17.9284 12.9347C18.0632 12.4379 18.2484 11.9579 18.3789 11.4653C18.5095 10.981 18.6147 10.4926 18.7074 9.99578C18.7705 9.65051 18.821 9.30104 18.8716 8.95157C18.9179 8.62736 18.96 8.30315 18.9516 7.97894C18.9137 7.85683 18.88 7.73894 18.8253 7.55367C18.7242 7.22104 18.5937 6.79999 18.3621 6.37473C18.4253 6.61894 18.5095 6.86315 18.5895 7.10736C18.6695 7.35157 18.7326 7.59999 18.7537 7.85683C18.7747 8.13051 18.7453 8.4042 18.7116 8.67788C18.581 9.68841 18.4 10.6863 18.1263 11.6674C17.9874 12.1642 17.8021 12.6484 17.6758 13.1537C17.5495 13.6589 17.4442 14.1726 17.3516 14.6821C17.2632 15.1663 17.0947 15.6295 16.9263 16.0842C16.7537 16.5558 16.5895 17.0316 16.4589 17.5116C16.2442 18.2863 16.1095 19.0737 15.9832 19.8653C16.0547 19.84 16.1263 19.8147 16.2021 19.7895C16.2568 19.4568 16.3116 19.1284 16.3747 18.7958C16.5642 17.7979 16.8632 16.8505 17.2042 15.8947H17.1958Z" fill="url(#paint20_linear_111_1217)"/>
<path id="Vector_22" d="M18.1937 17.7726C18.3369 16.9389 18.48 16.08 18.7579 15.28C18.9053 14.8505 19.12 14.4463 19.3053 14.0337C19.4905 13.6295 19.6674 13.2252 19.8358 12.8168C19.9958 12.4337 20.1432 12.0421 20.2737 11.6505C20.2484 11.5958 20.2232 11.5495 20.1979 11.5158C20.1979 11.5158 20.1895 11.4568 20.1684 11.36C20.0084 11.8652 19.8232 12.3621 19.6211 12.8505C19.4526 13.2589 19.2716 13.6631 19.0863 14.0674C18.9053 14.4674 18.7032 14.8589 18.5558 15.2758C18.2653 16.0884 18.1305 16.9726 17.9832 17.8231C17.9242 18.1642 17.8484 18.5052 17.8526 18.8547C17.8526 19.0063 17.8779 19.1579 17.92 19.301C17.9369 19.301 17.9537 19.2926 17.9705 19.2884C18.0169 19.2758 18.0632 19.2674 18.1095 19.2547C18.0758 19.1116 18.0505 18.9642 18.0505 18.8084C18.0505 18.4589 18.1305 18.1095 18.1895 17.7684L18.1937 17.7726Z" fill="url(#paint21_linear_111_1217)"/>
<path id="Vector_23" d="M19.7853 18.0716C19.9453 17.6421 20.2105 17.2589 20.379 16.8337C20.7453 15.9158 21.0274 14.9684 21.4358 14.0716C21.3895 14.0126 21.3474 13.9579 21.3011 13.8947C20.859 14.8337 20.56 15.8316 20.1811 16.7958C20.0084 17.2337 19.739 17.6295 19.5747 18.0716C19.4611 18.3705 19.4653 18.6652 19.5369 18.9558C19.6 18.9431 19.659 18.9305 19.7221 18.9179C19.6674 18.64 19.68 18.3579 19.7895 18.0716H19.7853Z" fill="url(#paint22_linear_111_1217)"/>
<path id="Vector_24" d="M21.1326 18.0084C21.2169 17.4695 21.6674 17.0568 22 16.661C22.2695 16.3368 22.5179 15.9789 22.5937 15.5537C22.6063 15.4821 22.6148 15.4105 22.619 15.3347C22.5558 15.2589 22.4884 15.1832 22.4169 15.1074C22.4253 15.2505 22.4169 15.3979 22.3916 15.541C22.3074 15.9958 22.0042 16.3747 21.7095 16.7158C21.3769 17.0989 21.0063 17.4905 20.9263 18.0126C20.8926 18.2316 20.9432 18.4421 21.0232 18.6526C21.0484 18.6484 21.0737 18.6442 21.099 18.6358C21.1326 18.6274 21.1663 18.6231 21.2042 18.6147C21.1369 18.4168 21.099 18.2189 21.1326 18.0042V18.0084Z" fill="url(#paint23_linear_111_1217)"/>
<path id="Vector_25" d="M22.8463 17.8695C22.8926 17.3768 23.3095 17.0442 23.52 16.6316C23.4779 16.5768 23.4358 16.5221 23.3895 16.4673C23.2253 16.9347 22.7368 17.28 22.6526 17.7979C22.6232 17.9916 22.6232 18.1895 22.6316 18.3831C22.7032 18.3747 22.7705 18.3621 22.8337 18.3579C22.8295 18.1937 22.8253 18.0295 22.8421 17.8652L22.8463 17.8695Z" fill="url(#paint24_linear_111_1217)"/>
<path id="Vector_26" d="M10.3074 8.80842C10.2905 8.18105 10.1305 7.43999 9.64211 7.0021C8.61895 6.09684 7.30106 6.21894 6.03369 6.25263C6.08422 6.27789 6.13474 6.30315 6.18527 6.32842C6.64001 6.31157 7.09895 6.28631 7.55369 6.31157C8.29053 6.34947 8.94316 6.56421 9.49895 7.05684C9.97053 7.47368 10.0926 8.23578 10.1095 8.82947C10.1179 9.10736 10.1095 9.4021 10.0716 9.69684C10.1305 9.78526 10.1853 9.86947 10.2358 9.94526C10.3032 9.56631 10.3158 9.17473 10.3032 8.80842H10.3074Z" fill="url(#paint25_linear_111_1217)"/>
<path id="Vector_27" d="M8.7621 7.25893C8.4042 6.96419 7.88631 6.86314 7.4442 6.78735C7.28841 6.75787 7.1242 6.76208 6.96841 6.75787C7.01473 6.78735 7.06526 6.81261 7.11157 6.84208C7.57894 6.85472 8.13052 6.96419 8.5221 7.22945C8.97263 7.54103 9.22105 8.0884 9.34315 8.6484C9.42315 8.75366 9.51157 8.86735 9.59999 8.99787C9.51157 8.34524 9.26736 7.67577 8.76631 7.25893H8.7621Z" fill="url(#paint26_linear_111_1217)"/>
</g>
<g id="Group_5">
<g id="Group_6">
<path id="Vector_28" d="M10.5474 14.0168C10.7495 14.4463 11.1369 14.7495 11.5663 14.9516C11.3642 14.1558 11.2084 13.36 11.12 12.6063C11.1032 12.4716 11.0905 12.3453 11.0737 12.2274C10.8379 12.8253 10.2274 13.3347 10.5432 14.0168H10.5474Z" fill="url(#paint27_linear_111_1217)"/>
<path id="Vector_29" d="M0.90104 7.33474C0.804198 7.33474 0.707356 7.31368 0.614724 7.28421C0.597882 8.02947 0.837882 8.74105 1.21262 9.38947C1.46104 9.63368 1.75999 9.8821 2.12209 10.1263C2.46736 10.3621 2.78315 10.5853 3.07367 10.8084C2.83367 10.5179 2.58946 10.2274 2.34946 9.93684C1.75578 9.20842 1.05683 8.30737 0.89683 7.33895L0.90104 7.33474Z" fill="url(#paint28_linear_111_1217)"/>
<path id="Vector_30" d="M8.93053 10.2779C9.46948 10.2358 9.73474 9.80208 9.82317 9.32629C9.66317 9.08629 9.5158 8.87577 9.37685 8.69892C9.22106 8.59366 9.06948 8.50103 8.87159 8.46735C8.68211 8.43366 8.49685 8.40419 8.31159 8.35787C8.06738 8.29471 7.82317 8.1684 7.65053 7.98313C7.41895 7.73892 7.29264 7.43998 7.11159 7.15787C6.96843 6.93471 6.80843 6.73682 6.61895 6.55998C6.46738 6.47577 6.32001 6.39577 6.17685 6.32419C6.56843 7.23366 6.81685 8.20629 7.32211 9.06103C7.64632 9.60419 8.21053 10.3284 8.92632 10.2737L8.93053 10.2779Z" fill="url(#paint29_linear_111_1217)"/>
<path id="Vector_31" d="M7.78104 7.88631C8.11789 8.23999 8.51789 8.29894 8.97262 8.39157C9.05262 8.40842 9.1242 8.42947 9.19157 8.45473C8.66946 7.82315 8.2442 7.54947 7.50315 7.07789C7.3642 6.99368 7.23368 6.90947 7.10315 6.83368C7.15789 6.90105 7.21262 6.97263 7.25894 7.04842C7.43157 7.31789 7.5621 7.64631 7.78104 7.8821V7.88631Z" fill="url(#paint30_linear_111_1217)"/>
<path id="Vector_32" d="M0.353683 7.17051C0.143156 7.06524 -0.00842247 6.97261 -1.41843e-06 7.08209C-1.41843e-06 7.08209 -0.021054 7.75998 0.581051 8.64419C0.40842 8.17261 0.319999 7.67998 0.353683 7.17051Z" fill="url(#paint31_linear_111_1217)"/>
<path id="Vector_33" d="M6.46315 8.61052C6.81262 9.46105 7.23367 10.2737 7.77262 11.0189C8.18525 11.5958 8.75788 12.4126 9.48209 12.6189C10.3116 12.8547 10.6779 11.9116 10.8631 11.1326C10.7116 10.661 10.4674 10.2905 9.97893 9.55368C9.85683 9.95789 9.58315 10.2863 9.11578 10.3621C8.5642 10.4463 7.97472 10.1053 7.61683 9.70947C6.73262 8.73263 6.47157 7.39368 5.94525 6.21052C5.65051 6.06736 5.36841 5.94526 5.08209 5.83157C5.81472 6.59789 6.06736 7.65052 6.46736 8.61473L6.46315 8.61052Z" fill="url(#paint32_linear_111_1217)"/>
<path id="Vector_34" d="M4.11369 9.62103C4.21053 9.70945 4.1979 9.71366 4.18948 9.57893C4.18948 9.51156 4.18106 9.4484 4.17264 9.38524C4.14316 9.22524 4.09685 9.06524 4.05895 8.90945C3.96211 8.5305 3.84 8.15998 3.68 7.80629C3.38948 7.16629 3.01895 6.55577 2.53895 6.04208C2.41685 6.13893 2.30737 6.23998 2.22316 6.35366C2.20211 6.37893 2.18106 6.40419 2.16 6.42945C2.56421 6.91787 2.86316 7.49472 3.16211 8.0505C3.42316 8.54314 3.69264 9.23787 4.11369 9.62103Z" fill="url(#paint33_linear_111_1217)"/>
<path id="Vector_35" d="M13.5958 19.7179C13.381 19.4021 13.1326 19.0063 12.8968 18.56C12.4968 18.4547 12.1095 18.2189 11.7516 18.0631C11.0105 17.7431 10.2989 17.3474 9.67999 16.8295C9.06525 16.3116 8.42104 15.7431 7.90314 15.1242C7.41051 14.5389 7.02314 13.8821 6.63999 13.2252C6.18104 12.4379 5.70946 11.6505 5.30946 10.8295C5.0063 10.2105 4.77051 9.5663 4.5263 8.91788C4.11367 7.83156 3.67578 6.67367 2.89683 5.78946C2.82104 5.83156 2.74946 5.87788 2.67788 5.92841C3.25893 6.53472 3.70104 7.27999 3.99999 8.05893C4.14735 8.45051 4.27788 8.86314 4.35788 9.27578C4.39578 9.48209 4.4463 9.7263 4.19367 9.77683C3.97051 9.81893 3.79367 9.51577 3.69683 9.36841C3.51999 9.09472 3.3642 8.8042 3.20841 8.52209C2.8463 7.86525 2.51788 7.15367 2.05051 6.55999C1.91577 6.71156 1.78104 6.84209 1.6463 6.95578C2.06735 7.54525 2.39999 8.19788 2.82946 8.78314C3.10314 9.15788 3.40209 9.51156 3.7263 9.8442C3.98735 10.1179 4.26946 10.3705 4.50104 10.6695C4.95999 11.2631 5.38104 11.9747 5.58735 12.7031C5.63788 12.8842 5.6842 13.0695 5.71788 13.2547C6.30314 13.8779 6.9642 14.6147 7.8063 15.5368C9.10735 16.96 10.2231 17.9621 11.2379 18.7242C11.7937 19.0189 12.3789 19.2758 12.96 19.4989C13.1705 19.5831 13.3852 19.6589 13.6042 19.7221L13.5958 19.7179Z" fill="url(#paint34_linear_111_1217)"/>
<path id="Vector_36" d="M5.19579 10.181C5.49895 10.9053 5.8779 11.5958 6.26527 12.2737C6.65684 12.96 7.04 13.6589 7.4779 14.32C7.92421 14.9937 8.46737 15.5326 9.04842 16.0926C9.61684 16.64 10.2021 17.1453 10.8884 17.541C11.2758 17.7642 11.68 17.9368 12.0884 18.1137C12.3284 18.2147 12.5811 18.3705 12.8421 18.4589C12.7158 18.2105 12.5895 17.9495 12.4758 17.6758C12.4295 17.5663 12.3874 17.4568 12.3411 17.3474C11.9747 17.3179 11.6084 17.2337 11.2926 17.1242C10.6358 16.901 10.0253 16.5684 9.46948 16.16C8.40842 15.3853 7.84842 14.101 7.22106 12.9937C6.81684 12.2779 6.38316 11.5789 6.02105 10.8379C5.66316 10.1137 5.34316 9.37262 5.04421 8.61894C4.79158 7.98315 4.56421 7.33052 4.29053 6.70315C4.10527 6.2821 3.89474 5.87368 3.59579 5.53262C3.50316 5.54104 3.40632 5.55789 3.30527 5.57894C3.20842 5.62525 3.10737 5.67578 3.01053 5.72631C3.70105 6.47999 4.13474 7.43999 4.50527 8.39157C4.73684 8.98525 4.94737 9.59157 5.19158 10.181H5.19579Z" fill="url(#paint35_linear_111_1217)"/>
<path id="Vector_37" d="M14.0884 20.5095C14.1347 20.5347 14.1726 20.5558 14.2232 20.56C14.2232 20.56 14.0084 20.3116 13.7137 19.8905C13.1284 19.7432 12.5558 19.5242 12.0042 19.2716C12.7368 19.7642 13.4189 20.1516 14.0884 20.5053V20.5095Z" fill="url(#paint36_linear_111_1217)"/>
<path id="Vector_38" d="M6.90526 12.0337C7.24631 12.6274 7.59157 13.2168 7.9242 13.8147C8.25263 14.4084 8.58947 15.0105 9.03999 15.52C9.5242 16.0674 10.1305 16.4926 10.7916 16.8C11.2379 17.0063 11.7768 17.2042 12.3032 17.2421C12.1221 16.7747 11.9579 16.2989 11.8105 15.8147C11.3221 15.68 10.8716 15.4526 10.421 15.221C9.93684 14.9726 9.47368 14.6905 9.04842 14.3537C8.25684 13.7263 7.56631 12.9642 7.07368 12.08C6.45052 10.96 6.04631 9.70525 5.60421 8.50104C5.37263 7.86946 5.17052 7.21262 4.85473 6.61894C4.65263 6.2442 4.38736 5.91157 4.17263 5.54946C4.05473 5.53262 3.94105 5.5242 3.83157 5.5242C4.42526 6.19367 4.71578 7.1242 5.03578 7.94946C5.57473 9.34736 6.15999 10.7326 6.90947 12.0337H6.90526Z" fill="url(#paint37_linear_111_1217)"/>
<path id="Vector_39" d="M5.67158 8.13892C6.11789 9.35577 6.51789 10.6358 7.11579 11.7852C7.59579 12.7031 8.24842 13.5326 9.05684 14.1852C9.44842 14.5052 9.86947 14.7916 10.3158 15.0358C10.7832 15.2884 11.2632 15.5452 11.7726 15.7052C11.7095 15.4947 11.6505 15.2842 11.5958 15.0737C11.1158 14.88 10.6568 14.5852 10.421 14.1516C10.2189 13.7852 10.2189 13.4189 10.4042 13.0442C10.5895 12.6694 10.88 12.3663 10.9474 11.9368C10.9474 11.9116 10.9895 11.9031 11.0274 11.9073C11.0063 11.7726 10.9853 11.6505 10.9642 11.5368C10.7705 12.181 10.4253 12.8042 9.76 12.7579C9.04 12.7031 8.45894 12.101 8.02947 11.5831C7.46947 10.9094 6.98526 10.1558 6.61052 9.36419C6.29052 8.68208 6.02526 7.97471 5.75579 7.26734C5.53263 6.68208 5.25894 6.15998 4.8 5.72629C4.66526 5.67577 4.53473 5.63366 4.41263 5.60419C4.62315 5.93682 4.86737 6.2484 5.04421 6.59787C5.29684 7.09471 5.4821 7.62103 5.67158 8.14313V8.13892Z" fill="url(#paint38_linear_111_1217)"/>
<path id="Vector_40" d="M4.12211 10.48C3.58316 9.87367 2.98527 9.33893 2.5179 8.66104C2.16 8.14314 1.85685 7.58735 1.49895 7.06525C1.37685 7.15367 1.25895 7.22104 1.1579 7.26735C1.30106 8.27367 2.04211 9.2084 2.66527 9.95788C3.07369 10.4505 3.50316 10.9389 3.88211 11.4568C4.39158 11.8989 4.87158 12.3663 5.40632 12.9305C5.37263 12.8 5.33895 12.6695 5.29263 12.5389C5.04 11.8021 4.63579 11.061 4.1179 10.4758L4.12211 10.48Z" fill="url(#paint39_linear_111_1217)"/>
</g>
<g id="Group_7">
<path id="Vector_41" d="M9.1116 10.3579C9.58318 10.2863 9.85265 9.95367 9.97476 9.54946C9.94949 9.51156 9.92002 9.46946 9.89475 9.42735C9.86949 9.38946 9.84844 9.35577 9.82318 9.3263C9.73475 9.79788 9.46528 10.2358 8.93054 10.2779C8.21475 10.3326 7.65054 9.60841 7.32633 9.06525C6.81686 8.21051 6.56844 7.23788 6.18107 6.3284C6.10107 6.2863 6.02107 6.2484 5.94107 6.21051C6.46318 7.38946 6.72844 8.73262 7.61265 9.70946C7.97054 10.1052 8.56002 10.4463 9.1116 10.3621V10.3579Z" fill="url(#paint40_linear_111_1217)"/>
<path id="Vector_42" d="M7.1158 7.16211C7.29685 7.44 7.42317 7.74316 7.65475 7.98737C7.82738 8.17263 8.07159 8.29895 8.3158 8.36211C8.50106 8.40842 8.68633 8.4379 8.8758 8.47158C9.0737 8.50526 9.22949 8.5979 9.38106 8.70316C9.31791 8.61895 9.25054 8.53895 9.19159 8.46316C9.12422 8.4379 9.05264 8.41263 8.97264 8.4C8.5137 8.30737 8.11791 8.24842 7.78106 7.89474C7.55791 7.65895 7.43159 7.33053 7.25896 7.06105C7.21264 6.98526 7.15791 6.91368 7.10317 6.84632C6.93896 6.74947 6.77896 6.65684 6.62738 6.57263C6.81685 6.74947 6.97685 6.94737 7.12001 7.17053L7.1158 7.16211Z" fill="url(#paint41_linear_111_1217)"/>
<path id="Vector_43" d="M5.76002 7.26316C6.02949 7.96632 6.29476 8.67368 6.61476 9.36C6.98528 10.1516 7.4737 10.9053 8.0337 11.5789C8.46739 12.1011 9.04844 12.7032 9.76423 12.7537C10.4337 12.8042 10.7748 12.1768 10.9684 11.5326C10.939 11.3853 10.9053 11.2589 10.8632 11.1326C10.6779 11.9116 10.3116 12.8547 9.48212 12.6189C8.75791 12.4168 8.18949 11.5958 7.77265 11.0189C7.2337 10.2695 6.81265 9.46105 6.46318 8.61053C6.06318 7.64632 5.81055 6.59369 5.07791 5.82737C4.98528 5.78947 4.89686 5.75579 4.80423 5.7179C5.26739 6.15158 5.53686 6.67368 5.76002 7.25895V7.26316Z" fill="url(#paint42_linear_111_1217)"/>
<path id="Vector_44" d="M5.60422 8.50526C6.04211 9.70526 6.44632 10.9642 7.07369 12.0842C7.56632 12.9684 8.25264 13.7347 9.04843 14.3579C9.47369 14.6947 9.94106 14.9768 10.4211 15.2253C10.8716 15.4526 11.3221 15.68 11.8105 15.8189C11.7979 15.781 11.7895 15.7474 11.7768 15.7095C11.2674 15.5453 10.7874 15.2926 10.32 15.04C9.87369 14.8 9.45264 14.5095 9.06106 14.1895C8.25264 13.5368 7.60001 12.7074 7.12001 11.7895C6.5179 10.64 6.1179 9.36 5.6758 8.14316C5.48632 7.62105 5.30106 7.09473 5.04843 6.59789C4.87159 6.24842 4.62317 5.93684 4.41685 5.60421C4.33685 5.58316 4.25685 5.57052 4.17685 5.55789C4.39159 5.92 4.65685 6.25263 4.85895 6.62737C5.17474 7.22105 5.38106 7.87789 5.60843 8.50947L5.60422 8.50526Z" fill="url(#paint43_linear_111_1217)"/>
<path id="Vector_45" d="M10.9516 11.9326C10.8842 12.3621 10.5937 12.661 10.4084 13.04C10.2232 13.4147 10.2232 13.781 10.4253 14.1473C10.6611 14.581 11.12 14.8758 11.6 15.0695C11.5916 15.0273 11.579 14.9895 11.5705 14.9473C11.1368 14.7452 10.7495 14.4463 10.5516 14.0126C10.2316 13.3305 10.8463 12.821 11.0821 12.2231C11.0653 12.1095 11.0526 12 11.0358 11.9031C10.9937 11.9031 10.96 11.9116 10.9558 11.9326H10.9516Z" fill="url(#paint44_linear_111_1217)"/>
<path id="Vector_46" d="M5.04421 8.62315C5.34316 9.37683 5.66737 10.1179 6.02106 10.8421C6.38316 11.5831 6.81685 12.2779 7.22106 12.9979C7.84842 14.1095 8.40842 15.3895 9.46948 16.1642C10.0295 16.5726 10.64 16.9053 11.2926 17.1284C11.6084 17.2379 11.9747 17.3221 12.3411 17.3516C12.3284 17.3137 12.3116 17.28 12.299 17.2421C11.7726 17.2042 11.2337 17.0105 10.7874 16.8C10.1263 16.4926 9.51579 16.0674 9.03579 15.52C8.58527 15.0105 8.24842 14.4084 7.92 13.8147C7.58737 13.2168 7.24632 12.6274 6.90106 12.0337C6.15158 10.7326 5.56632 9.34736 5.02737 7.94946C4.71158 7.1242 4.42106 6.19367 3.82316 5.5242C3.74316 5.5242 3.66737 5.5242 3.58737 5.53683C3.88632 5.87788 4.10106 6.29052 4.28211 6.70736C4.55579 7.33473 4.78316 7.98736 5.03579 8.62315H5.04421Z" fill="url(#paint45_linear_111_1217)"/>
<path id="Vector_47" d="M5.30527 10.8337C5.70527 11.6547 6.17685 12.4421 6.6358 13.2295C7.01896 13.8905 7.40632 14.5432 7.89896 15.1284C8.41685 15.7432 9.06106 16.3158 9.6758 16.8337C10.2947 17.3516 11.0063 17.7474 11.7474 18.0674C12.1053 18.2232 12.4926 18.4547 12.8926 18.5642C12.8758 18.5305 12.859 18.4968 12.8379 18.4632C12.5768 18.3747 12.3242 18.219 12.0842 18.1179C11.6758 17.9411 11.2716 17.7684 10.8842 17.5453C10.1979 17.1495 9.61264 16.6442 9.04422 16.0968C8.46317 15.5368 7.92001 14.9979 7.47369 14.3242C7.0358 13.6632 6.65264 12.9642 6.26106 12.2779C5.86948 11.6 5.49053 10.9053 5.19159 10.1853C4.94738 9.59579 4.73685 8.99369 4.50527 8.39579C4.13474 7.44842 3.70106 6.48842 3.01053 5.73053C2.97264 5.75158 2.93053 5.77264 2.89264 5.7979C3.67159 6.6779 4.10948 7.83579 4.52211 8.92632C4.76632 9.57053 5.00211 10.219 5.30527 10.8379V10.8337Z" fill="url(#paint46_linear_111_1217)"/>
<path id="Vector_48" d="M3.69264 9.37262C3.78948 9.51999 3.97054 9.82735 4.18948 9.78104C4.44632 9.73051 4.39159 9.4863 4.35369 9.27999C4.2779 8.86735 4.14738 8.45472 3.9958 8.06314C3.69685 7.2842 3.25475 6.53472 2.67369 5.93262C2.62738 5.9663 2.57685 5.99999 2.53475 6.03367C3.01054 6.54735 3.38527 7.15788 3.6758 7.79788C3.8358 8.15156 3.9579 8.52209 4.05475 8.90104C4.09685 9.06104 4.13896 9.21683 4.16843 9.37683C4.18106 9.43999 4.18527 9.50735 4.18527 9.57051C4.18948 9.70525 4.20632 9.70525 4.10948 9.61262C3.69264 9.22946 3.42317 8.53051 3.1579 8.04209C2.86317 7.4863 2.56001 6.90946 2.1558 6.42104C2.1179 6.46735 2.08001 6.51367 2.04211 6.55999C2.50948 7.15367 2.8379 7.86104 3.20001 8.52209C3.3558 8.80841 3.51159 9.09893 3.68843 9.36841L3.69264 9.37262Z" fill="url(#paint47_linear_111_1217)"/>
<path id="Vector_49" d="M4.49265 10.6695C4.26107 10.3705 3.97475 10.1179 3.71791 9.8442C3.39791 9.51157 3.09896 9.15789 2.82107 8.78315C2.39159 8.19789 2.06317 7.54525 1.63791 6.95578C1.59159 6.99367 1.54528 7.03157 1.49896 7.06525C1.85686 7.58315 2.16002 8.13894 2.51791 8.66104C2.98107 9.33473 3.57896 9.86946 4.12212 10.48C4.64002 11.0653 5.04423 11.8063 5.29686 12.5431C5.33896 12.6695 5.37686 12.8042 5.41054 12.9347C5.51159 13.04 5.61265 13.1453 5.7137 13.2547C5.6758 13.0695 5.6337 12.8842 5.58317 12.7031C5.37686 11.9789 4.9558 11.2631 4.49686 10.6695H4.49265Z" fill="url(#paint48_linear_111_1217)"/>
<path id="Vector_50" d="M1.1579 7.27158C1.09475 7.30105 1.0358 7.31789 0.985272 7.32631C0.955799 7.32631 0.930536 7.33473 0.901062 7.33473C1.05685 8.30315 1.7558 9.20421 2.35369 9.93263C2.59369 10.2274 2.8379 10.5137 3.0779 10.8042C3.36422 11.0232 3.62948 11.2379 3.88632 11.461C3.50738 10.9432 3.0779 10.4547 2.66948 9.9621C2.04633 9.21263 1.30527 8.27789 1.16211 7.27158H1.1579Z" fill="url(#paint49_linear_111_1217)"/>
<path id="Vector_51" d="M0.614747 7.27998C0.522115 7.2505 0.433694 7.2084 0.353694 7.1705C0.32001 7.67998 0.412641 8.17261 0.581062 8.64419C0.741062 8.87998 0.947378 9.1284 1.21264 9.38524C0.837905 8.73682 0.597905 8.02524 0.614747 7.27998Z" fill="url(#paint50_linear_111_1217)"/>
<path id="Vector_52" d="M12.9516 19.4947C12.3663 19.2716 11.7853 19.0147 11.2295 18.72C11.4948 18.9221 11.7516 19.1031 12.0042 19.2716C12.5558 19.5242 13.1284 19.7431 13.7137 19.8905C13.6758 19.8358 13.6379 19.781 13.5958 19.7179C13.3811 19.6547 13.1663 19.5747 12.9516 19.4947Z" fill="url(#paint51_linear_111_1217)"/>
</g>
</g>
<path id="Vector_53" style="mix-blend-mode:multiply" d="M13.7137 19.8905C13.6758 19.8358 13.6379 19.781 13.5958 19.7179C13.3811 19.4021 13.1326 19.0063 12.8968 18.56C12.88 18.5263 12.8632 18.4926 12.8421 18.4589C12.7158 18.2105 12.5895 17.9495 12.4758 17.6758C12.4295 17.5663 12.3874 17.4568 12.3411 17.3474C12.3284 17.3095 12.3116 17.2758 12.2989 17.2379C12.1179 16.7705 11.9537 16.2947 11.8063 15.8105C11.7937 15.7726 11.7853 15.7389 11.7726 15.701C11.7095 15.4905 11.6505 15.28 11.5958 15.0695C11.5874 15.0274 11.5747 14.9895 11.5663 14.9474C11.3642 14.1516 11.2084 13.3558 11.12 12.6021C11.1032 12.4674 11.0905 12.341 11.0737 12.2231C11.0568 12.1095 11.0442 12 11.0274 11.9031C11.0063 11.7684 10.9853 11.6463 10.9642 11.5326C10.9347 11.3853 10.9011 11.2589 10.8589 11.1326C10.7074 10.661 10.4632 10.2905 9.97474 9.55368C9.94947 9.51578 9.92 9.47368 9.89474 9.43157C9.86947 9.39368 9.84842 9.35999 9.82316 9.33052C9.66316 9.09052 9.51579 8.87999 9.37684 8.70315C9.31368 8.61894 9.24631 8.53894 9.18737 8.46315C8.66526 7.83157 8.24 7.55789 7.49895 7.08631C7.36 7.0021 7.22947 6.91789 7.09895 6.8421C6.93474 6.74525 6.77474 6.65262 6.62316 6.56841C6.47158 6.4842 6.32421 6.4042 6.18105 6.33262C6.10105 6.29052 6.02105 6.25262 5.94105 6.21473C5.64632 6.07157 5.36421 5.94947 5.07789 5.83578C4.98526 5.79789 4.89684 5.7642 4.80421 5.72631C4.66947 5.67578 4.53895 5.63368 4.41684 5.6042C4.33684 5.58315 4.25684 5.57052 4.17684 5.55789C4.05895 5.54104 3.94526 5.53262 3.83579 5.53262C3.75579 5.53262 3.68 5.53262 3.6 5.54525C3.50737 5.55368 3.41053 5.57052 3.30947 5.59157C3.21263 5.63789 3.11158 5.68841 3.01474 5.73894C2.97684 5.75999 2.93474 5.78104 2.89684 5.80631C2.82105 5.84841 2.74947 5.89473 2.67789 5.94525C2.63158 5.97894 2.58105 6.01262 2.53895 6.04631C2.41684 6.14315 2.30737 6.2442 2.22316 6.35789C2.2021 6.38315 2.18105 6.40841 2.16 6.43368C2.1221 6.47999 2.08421 6.52631 2.04632 6.57262C1.91158 6.7242 1.77684 6.85473 1.6421 6.96841C1.59579 7.00631 1.54947 7.0442 1.50316 7.07789C1.38105 7.16631 1.26316 7.23368 1.1621 7.27999C1.09895 7.30947 1.04 7.32631 0.989473 7.33473C0.959999 7.33473 0.934736 7.34315 0.905263 7.34315C0.808421 7.34315 0.711578 7.3221 0.618947 7.29262C0.526315 7.26315 0.437894 7.22104 0.357894 7.18315C0.147368 7.07789 -0.00421104 6.98525 0.00421001 7.09473C0.00421001 7.09473 -0.0168426 7.77262 0.585263 8.65683C0.745263 8.89262 0.951578 9.14104 1.21684 9.39789C1.46526 9.6421 1.76421 9.89052 2.12632 10.1347C2.47158 10.3705 2.78737 10.5937 3.07789 10.8168C3.36421 11.0358 3.62947 11.2505 3.88631 11.4737C4.39579 11.9158 4.87579 12.3832 5.41053 12.9474C5.51158 13.0526 5.61263 13.1579 5.71368 13.2674C6.29895 13.8905 6.96 14.6274 7.8021 15.5495C9.10316 16.9726 10.2189 17.9747 11.2337 18.7368C11.4989 18.9389 11.7558 19.12 12.0084 19.2884C12.7411 19.781 13.4232 20.1684 14.0926 20.5221C14.1389 20.5474 14.1768 20.5684 14.2274 20.5726C14.2274 20.5726 14.0126 20.3242 13.7179 19.9032L13.7137 19.8905Z" fill="url(#paint52_linear_111_1217)"/>
</g>
</g>
</g>
</g>
<defs>
<linearGradient id="paint0_linear_111_1217" x1="7.10736" y1="7.74315" x2="9.34315" y2="7.74315" gradientUnits="userSpaceOnUse">
<stop offset="0.28" stop-color="#FBAD18"/>
<stop offset="1" stop-color="#F26922"/>
</linearGradient>
<linearGradient id="paint1_linear_111_1217" x1="13.0779" y1="12" x2="18.7579" y2="12" gradientUnits="userSpaceOnUse">
<stop offset="0.28" stop-color="#FBAD18"/>
<stop offset="1" stop-color="#F26922"/>
</linearGradient>
<linearGradient id="paint2_linear_111_1217" x1="4.88" y1="8.7958" x2="11.7684" y2="8.7958" gradientUnits="userSpaceOnUse">
<stop offset="0.28" stop-color="#FBAD18"/>
<stop offset="1" stop-color="#F26922"/>
</linearGradient>
<linearGradient id="paint3_linear_111_1217" x1="16.1937" y1="13.8821" x2="20.1726" y2="13.8821" gradientUnits="userSpaceOnUse">
<stop offset="0.28" stop-color="#FBAD18"/>
<stop offset="1" stop-color="#F26922"/>
</linearGradient>
<linearGradient id="paint4_linear_111_1217" x1="4.19791" y1="10.9979" x2="14.2526" y2="10.9979" gradientUnits="userSpaceOnUse">
<stop offset="0.28" stop-color="#FBAD18"/>
<stop offset="1" stop-color="#F26922"/>
</linearGradient>
<linearGradient id="paint5_linear_111_1217" x1="3.30527" y1="11.2716" x2="15.7221" y2="11.2716" gradientUnits="userSpaceOnUse">
<stop offset="0.28" stop-color="#FBAD18"/>
<stop offset="1" stop-color="#F26922"/>
</linearGradient>
<linearGradient id="paint6_linear_111_1217" x1="4.64001" y1="10.4379" x2="12.9305" y2="10.4379" gradientUnits="userSpaceOnUse">
<stop offset="0.28" stop-color="#FBAD18"/>
<stop offset="1" stop-color="#F26922"/>
</linearGradient>
<linearGradient id="paint7_linear_111_1217" x1="9.82736" y1="11.6716" x2="17.4989" y2="11.6716" gradientUnits="userSpaceOnUse">
<stop offset="0.28" stop-color="#FBAD18"/>
<stop offset="1" stop-color="#F26922"/>
</linearGradient>
<linearGradient id="paint8_linear_111_1217" x1="19.6884" y1="16.4926" x2="22.421" y2="16.4926" gradientUnits="userSpaceOnUse">
<stop offset="0.28" stop-color="#FBAD18"/>
<stop offset="1" stop-color="#F26922"/>
</linearGradient>
<linearGradient id="paint9_linear_111_1217" x1="6.18527" y1="8.00002" x2="10.1137" y2="8.00002" gradientUnits="userSpaceOnUse">
<stop offset="0.28" stop-color="#FBAD18"/>
<stop offset="1" stop-color="#F26922"/>
</linearGradient>
<linearGradient id="paint10_linear_111_1217" x1="22.8379" y1="17.499" x2="24" y2="17.499" gradientUnits="userSpaceOnUse">
<stop offset="0.28" stop-color="#FBAD18"/>
<stop offset="1" stop-color="#F26922"/>
</linearGradient>
<linearGradient id="paint11_linear_111_1217" x1="21.12" y1="16.9769" x2="23.3937" y2="16.9769" gradientUnits="userSpaceOnUse">
<stop offset="0.28" stop-color="#FBAD18"/>
<stop offset="1" stop-color="#F26922"/>
</linearGradient>
<linearGradient id="paint12_linear_111_1217" x1="18.0547" y1="15.4526" x2="21.3053" y2="15.4526" gradientUnits="userSpaceOnUse">
<stop offset="0.28" stop-color="#FBAD18"/>
<stop offset="1" stop-color="#F26922"/>
</linearGradient>
<linearGradient id="paint13_linear_111_1217" x1="18.3284" y1="19.68" x2="9.94527" y2="4.34948" gradientUnits="userSpaceOnUse">
<stop offset="0.28" stop-color="#F99C2D"/>
<stop offset="1" stop-color="#F26922"/>
</linearGradient>
<radialGradient id="paint14_radial_111_1217" cx="0" cy="0" r="1" gradientUnits="userSpaceOnUse" gradientTransform="translate(28.9558 3.28421) scale(21.1916)">
<stop offset="0.06" stop-color="white"/>
<stop offset="0.76" stop-color="#FFF8F3"/>
<stop offset="0.78" stop-color="#FDF1E9"/>
<stop offset="0.82" stop-color="#F9DFCF"/>
<stop offset="0.87" stop-color="#F3C1A4"/>
<stop offset="0.94" stop-color="#EA9869"/>
<stop offset="1" stop-color="#E16925"/>
</radialGradient>
<linearGradient id="paint15_linear_111_1217" x1="3.88632" y1="11.141" x2="14.4463" y2="11.141" gradientUnits="userSpaceOnUse">
<stop offset="0.33" stop-color="#F0E7DC"/>
<stop offset="1" stop-color="#FCC5A3"/>
</linearGradient>
<linearGradient id="paint16_linear_111_1217" x1="4.61896" y1="9.03578" x2="11.9621" y2="9.03578" gradientUnits="userSpaceOnUse">
<stop offset="0.33" stop-color="#F0E7DC"/>
<stop offset="1" stop-color="#FCC5A3"/>
</linearGradient>
<linearGradient id="paint17_linear_111_1217" x1="4.39999" y1="10.6231" x2="13.1242" y2="10.6231" gradientUnits="userSpaceOnUse">
<stop offset="0.33" stop-color="#F0E7DC"/>
<stop offset="1" stop-color="#FCC5A3"/>
</linearGradient>
<linearGradient id="paint18_linear_111_1217" x1="9.57474" y1="11.3684" x2="15.9158" y2="11.3684" gradientUnits="userSpaceOnUse">
<stop offset="0.33" stop-color="#F0E7DC"/>
<stop offset="1" stop-color="#FCC5A3"/>
</linearGradient>
<linearGradient id="paint19_linear_111_1217" x1="12.9011" y1="11.7558" x2="17.6969" y2="11.7558" gradientUnits="userSpaceOnUse">
<stop offset="0.33" stop-color="#F0E7DC"/>
<stop offset="1" stop-color="#FCC5A3"/>
</linearGradient>
<linearGradient id="paint20_linear_111_1217" x1="15.9747" y1="13.1158" x2="18.9516" y2="13.1158" gradientUnits="userSpaceOnUse">
<stop offset="0.33" stop-color="#F0E7DC"/>
<stop offset="1" stop-color="#FCC5A3"/>
</linearGradient>
<linearGradient id="paint21_linear_111_1217" x1="17.8526" y1="15.3305" x2="20.2821" y2="15.3305" gradientUnits="userSpaceOnUse">
<stop offset="0.33" stop-color="#F0E7DC"/>
<stop offset="1" stop-color="#FCC5A3"/>
</linearGradient>
<linearGradient id="paint22_linear_111_1217" x1="19.4863" y1="16.4252" x2="21.4358" y2="16.4252" gradientUnits="userSpaceOnUse">
<stop offset="0.33" stop-color="#F0E7DC"/>
<stop offset="1" stop-color="#FCC5A3"/>
</linearGradient>
<linearGradient id="paint23_linear_111_1217" x1="20.9179" y1="16.8842" x2="22.619" y2="16.8842" gradientUnits="userSpaceOnUse">
<stop offset="0.33" stop-color="#F0E7DC"/>
<stop offset="1" stop-color="#FCC5A3"/>
</linearGradient>
<linearGradient id="paint24_linear_111_1217" x1="22.6316" y1="17.4316" x2="23.52" y2="17.4316" gradientUnits="userSpaceOnUse">
<stop offset="0.33" stop-color="#F0E7DC"/>
<stop offset="1" stop-color="#FCC5A3"/>
</linearGradient>
<linearGradient id="paint25_linear_111_1217" x1="6.03369" y1="8.08842" x2="10.3116" y2="8.08842" gradientUnits="userSpaceOnUse">
<stop offset="0.33" stop-color="#F0E7DC"/>
<stop offset="1" stop-color="#FCC5A3"/>
</linearGradient>
<linearGradient id="paint26_linear_111_1217" x1="6.9642" y1="7.87787" x2="9.59999" y2="7.87787" gradientUnits="userSpaceOnUse">
<stop offset="0.33" stop-color="#F0E7DC"/>
<stop offset="1" stop-color="#FCC5A3"/>
</linearGradient>
<linearGradient id="paint27_linear_111_1217" x1="1.70113e-05" y1="13.5874" x2="14.2232" y2="13.5874" gradientUnits="userSpaceOnUse">
<stop offset="0.28" stop-color="#F58020"/>
<stop offset="1" stop-color="#E85B24"/>
</linearGradient>
<linearGradient id="paint28_linear_111_1217" x1="-1.25577e-05" y1="9.04421" x2="14.2274" y2="9.04421" gradientUnits="userSpaceOnUse">
<stop offset="0.28" stop-color="#F58020"/>
<stop offset="1" stop-color="#E85B24"/>
</linearGradient>
<linearGradient id="paint29_linear_111_1217" x1="7.06534e-06" y1="8.30314" x2="14.2232" y2="8.30314" gradientUnits="userSpaceOnUse">
<stop offset="0.28" stop-color="#F58020"/>
<stop offset="1" stop-color="#E85B24"/>
</linearGradient>
<linearGradient id="paint30_linear_111_1217" x1="-6.94196e-06" y1="7.64631" x2="14.2231" y2="7.64631" gradientUnits="userSpaceOnUse">
<stop offset="0.28" stop-color="#F58020"/>
<stop offset="1" stop-color="#E85B24"/>
</linearGradient>
<linearGradient id="paint31_linear_111_1217" x1="-1.41842e-06" y1="7.83998" x2="14.2358" y2="7.83998" gradientUnits="userSpaceOnUse">
<stop offset="0.28" stop-color="#F58020"/>
<stop offset="1" stop-color="#E85B24"/>
</linearGradient>
<linearGradient id="paint32_linear_111_1217" x1="-1.30419e-05" y1="9.2421" x2="14.2231" y2="9.2421" gradientUnits="userSpaceOnUse">
<stop offset="0.28" stop-color="#F58020"/>
<stop offset="1" stop-color="#E85B24"/>
</linearGradient>
<linearGradient id="paint33_linear_111_1217" x1="3.7344e-06" y1="7.86103" x2="14.2232" y2="7.86103" gradientUnits="userSpaceOnUse">
<stop offset="0.28" stop-color="#F58020"/>
<stop offset="1" stop-color="#E85B24"/>
</linearGradient>
<linearGradient id="paint34_linear_111_1217" x1="-1.45576e-05" y1="12.7579" x2="14.2231" y2="12.7579" gradientUnits="userSpaceOnUse">
<stop offset="0.28" stop-color="#F58020"/>
<stop offset="1" stop-color="#E85B24"/>
</linearGradient>
<linearGradient id="paint35_linear_111_1217" x1="2.01943e-06" y1="12" x2="14.2232" y2="12" gradientUnits="userSpaceOnUse">
<stop offset="0.28" stop-color="#F58020"/>
<stop offset="1" stop-color="#E85B24"/>
</linearGradient>
<linearGradient id="paint36_linear_111_1217" x1="5.41793e-06" y1="19.9158" x2="14.2232" y2="19.9158" gradientUnits="userSpaceOnUse">
<stop offset="0.28" stop-color="#F58020"/>
<stop offset="1" stop-color="#E85B24"/>
</linearGradient>
<linearGradient id="paint37_linear_111_1217" x1="-5.11933e-06" y1="11.381" x2="14.2232" y2="11.381" gradientUnits="userSpaceOnUse">
<stop offset="0.28" stop-color="#F58020"/>
<stop offset="1" stop-color="#E85B24"/>
</linearGradient>
<linearGradient id="paint38_linear_111_1217" x1="-3.19055e-06" y1="10.6526" x2="14.2232" y2="10.6526" gradientUnits="userSpaceOnUse">
<stop offset="0.28" stop-color="#F58020"/>
<stop offset="1" stop-color="#E85B24"/>
</linearGradient>
<linearGradient id="paint39_linear_111_1217" x1="3.10892e-06" y1="9.99998" x2="14.2232" y2="9.99998" gradientUnits="userSpaceOnUse">
<stop offset="0.28" stop-color="#F58020"/>
<stop offset="1" stop-color="#E85B24"/>
</linearGradient>
<linearGradient id="paint40_linear_111_1217" x1="5.94107" y1="8.29051" x2="9.97897" y2="8.29051" gradientUnits="userSpaceOnUse">
<stop offset="0.33" stop-color="#F0E7DC"/>
<stop offset="1" stop-color="#FCC5A3"/>
</linearGradient>
<linearGradient id="paint41_linear_111_1217" x1="6.62317" y1="7.62947" x2="9.38106" y2="7.62947" gradientUnits="userSpaceOnUse">
<stop offset="0.33" stop-color="#F0E7DC"/>
<stop offset="1" stop-color="#FCC5A3"/>
</linearGradient>
<linearGradient id="paint42_linear_111_1217" x1="4.80423" y1="9.2379" x2="10.9684" y2="9.2379" gradientUnits="userSpaceOnUse">
<stop offset="0.33" stop-color="#F0E7DC"/>
<stop offset="1" stop-color="#FCC5A3"/>
</linearGradient>
<linearGradient id="paint43_linear_111_1217" x1="4.17264" y1="10.6821" x2="11.8105" y2="10.6821" gradientUnits="userSpaceOnUse">
<stop offset="0.33" stop-color="#F0E7DC"/>
<stop offset="1" stop-color="#FCC5A3"/>
</linearGradient>
<linearGradient id="paint44_linear_111_1217" x1="10.2695" y1="13.4863" x2="11.6" y2="13.4863" gradientUnits="userSpaceOnUse">
<stop offset="0.33" stop-color="#F0E7DC"/>
<stop offset="1" stop-color="#FCC5A3"/>
</linearGradient>
<linearGradient id="paint45_linear_111_1217" x1="3.59579" y1="11.4358" x2="12.3411" y2="11.4358" gradientUnits="userSpaceOnUse">
<stop offset="0.33" stop-color="#F0E7DC"/>
<stop offset="1" stop-color="#FCC5A3"/>
</linearGradient>
<linearGradient id="paint46_linear_111_1217" x1="2.89685" y1="12.1474" x2="12.8968" y2="12.1474" gradientUnits="userSpaceOnUse">
<stop offset="0.33" stop-color="#F0E7DC"/>
<stop offset="1" stop-color="#FCC5A3"/>
</linearGradient>
<linearGradient id="paint47_linear_111_1217" x1="2.04632" y1="7.86104" x2="4.38738" y2="7.86104" gradientUnits="userSpaceOnUse">
<stop offset="0.33" stop-color="#F0E7DC"/>
<stop offset="1" stop-color="#FCC5A3"/>
</linearGradient>
<linearGradient id="paint48_linear_111_1217" x1="1.49896" y1="10.1053" x2="5.7137" y2="10.1053" gradientUnits="userSpaceOnUse">
<stop offset="0.33" stop-color="#F0E7DC"/>
<stop offset="1" stop-color="#FCC5A3"/>
</linearGradient>
<linearGradient id="paint49_linear_111_1217" x1="0.901062" y1="9.36421" x2="3.88211" y2="9.36421" gradientUnits="userSpaceOnUse">
<stop offset="0.33" stop-color="#F0E7DC"/>
<stop offset="1" stop-color="#FCC5A3"/>
</linearGradient>
<linearGradient id="paint50_linear_111_1217" x1="0.345273" y1="8.27787" x2="1.21264" y2="8.27787" gradientUnits="userSpaceOnUse">
<stop offset="0.33" stop-color="#F0E7DC"/>
<stop offset="1" stop-color="#FCC5A3"/>
</linearGradient>
<linearGradient id="paint51_linear_111_1217" x1="11.2295" y1="19.3052" x2="13.7137" y2="19.3052" gradientUnits="userSpaceOnUse">
<stop offset="0.33" stop-color="#F0E7DC"/>
<stop offset="1" stop-color="#FCC5A3"/>
</linearGradient>
<linearGradient id="paint52_linear_111_1217" x1="1.15368" y1="17.6505" x2="11.3558" y2="11.0653" gradientUnits="userSpaceOnUse">
<stop offset="0.09" stop-color="#FFEAD6"/>
<stop offset="1" stop-color="#CA6028"/>
</linearGradient>
<clipPath id="clip0_111_1217">
<rect width="24" height="24" fill="white"/>
</clipPath>
</defs>
</svg>
