<svg width="24" height="24" viewBox="0 0 24 24" fill="none" xmlns="http://www.w3.org/2000/svg">
<g id="dong_lanh_745fd86a7d5b469aa93903a836ac8452 1">
<path id="Vector" d="M3.68269 0.0114746H20.2025C21.0006 0.300853 21.205 0.649943 20.8513 1.43769C20.5677 2.06813 20.5114 2.61702 20.88 3.2176C21.0614 3.51387 21.0511 3.87674 21.0511 4.22353C21.0546 9.37722 21.0546 14.532 21.0511 19.6857C21.0511 20.1898 20.9845 20.6813 20.7238 21.12C20.524 21.4542 20.5424 21.7665 20.7135 22.0961C20.8008 22.2649 20.8731 22.4417 20.9236 22.6277C21.1499 23.4706 20.9041 23.8231 20.0084 23.9322C14.6722 23.9322 9.3359 23.9322 4.00078 23.9322C3.04537 23.845 2.83178 23.5418 3.07293 22.6323C3.12805 22.4268 3.21303 22.2362 3.30374 22.0467C3.45417 21.7298 3.46106 21.4266 3.27274 21.1188C3.01436 20.6986 2.94547 20.2323 2.94547 19.7443C2.94547 14.5481 2.94547 9.35081 2.94547 4.15463C2.94547 3.68841 3.00058 3.24057 3.25322 2.83521C3.44154 2.5332 3.43465 2.222 3.28192 1.90621C3.1981 1.73511 3.1246 1.55942 3.07408 1.37339C2.86738 0.601714 2.96728 0.373197 3.68269 0.0126229V0.0114746Z" fill="#009ED0"/>
<path id="Vector_2" d="M3.91234 23.9885C3.90085 23.9587 3.89511 23.9277 3.89511 23.8955C7.12191 23.8886 10.3487 23.876 13.5755 23.8748C15.7516 23.8748 17.9288 23.8886 20.1049 23.8967C20.1072 23.9288 20.1014 23.9587 20.0865 23.9874H3.91234V23.9885Z" fill="#7FCEE7"/>
<path id="Vector_3" d="M4.02717 11.9874C4.02717 9.46336 4.02603 6.94049 4.02717 4.41647C4.02717 3.23139 4.41072 2.82833 5.60727 2.82604C9.86985 2.818 14.1336 2.818 18.3962 2.82604C19.5433 2.82833 19.9522 3.25206 19.9522 4.38891C19.9544 9.4358 19.9544 14.4827 19.9522 19.5296C19.9522 20.702 19.533 21.1177 18.3652 21.1189C14.1026 21.1189 9.83885 21.12 5.57627 21.1189C4.43942 21.1189 4.02832 20.7043 4.02717 19.5571C4.02488 17.0331 4.02717 14.5102 4.02717 11.9862V11.9874Z" fill="#FEFEFE"/>
<path id="Vector_4" d="M12.0011 2.01992C9.86297 2.01992 7.72479 2.02336 5.5866 2.01762C4.78163 2.01532 4.37512 1.78221 4.19139 1.25858C4.09952 0.996759 4.09608 0.795802 4.46239 0.834845C4.76325 0.86585 5.08938 0.721161 5.32823 1.09207C5.48785 1.33896 5.76 1.26662 5.95866 1.04614C6.25493 0.716567 6.56153 0.707381 6.8578 1.03925C7.08287 1.29073 7.30335 1.30795 7.53416 1.05992C7.84995 0.722309 8.15656 0.711974 8.47234 1.06221C8.69971 1.31484 8.92593 1.29188 9.14871 1.04154C9.44268 0.710826 9.74584 0.714271 10.0444 1.04039C10.2649 1.28039 10.506 1.32862 10.7173 1.05417C10.9998 0.687859 11.3282 0.749869 11.5878 1.0025C11.8989 1.30566 12.1011 1.27351 12.4008 0.994462C12.6511 0.761352 12.9669 0.702787 13.2367 1.0358C13.4733 1.32748 13.703 1.28614 13.9499 1.01858C14.2255 0.717716 14.5412 0.725754 14.8134 1.02317C15.0614 1.29417 15.2727 1.3114 15.5254 1.0358C15.8228 0.708529 16.1328 0.717716 16.4302 1.04843C16.6565 1.29992 16.8838 1.29647 17.1078 1.04843C17.4075 0.715419 17.7175 0.708529 18.0103 1.04039C18.2389 1.29877 18.488 1.32403 18.6798 1.06106C18.9795 0.649964 19.3768 0.885371 19.7282 0.853218C19.8844 0.83829 19.8488 1.01513 19.8201 1.11848C19.7007 1.55484 19.4503 1.87752 18.9864 1.9625C18.7257 2.00958 18.4547 2.01877 18.1895 2.01877C16.1271 2.02336 14.0658 2.02106 12.0034 2.02106L12.0011 2.01992Z" fill="#FCFDFE"/>
<path id="Vector_5" d="M12.0081 21.9422C14.1841 21.9422 16.3614 21.9445 18.5374 21.941C19.1001 21.941 19.5422 22.1099 19.7661 22.6783C19.8718 22.9481 19.8936 23.1238 19.5204 23.0894C19.1977 23.0595 18.8521 23.1904 18.5971 22.8195C18.4754 22.6427 18.2193 22.6794 18.0459 22.8643C17.729 23.2042 17.4075 23.1962 17.0814 22.8746C16.8666 22.6633 16.6484 22.653 16.4406 22.8804C16.1397 23.2076 15.8159 23.2008 15.5162 22.9056C15.275 22.6679 15.066 22.6519 14.8352 22.8896C14.5286 23.2054 14.2151 23.1973 13.912 22.8953C13.6743 22.6576 13.4687 22.6599 13.2322 22.9022C12.9313 23.2111 12.6121 23.2076 12.3135 22.8873C12.1022 22.6622 11.8783 22.653 11.6716 22.87C11.3466 23.2111 11.0193 23.1858 10.7036 22.885C10.4785 22.6702 10.2867 22.6519 10.0685 22.8792C9.7493 23.2111 9.43006 23.195 9.11083 22.8712C8.89494 22.6519 8.67561 22.6679 8.46777 22.8861C8.1669 23.2019 7.85111 23.2065 7.5537 22.9022C7.31599 22.6587 7.1047 22.6587 6.87159 22.893C6.56614 23.1985 6.2492 23.2076 5.95064 22.8896C5.75887 22.6863 5.50623 22.63 5.35695 22.831C5.14107 23.1227 4.87695 23.0882 4.59791 23.0871C4.09609 23.0836 4.02949 22.9734 4.26719 22.5324C4.52786 22.049 4.96767 21.9365 5.47638 21.9376C7.65245 21.9445 9.82968 21.9399 12.0058 21.9399L12.0081 21.9422Z" fill="#FDFEFE"/>
<path id="Vector_6" d="M5.61417 9.98009C5.61646 6.44669 8.45283 3.59655 11.9747 3.58736C15.5104 3.57818 18.3744 6.45933 18.3675 10.0145C18.3606 13.5445 15.5185 16.3625 11.9713 16.3602C8.43445 16.3579 5.61187 13.5238 5.61417 9.98009Z" fill="#009ED0"/>
<path id="Vector_7" d="M11.0239 19.9545C9.61264 19.9545 8.20249 19.9522 6.7912 19.9556C6.46508 19.9556 6.12976 19.9326 6.14125 19.5124C6.15273 19.1024 6.50297 19.1506 6.7889 19.1506C9.62871 19.1506 12.4697 19.1495 15.3095 19.1518C15.5851 19.1518 15.9388 19.0817 15.9548 19.5101C15.9721 19.951 15.6322 19.9545 15.3129 19.9545C13.8833 19.9545 12.4536 19.9545 11.0228 19.9545H11.0239Z" fill="#019FD0"/>
<path id="Vector_8" d="M11.0297 18.3663C9.61839 18.3663 8.2071 18.3663 6.7958 18.3663C6.56499 18.3663 6.30088 18.3835 6.21245 18.1171C6.08269 17.7256 6.27791 17.5453 6.67064 17.5441C9.03504 17.5395 11.3994 17.5315 13.7638 17.528C14.2978 17.528 14.8318 17.5372 15.3658 17.5441C15.6356 17.5476 15.9376 17.5292 15.9583 17.9104C15.9813 18.3158 15.6804 18.3629 15.3784 18.3629C13.9292 18.3675 12.4789 18.3652 11.0297 18.3652V18.3663Z" fill="#009ED0"/>
<path id="Vector_9" d="M17.3512 17.5441C17.6521 17.5361 17.9598 17.5579 17.9518 17.9552C17.9437 18.341 17.636 18.3686 17.3374 18.3674C17.0549 18.3663 16.7839 18.3215 16.7679 17.9678C16.7495 17.5579 17.0526 17.5441 17.3512 17.5441Z" fill="#04A0D1"/>
<path id="Vector_10" d="M17.3236 19.1483C17.6061 19.1552 17.9368 19.1173 17.9529 19.525C17.969 19.9188 17.6635 19.9521 17.365 19.9556C17.0652 19.959 16.769 19.9292 16.7655 19.5353C16.7621 19.1621 17.0434 19.1449 17.3225 19.1495L17.3236 19.1483Z" fill="#07A1D1"/>
<path id="Vector_11" d="M11.9977 15.5529C8.99712 15.5678 6.45358 13.0656 6.43635 10.0811C6.41798 6.94276 8.86965 4.43941 11.9747 4.42908C15.0155 4.41874 17.5326 6.90946 17.5441 9.94449C17.5567 13.0117 15.0591 15.5368 11.9977 15.5529Z" fill="#FEFEFE"/>
<path id="Vector_12" d="M11.5315 6.02298C11.6142 5.67503 11.5498 5.27657 12.0046 5.29953C12.4375 5.3202 12.3755 5.70719 12.4272 6.02298C12.6362 5.91274 12.813 5.80135 13.0036 5.72556C13.1977 5.64862 13.3987 5.68537 13.502 5.88173C13.5996 6.06547 13.5663 6.25264 13.3975 6.39848C13.3826 6.41111 13.3699 6.42834 13.3539 6.43408C11.9839 6.98987 12.4742 8.15542 12.4065 9.24862C13.0277 8.89953 13.5743 8.60097 14.1118 8.28747C14.338 8.15542 14.3472 7.91427 14.3518 7.68001C14.3575 7.43197 14.3472 7.18049 14.3908 6.93819C14.4276 6.73724 14.5768 6.60288 14.8042 6.6224C15.0235 6.64192 15.1556 6.76709 15.1659 6.99102C15.1751 7.17934 15.1682 7.36881 15.1682 7.58125C15.4794 7.56518 15.8067 7.21724 16.0444 7.64212C16.2626 8.0314 15.8894 8.16231 15.6884 8.36556C15.7826 8.57341 16.0042 8.57571 16.1466 8.68824C16.3372 8.83867 16.4038 9.01896 16.2924 9.24059C16.1856 9.45073 15.9502 9.51389 15.8055 9.40135C14.6228 8.48499 13.8235 9.4691 12.8073 9.97781C13.4388 10.3407 13.9889 10.6668 14.5504 10.9746C14.8111 11.1181 15.0201 10.908 15.2417 10.8161C15.383 10.7575 15.5127 10.6748 15.6551 10.6186C15.894 10.5256 16.1535 10.4475 16.2993 10.7472C16.4406 11.0354 16.2626 11.2146 16.026 11.3478C15.9112 11.4132 15.7918 11.4706 15.6597 11.5395C15.8216 11.8002 16.2982 11.9081 16.0444 12.3284C15.8124 12.7131 15.5139 12.4547 15.2153 12.3663C15.1074 12.5455 15.1912 12.7349 15.1774 12.9106C15.1579 13.146 15.0901 13.3183 14.8157 13.3332C14.5516 13.347 14.3667 13.1828 14.3954 12.9681C14.5941 11.5005 13.3596 11.3202 12.4065 10.7139C12.4065 11.4385 12.3985 12.0735 12.4099 12.7085C12.4145 12.9841 12.6787 13.0553 12.8578 13.1862C13.0117 13.2988 13.1736 13.401 13.3298 13.5112C13.5456 13.6639 13.6364 13.8695 13.4894 14.1026C13.3355 14.3437 13.1024 14.3093 12.8819 14.1933C12.7487 14.1233 12.6247 14.0348 12.4674 13.9361C12.3468 14.2404 12.4409 14.7169 11.9449 14.671C11.5625 14.6354 11.5923 14.2829 11.5751 14.0004C11.3363 13.9533 11.2272 14.1531 11.0584 14.2128C10.8505 14.2875 10.6323 14.3288 10.4957 14.1049C10.3717 13.9016 10.4165 13.7007 10.6048 13.5434C10.6197 13.5307 10.6335 13.5169 10.6507 13.5101C11.8966 13.0392 11.5533 11.969 11.582 11.0389C11.59 10.769 11.4741 10.7518 11.2697 10.8712C10.8092 11.1422 10.3476 11.4109 9.88248 11.6727C9.66085 11.7979 9.65281 11.9954 9.64822 12.2136C9.64248 12.4605 9.61492 12.7085 9.58277 12.9531C9.55176 13.1885 9.43463 13.3413 9.16822 13.3286C8.89836 13.3148 8.80994 13.1426 8.79731 12.9095C8.78813 12.7441 8.79501 12.5776 8.79501 12.3847C8.47923 12.4123 8.15195 12.7315 7.91999 12.2986C7.70181 11.8898 8.1198 11.7956 8.32879 11.5545C8.13702 11.4454 7.97167 11.3661 7.82353 11.2616C7.65702 11.1445 7.56171 10.9872 7.65013 10.769C7.74085 10.5451 7.92229 10.5233 8.12324 10.5508C8.19674 10.5612 8.27942 10.5807 8.33683 10.6255C9.40363 11.4546 10.1133 10.4969 10.932 10.1053C11.1353 10.0077 11.0251 9.89972 10.8919 9.82279C10.4142 9.54374 9.93645 9.26355 9.45645 8.9891C9.24171 8.86623 9.05224 8.97877 8.86391 9.07523C8.69396 9.16135 8.52171 9.24403 8.35061 9.32786C8.0888 9.45762 7.82698 9.51963 7.66621 9.19695C7.51463 8.89379 7.73052 8.73647 7.96018 8.6159C8.19444 8.49303 8.44592 8.40116 8.06927 8.13475C7.9154 8.02566 7.77301 7.88326 7.90851 7.6536C8.04171 7.42853 8.23348 7.42049 8.45396 7.47216C8.55846 7.49628 8.63999 7.62145 8.79731 7.53073C8.79731 7.36307 8.78698 7.17704 8.79961 6.99216C8.81454 6.77513 8.93741 6.63044 9.15789 6.61322C9.37722 6.59714 9.51616 6.71886 9.57013 6.9313C9.58391 6.98642 9.60918 7.04614 9.60114 7.09896C9.40018 8.43331 10.56 8.60212 11.3225 9.10738C11.5384 9.24977 11.5831 9.11657 11.582 8.92824C11.582 8.39312 11.5774 7.858 11.582 7.32288C11.5854 6.98183 11.2972 6.90259 11.0894 6.74987C10.9665 6.6603 10.8367 6.57762 10.7104 6.49379C10.4808 6.34106 10.3257 6.13322 10.4819 5.87025C10.6415 5.60039 10.8999 5.66125 11.1376 5.78872C11.2524 5.85073 11.3638 5.91848 11.5349 6.01609L11.5315 6.02298Z" fill="#009ED0"/>
</g>
</svg>
