<svg width="24" height="24" viewBox="0 0 24 24" fill="none" xmlns="http://www.w3.org/2000/svg">
<g id="eat">
<g id="Layer 1">
<g id="Group">
<path id="Vector" d="M21.3807 22.0501C22.3257 21.9824 23.1801 21.2452 23.5441 20.2461C23.7807 19.5973 23.7451 18.8957 23.9908 18.2538V17.9093C23.8668 17.8163 24.0115 17.6084 23.8323 17.5395C23.6073 17.6199 23.6325 17.8335 23.5866 18.0069C23.3914 18.7303 23.1789 19.4492 22.8758 20.137C22.7311 20.4367 22.5428 20.7032 22.2901 20.9236C21.6482 21.4312 20.8926 21.6367 20.1037 21.6402C14.8593 21.6586 9.61378 21.662 4.36938 21.6367C3.53799 21.6333 2.69168 21.5162 2.04747 20.8731C2.01876 20.8191 1.98775 20.7652 1.9579 20.7123C1.69837 20.4551 1.46756 20.1715 1.23101 19.8936C0.879618 19.3688 0.661436 18.7774 0.391581 18.2113C0.279045 18.1022 0.161915 18.0218 0.00689125 18.1401V18.2549C0.344498 18.7682 0.311197 19.4044 0.570719 19.9464C1.07254 20.9925 1.75579 21.8239 2.97416 22.0467C3.11656 22.1271 3.27273 22.0949 3.42316 22.0949C9.25895 22.0961 15.0947 22.0961 20.9294 22.0949C21.0798 22.0949 21.236 22.1248 21.3795 22.0501H21.3807Z" fill="#FB532C"/>
<path id="Vector_2" d="M23.992 16.5336C23.737 16.0306 23.8071 15.4599 23.6578 14.9328C23.6222 14.8054 23.5912 14.6871 23.5154 14.5803C23.4557 14.4689 23.3868 14.3862 23.2513 14.485C23.0745 14.702 23.1629 14.9317 23.2203 15.1602C23.3041 15.8308 23.2616 16.5026 23.2387 17.1744C23.2444 17.3478 23.3317 17.4614 23.4913 17.5234C23.7623 17.5705 23.8553 17.4075 23.8932 17.1801C23.9414 17.0836 23.907 16.9608 23.992 16.8769V16.5324V16.5336Z" fill="#FB5D2B"/>
<path id="Vector_3" d="M0.00805533 18.1401C0.122888 18.178 0.23772 18.217 0.352553 18.2549C0.499539 18.17 0.552361 18.0276 0.590255 17.8748C0.679825 17.4488 0.629299 17.0193 0.624706 16.591C0.521356 15.9985 0.769395 15.3726 0.461644 14.7985C0.273318 15.0775 0.27906 15.4082 0.231978 15.7206C0.20327 15.9112 0.160783 16.0697 0.00805533 16.1891V16.6484C0.102218 17.0687 0.102218 17.4901 0.00805533 17.9104V18.1401Z" fill="#FB5929"/>
<path id="Vector_4" d="M0.00804952 17.9104C0.197523 17.4901 0.190633 17.0687 0.00804952 16.6484V17.9104Z" fill="#FB7D53"/>
<path id="Vector_5" d="M23.992 16.8781C23.8691 16.9125 23.8771 17.0205 23.8611 17.1146C23.8105 17.2685 23.7876 17.4212 23.8645 17.574C23.8944 17.6911 23.8415 17.8404 23.992 17.9116V16.8792V16.8781Z" fill="#FCA687"/>
<path id="Vector_6" d="M22.1638 11.5832C21.5368 10.5037 20.7169 9.57704 19.796 8.74909C19.1724 8.18871 18.6258 7.5755 18.1539 6.88995C17.9323 7.10125 17.915 7.12995 18.039 7.4044C18.2572 7.88785 18.5604 8.31273 18.9577 8.66756C19.92 9.5357 20.702 10.5531 21.4071 11.6348C21.5816 11.7554 21.7367 11.9024 21.925 12.0023C22.0019 12.0253 22.0766 12.0207 22.1466 11.9816C22.204 11.8519 22.1845 11.7175 22.1638 11.5832Z" fill="#FB7428"/>
<path id="Vector_7" d="M7.15752 5.18699C7.02891 5.33053 6.90145 5.47407 6.77283 5.61761C5.44882 7.20574 5.12728 9.14067 4.86891 11.0986C4.83102 11.3856 4.92862 11.6234 5.11465 11.8335C5.19504 11.8955 5.28461 11.9104 5.38221 11.8909C5.57169 11.8128 5.68078 11.6704 5.71178 11.4683C5.70375 10.0938 5.89551 8.75139 6.38585 7.46067C6.53398 6.85206 6.74872 6.27904 7.14489 5.77723C7.26776 5.62105 7.52384 5.38794 7.15638 5.18699H7.15752Z" fill="#FD7D2F"/>
<path id="Vector_8" d="M3.5426 12.7476C3.51504 12.3663 3.48633 11.9839 3.45877 11.6027C2.97533 11.4075 2.46432 11.574 1.97169 11.4913C1.67542 11.8335 1.42509 12.2044 1.26318 12.6304C1.29992 12.7958 1.40672 12.8968 1.55944 12.9566C2.09456 12.9657 2.62968 12.9761 3.16595 12.9876C3.32557 12.9611 3.44614 12.8727 3.5426 12.7476Z" fill="#FB6E28"/>
<path id="Vector_9" d="M15.499 1.96708C14.3334 2.13244 13.1587 2.25531 12.0345 2.63771C11.4615 2.98335 10.8345 3.22909 10.2787 3.61149C9.83887 3.91464 9.39906 4.20517 9.15102 4.70125C9.14184 4.75751 9.15447 4.80919 9.18432 4.85627C9.51734 4.98373 9.66892 4.66565 9.90777 4.5623C10.3039 4.24766 10.7219 3.96861 11.1962 3.78488C11.5993 3.55637 11.9748 3.28077 12.3973 3.08555C12.9072 2.68134 13.5514 2.63082 14.1439 2.48498C14.6974 2.34833 14.8341 2.61704 14.6871 3.36459C14.671 3.51847 14.6779 3.66775 14.7824 3.79522C14.8869 3.84919 14.988 3.80326 15.019 3.72058C15.2303 3.15101 15.5725 2.61589 15.499 1.96938V1.96708Z" fill="#FC8843"/>
<path id="Vector_10" d="M17.7784 5.86105C17.7543 5.33627 17.7382 4.81148 17.8737 4.21091C16.8402 4.61971 16.2258 5.32364 15.8538 6.26871C15.7665 6.53168 15.9858 6.53627 16.088 6.46737C16.552 6.15503 16.9987 6.26297 17.4534 6.46048C17.7393 6.14354 17.3328 5.80364 17.4924 5.46603C17.6302 5.57282 17.5028 5.87139 17.7772 5.86105H17.7784Z" fill="#FA7B34"/>
<path id="Vector_11" d="M5.17208 11.83C4.83447 10.8402 5.21227 9.90086 5.39371 8.95235C5.62452 7.75005 6.1849 6.67637 6.7717 5.61761C6.3273 5.94948 5.98165 6.36287 5.73132 6.85665C5.61878 7.03694 5.5338 7.23101 5.45227 7.42622C5.4293 7.4733 5.41323 7.52383 5.40289 7.57436C5.34777 7.96364 5.10088 8.28058 4.99639 8.65148C4.97801 8.69971 4.96308 8.74909 4.9516 8.80077C4.92519 9.0844 4.84825 9.35541 4.75524 9.62297C4.74146 9.67464 4.73342 9.72632 4.72883 9.77914C4.69552 10.3097 4.62318 10.8356 4.53591 11.3604C4.55313 11.5257 4.58184 11.6877 4.6427 11.8438C4.80806 12.0494 4.79658 12.4283 5.19275 12.41C5.23409 12.364 5.26165 12.3123 5.27773 12.2526C5.31218 12.093 5.28232 11.9495 5.16978 11.8266L5.17208 11.83Z" fill="#FC792C"/>
<path id="Vector_12" d="M1.97169 11.4913C2.44136 11.876 2.95925 11.6234 3.45877 11.6027C3.60461 10.9906 3.51045 10.3533 3.65054 9.72287C2.99255 10.2339 2.4115 10.7943 1.97169 11.4913Z" fill="#FA7126"/>
<path id="Vector_13" d="M4.7139 11.83C4.69783 11.6716 4.76673 11.4913 4.59907 11.3707C4.66797 10.8344 4.74491 10.2993 4.82874 9.76421C4.82874 9.72632 4.82874 9.68727 4.82874 9.64938C4.94816 9.35426 4.96539 9.03273 5.0584 8.73187C5.13075 8.31732 5.33974 7.95675 5.51773 7.58469C5.51773 7.5468 5.51773 7.50775 5.51773 7.46986C5.58778 7.35043 5.61764 7.24823 5.42012 7.24364C4.64615 8.54469 4.12022 9.92268 4.13056 11.4637C4.08462 11.5372 4.08233 11.6165 4.09611 11.698C4.15467 11.8794 4.20864 12.0655 4.4429 12.0942C4.57955 12.0528 4.66108 11.9564 4.7139 11.8289V11.83Z" fill="#FB7429"/>
<path id="Vector_14" d="M17.4511 6.43751C17.0561 5.99426 16.622 5.95062 16.1478 6.31005C16.0375 6.39388 15.9238 6.48459 15.8549 6.26871C15.6471 5.88861 15.5931 5.46144 15.4737 5.05378C15.3577 4.92057 15.5885 4.65646 15.298 4.58871C14.9753 4.95847 15.1464 5.38909 15.1487 5.79904C15.2394 6.42258 15.5782 6.74986 16.2316 6.72C16.405 6.71196 16.5669 6.78431 16.7185 6.86699C17.156 7.01282 17.156 7.59617 17.5935 7.74316C17.6567 7.74201 17.706 7.71445 17.7428 7.66278C17.8346 7.49512 17.8289 7.31369 17.8163 7.13225C17.7543 6.86928 17.7462 6.57761 17.45 6.43866L17.4511 6.43751Z" fill="#FC7D33"/>
<path id="Vector_15" d="M17.4511 6.43751C17.528 6.66718 17.6038 6.89684 17.6808 7.12536C17.8599 7.73282 18.2205 8.23234 18.6304 8.70201C18.7682 8.79043 18.8888 8.93397 19.0829 8.84785C19.1311 8.76517 19.1219 8.68823 19.0588 8.61703C18.7636 8.25531 18.4237 7.9223 18.2354 7.48823C18.1562 7.30679 17.9323 7.11962 18.155 6.8888C18.0299 6.5466 17.9047 6.20325 17.7795 5.86105C17.5797 5.6601 17.7508 5.38565 17.628 5.13187C17.3259 5.32019 17.1502 5.53493 17.3524 5.89321C17.45 6.06546 17.4569 6.24919 17.4511 6.43751Z" fill="#FB792E"/>
<path id="Vector_16" d="M4.48421 12.0597C4.30737 12.0103 4.28211 11.8174 4.15923 11.7175C4.0134 12.1091 4.08574 12.5076 4.12249 12.906C4.06392 13.4297 4.32345 13.9292 4.24191 14.454C4.26373 14.4666 4.2867 14.4792 4.30852 14.493C4.53014 14.3242 4.77933 14.1922 4.99407 14.0107C5.01933 13.9625 5.03426 13.9108 5.0423 13.8568C5.03885 13.6123 4.96536 13.3757 4.96191 13.1311C4.84479 12.7556 4.70584 12.3893 4.48421 12.0597Z" fill="#FC6C2B"/>
<path id="Vector_17" d="M15.499 1.96708C15.2119 2.55617 15.1809 3.24058 14.8111 3.79866C14.6262 3.96976 14.6699 4.22239 14.5803 4.42909C14.5401 4.59675 14.4678 4.76211 14.5275 4.9401C14.5872 5.05378 14.6802 5.11694 14.8088 5.12727C14.8685 5.12498 14.9225 5.10431 14.9696 5.06871C15.2061 4.82526 15.1418 4.49225 15.2302 4.20517C15.3324 3.96287 15.3118 3.67579 15.5058 3.4668C15.6161 3.09244 15.7125 2.71349 15.8389 2.34488C15.9617 1.98775 15.8733 1.85684 15.4978 1.96593L15.499 1.96708Z" fill="#FC8640"/>
<path id="Vector_18" d="M7.15753 5.18699C7.36998 5.45799 7.09667 5.61531 6.98529 5.77148C6.63964 6.25263 6.33993 6.74182 6.3204 7.35617C6.36404 7.39407 6.41457 7.40326 6.46969 7.38603C6.59715 7.32172 6.68672 7.22182 6.75218 7.0978C7.16213 6.2377 7.65017 5.43273 8.3495 4.7667C8.52519 4.59904 8.81227 4.46469 8.72844 4.12938C8.12213 4.35904 7.59275 4.70125 7.15868 5.18814L7.15753 5.18699Z" fill="#FB7E35"/>
<path id="Vector_19" d="M8.72727 4.12823C8.07503 4.88728 7.3378 5.57742 6.88536 6.49493C6.78431 6.70048 6.64651 6.88306 6.66373 7.12536C6.63043 7.15407 6.61895 7.18393 6.62928 7.21493C6.63962 7.24479 6.64995 7.26086 6.66029 7.26086C6.91751 7.29302 7.04727 7.08747 7.22182 6.9623C7.49857 6.56728 7.62259 6.08842 7.90967 5.69799C8.29665 5.06297 8.77895 4.51062 9.35081 4.03522C9.45646 3.94795 9.61723 3.85838 9.50469 3.67005C9.49895 3.66086 9.47483 3.65627 9.46105 3.65857C9.44268 3.66086 9.4266 3.67235 9.40823 3.67924C9.18086 3.82852 8.95349 3.97895 8.72613 4.12823H8.72727Z" fill="#FD8238"/>
<path id="Vector_20" d="M3.5426 12.7476C3.43581 12.7855 3.32901 12.8245 3.22107 12.8624C2.86394 13.0737 2.99255 13.4434 2.92825 13.7512C2.92825 13.8787 2.97877 13.9866 3.05341 14.0877C3.27848 14.3357 3.49322 14.6056 3.81475 14.7273C4.03064 14.8088 4.31428 14.9099 4.2603 14.4735L4.24078 14.454C3.69877 14.0119 3.716 13.3412 3.5426 12.7487V12.7476Z" fill="#FB692B"/>
<path id="Vector_21" d="M0.462797 14.7996C0.465094 15.4163 0.466243 16.0329 0.468539 16.6484C0.57074 16.7368 0.686721 16.7667 0.818779 16.73C1.17131 16.4532 0.996769 16.0433 1.0806 15.6988C1.05074 15.1384 0.900309 14.5826 1.02777 14.0176C0.994472 13.8488 0.961171 13.68 0.721171 13.7834C0.698204 14.1382 0.436385 14.4333 0.463945 14.8008L0.462797 14.7996Z" fill="#FC612C"/>
<path id="Vector_22" d="M9.4094 3.67924C9.46107 3.71713 9.48863 3.77914 9.43696 3.81589C8.7583 4.30048 8.21169 4.90105 7.81208 5.63483C7.78107 5.66239 7.76959 5.69225 7.77648 5.72325C7.78452 5.75426 7.79256 5.77034 7.80174 5.77034C8.19102 5.79445 8.28059 5.40058 8.54011 5.24325C8.64231 5.15828 8.73992 5.06756 8.82834 4.96766C9.23141 4.38431 9.77112 3.95713 10.374 3.59656C10.5623 3.48402 10.8655 3.43924 10.7667 3.09474C10.7644 3.08785 10.7369 3.08211 10.7231 3.0844C10.7047 3.0867 10.6886 3.09818 10.6714 3.10622C10.266 3.33244 9.77456 3.36574 9.41054 3.68038L9.4094 3.67924Z" fill="#FB833D"/>
<path id="Vector_23" d="M22.1639 11.5832C22.095 11.7026 22.0777 11.8232 22.1558 11.9449C22.0157 12.0746 21.9595 12.2216 22.0651 12.4008C22.3039 12.8279 22.2856 13.3263 22.4463 13.7753C22.5474 13.8993 22.6772 13.9556 22.8368 13.9349C23.1239 13.8098 23.0285 13.5411 23.0664 13.3229C22.8379 12.7051 22.5864 12.0999 22.1639 11.582V11.5832Z" fill="#FB6A2B"/>
<path id="Vector_24" d="M10.6703 3.10507C10.7564 3.39675 10.4877 3.40708 10.3418 3.50584C9.74242 3.91694 9.05457 4.22814 8.72959 4.94584C9.00175 5.10775 9.05457 4.83101 9.18892 4.71617C9.98471 3.83885 11.0044 3.28881 12.0437 2.76747C12.0586 2.76058 12.0804 2.73991 12.0781 2.73187C12.0678 2.69857 12.0494 2.66871 12.0345 2.63656C11.574 2.77436 11.0906 2.84785 10.6703 3.10393V3.10507Z" fill="#FB8540"/>
<path id="Vector_25" d="M0.720007 13.7811C0.864696 13.7891 0.925558 13.8729 0.926706 14.0096C0.985271 14.2048 1.06106 14.3828 1.3068 14.3931C1.47101 14.3495 1.54106 14.2174 1.60077 14.075C1.62259 14.0153 1.63522 13.9533 1.64326 13.8913C1.64326 13.5422 1.74776 13.1782 1.50087 12.8624C1.45494 12.7499 1.3757 12.6729 1.26316 12.6293C1.00709 12.9784 0.847471 13.3711 0.720007 13.7811Z" fill="#FB682B"/>
<path id="Vector_26" d="M23.0664 13.3229C22.9929 13.5135 22.9183 13.7041 22.8448 13.8947C22.7001 14.2186 22.8574 14.5814 22.7127 14.9064C22.699 15.0545 22.7093 15.2015 22.746 15.3462C22.808 15.5104 22.8379 15.6976 23.0389 15.7631C23.133 15.7504 23.2019 15.6988 23.2559 15.6241C23.3122 15.4335 23.4316 15.2486 23.3041 15.0419C23.2502 14.8501 23.2502 14.6595 23.3041 14.4678C23.3776 14.3656 23.3099 14.2232 23.4017 14.1256C23.3236 13.8442 23.2479 13.5606 23.0676 13.3217L23.0664 13.3229Z" fill="#FC642C"/>
<path id="Vector_27" d="M15.5081 3.46795C15.1751 3.58048 15.1889 3.8733 15.1568 4.14316C15.1751 4.1512 15.1924 4.15924 15.2096 4.16728C15.3669 4.27751 15.2027 4.50718 15.3738 4.61283C15.4025 4.76096 15.3382 4.92976 15.4737 5.05378C15.4852 4.5244 15.4967 3.99617 15.5081 3.4668V3.46795Z" fill="#FC8138"/>
<path id="Vector_28" d="M4.12251 12.9049C4.134 12.5087 4.14663 12.1125 4.15811 11.7164C4.14892 11.6325 4.13974 11.5487 4.1294 11.4649C4.00194 11.9437 4.01342 12.4249 4.12136 12.9049H4.12251Z" fill="#FB7D3E"/>
<path id="Vector_29" d="M5.41896 7.24479C5.45111 7.32057 5.48441 7.39522 5.51657 7.471C5.67389 7.29646 5.71752 7.08287 5.73245 6.8578C5.53724 6.91292 5.44537 7.05301 5.41896 7.24479Z" fill="#FB762A"/>
<path id="Vector_30" d="M23.4006 14.1267C23.2261 14.2002 23.218 14.3208 23.303 14.4689C23.373 14.5068 23.4431 14.5435 23.5143 14.5814C23.4764 14.4299 23.4385 14.2783 23.4006 14.1278V14.1267Z" fill="#FB642C"/>
<path id="Vector_31" d="M21.3807 22.0501C15.2452 22.049 9.11082 22.0478 2.97532 22.0456C3.22335 22.1822 3.49551 22.1409 3.75962 22.1409C9.39101 22.1432 15.0224 22.1432 20.6538 22.1409C20.8984 22.1409 21.1522 22.1902 21.3795 22.049L21.3807 22.0501Z" fill="#FB532F"/>
<path id="Vector_32" d="M1.84421 20.6641V20.7789C2.49187 21.53 3.41512 21.6643 4.28785 21.6735C8.90297 21.7194 13.5181 21.7102 18.1332 21.6838C18.8934 21.6792 19.6524 21.6907 20.4115 21.6896C20.71 21.5989 21.0212 21.5564 21.3198 21.4656C21.6999 21.4002 22.0524 21.2785 22.3257 20.9868C22.5049 20.6986 22.8195 20.5068 22.9171 20.1589C22.9516 20.0337 22.9401 19.9212 22.8287 19.8362C22.6036 19.8419 22.5049 20.0314 22.3878 20.1692C21.8021 20.8616 21.0752 21.1866 20.1623 21.089C19.9361 21.0649 19.7041 21.0775 19.4745 21.0614C14.4723 21.0442 9.47139 21.0557 4.47043 21.0545C3.99158 21.0545 3.51617 21.0477 3.05455 20.903C2.62852 20.9397 2.3001 20.4792 1.84421 20.663V20.6641Z" fill="#FD5531"/>
<path id="Vector_33" d="M22.2706 20.8938C22.0398 21.1969 21.724 21.3301 21.3531 21.3531C21.1108 21.5196 20.8146 21.4944 20.5493 21.5828C15.8859 21.5828 11.2226 21.6241 6.56039 21.5552C5.31676 21.5368 4.03522 21.755 2.80537 21.2635C2.46317 21.1269 2.18412 20.9007 1.84422 20.7801C2.07733 21.4955 2.76977 21.5047 3.31637 21.6746C3.81704 21.8297 4.36364 21.8193 4.89991 21.8182C9.96058 21.809 15.0213 21.8262 20.0808 21.7987C20.9661 21.7941 21.8653 21.6528 22.4991 20.8938C22.4222 20.8203 22.3464 20.8306 22.2695 20.8938H22.2706Z" fill="#FC522E"/>
<path id="Vector_34" d="M22.8437 19.8614C22.8437 19.9763 22.8437 20.0911 22.8437 20.2059C22.8816 20.2599 22.9206 20.2622 22.9585 20.2059C23.3949 19.4687 23.5797 18.6477 23.7635 17.8255C23.783 17.7382 23.8289 17.6578 23.8634 17.574C23.8622 17.4212 23.8611 17.2685 23.8599 17.1146C23.7279 17.2054 23.7784 17.4729 23.5315 17.4523C23.3018 17.7554 23.2433 18.1309 23.0917 18.4685C22.9838 18.8544 22.8505 19.2345 22.7495 19.6226C22.7483 19.7145 22.7759 19.796 22.8425 19.8614H22.8437Z" fill="#FC572D"/>
<path id="Vector_35" d="M0.467382 17.9104C0.429487 18.0253 0.390444 18.1401 0.352549 18.2549C0.466233 18.9003 0.773983 19.4549 1.15523 19.9763C1.28039 19.8695 1.28843 19.7248 1.28958 19.5767C1.27465 19.1816 1.03006 18.8612 0.932452 18.4926C0.917524 18.4421 0.896855 18.3939 0.87274 18.3468C0.767094 18.2033 0.714271 18.0276 0.599438 17.8898C0.55006 17.8645 0.505276 17.8702 0.465085 17.9104H0.467382Z" fill="#FB572D"/>
<path id="Vector_36" d="M1.15638 19.5169V19.9763C1.39638 20.1956 1.4515 20.5987 1.84537 20.6641C2.21743 20.6963 2.48384 21.0442 2.87772 21.0086C2.73532 20.5275 2.21743 20.4379 1.93494 20.1037C1.6203 19.9809 1.53762 19.5514 1.15638 19.5169Z" fill="#FC5630"/>
<path id="Vector_37" d="M22.9585 20.2048C22.9206 20.2048 22.8816 20.2048 22.8437 20.2048C22.6519 20.4345 22.4613 20.6641 22.2695 20.8926H22.4992C22.7426 20.7227 22.885 20.4873 22.9585 20.2048Z" fill="#FB532F"/>
<path id="Vector_38" d="M23.1881 18.4846C23.3707 18.1631 23.5613 17.8438 23.5326 17.4523C23.4235 17.4086 23.3466 17.3317 23.303 17.2226C23.4121 17.0538 23.3225 16.9458 23.1893 16.8517C22.8907 16.916 22.9034 17.1835 22.8322 17.3971C22.808 17.5648 22.7713 17.7301 22.738 17.8967C22.7254 17.9839 22.7277 18.0701 22.7472 18.155C22.831 18.3479 22.9171 18.5397 23.1881 18.4834V18.4846Z" fill="#FC5D2F"/>
<path id="Vector_39" d="M23.1882 16.8781C23.2261 16.9929 23.2651 17.1078 23.303 17.2226C23.4879 16.4957 23.4879 15.77 23.303 15.0431C23.2651 15.2337 23.2261 15.4255 23.1882 15.6161C23.1962 15.7527 23.0963 15.8561 23.0756 15.9835C23.063 16.2878 22.8609 16.6163 23.1882 16.8781Z" fill="#FC5F2D"/>
<path id="Vector_40" d="M0.467367 17.9104C0.505262 17.9104 0.544305 17.9104 0.5822 17.9104C0.703922 18.0413 0.698181 18.2354 0.811865 18.3698C0.976075 18.5707 1.02316 18.9451 1.42966 18.7923C1.54564 18.3365 1.19885 17.969 1.18966 17.5361C1.13225 17.2111 1.09665 16.8769 0.811865 16.6484H0.467367C0.467367 17.0687 0.467367 17.4901 0.467367 17.9104Z" fill="#FC5E30"/>
<path id="Vector_41" d="M19.0576 8.61703C19.0576 8.69397 19.0576 8.76976 19.0576 8.8467C19.0519 9.15101 19.2999 9.29684 19.4572 9.50239C20.0188 10.2304 20.7009 10.8723 21.0798 11.7336C21.2279 11.8668 21.368 12.0195 21.6 11.9529C21.7011 11.7807 21.5931 11.6877 21.4668 11.6004C20.8708 10.4383 20.0567 9.45302 19.0576 8.61703Z" fill="#FC772A"/>
<path id="Vector_42" d="M22.1558 12.2894C22.0226 12.1745 22.1937 12.0597 22.1558 11.9449C22.0789 11.9449 22.0031 11.9449 21.9261 11.9449C21.7596 12.054 21.6988 12.2297 21.6402 12.4065C21.6345 12.4628 21.6391 12.5167 21.654 12.5707C21.7493 12.7407 21.817 12.9543 22.0892 12.8532C22.2304 12.6798 22.258 12.4915 22.1558 12.2894Z" fill="#FB712B"/>
<path id="Vector_43" d="M21.6965 12.4031C21.8458 12.2859 21.9078 12.1263 21.9261 11.9437C21.8251 11.76 21.6999 11.6084 21.4668 11.5992C21.5047 11.7141 21.5438 11.8289 21.5816 11.9437C21.445 12.1401 21.5415 12.279 21.6965 12.4031Z" fill="#FC732A"/>
<path id="Vector_44" d="M6.43409 7.35617C6.3962 7.35617 6.35715 7.35617 6.31926 7.35617C5.82318 8.20134 5.75313 9.1579 5.64404 10.0949C5.59122 10.5508 5.34663 11.0228 5.63141 11.4867C5.86796 11.7106 6.16768 11.6417 6.44672 11.6589C7.1472 11.7014 7.85572 11.5705 8.5516 11.7474C8.7939 11.814 8.99715 11.6911 9.205 11.6038C11.2226 10.7621 13.2379 10.7667 15.2555 11.6038C15.4634 11.69 15.6666 11.814 15.9101 11.7462C16.4326 11.5912 16.9677 11.6854 17.4959 11.6635C18.3124 11.6291 19.1323 11.7256 19.9464 11.6061C20.4012 11.3386 20.129 11.0308 19.9395 10.8057C19.3505 10.1041 18.9462 9.27617 18.3663 8.5711C18.1309 8.28632 18.0999 7.83962 17.6796 7.70182H17.5648C17.3627 7.96249 17.5246 8.20938 17.597 8.45857C17.7485 8.97991 17.6659 9.11541 17.1112 9.13148C16.2534 9.15789 15.3956 9.13263 14.5367 9.14297C14.2749 9.14641 13.997 9.09933 13.7765 9.30488C13.6697 9.56785 13.9395 9.75847 13.9039 10.1018C12.6764 9.93187 11.4408 9.86986 10.204 10.1627C10.1305 9.79981 10.6691 9.58967 10.3774 9.22565C9.66088 9.04536 8.93285 9.17627 8.2117 9.13952C7.98318 9.12804 7.75352 9.13837 7.52385 9.13723C6.39505 9.13378 6.2894 9.00746 6.4651 7.90622C6.4938 7.72364 6.57419 7.53187 6.43409 7.35617Z" fill="#FE8131"/>
<path id="Vector_45" d="M8.61359 11.6819C8.54354 11.4098 8.31962 11.4901 8.14392 11.4878C7.30679 11.481 6.46852 11.4844 5.63024 11.4844C5.5533 11.5992 5.47751 11.7141 5.40057 11.8289C5.46029 12.2113 5.77607 12.1918 6.04249 12.2136C6.56383 12.2549 7.08861 12.201 7.6088 12.2572C8.04861 12.2492 8.3977 12.0827 8.61244 11.6808L8.61359 11.6819Z" fill="#FE7D32"/>
<path id="Vector_46" d="M7.70988 12.2101C7.24481 11.9047 6.72806 12.1137 6.23773 12.0643C5.94146 12.0345 5.62797 12.1022 5.4029 11.83C5.32596 11.83 5.25017 11.83 5.17323 11.83C5.17323 11.9828 5.17323 12.1355 5.17323 12.2894C5.42816 12.7303 5.85993 12.7774 6.30318 12.79C6.54892 12.7981 6.79467 12.8015 7.03926 12.7682C7.34242 12.6775 7.6605 12.6052 7.71103 12.2101H7.70988Z" fill="#FE7A32"/>
<path id="Vector_47" d="M1.50089 12.8624C1.50089 13.2448 1.50089 13.6272 1.50089 14.0096C1.72481 14.0578 1.79027 13.8649 1.8741 13.7374C2.13132 13.347 2.38969 13.2689 2.70319 13.6731C2.76979 13.7592 2.86165 13.8373 2.99256 13.7799C3.23831 13.5158 2.99601 13.1311 3.22223 12.8624C2.64807 12.8268 2.07505 12.7625 1.50089 12.8624Z" fill="#FC6B2B"/>
<path id="Vector_48" d="M9.1889 4.71732C9.03617 4.79426 8.8823 4.87005 8.72957 4.94699C8.62048 4.99062 8.54354 5.06756 8.49991 5.17665C8.31732 5.30067 8.22775 5.49818 8.14278 5.68536C7.97168 6.06431 8.13015 6.36517 8.5355 6.46278C8.70316 6.50297 8.8777 6.49952 9.04995 6.49952C10.599 6.50182 12.1481 6.50527 13.6961 6.49838C14.6503 6.49378 14.9948 6.04134 14.8111 5.06182C14.7342 5.02393 14.6584 4.98488 14.5814 4.94699C14.2427 5.45455 13.7765 5.6245 13.1644 5.59924C12.1355 5.55675 11.1032 5.59005 10.0731 5.58661C9.2934 5.58431 9.2934 5.58086 9.18775 4.83216C9.18775 4.79426 9.18775 4.75522 9.18775 4.71732H9.1889Z" fill="#FE893E"/>
<path id="Vector_49" d="M9.1889 4.83215C8.89378 5.59349 8.99598 5.74852 9.79522 5.74967C11.0882 5.74967 12.3812 5.74967 13.6743 5.74967C14.2186 5.74967 14.5045 5.46718 14.5826 4.94584C14.6205 4.79311 14.6595 4.64038 14.6974 4.48651C14.5527 4.43598 14.4574 4.51636 14.3678 4.61053C14.1531 5.00325 13.8293 5.14909 13.3768 5.13761C12.4616 5.11464 11.5441 5.11005 10.6301 5.13876C10.1397 5.15483 9.86412 5.009 9.87675 4.48651C9.58048 4.46813 9.48402 4.84938 9.18775 4.83101L9.1889 4.83215Z" fill="#FE8B42"/>
<path id="Vector_50" d="M9.87676 4.48766C9.56327 5.13646 9.65513 5.28689 10.3855 5.28919C11.4511 5.29378 12.5179 5.28574 13.5836 5.29263C14.0681 5.29608 14.3897 5.1112 14.4666 4.60249C14.578 4.43024 14.6297 4.25225 14.5171 4.05933C14.4747 4.00881 14.4207 3.99043 14.3564 4.00421C14.0923 4.6622 13.5996 4.86661 12.9118 4.80689C12.3284 4.75522 11.737 4.80345 11.1503 4.79196C10.9654 4.78852 10.7403 4.81263 10.6611 4.59216C10.5807 4.36708 10.7839 4.25914 10.9206 4.13397C11.0435 4.00881 11.2065 3.90316 11.1388 3.68613C10.6553 3.85608 10.2029 4.07311 9.87676 4.48881V4.48766Z" fill="#FE8C44"/>
<path id="Vector_51" d="M14.3529 4.02833C14.3908 4.02833 14.4299 4.02833 14.4678 4.02833C14.7434 3.85263 14.6836 3.54603 14.7571 3.28995C14.7422 2.63885 14.3874 2.35292 13.788 2.53091C13.2861 2.68019 12.7545 2.73416 12.2882 2.99483C11.8519 3.13378 11.5166 3.44268 11.1411 3.68268C11.0641 3.79751 10.9883 3.91235 10.9114 4.02718C11.1089 4.17416 11.3053 4.05244 11.5028 4.02833C11.9036 3.89742 12.2102 3.58507 12.6109 3.45072C12.7545 3.40249 12.8877 3.3267 13.0381 3.2934C13.6903 3.14986 13.8741 3.25895 14.0567 3.89857C14.1302 4.00306 14.2151 4.07885 14.3552 4.02718L14.3529 4.02833Z" fill="#FC8C49"/>
<path id="Vector_52" d="M12.2871 2.99598C12.7786 2.88115 13.2666 2.74794 13.7627 2.65493C14.3851 2.5378 14.5826 2.69512 14.6963 3.34048C14.7342 3.39445 14.7732 3.39445 14.8111 3.34048C15.081 2.5378 14.8467 2.13704 14.1026 2.34144C13.494 2.50909 12.7832 2.48957 12.2871 2.99598Z" fill="#FB8946"/>
<path id="Vector_53" d="M14.8111 3.34048C14.7732 3.34048 14.7342 3.34048 14.6963 3.34048C14.6193 3.57015 14.5436 3.79981 14.4666 4.02833V4.60249C14.5436 4.5646 14.6193 4.52555 14.6963 4.48766C14.8329 4.27522 14.8134 4.03522 14.8111 3.79981C14.8111 3.64708 14.8111 3.49436 14.8111 3.34048Z" fill="#FC8A44"/>
<path id="Vector_54" d="M7.14374 12.6396C6.46967 12.6201 5.77034 12.7384 5.17206 12.2882C5.17206 12.3261 5.17206 12.3652 5.17206 12.4031C5.0756 12.5053 5.06642 12.6224 5.1112 12.7487C5.46374 13.2241 5.99197 13.2299 6.50871 13.2689C6.8578 13.1977 7.10469 13.0232 7.14374 12.6385V12.6396Z" fill="#FE7733"/>
<path id="Vector_55" d="M5.17206 12.7476C5.17206 12.6327 5.17206 12.5179 5.17206 12.4031C4.88268 12.3204 5.00211 11.9116 4.71273 11.8289C4.56345 11.8323 4.48766 11.9093 4.48306 12.0586C4.46814 12.4456 4.70929 12.7476 4.82756 13.0909C4.99177 13.2092 5.10661 13.1288 5.2111 12.999C5.249 12.9072 5.23292 12.8234 5.17206 12.7464V12.7476Z" fill="#FC742C"/>
<path id="Vector_56" d="M4.82757 9.76536C4.64498 10.2856 4.53245 10.8161 4.5979 11.3719C4.84824 10.8609 4.8356 10.3131 4.82757 9.76536Z" fill="#FB762A"/>
<path id="Vector_57" d="M5.51657 7.58469C5.17552 7.89129 5.02853 8.27598 5.05724 8.73187C5.22375 8.35522 5.50049 8.0222 5.51657 7.58469Z" fill="#FB762A"/>
<path id="Vector_58" d="M5.05724 8.73187C4.89303 9.0155 4.82183 9.32325 4.82757 9.64938C5.05035 9.37952 5.06642 9.05914 5.05724 8.73187Z" fill="#FB762A"/>
<path id="Vector_59" d="M6.43409 7.35617C6.35715 7.70756 6.24232 8.0555 6.21361 8.41034C6.15734 9.10278 6.3606 9.30029 7.05648 9.30488C8.20136 9.31177 9.34624 9.31522 10.49 9.31981C10.6519 9.35771 10.7851 9.28191 10.916 9.20613C11.7543 8.71349 12.5696 8.78469 13.3734 9.29225C13.494 9.36804 13.6088 9.49895 13.7788 9.39675C14.3127 9.20038 14.8651 9.33244 15.4083 9.31177C16.0536 9.28651 16.7001 9.31981 17.3455 9.30144C17.884 9.28651 18.0172 9.06488 17.8197 8.56536C17.7083 8.28402 17.5671 8.01302 17.5637 7.70067C17.303 7.41818 17.2594 6.97263 16.8747 6.78316C16.6886 7.00708 16.8264 7.23215 16.8689 7.45723C16.9562 8.01761 16.9022 8.09455 16.2752 8.09799C14.1761 8.11062 12.077 8.10258 9.97782 8.10258C9.21419 8.10258 8.4517 8.09684 7.68806 8.10488C7.22529 8.10948 6.83945 8.04402 6.82911 7.45608C6.82797 7.35732 6.75447 7.28498 6.66146 7.24134C6.66146 7.20345 6.66146 7.1644 6.66146 7.12651C6.55237 7.17015 6.47543 7.24708 6.43179 7.35617H6.43409Z" fill="#FE8234"/>
<path id="Vector_60" d="M17.6808 7.69952C18.3617 8.80651 19.0668 9.89627 19.8649 10.924C19.9901 11.0859 20.1313 11.2513 20.0911 11.4856C20.2117 11.7382 20.4012 11.8369 20.6756 11.7451C20.9179 11.3478 20.6561 11.0756 20.4459 10.7839C19.9051 10.0329 19.2701 9.35656 18.7143 8.61704C18.3698 8.11981 18.0253 7.62259 17.6819 7.12536C17.6819 7.31713 17.6819 7.50775 17.6819 7.69952H17.6808Z" fill="#FD7E2F"/>
<path id="Vector_61" d="M16.9918 7.35617C16.9539 7.1644 16.9149 6.97378 16.877 6.78201C16.7001 6.6867 16.5554 6.50986 16.3246 6.55349C15.7505 6.66144 15.406 6.42488 15.2705 5.8645C15.1522 5.4557 15.213 5.03885 15.2314 4.6266C15.2394 4.45436 15.2865 4.289 15.1556 4.14316C14.9558 4.41876 15.0683 4.77129 14.926 5.06067C14.8352 5.22948 14.8169 5.41206 14.826 5.59924C14.9328 6.07005 14.9524 6.5845 15.4416 6.87043C15.9686 6.99675 16.4383 7.3068 16.9906 7.35503L16.9918 7.35617Z" fill="#FC8138"/>
<path id="Vector_62" d="M15.1556 4.14316C15.2211 4.71503 15.0178 5.30412 15.2705 5.8645C15.3267 5.44881 15.1499 5.01474 15.3738 4.61397C15.3772 4.46354 15.4002 4.31081 15.3818 4.16268C15.3428 3.84574 15.2326 4.15464 15.1568 4.14431L15.1556 4.14316Z" fill="#FB7F38"/>
<path id="Vector_63" d="M18.7131 8.61704C18.7705 9.06373 19.0898 9.37148 19.3734 9.65053C19.7971 10.0685 20.0188 10.6312 20.4655 11.0251C20.6561 11.1927 20.686 11.458 20.663 11.7141C20.6791 11.7979 20.7273 11.8553 20.8019 11.8932C20.8789 11.9208 20.957 11.9231 21.035 11.8978C21.1074 11.8576 21.166 11.8105 21.1223 11.7141C21.1395 11.4798 21.0798 11.2903 20.9191 11.0963C20.2978 10.3464 19.734 9.54948 19.0565 8.84555C18.9416 8.76861 18.8268 8.69282 18.712 8.61589L18.7131 8.61704Z" fill="#FD7B2D"/>
<path id="Vector_64" d="M4.9424 13.8947C4.9424 13.9326 4.9424 13.9717 4.9424 14.0096C4.8758 14.0796 4.83906 14.1634 4.8115 14.2565C4.60365 14.9363 4.02604 15.1097 3.47255 14.6595C3.31064 14.5286 3.19925 14.3437 3.0247 14.2243C2.6159 13.9717 2.20595 13.8729 1.79025 14.2105C1.61341 14.6526 1.2425 15.0649 1.57092 15.5874C2.69169 15.747 3.81475 15.7022 4.93781 15.6172C5.28001 15.4243 5.42011 15.0982 5.51312 14.7411C5.44078 14.3793 5.36729 14.0188 4.9424 13.8947Z" fill="#FE6B32"/>
<path id="Vector_65" d="M2.99254 14.3541C3.21761 14.6078 3.40019 14.9076 3.75617 15.0121C4.53589 15.2417 4.9401 14.903 4.94354 14.0096C4.63005 14.0383 4.39464 14.1795 4.26144 14.4723C4.14775 14.8777 3.90546 14.6446 3.74814 14.5447C3.51503 14.3966 3.31866 14.191 3.10737 14.0096C2.94775 14.0842 2.8777 14.1876 2.99254 14.3541Z" fill="#FD692F"/>
<path id="Vector_66" d="M4.9424 13.8947C5.13532 14.1428 5.3202 14.3966 5.40518 14.7066C5.78413 14.632 5.85188 14.3127 5.95178 14.0176C5.84154 13.5594 5.4224 13.3309 5.17207 12.9772C5.05724 13.0151 4.9424 13.0542 4.82757 13.0921C4.79082 13.37 4.87695 13.6318 4.9424 13.8947Z" fill="#FE7032"/>
<path id="Vector_67" d="M14.9259 5.63483C14.9259 5.44306 14.9259 5.25244 14.9259 5.06067C14.888 5.06067 14.849 5.06067 14.8111 5.06067C14.5853 5.90201 14.031 6.32268 13.1483 6.32268C11.7726 6.32268 10.3969 6.32268 9.02124 6.32268C8.10029 6.32268 8.01876 6.18603 8.42297 5.32938C8.44708 5.2777 8.47464 5.22718 8.49991 5.1755C8.16804 5.2444 8.11522 5.64632 7.81091 5.74967C7.29991 6.6867 7.56976 7.17703 8.62392 7.18622C10.3832 7.20115 12.1424 7.19426 13.9016 7.18852C14.911 7.18507 15.0385 7.03809 14.9753 6.02412C14.9673 5.89206 15.0075 5.75656 14.9248 5.63483H14.9259Z" fill="#FE873B"/>
<path id="Vector_68" d="M16.9918 7.35617C16.5485 7.02546 16.026 6.89914 15.5001 6.78201C15.5208 7.37684 15.5058 7.409 14.88 7.41244C12.6316 7.42393 10.3832 7.40785 8.13474 7.42392C7.67655 7.42737 7.38718 7.21378 7.12306 6.89684C6.97034 7.01168 6.81761 7.12651 6.66373 7.24134C6.67522 7.33321 6.70393 7.42622 6.69703 7.51579C6.64536 8.13474 6.7556 8.27139 7.3734 8.27254C9.13034 8.27713 10.8884 8.27369 12.6454 8.27369C13.9062 8.27369 15.1671 8.27598 16.4279 8.27369C17.2387 8.27254 17.35 8.08766 16.9918 7.35617Z" fill="#FE8436"/>
<path id="Vector_69" d="M7.12307 6.89684C7.12307 7.41474 7.41475 7.58928 7.89475 7.58814C10.2787 7.58239 12.6614 7.58584 15.0454 7.58584C15.0649 7.58584 15.0833 7.58584 15.1028 7.58584C15.3749 7.59043 15.7114 7.56861 15.8366 7.36306C15.9893 7.11273 15.5575 7.01857 15.5013 6.78316C15.0695 6.52019 15.1349 6.01034 14.9271 5.63598C14.8773 6.55388 14.3946 7.01282 13.4791 7.01282C11.9196 7.01282 10.3579 6.97378 8.79963 7.02546C7.61226 7.0645 7.55829 6.71196 7.81207 5.75082V5.63598C7.4802 6.00115 7.38948 6.49723 7.12307 6.89799V6.89684Z" fill="#FE8539"/>
<path id="Vector_70" d="M2.99256 14.3541C3.03045 14.2392 3.0695 14.1244 3.10739 14.0096C3.0695 13.9326 3.03045 13.8568 2.99256 13.7799C2.92366 13.7167 2.84213 13.6639 2.78701 13.5904C2.38624 13.0611 2.19447 13.0634 1.81323 13.6065C1.71562 13.7455 1.60538 13.8752 1.50089 14.0096V14.1244C1.57667 14.2817 1.67888 14.3541 1.84538 14.2392C2.24845 14.0716 2.63084 14.1072 2.99256 14.3541Z" fill="#FD6C2E"/>
<path id="Vector_71" d="M0.811869 16.6484C0.888807 16.9539 0.964596 17.2605 1.04153 17.5659C1.12766 17.6394 1.21723 17.6337 1.31024 17.5797C1.56402 17.3225 1.53416 16.9941 1.53876 16.6737C1.49627 16.3395 1.44919 16.0054 1.35617 15.6792C1.32632 15.6218 1.28153 15.5828 1.22067 15.561C1.07369 15.5311 0.994453 15.6218 0.926701 15.7298C0.888807 16.0352 0.849764 16.3418 0.811869 16.6473V16.6484Z" fill="#FD6332"/>
<path id="Vector_72" d="M0.926716 15.7309C1.00365 15.693 1.07944 15.654 1.15638 15.6161C1.35963 15.2107 1.52614 14.8019 1.27121 14.3541C1.15638 14.2392 1.04155 14.1244 0.926716 14.0096C0.625855 14.5826 0.955424 15.1567 0.926716 15.7298V15.7309Z" fill="#FC662C"/>
<path id="Vector_73" d="M22.1558 12.2894C22.1179 12.48 22.0789 12.6718 22.041 12.8624C21.9905 13.2861 21.9491 13.7076 22.2718 14.0589C22.3614 14.0888 22.444 14.0808 22.521 14.0245C22.5669 13.9384 22.5669 13.8568 22.4992 13.7811C22.5084 13.2551 22.4337 12.7487 22.1547 12.2894H22.1558Z" fill="#FC6E2C"/>
<path id="Vector_74" d="M22.5003 13.7799V14.0096C22.5038 14.3575 22.4429 14.7284 22.8448 14.9271C22.9815 14.5826 22.9815 14.2392 22.8448 13.8947C22.73 13.8568 22.6151 13.8178 22.5003 13.7799Z" fill="#FC692C"/>
<path id="Vector_75" d="M1.2712 14.3541C1.23331 14.7744 1.19427 15.1958 1.15637 15.6161C1.19427 15.6161 1.23331 15.6161 1.2712 15.6161C1.33896 15.6827 1.41589 15.685 1.49742 15.6459C1.52613 15.6149 1.53532 15.5828 1.52728 15.5506C1.51924 15.5185 1.51006 15.5024 1.50087 15.5024C1.6157 15.0821 1.73053 14.6607 1.84537 14.2404L1.50087 14.1256C1.42393 14.2025 1.34814 14.2783 1.2712 14.3552V14.3541Z" fill="#FD6930"/>
<path id="Vector_76" d="M23.1881 16.8781C23.0699 16.5726 23.1858 16.266 23.1881 15.9606C23.1215 15.8986 23.1663 15.7803 23.0733 15.7309C22.9964 15.6161 22.9206 15.5012 22.8436 15.3864C22.6542 15.4496 22.5887 15.6034 22.5485 15.7791C22.5577 16.2591 22.3843 16.7254 22.4406 17.21C22.5612 17.4017 22.7104 17.5315 22.9585 17.4523C23.0079 17.2501 23.032 17.0377 23.1881 16.8781Z" fill="#FD6431"/>
<path id="Vector_77" d="M22.614 15.7309C22.6909 15.6161 22.7667 15.5012 22.8437 15.3864C22.8437 15.2337 22.8437 15.081 22.8437 14.9271C22.6668 14.6446 22.7162 14.2771 22.4992 14.0096C22.4222 14.0096 22.3464 14.0096 22.2695 14.0096C22.219 14.0509 22.1834 14.1014 22.1604 14.1623C22.0881 14.5034 22.1007 14.8456 22.1535 15.1866C22.2144 15.3899 22.2661 15.6 22.4463 15.7401C22.5038 15.7723 22.56 15.7688 22.6128 15.7298L22.614 15.7309Z" fill="#FD6A31"/>
<path id="Vector_78" d="M23.0733 15.7309C23.0756 15.8251 23.0951 15.9112 23.1881 15.9606C23.218 15.8457 23.3707 15.7309 23.1881 15.6161C23.1502 15.654 23.1112 15.693 23.0733 15.7309Z" fill="#FB642C"/>
<path id="Vector_79" d="M1.84421 20.2048C2.18871 20.4723 2.53321 20.7399 2.87655 21.0075C3.24287 21.1912 3.62985 21.2417 4.03981 21.2417C9.23713 21.2348 14.4333 21.2371 19.6306 21.2371C20.0302 21.0959 20.454 21.2325 20.8605 21.1234C21.5208 20.9466 22.1122 20.6871 22.4256 20.0234C22.4463 19.8488 22.3613 19.7443 22.2052 19.6846C21.9009 19.6628 21.6781 19.8419 21.4438 19.9935C21.3749 20.0429 21.3072 20.0934 21.2337 20.1359C21.1234 20.191 21.004 20.222 20.8857 20.2565C18.023 20.2932 15.1625 20.2645 12.302 20.2702C9.61263 20.276 6.92325 20.2725 4.23388 20.2702C3.98698 20.2702 3.7378 20.3012 3.49665 20.2243C3.35311 20.1692 3.22105 20.0831 3.07292 20.0371C2.71005 20.0153 2.45167 19.7891 2.17263 19.5927C2.02335 19.4882 1.88899 19.2448 1.65244 19.4653C1.51694 19.7627 1.68689 19.982 1.84306 20.2036L1.84421 20.2048Z" fill="#FD5935"/>
<path id="Vector_80" d="M22.3855 19.9751C21.8136 20.7789 20.9971 21.0856 20.0486 21.1223C19.9005 21.128 19.742 21.0924 19.6318 21.2371C20.2875 21.1797 20.9592 21.3726 21.5954 21.0144C22.1122 20.7227 22.4635 20.2829 22.8448 19.8603C22.8448 19.7834 22.8448 19.7076 22.8448 19.6306C22.5646 19.5755 22.4785 19.7799 22.3855 19.9751Z" fill="#FD5832"/>
<path id="Vector_81" d="M20.5493 21.5816C20.8387 21.5816 21.1384 21.6161 21.3531 21.352C21.0706 21.3749 20.795 21.4266 20.5493 21.5816Z" fill="#FB532F"/>
<path id="Vector_82" d="M22.3855 19.9751C22.5382 19.8603 22.6909 19.7455 22.8448 19.6306C23.0469 19.2746 23.1445 18.8865 23.1893 18.4834C23.0343 18.4088 22.9194 18.294 22.8448 18.139C22.436 18.5971 22.2408 19.1472 22.1558 19.7455C22.2649 19.7891 22.3418 19.866 22.3855 19.9751Z" fill="#FD5B32"/>
<path id="Vector_83" d="M1.84424 20.2048C1.77878 19.9407 1.69381 19.68 1.72941 19.4021C1.77189 19.1162 1.61802 18.9485 1.38491 18.8279C1.19314 18.6752 1.00252 18.5225 0.810745 18.3686C0.742994 18.8061 1.13457 19.1047 1.15524 19.5158C1.37687 19.7523 1.54453 20.044 1.84424 20.2036V20.2048Z" fill="#FD5A31"/>
<path id="Vector_84" d="M0.811868 18.3698C0.822203 18.1734 0.791198 17.9977 0.582203 17.9104C0.571868 18.1068 0.602873 18.2825 0.811868 18.3698Z" fill="#FD5A31"/>
<path id="Vector_85" d="M1.38603 18.8279C1.50086 19.0197 1.6157 19.2103 1.73053 19.4021C2.01187 19.618 2.28632 19.8454 2.57914 20.0429C2.69742 20.1233 2.85703 20.2944 3.00632 20.0589C3.21187 19.4549 3.65627 19.3412 4.24995 19.3435C9.55292 19.3619 14.8559 19.3539 20.1589 19.355C20.4815 19.355 20.81 19.324 21.1097 19.4848C21.3703 19.6031 21.2681 19.9418 21.4771 20.0911C21.7034 19.9751 21.9296 19.8603 22.1558 19.7443C22.4291 19.2276 22.6875 18.7051 22.8448 18.1378C22.8448 18.0609 22.8448 17.9851 22.8448 17.9081C22.7368 17.822 22.6105 17.8392 22.5393 17.9254C22.0467 18.5179 21.3772 18.449 20.7192 18.4341C20.4746 18.4283 20.2323 18.3812 19.9855 18.395C15.0729 18.4387 10.1604 18.4031 5.249 18.4111C4.95732 18.4111 4.67369 18.3824 4.46469 18.1401C4.12364 17.9001 3.72976 17.969 3.35426 17.9759C2.62737 17.9897 1.90508 18.008 1.2712 17.5636H1.04153C1.15637 17.9839 1.2712 18.4054 1.38603 18.8256V18.8279Z" fill="#FE5F36"/>
<path id="Vector_86" d="M20.0946 18.4846C20.9971 18.6063 21.9376 18.9313 22.6427 18C22.6817 17.9483 22.7759 17.9391 22.8437 17.9104C22.9217 17.768 22.9769 17.6188 22.9585 17.4511C22.8058 17.3742 22.653 17.2984 22.4992 17.2214C21.6609 17.35 20.7985 17.1502 19.9694 17.4098C19.7593 17.7967 19.8603 18.1481 20.0946 18.4834V18.4846Z" fill="#FE6136"/>
<path id="Vector_87" d="M21.1223 11.7152C21.0844 11.7531 21.0454 11.7922 21.0075 11.8301C20.8145 12.0678 20.8341 12.3284 20.9213 12.5971C21.0764 12.8509 21.2934 12.983 21.5989 12.9324C21.7952 12.8325 21.7872 12.6856 21.6965 12.5179C21.6965 12.48 21.6965 12.441 21.6965 12.4031C21.6586 12.2503 21.6195 12.0976 21.5816 11.9437C21.4232 11.8794 21.3221 11.698 21.1223 11.7141V11.7152Z" fill="#FD772F"/>
<path id="Vector_88" d="M21.6965 12.5179C21.6919 12.6442 21.7172 12.7797 21.5817 12.8624C21.5415 12.906 21.5162 12.9566 21.507 13.0151C21.5346 13.2988 21.53 13.5881 21.6241 13.8637C21.7436 14.0394 21.9101 14.1439 22.1156 14.1887C22.1753 14.1887 22.227 14.1669 22.2695 14.1244C22.2695 14.0865 22.2695 14.0475 22.2695 14.0096C22.1122 13.6433 22.2373 13.2207 22.0398 12.8624C21.925 12.7476 21.8102 12.6327 21.6953 12.5179H21.6965Z" fill="#FD7130"/>
<path id="Vector_89" d="M20.0945 18.4846L19.9923 17.4522C20.1807 17.0526 19.9349 16.7058 19.8591 16.3384C19.7305 16.0272 19.6536 15.6965 19.5055 15.3933C19.3654 15.1671 19.3056 14.8995 19.1529 14.679C19.0209 14.5229 18.9037 14.3564 18.7923 14.1841C18.6086 13.9108 18.3985 13.6559 18.2078 13.3872C18.0149 13.1816 17.8105 12.9864 17.6153 12.7843C17.3569 12.5696 17.1192 12.3284 16.8218 12.1631C16.49 12.0184 16.2626 11.6544 15.8434 11.6934C13.4343 10.5405 11.0239 10.5256 8.61244 11.6842C8.31043 11.8599 8.00957 12.0356 7.70756 12.2113C7.51923 12.3548 7.33091 12.4984 7.14258 12.6408C6.94507 12.8314 6.74871 13.0232 6.55119 13.2138C6.14124 13.3275 6.01837 13.688 5.86335 14.0188C5.71062 14.2484 5.55789 14.4781 5.40517 14.7078C5.2777 14.9719 5.15024 15.2371 5.02392 15.5012C4.77014 15.6735 4.70928 15.9571 4.60708 16.2167C4.51062 16.4922 4.44402 16.7747 4.36823 17.0572C4.35445 17.4189 4.13282 17.7772 4.35559 18.1412C4.30048 18.6419 4.65761 18.5638 4.95387 18.5638C9.77914 18.5638 14.6055 18.5661 19.4308 18.5604C19.6513 18.5604 19.8878 18.6362 20.0945 18.4857V18.4846Z" fill="#FEFEFE"/>
<path id="Vector_90" d="M13.7799 9.39675C12.488 8.49991 11.7405 8.48268 10.4911 9.31981C10.2764 9.62641 9.9824 9.88823 9.92613 10.343C11.3604 10.0387 12.7843 10.0168 14.2622 10.343C14.1141 9.96517 14.0383 9.63675 13.7788 9.39675H13.7799Z" fill="#FEFDFD"/>
<path id="Vector_91" d="M15.8446 11.6911C16.1535 11.8783 16.4624 12.0666 16.7713 12.2538C17.8886 12.2297 19.0059 12.2434 20.1233 12.217C20.3931 12.2113 20.7123 12.2136 20.7778 11.8289C20.7399 11.791 20.7009 11.752 20.663 11.7141C20.4712 11.6371 20.2806 11.5613 20.0888 11.4844C18.8475 11.4844 17.6061 11.4798 16.3648 11.489C16.1776 11.4901 15.9227 11.3822 15.8446 11.69V11.6911Z" fill="#FE7D32"/>
<path id="Vector_92" d="M14.3529 4.02833C14.276 3.99043 14.2002 3.95139 14.1233 3.91349C13.6754 4.39924 12.286 4.66335 11.7141 4.39349C11.4833 4.2844 11.5579 4.07311 11.4844 3.91349C11.2926 3.95139 11.102 3.99043 10.9103 4.02833C10.5853 4.08804 10.3797 4.28785 10.4222 4.61168C10.467 4.95617 10.769 4.95043 11.0469 4.94928C11.8266 4.94354 12.6063 4.94928 13.386 4.94584C14.0211 4.94239 14.3013 4.67254 14.3518 4.02947L14.3529 4.02833Z" fill="#FE8E47"/>
<path id="Vector_93" d="M11.4833 3.91349C11.1457 4.28211 11.3145 4.53244 11.7187 4.56919C12.3227 4.62431 12.9382 4.62201 13.5422 4.56919C13.866 4.54048 14.1508 4.32919 14.1233 3.91464C14.1198 3.10163 13.6605 2.83636 12.8153 3.20383C12.3549 3.40364 11.9265 3.67579 11.4833 3.91464V3.91349Z" fill="#FE904A"/>
<path id="Vector_94" d="M5.86452 14.0188C6.09419 13.7501 6.32385 13.4825 6.55237 13.2138C6.10567 13.0186 5.57399 13.0783 5.17208 12.7487C5.17208 12.8256 5.17208 12.9014 5.17208 12.9784C5.16978 13.4802 5.71524 13.618 5.86337 14.0188H5.86452Z" fill="#FE7433"/>
<path id="Vector_95" d="M20.779 11.83C20.5849 12.0655 20.3185 12.062 20.0486 12.0609C19.2678 12.0574 18.4857 12.0655 17.7049 12.0574C17.3765 12.054 17.0618 12.0861 16.7736 12.2549C17.0354 12.4628 17.2984 12.6695 17.5602 12.8773C18.5374 12.9738 19.5158 12.9187 20.4942 12.9083C20.702 12.906 20.911 12.8624 21.0098 12.6327C21.0098 12.3652 21.0098 12.0976 21.0098 11.83C20.9328 11.83 20.857 11.83 20.7801 11.83H20.779Z" fill="#FE7932"/>
<path id="Vector_96" d="M4.7311 16.1983C4.82871 15.9663 4.92632 15.7332 5.02393 15.5012C3.84919 15.5012 2.67445 15.5012 1.50086 15.5012C1.50086 15.5391 1.50086 15.5782 1.50086 15.6161C1.3734 16.0387 1.67426 16.1845 1.97282 16.2052C2.89148 16.2683 3.81244 16.3085 4.73225 16.1971L4.7311 16.1983Z" fill="#FE6935"/>
<path id="Vector_97" d="M4.35561 18.1401C4.40958 17.7612 4.46471 17.3811 4.51868 17.0021C4.3671 16.7633 4.11791 16.7277 3.87217 16.7185C3.04423 16.6898 2.21284 16.7254 1.38605 16.6473C1.41361 16.9619 1.36308 17.2662 1.27121 17.5648C1.52959 18.0023 1.91427 18.1642 2.41839 18.1447C3.06375 18.1194 3.71025 18.139 4.35561 18.139V18.1401Z" fill="#FE6435"/>
<path id="Vector_98" d="M1.38604 16.6484C1.61341 16.8402 1.87408 16.8781 2.16805 16.8861C2.95235 16.9079 3.74585 16.7678 4.51867 17.0021C4.58987 16.7334 4.66106 16.4658 4.73111 16.1971C3.90202 15.9376 3.04996 16.1248 2.21054 16.08C1.86489 16.0616 1.56288 16.0387 1.50087 15.6149H1.27121C1.21494 15.9698 1.35963 16.3016 1.38604 16.6473V16.6484Z" fill="#FE6735"/>
<path id="Vector_99" d="M19.7455 16.3039C19.8282 16.6863 19.9108 17.0687 19.9924 17.4522C20.5826 17.4522 21.1728 17.4385 21.7619 17.458C22.0467 17.4672 22.2833 17.3948 22.498 17.2226C22.5623 16.7277 22.8 16.2454 22.6128 15.7309C22.575 15.7309 22.5359 15.7309 22.498 15.7309C21.8607 16.1558 21.1395 15.9801 20.4483 16.0295C20.1945 16.0478 19.8626 15.9204 19.7443 16.3039H19.7455Z" fill="#FE6635"/>
<path id="Vector_100" d="M19.7455 16.3039C20.3862 16.0547 21.0523 16.2465 21.7034 16.1925C22.0467 16.1638 22.405 16.1811 22.4991 15.7309C22.4222 15.5782 22.3464 15.4255 22.2695 15.2716C21.3049 15.2199 20.3357 15.0465 19.3883 15.3899C19.4745 15.7068 19.5744 16.0191 19.7455 16.3039Z" fill="#FE6A35"/>
<path id="Vector_101" d="M19.3895 15.3899C20.129 15.3887 20.8697 15.3864 21.6092 15.3876C21.8377 15.3876 22.0662 15.399 22.2706 15.2716C22.2706 14.8892 22.2706 14.5068 22.2706 14.1244C22.2327 14.1244 22.1937 14.1244 22.1558 14.1244C21.6861 14.4999 21.1395 14.5378 20.5619 14.5424C20.0509 14.547 19.5078 14.3759 19.0289 14.7066C19.2092 14.903 19.1713 15.2142 19.3906 15.3899H19.3895Z" fill="#FE6D34"/>
<path id="Vector_102" d="M21.3887 19.4136C21.213 19.1908 20.9684 19.1885 20.7135 19.1885C15.0465 19.1908 9.37954 19.1885 3.71255 19.192C3.07753 19.192 3.01552 19.2769 3.00403 20.0601C3.07753 20.1428 3.14987 20.2255 3.22336 20.307C3.35657 20.4195 3.51619 20.3736 3.66317 20.3736C9.38528 20.3759 15.1085 20.3759 20.8306 20.3759C20.9259 20.3759 21.0213 20.3759 21.1143 20.3506C21.2038 20.307 21.3325 20.3323 21.3738 20.2036C21.4301 19.9418 21.4105 19.6777 21.3864 19.4136H21.3887Z" fill="#FEFDFD"/>
<path id="Vector_103" d="M21.1166 20.3495C15.4002 20.3449 9.685 20.3403 3.96863 20.3345C3.7206 20.3345 3.47256 20.3162 3.22452 20.3058C3.36232 20.5011 3.57017 20.4322 3.75045 20.4322C9.37495 20.4356 14.9983 20.4356 20.6228 20.4322C20.7893 20.4322 20.9696 20.4781 21.1154 20.3472L21.1166 20.3495Z" fill="#FE5F3C"/>
<path id="Vector_104" d="M21.3887 19.4136C21.3841 19.6766 21.3795 19.9395 21.3761 20.2036C21.4094 20.1669 21.4427 20.1301 21.4771 20.0934C21.4335 19.8683 21.5414 19.6249 21.3899 19.4147L21.3887 19.4136Z" fill="#FE5F3C"/>
<path id="Vector_105" d="M21.0075 12.6327C20.1359 12.8819 19.2436 12.6775 18.3652 12.751C18.0942 12.774 17.7956 12.6362 17.5579 12.8762C17.7428 13.0668 17.9288 13.2574 18.1137 13.448C19.0392 13.5468 19.9682 13.4894 20.8949 13.4733C21.2245 13.4676 21.4748 13.3114 21.5816 12.9772C21.5816 12.9393 21.5816 12.9003 21.5816 12.8624C21.3899 12.7855 21.1992 12.7097 21.0075 12.6327Z" fill="#FE7633"/>
<path id="Vector_106" d="M21.5816 12.9772C21.2934 13.2597 20.9512 13.324 20.5481 13.3344C19.7363 13.355 18.9129 13.1805 18.1137 13.4492C18.3146 13.7076 18.5156 13.9648 18.7177 14.2232C19.4595 14.1589 20.2025 14.1956 20.9455 14.1772C21.2222 14.1703 21.5334 14.2197 21.6976 13.8959C21.6804 13.587 21.7596 13.2666 21.5828 12.9784L21.5816 12.9772Z" fill="#FE7333"/>
<path id="Vector_107" d="M21.6965 13.8947C20.9007 14.1439 20.0842 13.9418 19.2804 14.0142C19.0806 14.0325 18.8027 13.8821 18.7177 14.222C18.8211 14.3839 18.9244 14.5447 19.0278 14.7066C19.7627 14.7032 20.4976 14.6882 21.2325 14.702C21.6804 14.71 22.0008 14.5608 22.1558 14.1244C21.9973 14.0601 21.8963 13.8787 21.6965 13.8947Z" fill="#FE7034"/>
</g>
</g>
</g>
</svg>
