<svg width="24" height="24" viewBox="0 0 24 24" fill="none" xmlns="http://www.w3.org/2000/svg">
<g id="icon-08_b334d328e22b4a65805bb434f3a1b148 1">
<path id="Vector" d="M20.0888 18.8188C19.1012 20.9696 17.4867 22.4578 15.2945 23.3156C14.6147 23.582 13.9039 23.7692 13.208 23.992H12.6339C12.3916 23.8702 12.1309 23.9656 11.8806 23.9265C11.7175 23.6762 11.9552 23.5981 12.085 23.5131C12.4846 23.2501 12.8452 22.9412 13.2126 22.6392C13.564 22.4417 13.7523 22.08 14.0337 21.8124C14.4654 21.3336 14.8398 20.8191 15.0166 20.1864C15.0316 20.106 15.0522 20.0268 15.0775 19.9499C15.1567 19.7374 15.213 19.5169 15.3083 19.3091C15.3715 19.1954 15.4587 19.107 15.577 19.0496C16.7035 18.7602 17.8668 18.72 19.0105 18.5489C19.254 18.5122 19.4997 18.4559 19.7466 18.4743C19.9407 18.4892 20.1967 18.4834 20.0899 18.8176L20.0888 18.8188Z" fill="#FE4527"/>
<path id="Vector_2" d="M13.3217 22.7299C12.8245 23.1123 12.3261 23.4947 11.8289 23.876C11.8243 23.9472 11.7485 23.9495 11.7152 23.992H11.0274C10.2867 23.6796 9.46565 23.652 8.72498 23.3294C8.29665 23.1422 7.85799 22.9826 7.48019 22.7012C7.56517 22.4096 7.80173 22.4899 7.9935 22.5095C8.23694 22.5347 8.48153 22.5657 8.72039 22.6266C10.0789 23.0676 11.4304 23.1927 12.7613 22.5244C12.983 22.4991 13.239 22.3797 13.3229 22.7288L13.3217 22.7299Z" fill="#FE361C"/>
<path id="Vector_3" d="M14.5849 0.00805664C15.2302 0.352554 14.9948 0.970353 15.0477 1.49858C14.7009 1.71906 14.3288 1.77992 13.9303 1.67428C13.7087 1.06222 14.036 0.599444 14.3541 0.135521C14.392 0.0930327 14.431 0.0505447 14.4689 0.00805664C14.5068 0.00805664 14.5458 0.00805664 14.5837 0.00805664H14.5849Z" fill="#FED505"/>
<path id="Vector_4" d="M11.7164 23.9931C11.7543 23.9541 11.7922 23.9162 11.8301 23.8771C12.0965 23.9253 12.3927 23.7715 12.635 23.9931H11.7175H11.7164Z" fill="#FE4F31"/>
<path id="Vector_5" d="M14.3552 0.135498C14.2025 0.62813 14.0498 1.12191 13.897 1.61454C14.0084 1.86488 13.8316 2.07732 13.8075 2.31043C13.7788 2.43789 13.7374 2.56306 13.6972 2.68708C13.6479 2.83636 13.5893 2.98105 13.5204 3.12344C13.4733 3.22105 13.4228 3.31751 13.3608 3.40823C13.1587 3.66086 12.929 3.87789 12.6075 3.97205C11.7198 4.15234 11.2881 3.84574 11.3684 3.09358C12.1895 1.93033 13.0806 0.839422 14.3564 0.136646L14.3552 0.135498Z" fill="#FEE703"/>
<path id="Vector_6" d="M3.2176 13.0714C3.20267 13.0369 3.20727 13.0059 3.22909 12.9761C3.58277 12.8877 3.79751 13.1862 4.08574 13.2815C4.5554 13.5893 5.08363 13.525 5.5866 13.4676C5.94717 13.4262 6.3066 13.3768 6.66602 13.3906C7.96363 13.44 9.25205 13.2367 10.5474 13.2677C10.8057 13.2735 11.0917 13.2149 11.2777 13.4813C11.1893 13.8603 10.8758 13.9177 10.5726 13.9223C9.92842 13.9326 9.28076 14.0004 8.64114 13.8603C8.50909 13.8316 8.3598 13.7983 8.24727 13.8534C7.61454 14.1646 6.94162 14.0394 6.28478 14.0417C5.74277 14.044 5.20535 13.8832 4.66219 14.1198C4.41416 14.2277 4.13052 14.0957 3.92267 13.9154C3.68153 13.7041 3.41282 13.5204 3.2176 13.2586C3.17282 13.1966 3.17282 13.1345 3.21645 13.0714H3.2176Z" fill="#FE8515"/>
<path id="Vector_7" d="M7.107 10.2212C7.19197 10.374 7.2781 10.5256 7.36307 10.6783C7.11848 10.9045 7.23102 11.3684 6.82336 11.4867C6.2113 11.5958 5.6314 11.8496 4.96881 11.6624C4.40269 11.5028 4.00422 11.2318 3.80441 10.6806C3.86872 10.4211 3.9491 10.1696 4.13169 9.96402C4.30049 10.072 4.35791 10.266 4.48192 10.4096C5.09972 11.1273 5.88977 11.1548 6.5535 10.4762C6.70393 10.3234 6.81417 10.0731 7.10585 10.2212H7.107Z" fill="#FE9D11"/>
<path id="Vector_8" d="M3.47253 11.4844C3.51043 11.3707 3.54947 11.2582 3.58737 11.1445C3.74698 11.1204 3.84115 11.2295 3.9066 11.3386C4.2821 11.9747 4.88268 12.1102 5.53148 11.9966C6.0689 11.9024 6.63732 12.0115 7.14603 11.7531C7.47675 11.6842 7.35387 11.2134 7.68459 11.1445C7.70067 11.1732 7.70871 11.2042 7.70756 11.2364C7.87292 11.6532 8.08651 12.0712 7.6777 12.4743C6.64306 12.8199 5.57741 12.6591 4.52325 12.6626C3.89856 12.5156 3.77684 11.9196 3.47368 11.4844H3.47253Z" fill="#FE9313"/>
<path id="Vector_9" d="M7.70066 12.4019C7.85339 12.0138 7.63291 11.6245 7.70755 11.2352C7.99233 11.5372 8.38851 11.6509 8.73645 11.8461C8.92018 11.9288 9.00745 11.8633 9.02123 11.6693C9.03157 11.5269 8.98793 11.3787 9.06946 11.2455V11.2513C9.12114 11.2099 9.17626 11.2042 9.23597 11.2318C9.3152 11.28 9.36918 11.3489 9.40477 11.4339C9.4863 11.9345 9.80898 12.1217 10.2855 12.1378C10.5221 12.1458 10.7885 12.0838 10.9619 12.3307C10.9814 12.4364 10.9608 12.5259 10.8643 12.5879C10.1041 12.79 9.33128 12.6442 8.56535 12.6821C8.25645 12.6522 7.91654 12.7188 7.70066 12.4019Z" fill="#FE9012"/>
<path id="Vector_10" d="M9.20957 8.5022C9.24747 8.27368 9.28651 8.04402 9.3244 7.8155C9.52306 7.79713 9.57818 7.95789 9.6379 8.08765C10.0857 9.06143 11.272 9.18316 12.1068 8.41263C12.1895 8.33569 12.2595 8.24268 12.3881 8.24612C12.4662 8.29894 12.4972 8.37703 12.5122 8.4643C12.5213 8.55387 12.511 8.64115 12.4846 8.72727C12.4467 8.8421 12.3916 8.94775 12.3215 9.04536C11.3179 10.1099 9.93991 9.86871 9.20728 8.50105L9.20957 8.5022Z" fill="#FEB10E"/>
<path id="Vector_11" d="M12.3996 8.2691C11.7095 9.34968 10.2144 9.23714 9.70795 8.49418C9.56211 8.28059 9.45073 8.04174 9.32441 7.81552C9.30604 7.7225 9.28766 7.62949 9.38872 7.56633C9.60575 7.4825 9.7091 7.64901 9.79408 7.78107C10.3568 8.65265 11.2892 8.49073 12.0218 8.04863C12.1344 7.98087 12.232 7.88671 12.3767 7.89705C12.4306 7.9269 12.4639 7.97054 12.48 8.03025C12.4926 8.12327 12.4731 8.2048 12.4008 8.2691H12.3996Z" fill="#FEB60D"/>
<path id="Vector_12" d="M10.1845 5.15367C10.2373 4.95042 10.3028 4.75405 10.4544 4.59903C10.6255 4.62889 10.7013 4.7575 10.7759 4.8953C11.1629 5.60381 11.8645 5.6819 12.4295 5.08362C12.5822 4.92171 12.6752 4.68401 12.952 4.68515C13.0014 4.71846 13.0312 4.76439 13.045 4.8218C13.0565 5.00324 13.0002 5.1663 12.9141 5.32247C12.6844 5.54755 12.4743 5.79329 12.2239 5.99769C11.4167 6.65453 10.5933 6.41453 10.2569 5.42927C10.2258 5.3397 10.2144 5.24439 10.1845 5.15367Z" fill="#FED508"/>
<path id="Vector_13" d="M6.66028 9.07522C6.71196 9.22451 6.76248 9.37379 6.81416 9.52307C6.50985 9.96632 6.19636 10.4004 5.62449 10.529C5.02277 10.4371 4.53932 10.196 4.37741 9.54604C4.43598 9.41743 4.44861 9.25896 4.60019 9.18891C4.70813 9.0913 4.80229 9.14298 4.89875 9.21073C5.52918 9.65513 5.6555 9.65168 6.30889 9.19006C6.41339 9.11656 6.511 9.01551 6.65913 9.07522H6.66028Z" fill="#FEA70E"/>
<path id="Vector_14" d="M6.6603 9.07522C6.33762 9.2222 6.18948 9.57359 5.78298 9.67235C5.21455 9.81015 4.96766 9.40823 4.60135 9.18776C4.75867 8.96728 4.91944 8.75139 5.15369 8.60326C5.57168 8.72268 5.98278 8.81799 6.34565 8.45512C6.39503 8.40575 6.49149 8.44019 6.55121 8.49991C6.66144 8.6779 6.68211 8.87197 6.6603 9.07522Z" fill="#FEAB0D"/>
<path id="Vector_15" d="M9.20957 8.5022C9.30947 8.58832 9.41626 8.66756 9.50928 8.76172C10.4647 9.7378 11.2398 9.79406 12.2894 8.95808C12.4237 9.08555 12.418 9.23827 12.3721 9.40019C11.7967 10.1546 10.5577 10.3349 9.82162 9.77224C9.68497 9.66775 9.55981 9.54947 9.4289 9.43923C9.31292 9.34162 9.24631 9.21186 9.19119 9.07406C9.19808 8.88344 9.20382 8.69282 9.21071 8.50335L9.20957 8.5022Z" fill="#FEAC0F"/>
<path id="Vector_16" d="M9.55865 6.88881C9.63674 6.56728 9.67808 6.23312 9.86985 5.94833C10.0134 6.0425 10.018 6.20556 10.0674 6.3468C10.3694 7.21494 11.141 7.47905 11.9242 6.97838C12.1091 6.8601 12.2526 6.63848 12.5236 6.75216C12.5856 6.82451 12.5983 6.90833 12.581 7.0002C11.7669 8.30699 10.5141 8.30699 9.68612 7.00135C9.65626 6.95427 9.60574 6.92211 9.55865 6.88996V6.88881Z" fill="#FEC40B"/>
<path id="Vector_17" d="M7.10698 10.2212C6.89109 10.235 6.78315 10.3878 6.6752 10.5462C6.30889 11.0882 5.69453 11.1778 5.17894 11.0836C4.66449 10.9883 4.22009 10.5818 4.13281 9.96402C4.13741 9.87675 4.13741 9.78833 4.24305 9.75388C4.50142 9.6999 4.54736 9.94679 4.65875 10.072C5.14678 10.6209 5.4109 10.6875 6.10564 10.3809C6.40994 10.2281 6.57415 9.89397 6.89683 9.76421C6.96688 9.91694 7.03693 10.0697 7.10698 10.2212Z" fill="#FEA210"/>
<path id="Vector_18" d="M12.6339 3.79521C12.9611 3.78832 13.0599 3.44037 13.3217 3.33588C13.3918 3.39674 13.4124 3.47712 13.4136 3.56554C13.4009 3.71253 13.3527 3.84918 13.2941 3.98238C13.2666 4.0375 13.231 4.08458 13.1862 4.12707C12.96 4.30047 12.7475 4.49109 12.5236 4.66679C12.1424 4.96535 11.7497 5.08478 11.319 4.80803C10.978 4.5887 10.8792 4.10985 11.0342 3.58162C11.0664 3.53569 11.0997 3.48975 11.1319 3.44382C11.3466 3.37492 11.3753 3.57014 11.4499 3.68152C11.853 4.28325 12.1022 4.30966 12.6339 3.79406V3.79521Z" fill="#FEE105"/>
<path id="Vector_19" d="M9.55865 6.88879C9.67234 6.84631 9.77224 6.73492 9.87444 6.93817C10.436 8.0463 11.4867 8.14506 12.2974 7.17932C12.356 7.10927 12.4432 7.06449 12.5179 7.00707C12.5914 7.06678 12.6224 7.14831 12.6362 7.23903C12.6476 7.3619 12.6304 7.47788 12.5707 7.58812C12.5374 7.63865 12.4961 7.68114 12.4478 7.71903C12.1688 7.90965 11.9012 8.10028 11.5671 8.21281C10.3946 8.60784 9.87904 8.12898 9.49664 7.10697C9.51731 7.03463 9.53798 6.96229 9.55865 6.88994V6.88879Z" fill="#FEBF0C"/>
<path id="Vector_20" d="M7.24134 11.8277C6.30546 12.1412 5.36039 12.3296 4.38546 12.0057C3.96287 11.8656 3.85838 11.4258 3.58737 11.1433C3.62641 11.0664 3.66546 10.9906 3.7045 10.9137C3.75962 10.901 3.83426 10.8827 3.86641 10.924C4.63924 11.9311 5.70718 11.7175 6.74641 11.6222C6.93474 11.6337 7.11503 11.6681 7.24134 11.8277Z" fill="#FE9712"/>
<path id="Vector_21" d="M12.5225 6.77973C12.132 6.83255 11.9541 7.23446 11.5602 7.32289C10.5485 7.54911 9.96516 7.09781 9.86985 5.94949C9.86525 5.91504 9.87559 5.88403 9.89741 5.85762C9.96286 5.7336 10.049 5.68537 10.1581 5.8048C10.2499 5.90585 10.2626 6.0471 10.3165 6.16767C10.6565 6.9382 11.3604 7.09896 12.0172 6.5581C12.2021 6.40537 12.3342 6.16537 12.6235 6.17801C12.6982 6.23198 12.7315 6.31006 12.7476 6.39848C12.759 6.48691 12.7521 6.57418 12.7234 6.65915C12.6821 6.74183 12.6304 6.80614 12.5236 6.77973H12.5225Z" fill="#FEC80A"/>
<path id="Vector_22" d="M10.1845 5.15368C10.459 5.28688 10.3889 5.63368 10.5853 5.81167C11.2306 6.39616 11.5728 6.42946 12.3457 5.69913C12.5099 5.54411 12.6546 5.38104 12.8613 5.28573C12.9072 5.32822 12.9359 5.38104 12.9462 5.44305C12.9589 5.60956 12.8785 5.73932 12.7774 5.86104C12.3962 6.1309 12.178 6.61779 11.6475 6.68899C10.6255 6.82793 10.2523 6.51559 10.0984 5.37645C10.1271 5.30181 10.1558 5.22717 10.1845 5.15253V5.15368Z" fill="#FED008"/>
<path id="Vector_23" d="M12.9784 4.71274C12.5742 4.9068 12.5099 5.458 11.9598 5.55216C11.0825 5.70259 10.986 5.70259 10.6415 4.88384C10.5979 4.78164 10.5187 4.69436 10.4555 4.6002C10.4762 4.41647 10.5749 4.27293 10.6967 4.14202C10.9826 4.11446 10.9619 4.33264 11.0044 4.51293C11.1514 5.12843 11.5005 5.27312 12.0425 4.96307C12.3698 4.77589 12.6362 4.49915 12.9761 4.33149C13.0323 4.32805 13.0829 4.34527 13.1254 4.38202C13.1851 4.54049 13.1334 4.64958 12.9784 4.71274Z" fill="#FED907"/>
<path id="Vector_24" d="M10.0984 5.37761C10.1455 5.50048 10.1925 5.6245 10.2396 5.74737C10.6105 6.72001 11.5257 6.90259 12.2825 6.15733C12.4295 6.01264 12.5925 5.88288 12.7487 5.74508C12.7843 5.77493 12.8073 5.81283 12.8176 5.85876C12.8199 5.90469 12.8142 5.94948 12.8004 5.99312C12.7636 6.07694 12.72 6.15618 12.6362 6.20326C12.2653 6.39273 12.0896 6.82221 11.6429 6.94163C10.8563 7.15178 10.4165 6.92785 10.1294 6.09646C10.0903 5.98393 10.1857 5.73474 9.89972 5.85646C9.9158 5.67503 9.97781 5.51312 10.1007 5.37646L10.0984 5.37761Z" fill="#FECC0A"/>
<path id="Vector_25" d="M9.49664 7.10583C9.54143 7.14028 9.5954 7.16784 9.62755 7.21148C10.5899 8.47808 11.125 8.54928 12.4076 7.58354C12.4926 7.69952 12.5041 7.8132 12.4019 7.92574C11.9518 8.47808 11.2938 8.5332 10.6702 8.57684C10.2855 8.6044 10.0191 8.24727 9.76191 7.97397C9.63559 7.83962 9.5954 7.62717 9.3887 7.56746C9.45416 7.42048 9.35885 7.23674 9.49664 7.10698V7.10583Z" fill="#FEBB0C"/>
<path id="Vector_26" d="M13.0898 4.36939C12.7568 4.60709 12.4042 4.82297 12.0965 5.09053C11.845 5.30986 11.5694 5.36384 11.311 5.22833C11.0469 5.09168 10.7931 4.86317 10.8574 4.51063C10.8919 4.32116 10.8494 4.22125 10.6967 4.14087C10.7667 3.92958 10.8758 3.7401 11.0343 3.58163C10.9964 3.85149 11.0607 4.10642 11.1548 4.35331C11.3397 4.83561 11.8151 4.9734 12.2503 4.69436C12.5788 4.48422 12.8073 4.13398 13.2023 4.02144C13.2368 4.05589 13.2505 4.09838 13.2471 4.14661C13.2218 4.23962 13.1782 4.32001 13.0898 4.36709V4.36939Z" fill="#FEDD07"/>
<path id="Vector_27" d="M8.73303 22.73C8.31274 22.8494 7.90279 22.4681 7.4802 22.7012C7.00824 22.4762 6.59255 22.1696 6.20212 21.8251C6.3204 21.4323 6.57418 21.623 6.7981 21.685C7.22757 21.9192 7.66738 22.1041 8.16805 22.1489C8.47695 22.1765 8.79848 22.2603 8.9914 22.56C8.96499 22.707 8.88116 22.7678 8.73303 22.73Z" fill="#FE3B1C"/>
<path id="Vector_28" d="M6.782 21.8124C6.58679 21.7309 6.39042 21.5897 6.2021 21.8251C5.98392 21.6609 5.77837 21.4852 5.63023 21.2498C5.49703 20.9156 5.74966 20.9604 5.92191 20.9753C6.19865 20.9983 6.46966 21.0764 6.74411 21.1246C7.0243 21.2153 7.33894 21.1786 7.59617 21.3566C7.75923 21.5805 8.12669 21.6034 8.17722 21.9399C8.10143 22.041 7.99923 22.0949 7.87751 22.1156C7.51234 22.0157 7.14717 21.9135 6.782 21.8101V21.8124Z" fill="#FE411D"/>
<path id="Vector_29" d="M4.81377 20.2392C4.4842 19.951 4.28784 19.5789 4.13626 19.177C4.15808 19.1598 4.17875 19.1414 4.19942 19.1242C4.79655 19.1713 5.2421 19.5698 5.76114 19.8006C5.9265 20.0142 6.14353 20.1887 6.25033 20.4471C6.25033 20.5033 6.22966 20.5516 6.18717 20.5895C5.67961 20.6687 5.27884 20.3265 4.81377 20.2392Z" fill="#FE4C1B"/>
<path id="Vector_30" d="M4.13627 19.1782C3.93761 18.8647 3.71483 18.5615 3.6666 18.1768C3.60115 18.0023 3.72287 17.9793 3.84574 17.9552C4.11101 17.9908 4.3223 18.1389 4.53589 18.2825C4.74373 18.5638 5.23062 18.4972 5.32938 18.9152C5.26507 19.1047 5.1066 19.208 4.95847 19.3194C4.67024 19.3872 4.46354 19.0415 4.16383 19.1632L4.13627 19.177V19.1782Z" fill="#FE561A"/>
<path id="Vector_31" d="M6.782 11.7129C5.99769 12.0161 5.21568 11.7474 4.44516 11.6532C4.10755 11.6119 4.04554 11.0756 3.70334 10.9137C3.73664 10.8356 3.76994 10.7587 3.80324 10.6806C4.19827 11.0756 4.54621 11.5257 5.18812 11.5544C5.5464 11.5705 5.89205 11.6716 6.22621 11.4373C6.42257 11.3007 6.67061 11.3845 6.89568 11.3684C7.01855 11.5372 6.92439 11.6337 6.78085 11.7129H6.782Z" fill="#FE9912"/>
<path id="Vector_32" d="M6.5512 8.4999C6.47885 8.52057 6.3755 8.51943 6.33876 8.56766C5.95407 9.07177 5.56134 9.01435 5.15369 8.6044C5.27311 8.4023 5.46029 8.27024 5.65321 8.15541C6.08153 7.89933 6.33876 8.00383 6.5512 8.50105V8.4999Z" fill="#FEAF0C"/>
<path id="Vector_33" d="M9.19004 9.07405C9.30028 9.11654 9.37722 9.19348 9.42085 9.30372C9.67004 9.79291 10.2557 9.97549 10.4876 10.4796C10.3418 10.7828 10.1076 10.6427 9.90774 10.5772C9.63674 10.4888 9.43004 10.2867 9.20612 10.1179C9.16937 10.0754 9.13262 10.0329 9.09588 9.99157C9.09473 9.68152 8.98908 9.36228 9.19004 9.07291V9.07405Z" fill="#FEA40E"/>
<path id="Vector_34" d="M6.78201 11.7129C6.81991 11.5981 6.85895 11.4833 6.89685 11.3684C7.07254 11.2042 7.0312 10.9619 7.11043 10.7621C7.17704 10.5933 7.26316 10.6542 7.36307 10.6794C7.5112 10.8058 7.63981 10.9458 7.6846 11.1434C7.4779 11.3328 7.72594 11.8174 7.24134 11.8278C7.07484 11.8461 6.92555 11.791 6.78201 11.7129Z" fill="#FE9811"/>
<path id="Vector_35" d="M3.91464 18.0253C3.8044 18.0299 3.71253 18.0655 3.66775 18.1769C3.49895 17.8392 3.34737 17.4959 3.34277 17.1078C3.72746 16.8701 3.9066 17.2421 4.16383 17.3822C4.32804 17.613 4.68287 17.6532 4.75636 17.9748C4.73914 18.0379 4.70239 18.0827 4.64268 18.1103C4.3866 18.1952 4.1489 18.1206 3.91349 18.0264L3.91464 18.0253Z" fill="#FE5D18"/>
<path id="Vector_36" d="M4.14315 17.4511C3.82621 17.4534 3.69645 17.0193 3.34277 17.1066C3.27157 16.8391 3.20038 16.5715 3.12918 16.3039C3.55751 16.1317 3.74468 16.5428 4.0444 16.6806C4.15578 16.7633 4.25224 16.8609 4.33377 16.9734C4.40267 17.1411 4.61626 17.2766 4.45665 17.4982C4.34181 17.5545 4.23732 17.5384 4.14315 17.4511Z" fill="#FE6318"/>
<path id="Vector_37" d="M12.6339 3.79521C12.6017 4.19253 12.2779 4.28095 11.9885 4.32115C11.6911 4.36249 11.5234 4.12593 11.404 3.86871C11.334 3.71598 11.2869 3.54373 11.1307 3.44497C11.1663 3.29799 11.2398 3.17741 11.3661 3.09244C11.6302 3.91234 11.8771 4.04899 12.6339 3.79521Z" fill="#FEE505"/>
<path id="Vector_38" d="M6.20899 10.4509C5.54182 10.8827 5.00096 10.7816 4.56115 10.1512C4.46469 10.0123 4.34871 9.88594 4.24191 9.75389C4.28785 9.68384 4.33263 9.61494 4.37856 9.54489C4.6978 9.9847 5.08134 10.3361 5.63483 10.4509C5.8266 10.3797 6.01722 10.3258 6.20899 10.4509Z" fill="#FEA40F"/>
<path id="Vector_39" d="M3.12575 15.8469L3.10393 15.4025C3.00862 15.2004 3.07292 14.9856 3.05685 14.7778C3.08211 14.6572 3.1579 14.6595 3.24862 14.6986C3.51273 14.9179 3.63331 15.2302 3.78259 15.5254C3.82967 15.6264 3.87331 15.7298 3.88938 15.8411C3.89398 15.8986 3.88709 15.9548 3.87216 16.0111C3.85034 16.0674 3.81244 16.1099 3.76077 16.1397C3.45302 16.25 3.25206 16.1294 3.12575 15.8457V15.8469Z" fill="#FE6E14"/>
<path id="Vector_40" d="M3.9135 13.3194C3.63905 13.2976 3.47829 13.0473 3.2291 12.9761C3.20384 12.6982 3.25436 12.4329 3.35427 12.1745C3.54719 12.1171 3.6379 12.2595 3.7447 12.372C3.8446 12.5236 3.94565 12.6752 4.04786 12.8256C4.13743 12.9898 4.29015 13.1426 4.14891 13.3516C4.06508 13.378 3.9847 13.3849 3.9135 13.3194Z" fill="#FE8812"/>
<path id="Vector_41" d="M6.78202 21.2383C6.49723 21.2773 6.23312 21.1717 5.95981 21.1269C5.83809 21.1074 5.65206 20.9788 5.63024 21.2498C5.48785 21.1258 5.33283 21.0132 5.26967 20.8215C5.25015 20.5057 5.47752 20.5723 5.65321 20.5849C5.85761 20.5987 6.05513 20.6837 6.26527 20.6538C6.43522 20.6308 6.5868 20.6653 6.70852 20.7927C6.79924 20.9294 6.85666 21.0729 6.78087 21.2371L6.78202 21.2383Z" fill="#FE461C"/>
<path id="Vector_42" d="M3.68498 12.4019C3.57474 12.3261 3.4645 12.2503 3.35541 12.1757C3.39445 11.9449 3.43464 11.7152 3.47369 11.4844C3.89971 11.5292 3.79981 12.0218 4.08345 12.2021C4.19369 12.2722 4.2201 12.4605 4.37397 12.5167C4.44172 12.5902 4.44058 12.6695 4.39464 12.7533C4.04325 12.8693 3.86067 12.6431 3.68613 12.4031L3.68498 12.4019Z" fill="#FE8F12"/>
<path id="Vector_43" d="M3.09473 14.4563C3.10736 14.191 3.11999 13.9257 3.13262 13.6605C3.19004 13.5812 3.14066 13.4515 3.25664 13.3998C3.4553 13.4308 3.55406 13.5881 3.66889 13.7259C3.75616 13.8591 3.7975 14.0096 3.82506 14.1646C3.84343 14.2679 3.86525 14.3724 3.82736 14.4769C3.75961 14.5654 3.66659 14.617 3.56439 14.6549C3.39214 14.7055 3.24401 14.6687 3.12573 14.5309C3.1154 14.5056 3.10621 14.4804 3.09587 14.4551L3.09473 14.4563Z" fill="#FE7C12"/>
<path id="Vector_44" d="M6.32383 20.7789C5.97704 20.9076 5.61072 20.5275 5.27082 20.8214C5.09512 20.6457 4.86431 20.5125 4.81378 20.2381C5.08823 19.9579 5.27541 20.3219 5.51196 20.3426C5.74852 20.3632 5.97704 20.4758 6.209 20.5481C6.31005 20.5929 6.38584 20.6515 6.32383 20.7778V20.7789Z" fill="#FE471B"/>
<path id="Vector_45" d="M3.12575 15.8469C3.31982 16.0123 3.53456 16.1179 3.79867 16.0743C4.08346 16.2098 4.37972 16.3349 4.40843 16.7139C4.29934 16.8723 4.16843 16.8586 4.02719 16.7621C3.66891 16.7231 3.50585 16.3028 3.12805 16.3039C3.12805 16.1512 3.12575 15.9996 3.1246 15.8469H3.12575Z" fill="#FE6917"/>
<path id="Vector_46" d="M9.09588 9.99158C9.12803 9.99158 9.16019 9.99158 9.19234 9.99158C9.25205 10.088 9.32669 10.1719 9.40363 10.2545C9.51272 10.5979 9.86067 10.8919 9.62526 11.3076C9.46909 11.3856 9.32784 11.3409 9.19234 11.2547C9.15215 11.2547 9.11081 11.2524 9.07062 11.2513C9.07866 10.8322 9.08784 10.4119 9.09588 9.99272V9.99158Z" fill="#FE980D"/>
<path id="Vector_47" d="M6.20899 10.4509H5.63483C6.13894 10.2833 6.35253 9.7447 6.81416 9.52307C6.84172 9.60345 6.86813 9.68384 6.89569 9.76422C6.73263 10.0593 6.50411 10.289 6.20784 10.4509H6.20899Z" fill="#FEA40F"/>
<path id="Vector_48" d="M3.12919 14.7077C3.12115 14.9386 3.11312 15.1705 3.10393 15.4013C2.9891 15.0867 2.99024 14.772 3.09474 14.4551L3.12575 14.4815C3.17168 14.5562 3.18316 14.6308 3.12919 14.7077Z" fill="#FE7C1F"/>
<path id="Vector_49" d="M9.06946 11.2444C8.95234 11.4408 9.39329 11.9483 8.73645 11.845C9.20267 11.8415 8.86162 11.3903 9.06946 11.2444Z" fill="#FE9B22"/>
<path id="Vector_50" d="M3.23023 13.44C3.19693 13.5135 3.16478 13.587 3.13148 13.6605C3.11885 13.4584 3.09818 13.2551 3.2176 13.0714C3.22449 13.1185 3.23253 13.1644 3.23942 13.2115C3.28535 13.2896 3.29799 13.3665 3.23023 13.44Z" fill="#FE8417"/>
<path id="Vector_51" d="M20.3173 11.1399C20.4919 11.5028 20.6032 11.8829 20.648 12.2836C19.5939 12.201 18.5684 12.441 17.5349 12.5673C16.1569 12.7349 14.7698 12.8452 13.409 13.1357C13.3068 13.1506 13.2184 13.1242 13.1449 13.0507C12.9853 12.8211 12.7361 12.6258 12.8417 12.2882C12.9979 11.9426 13.3217 11.8622 13.6432 11.822C15.7045 11.5636 17.7646 11.2926 19.8293 11.0549C20.0015 11.0354 20.1726 11.0159 20.3196 11.1411L20.3173 11.1399Z" fill="#FE6627"/>
<path id="Vector_52" d="M13.324 13.0817C13.6479 12.7326 14.1106 12.8245 14.5011 12.7659C16.3074 12.4984 18.1229 12.2905 19.9361 12.0666C20.1979 12.0344 20.4724 12.0069 20.6469 12.2825C20.6859 12.4754 20.7238 12.6683 20.7629 12.8601C20.4758 13.0909 20.1198 13.0863 19.7834 13.1265C18.1148 13.3263 16.4509 13.5525 14.7824 13.7477C14.5171 13.7787 14.2542 13.8339 14.0038 13.9292C13.9441 13.9521 13.8821 13.9613 13.8178 13.9625C13.4515 13.7822 13.3263 13.4653 13.3229 13.0806L13.324 13.0817Z" fill="#FE6227"/>
<path id="Vector_53" d="M20.8708 13.5502C20.9535 14.3173 21.0993 15.0833 20.8984 15.8526C20.7881 15.7619 20.7583 15.6356 20.7445 15.5024C20.7307 15.3887 20.7261 15.2739 20.7319 15.1602C20.7502 14.8237 20.6274 14.6676 20.261 14.7169C18.4834 14.9558 16.6943 15.1039 14.9294 15.4312C14.8685 15.4461 14.8065 15.4473 14.7445 15.4358C14.532 15.3336 14.4746 15.1085 14.3506 14.9351C14.2691 14.787 14.2346 14.6343 14.3058 14.4712C14.423 14.2656 14.6251 14.2117 14.8352 14.1818C16.7173 13.9189 18.6017 13.6812 20.4907 13.4767C20.6216 13.463 20.7583 13.4526 20.8697 13.5502H20.8708Z" fill="#FE5B27"/>
<path id="Vector_54" d="M20.3173 11.1399C18.1447 11.4086 15.9721 11.6716 13.8017 11.9518C13.4572 11.9965 13.0748 12.023 12.8819 12.403C12.8314 12.3766 12.7923 12.3387 12.7625 12.2905C12.697 12.163 12.6385 12.0321 12.5822 11.8989C12.5099 11.6796 12.4754 11.4649 12.6626 11.2788C13.3711 10.955 14.1462 10.9906 14.8926 10.8896C16.3613 10.6909 17.8335 10.5175 19.3045 10.3315C19.5732 10.297 19.8362 10.2706 20.0681 10.4532C20.1899 10.6691 20.2886 10.8919 20.3162 11.141L20.3173 11.1399Z" fill="#FE6A27"/>
<path id="Vector_55" d="M20.0681 10.4509C18.9014 10.5807 17.7336 10.7036 16.568 10.8425C15.4966 10.97 14.4287 11.1284 13.3562 11.2444C13.1081 11.2708 12.8704 11.3236 12.6293 11.3707C12.5592 11.4052 12.503 11.3903 12.4582 11.3259C12.3698 11.1698 12.3686 11.0033 12.3996 10.8322C12.5122 10.4578 12.8256 10.3556 13.1529 10.3177C15.1763 10.08 17.1939 9.79293 19.2195 9.57245C19.3929 9.55408 19.5617 9.52996 19.711 9.64939C19.8293 9.91695 19.9476 10.1845 20.067 10.4521L20.0681 10.4509Z" fill="#FE6D27"/>
<path id="Vector_56" d="M20.8708 13.5502C19.7317 13.703 18.5937 13.8591 17.4534 14.0073C16.5187 14.129 15.5828 14.2427 14.6469 14.3598C14.4999 14.3782 14.4092 14.4654 14.3495 14.5941C14.3024 14.6147 14.2553 14.6136 14.2071 14.5941C14.0727 14.5148 14.0061 14.3782 13.9188 14.2576C13.858 14.1474 13.781 14.0383 13.8855 13.9131C14.0922 13.4664 14.5447 13.618 14.8708 13.5698C16.6588 13.3045 18.4559 13.0966 20.2496 12.875C20.4184 12.8543 20.5906 12.8658 20.7617 12.8612C20.7973 13.0909 20.8329 13.3206 20.8685 13.5502H20.8708Z" fill="#FE5F27"/>
<path id="Vector_57" d="M20.8754 15.5012C20.8834 15.6184 20.8903 15.7355 20.8984 15.8515C20.9018 16.1271 20.9374 16.4061 20.7858 16.6599C20.2967 16.4796 19.8121 16.6186 19.3275 16.6829C18.0172 16.8574 16.6932 16.9378 15.4025 17.2467C15.2084 17.0825 15.244 16.8321 15.1659 16.6243C15.1418 16.4876 15.1464 16.3544 15.2004 16.2247C15.3324 15.9686 15.5793 15.933 15.8262 15.8974C17.2547 15.6919 18.6901 15.5414 20.121 15.352C20.3816 15.3175 20.6561 15.2968 20.8766 15.5012H20.8754Z" fill="#FE5227"/>
<path id="Vector_58" d="M15.4082 17.2226C15.5587 16.9481 15.8572 16.9332 16.0984 16.9022C17.5338 16.7185 18.9749 16.5784 20.4103 16.3992C20.663 16.3682 20.7686 16.4187 20.7858 16.661C20.7973 16.8597 20.7835 17.0515 20.6641 17.2214C20.0153 17.5475 19.293 17.4878 18.6052 17.5981C17.8748 17.7141 17.1376 17.7979 16.4015 17.876C16.0479 17.9139 15.7688 18.031 15.778 18.4582C15.7573 18.6499 15.7745 18.8578 15.5598 18.9646C15.4496 18.9393 15.4151 18.8509 15.3853 18.7579C15.3497 18.6098 15.3566 18.457 15.3554 18.3066C15.3531 18.2228 15.3554 18.1378 15.3589 18.054C15.3612 17.9219 15.368 17.7887 15.3531 17.6566C15.3405 17.5797 15.3244 17.5028 15.3164 17.4247C15.3152 17.342 15.3324 17.2685 15.4094 17.2226H15.4082Z" fill="#FE4E27"/>
<path id="Vector_59" d="M15.6207 18.4846C15.5334 18.0035 15.7056 17.7669 16.2212 17.7175C17.2719 17.6176 18.3169 17.4488 19.3676 17.3443C19.7994 17.3018 20.222 17.1514 20.6641 17.2214C20.4907 17.4213 20.6584 17.7256 20.4528 17.9162C19.4365 18.2905 18.356 18.2791 17.303 18.4191C16.7495 18.4926 16.1902 18.7189 15.6207 18.4846Z" fill="#FE4B27"/>
<path id="Vector_60" d="M15.6207 18.4846C17.2295 18.2836 18.8303 18.0092 20.4528 17.9162C20.2611 18.1895 20.3552 18.5765 20.0888 18.8188C20.059 18.5684 19.8718 18.5856 19.703 18.6086C18.3043 18.7935 16.9057 18.9841 15.507 19.1724C15.4703 19.1414 15.4507 19.1024 15.4461 19.0553C15.4519 19.0071 15.476 18.9715 15.5162 18.9439C15.6666 18.8176 15.6023 18.6419 15.6218 18.4846H15.6207Z" fill="#FE4827"/>
<path id="Vector_61" d="M19.7133 9.64823C17.8817 9.8779 16.0501 10.1076 14.2186 10.3361C13.8442 10.3832 13.463 10.3946 13.0978 10.4785C12.8635 10.5324 12.534 10.5347 12.5179 10.9114C12.4559 10.947 12.4019 10.9367 12.3548 10.8827C12.2515 10.7104 12.2538 10.5279 12.2974 10.3407C12.3146 10.2821 12.3445 10.2304 12.3847 10.1834C12.7246 9.89397 13.1541 9.99962 13.5411 9.9468C15.4427 9.68498 17.3489 9.45876 19.2517 9.21302C19.3516 9.20039 19.4389 9.23369 19.5123 9.30373C19.5789 9.41857 19.6467 9.53225 19.7133 9.64708V9.64823Z" fill="#FE7226"/>
<path id="Vector_62" d="M19.5123 9.30488C17.9265 9.54602 16.3326 9.71712 14.7399 9.90889C13.9636 10.0031 13.1793 10.0743 12.4076 10.2212C12.2986 10.0984 12.3043 9.96861 12.387 9.83425C12.7062 9.50928 13.1391 9.60459 13.5215 9.55406C15.306 9.3198 17.0894 9.07177 18.8808 8.89148C19.0346 8.87655 19.1828 8.85473 19.3206 8.94545C19.4274 9.04191 19.502 9.15559 19.5112 9.30373L19.5123 9.30488Z" fill="#FE7624"/>
<path id="Vector_63" d="M12.4019 8.72727C12.4019 8.65148 12.4042 8.57569 12.4054 8.4999C12.573 8.32421 12.7855 8.25761 13.0197 8.23119C14.5481 8.05894 16.0731 7.86143 17.5981 7.66622C17.8875 7.62947 18.1987 7.52727 18.4892 7.69607C18.5604 7.8155 18.7671 7.84191 18.7258 8.04057C18.2526 8.55272 17.5924 8.34717 17.0205 8.4666C16.2167 8.6354 15.3841 8.63081 14.5791 8.81454C13.9659 8.82488 13.3631 8.91445 12.7625 9.03043C12.6293 9.05684 12.5018 9.06832 12.387 8.97646C12.3445 8.89033 12.3388 8.80536 12.4019 8.72612V8.72727Z" fill="#FE851F"/>
<path id="Vector_64" d="M19.3206 8.9466C18.1585 9.10392 16.9963 9.26124 15.8342 9.41741C14.6905 9.57129 13.5479 9.72401 12.4042 9.87674C12.2974 9.75387 12.302 9.62641 12.3847 9.49435C12.8302 9.10047 13.4032 9.24976 13.9119 9.17511C15.4461 8.94889 16.9906 8.78928 18.5282 8.58028C18.7303 8.55272 18.9416 8.47923 19.1357 8.61703C19.1965 8.72727 19.2586 8.83751 19.3194 8.94775L19.3206 8.9466Z" fill="#FE7A23"/>
<path id="Vector_65" d="M18.4892 7.69609C17.4017 7.84881 16.3143 8.00614 15.2257 8.15082C14.2863 8.27484 13.3458 8.38393 12.4054 8.49992C12.4031 8.42298 12.4019 8.34604 12.3996 8.2691C12.4031 8.19331 12.4065 8.11752 12.41 8.04173C12.4525 8.00269 12.4984 7.97054 12.5478 7.94183C13.6903 7.80518 14.8306 7.64326 15.9755 7.52958C16.7414 7.45379 17.4959 7.2092 18.2791 7.34126C18.3973 7.43197 18.5007 7.52958 18.4892 7.69724V7.69609Z" fill="#FE891E"/>
<path id="Vector_66" d="M12.5225 6.7797C12.5592 6.74066 12.5971 6.70276 12.6339 6.66372C12.7877 6.51099 12.9726 6.42601 13.1874 6.40305C14.3885 6.27558 15.5862 6.1263 16.7816 5.95405C16.9964 5.92305 17.1962 5.95635 17.3799 6.07463C17.4683 6.1952 17.5556 6.31463 17.644 6.4352C17.2743 6.84745 16.7472 6.68898 16.3005 6.76018C15.0993 6.9531 13.8798 7.02544 12.6844 7.26774C12.627 7.27922 12.5707 7.26429 12.519 7.23673C12.519 7.15979 12.5167 7.08401 12.5156 7.00707C12.5167 6.93128 12.5179 6.85549 12.5202 6.77855L12.5225 6.7797Z" fill="#FE9918"/>
<path id="Vector_67" d="M12.5225 7.23674C13.0507 6.86813 13.6857 6.97722 14.268 6.86813C15.0155 6.72689 15.7918 6.73492 16.5359 6.58335C16.908 6.50756 17.2995 6.63846 17.6452 6.43521C17.7256 6.55004 17.8059 6.66488 17.8875 6.77971C17.5016 7.25397 16.924 7.07598 16.444 7.15291C15.2291 7.34813 13.9958 7.43311 12.782 7.64669C12.6844 7.66392 12.5925 7.65358 12.5168 7.58124C12.5191 7.46641 12.5202 7.35157 12.5225 7.23789V7.23674Z" fill="#FE941A"/>
<path id="Vector_68" d="M19.1368 8.61589C18.0873 8.86967 17.0078 8.92479 15.9433 9.07177C14.7652 9.23369 13.5847 9.37952 12.4054 9.5334C12.3181 9.40708 12.3307 9.28077 12.4042 9.15445C13.293 8.85359 14.2404 8.92249 15.1453 8.72268C16.3051 8.5734 17.4764 8.49761 18.6235 8.25302C18.7005 8.23694 18.774 8.24268 18.8486 8.2622C19.0186 8.32077 19.0806 8.46546 19.1368 8.61704V8.61589Z" fill="#FE7E22"/>
<path id="Vector_69" d="M12.5167 7.58125C13.4572 7.3068 14.4367 7.30336 15.3933 7.15408C16.2235 7.02432 17.0733 7.01513 17.8875 6.77972C17.9874 6.87733 18.0942 6.97264 18.1137 7.12307C17.7577 7.45953 17.2823 7.35274 16.8712 7.40671C15.5403 7.58355 14.2071 7.74776 12.8739 7.90508C12.7395 7.92116 12.6075 7.91657 12.5179 8.04058C12.4812 8.04058 12.4456 8.04058 12.4088 8.04058C12.4065 8.00154 12.4042 7.96365 12.4019 7.9246C12.4042 7.81092 12.4054 7.69609 12.4077 7.5824C12.4433 7.5824 12.48 7.58011 12.5156 7.57896L12.5167 7.58125Z" fill="#FE8F1B"/>
<path id="Vector_70" d="M12.519 8.04056C12.5294 7.93147 12.5018 7.74314 12.6258 7.75233C13.2884 7.79941 13.92 7.62716 14.5642 7.53759C15.3921 7.42276 16.2247 7.33549 17.0561 7.23788C17.4086 7.19654 17.7611 7.16094 18.1137 7.12305C18.1688 7.19539 18.2239 7.26888 18.279 7.34123C17.5074 7.45491 16.7357 7.58008 15.9617 7.67998C15.2061 7.77759 14.4402 7.80975 13.6938 7.95214C13.2976 8.02793 12.9049 7.96707 12.5179 8.04171L12.519 8.04056Z" fill="#FE8D1C"/>
<path id="Vector_71" d="M17.3811 6.07464C15.7987 6.271 14.2163 6.46737 12.6339 6.66373C12.635 6.58679 12.6362 6.50985 12.6373 6.43292C12.968 5.88057 13.5594 6.10105 14.0234 6.00804C14.8479 5.84268 15.7034 5.83923 16.5301 5.66009C16.7426 5.61416 16.9447 5.58775 17.1296 5.73703C17.2547 5.81856 17.3305 5.93684 17.3799 6.07464H17.3811Z" fill="#FE9D17"/>
<path id="Vector_72" d="M12.7464 5.97474C12.7487 5.93685 12.751 5.89781 12.7521 5.85991C12.9347 5.5246 13.2402 5.40173 13.6008 5.36498C14.4321 5.28001 15.2612 5.16747 16.0903 5.05723C16.3246 5.02623 16.5462 5.02393 16.7449 5.17321C16.792 5.24556 16.8402 5.3179 16.8873 5.39025C16.7862 5.81053 16.3923 5.68881 16.1477 5.72556C15.1923 5.86565 14.2289 5.95982 13.2723 6.09876C13.0932 6.12518 12.8865 6.16881 12.7475 5.97589L12.7464 5.97474Z" fill="#FEA315"/>
<path id="Vector_73" d="M16.7437 5.17205C15.6344 5.29492 14.524 5.41205 13.4159 5.54755C13.1713 5.57741 12.9485 5.70372 12.7522 5.8599C12.7499 5.822 12.7487 5.78411 12.7476 5.74621C12.7866 5.63138 12.8256 5.51655 12.8647 5.40171C12.968 5.20994 13.1024 5.06411 13.3355 5.0331C14.2932 4.90679 15.2566 4.81951 16.2086 4.64497C16.2844 4.63119 16.3556 4.67023 16.4211 4.71272C16.529 4.86545 16.6358 5.01932 16.7437 5.17205Z" fill="#FEA813"/>
<path id="Vector_74" d="M16.4211 4.71273C15.4863 5.02622 14.5022 5.03655 13.5376 5.15942C13.2815 5.19158 13.0656 5.25359 12.8658 5.40057C12.8647 5.36268 12.8635 5.32363 12.8612 5.28574C12.8486 5.11923 12.8968 4.9688 12.983 4.82756C13.0944 4.71732 13.223 4.63579 13.3814 4.62201C14.2519 4.55081 15.112 4.40153 15.9778 4.30048C16.0559 4.29129 16.1271 4.3177 16.1879 4.36938L16.4222 4.71158L16.4211 4.71273Z" fill="#FEAC12"/>
<path id="Vector_75" d="M12.7464 5.97474C13.1598 6.15848 13.5502 5.90125 13.9533 5.88173C14.9087 5.83695 15.8561 5.61762 16.8069 5.46604C16.8367 5.46144 16.8597 5.41551 16.8861 5.3891C17.0124 5.47408 17.0905 5.59235 17.1307 5.73819C16.5531 5.8335 15.9766 5.99886 15.3979 6.00345C14.9408 6.0069 14.493 6.09762 14.0578 6.15733C13.5916 6.22049 13.0587 6.10106 12.6385 6.43522C12.6373 6.35943 12.6362 6.2825 12.635 6.20671C12.6385 6.11369 12.6534 6.02642 12.7464 5.97589V5.97474Z" fill="#FEA016"/>
<path id="Vector_76" d="M18.8486 8.26106C18.5363 8.59981 18.1056 8.47924 17.7267 8.53321C16.8735 8.65608 16.0157 8.7422 15.159 8.84326C14.9902 8.69512 14.741 8.94431 14.5849 8.72842C14.9546 8.28517 15.4943 8.58488 15.9514 8.44938C16.4566 8.29895 17.0446 8.28173 17.5981 8.22316C17.9816 8.18297 18.3629 8.18641 18.7269 8.03943C18.7682 8.11292 18.8084 8.18641 18.8497 8.26106H18.8486Z" fill="#FE8121"/>
<path id="Vector_77" d="M13.0898 4.36938C13.0966 4.27637 13.115 4.1891 13.2069 4.13857C14.052 3.76881 14.934 3.68269 15.8411 3.79637C15.9123 3.85723 15.972 3.92269 15.9479 4.02718C15.5598 4.47388 13.5801 4.71159 13.0978 4.36824L13.0898 4.37053V4.36938Z" fill="#FEB410"/>
<path id="Vector_78" d="M13.0978 4.36708C14.0739 4.46699 15.0224 4.34986 15.9479 4.02603C16.0031 4.15694 16.1822 4.20287 16.1868 4.36938C15.1361 4.64039 14.0486 4.65646 12.983 4.82756C12.9818 4.78967 12.9795 4.75062 12.9784 4.71273C13.0186 4.5979 13.0576 4.48306 13.0978 4.36708Z" fill="#FEB110"/>
<path id="Vector_79" d="M13.324 3.56441C13.324 3.48748 13.3217 3.41169 13.3217 3.33475C13.3252 3.24173 13.3424 3.15446 13.4354 3.10508C14.044 2.77781 14.7009 2.72384 15.3738 2.76173C15.453 2.9535 15.5334 3.14642 15.6126 3.33819C15.5851 3.35082 15.5587 3.36346 15.5311 3.37724C14.7939 3.41398 14.0727 3.65743 13.324 3.56441Z" fill="#FEBF0C"/>
<path id="Vector_80" d="M15.3738 2.76171C14.7491 2.99482 14.0865 3.01893 13.4354 3.10506C13.4756 2.95233 13.5146 2.7996 13.5548 2.64688C14.0314 2.27367 14.6836 2.47692 15.1751 2.15195C15.2417 2.3552 15.3072 2.55731 15.3738 2.76056V2.76171Z" fill="#FEC40A"/>
<path id="Vector_81" d="M13.6674 2.3024C13.7431 2.07273 13.8201 1.84307 13.8959 1.61455C14.2852 1.62948 14.6526 1.43197 15.0476 1.49857C15.1556 1.63637 15.1453 1.79828 15.1441 1.95905C14.7146 2.34259 14.1749 2.25417 13.6674 2.30354V2.3024Z" fill="#FECD07"/>
<path id="Vector_82" d="M13.6674 2.30238C14.1049 1.95329 14.6733 2.16344 15.1441 1.95789C15.1545 2.02219 15.1648 2.08765 15.1751 2.15195C15.1418 2.40918 14.9489 2.52746 14.7365 2.51482C14.3311 2.49071 13.9533 2.65147 13.5548 2.64688C13.5927 2.53205 13.6295 2.41722 13.6674 2.30238Z" fill="#FEC907"/>
<path id="Vector_83" d="M15.8412 3.79636C14.9627 3.91004 14.0842 4.02488 13.2069 4.13856C13.2057 4.10066 13.2046 4.06162 13.2023 4.02373C13.2057 3.98583 13.208 3.94679 13.2115 3.90889C13.5606 3.61033 14.0038 3.72861 14.4012 3.65397C14.8111 3.57703 15.2383 3.57933 15.6069 3.34277L15.6126 3.33932C15.7275 3.47253 15.8124 3.62066 15.8412 3.79751V3.79636Z" fill="#FEB810"/>
<path id="Vector_84" d="M15.1579 19.9763C15.1556 20.0475 15.1545 20.1198 15.1522 20.191C14.8685 20.5895 14.7169 21.1108 14.1623 21.2589C13.4974 21.399 12.859 21.6276 12.1596 21.6436C11.2743 21.6632 10.4762 21.4335 9.69992 21.058C9.58738 21.0144 9.48633 20.95 9.39102 20.8766C9.23829 20.7433 9.06145 20.6331 8.97188 20.439C8.93858 20.3001 8.84327 20.1543 9.01781 20.0383C9.69188 20.0991 10.2603 20.4804 10.8942 20.6722C12.1413 21.0511 13.2609 20.7686 14.3713 20.245C14.6251 20.1256 14.849 19.9269 15.1591 19.9763H15.1579Z" fill="#FE8A01"/>
<path id="Vector_85" d="M15.1579 19.9763C14.1428 20.601 13.0748 21.0695 11.8519 21.0052C10.9929 20.9604 10.2109 20.6239 9.43463 20.2852C9.27961 20.2174 9.12114 20.1554 8.96497 20.0911C8.78468 20.0566 8.70085 19.9223 8.63195 19.773C8.58487 19.6467 8.53779 19.5192 8.55157 19.3803C8.56535 19.3263 8.59406 19.2827 8.63655 19.2471C8.95004 19.1621 9.1108 19.4274 9.32439 19.5594C9.53339 19.6892 9.74698 19.8052 9.97664 19.8924C10.0524 19.9292 10.1202 19.9786 10.1845 20.0325C10.2511 20.0865 10.3142 20.1428 10.3786 20.2002C11.0078 20.5309 11.6945 20.4758 12.3617 20.4563C13.3826 20.4276 14.3529 20.2059 15.1188 19.448C15.1854 19.3826 15.2865 19.3619 15.3841 19.4033C15.3497 19.6099 15.3072 19.8144 15.159 19.9763H15.1579Z" fill="#FE9501"/>
<path id="Vector_86" d="M15.383 19.4033C14.524 20.3644 13.3585 20.5677 12.1677 20.6481C11.6475 20.6825 11.1169 20.5883 10.5933 20.5321C10.4142 20.5125 10.3051 20.3633 10.2235 20.2059C10.5164 20.0417 10.823 20.2209 11.1204 20.1692C11.241 20.1692 11.3604 20.1864 11.4775 20.2128C11.8415 20.3127 12.2078 20.3162 12.5742 20.2255C13.0082 20.0957 13.4722 20.1439 13.9028 19.9637C14.3265 19.7868 14.7319 19.6031 15.0511 19.2597C15.1625 19.1403 15.2854 19.0002 15.4875 19.0611C15.4932 19.099 15.4989 19.1357 15.5047 19.1736C15.4634 19.2505 15.422 19.3275 15.3807 19.4044L15.383 19.4033Z" fill="#FE9701"/>
<path id="Vector_87" d="M14.2335 21.12C14.6549 20.9236 14.7881 20.4425 15.1533 20.191C14.9891 20.8754 14.5688 21.4071 14.1256 21.9261C13.7719 21.9422 13.4618 22.2787 13.0771 22.0697C13.0197 21.9973 13.0013 21.9158 13.0128 21.8251C13.293 21.3703 13.8419 21.3818 14.2335 21.12Z" fill="#FE3E1B"/>
<path id="Vector_88" d="M13.0932 22.0421C13.4469 22.088 13.7569 21.7447 14.1256 21.9261C13.8178 22.1535 13.6892 22.56 13.3229 22.7299C13.1621 22.5393 12.9428 22.6438 12.7499 22.6151C12.65 22.5221 12.6465 22.4096 12.681 22.2878C12.774 22.1305 12.8704 21.9789 13.0944 22.0409L13.0932 22.0421Z" fill="#FE3A1B"/>
<path id="Vector_89" d="M12.7487 22.2718C12.7487 22.3866 12.7487 22.5014 12.7487 22.6163C12.3697 23.1192 11.7519 23.0802 11.249 23.1525C10.63 23.2421 9.97204 23.0974 9.33587 23.017C9.12228 22.9906 8.88228 22.9332 8.733 22.7311C8.80994 22.6932 8.88573 22.6542 8.96267 22.6163C9.08783 22.4842 9.25434 22.4704 9.42085 22.4555C10.5428 22.6243 11.644 22.4119 12.7487 22.2718Z" fill="#FE391E"/>
<path id="Vector_90" d="M13.2069 2.63083C13.2138 3.04537 12.7361 3.476 12.2986 3.44729C12.1229 3.4358 11.9495 3.38987 11.8668 3.22451C11.7795 3.04997 11.8657 2.89494 11.9977 2.76978C12.1883 2.58834 12.3514 2.37934 12.5994 2.26107C13.0059 2.067 13.1977 2.17839 13.2058 2.63198L13.2069 2.63083Z" fill="#FEEB02"/>
<path id="Vector_91" d="M3.9135 13.3194C3.99044 13.3194 4.06623 13.3194 4.14317 13.3194C4.29475 13.1782 4.48422 13.1564 4.67599 13.1621C5.98853 13.2011 7.29417 12.9841 8.60556 13.0381C9.40594 13.0714 10.1937 12.867 10.9941 12.929C11.2364 12.9485 11.4993 12.9049 11.6635 13.1529C11.7083 13.2517 11.7175 13.355 11.6946 13.4607C11.6521 13.5996 11.5602 13.6857 11.4178 13.7156C11.3145 13.7076 11.2364 13.6754 11.2559 13.5479C10.5336 13.2988 9.78374 13.4147 9.05915 13.4653C8.54814 13.5009 8.03599 13.5583 7.52499 13.5411C6.64652 13.5112 5.77723 13.6145 4.90451 13.6639C4.52326 13.6857 4.1914 13.5847 3.91235 13.3183L3.9135 13.3194Z" fill="#FE8715"/>
<path id="Vector_92" d="M11.257 13.5491C11.2972 13.5881 11.3374 13.6272 11.3788 13.6651C11.4431 13.7742 11.435 13.8706 11.334 13.9533C10.8057 14.1267 10.2408 14.1451 9.70794 14.1416C8.09225 14.129 6.48689 14.315 4.87234 14.2932C4.351 14.2863 3.89856 14.2197 3.57129 13.7776C3.4576 13.6639 3.34507 13.5514 3.23138 13.4377C3.23483 13.3619 3.23713 13.2861 3.24057 13.2092C3.37148 13.2861 3.53225 13.3367 3.62756 13.4446C4.06162 13.9384 4.4865 14.0877 5.18124 13.8373C5.73588 13.6375 6.4065 13.951 7.03464 13.8947C7.40669 13.8614 7.78449 13.9487 8.13473 13.7064C8.30009 13.5927 8.5378 13.7007 8.74449 13.7133C9.58737 13.7661 10.4452 13.9579 11.2582 13.548L11.257 13.5491Z" fill="#FE8216"/>
<path id="Vector_93" d="M4.37282 12.7464V12.5167C5.48325 12.5087 6.59598 12.5696 7.70067 12.4019C7.96478 12.4674 8.22545 12.5523 8.50335 12.5167C8.19675 12.9818 7.70297 12.8463 7.28612 12.8417C6.90603 12.8371 6.55349 12.8452 6.17225 12.9313C5.57397 13.0668 4.93091 13.1908 4.37167 12.7453L4.37282 12.7464Z" fill="#FE9013"/>
<path id="Vector_94" d="M4.37283 12.7464C5.09742 12.8613 5.7956 12.9451 6.53283 12.6649C7.01972 12.48 7.60077 12.8153 8.14393 12.6373C8.26336 12.5983 8.41149 12.6442 8.50336 12.5168C9.30604 12.5168 10.1099 12.5168 10.9125 12.5168C11.3466 12.1504 11.9047 12.2033 12.1631 12.6362C12.1401 12.8693 12.0402 13.0243 11.7807 13.0197C10.6622 12.89 9.54604 13.0278 8.42871 13.0611C7.19541 13.0967 5.96096 13.1242 4.72996 13.2092C4.38546 13.2333 4.16383 13.0278 3.9135 12.8624C3.84919 12.7039 3.66776 12.6029 3.68383 12.4031C3.9135 12.5179 4.14316 12.6327 4.37168 12.7476L4.37283 12.7464Z" fill="#FE8D14"/>
<path id="Vector_95" d="M12.4054 10.9068C12.4433 10.9079 12.48 10.9102 12.5179 10.9125C12.5179 11.0641 12.5191 11.2157 12.5202 11.3673C12.5317 11.7462 12.2676 11.8702 11.969 11.9621C11.3776 11.9988 10.7851 11.9862 10.1937 11.9954C9.73666 12.0023 9.41742 11.8381 9.30718 11.3684C9.26929 11.3305 9.23025 11.2915 9.19235 11.2536C9.34508 11.2536 9.49781 11.2536 9.65168 11.2536C9.69762 11.218 9.75159 11.1766 9.80556 11.1927C10.7139 11.4683 11.5751 11.3248 12.4065 10.9056L12.4054 10.9068Z" fill="#FE9712"/>
<path id="Vector_96" d="M9.30603 11.3696C9.5334 11.7508 9.86526 11.8645 10.3039 11.8369C10.8873 11.8013 11.4741 11.8277 12.0597 11.8277C12.0436 12.1378 11.7945 12.1493 11.5809 12.1883C11.3592 12.2285 11.133 12.2366 10.9125 12.2871C10.6852 12.2871 10.4589 12.2905 10.2316 12.2871C9.57244 12.2767 9.3267 12.0322 9.30603 11.3696Z" fill="#FE9413"/>
<path id="Vector_97" d="M10.9125 12.2871C11.0193 12.0448 11.2329 12.0505 11.4454 12.0574C11.6819 12.0655 11.8989 12.0218 12.0597 11.8278C12.2561 11.7175 12.4088 11.5636 12.519 11.3673C12.5558 11.3684 12.5925 11.3696 12.6293 11.3696C12.6167 11.574 12.6511 11.7692 12.7407 11.9529C12.6936 12.0643 12.6568 12.1803 12.5879 12.2825C12.4467 12.4513 12.3479 12.6833 12.0632 12.6373C11.7141 12.271 11.3133 12.3904 10.9125 12.5156V12.2859V12.2871Z" fill="#FE9112"/>
<path id="Vector_98" d="M12.4053 9.18891C12.4053 9.30374 12.4053 9.41858 12.4053 9.53341C12.4053 9.64824 12.4053 9.76307 12.4053 9.87791C12.4053 9.99274 12.4065 10.1076 12.4076 10.2224C12.4053 10.2614 12.4031 10.2993 12.4008 10.3372C12.3387 10.3728 12.2848 10.3636 12.2388 10.3097C12.186 10.2293 12.1596 10.1397 12.1493 10.0456C12.1252 9.82049 12.1608 9.6092 12.2882 9.41743C12.2882 9.2647 12.2882 9.11082 12.2882 8.9581C12.2917 8.86393 12.3112 8.77781 12.4019 8.72614C12.4031 8.80307 12.4042 8.88116 12.4053 8.9581C12.4719 9.03504 12.4719 9.11082 12.4053 9.18776V9.18891Z" fill="#FE9316"/>
<path id="Vector_99" d="M12.2882 9.41741C12.2882 9.64708 12.2882 9.8756 12.2882 10.1053C11.7267 10.4888 11.1514 10.792 10.4532 10.4498C10.0375 10.1317 9.55178 9.87674 9.42087 9.30258C9.48747 9.33818 9.55981 9.36574 9.61953 9.41052C10.5508 10.1133 11.3811 10.1167 12.2882 9.41741Z" fill="#FEA70F"/>
<path id="Vector_100" d="M15.6057 3.34163C15.6379 3.58967 15.5219 3.66546 15.2808 3.68613C14.5895 3.74469 13.9005 3.83311 13.2103 3.9089C13.2482 3.79407 13.2861 3.67924 13.3229 3.56555C14.0762 3.41282 14.8203 3.16938 15.6046 3.34278L15.6057 3.34163Z" fill="#FEBA0C"/>
<path id="Vector_101" d="M9.42086 22.6151C9.26814 22.6151 9.11541 22.6151 8.96153 22.6151C8.4379 22.1879 7.72479 22.3521 7.16211 22.0409C7.03235 21.9686 6.87503 21.9445 6.78201 21.8113C7.19197 21.7481 7.56632 21.8664 7.92919 22.0409C8.56996 21.9009 9.21531 22.1489 9.42086 22.6151Z" fill="#FE3D1D"/>
<path id="Vector_102" d="M9.42087 22.6151C8.99255 22.2442 8.47465 22.1076 7.9292 22.041C7.97858 21.9491 8.0647 21.9284 8.15886 21.9261C8.3426 21.7665 8.55504 21.8411 8.75944 21.8526C9.48173 21.8928 10.204 21.9181 10.9068 21.6884C11.6303 21.8251 12.3698 21.6448 13.0921 21.8067C13.0921 21.8848 13.0921 21.9629 13.0921 22.0398C12.9772 22.1167 12.8624 22.1925 12.7476 22.2695C11.9449 22.5347 11.1537 22.8413 10.2729 22.6323C10.0019 22.568 9.70451 22.6163 9.41973 22.6128L9.42087 22.6151Z" fill="#FE3E1F"/>
<path id="Vector_103" d="M10.9137 21.8113C10.0111 22.2132 9.0844 22.0478 8.15885 21.9261C7.97856 21.7596 7.6754 21.7458 7.58469 21.4668C7.76497 21.2808 8.00383 21.298 8.2289 21.3003C8.78239 21.3049 9.33473 21.2831 9.88593 21.2256C10.2729 21.3428 10.7058 21.3772 10.9125 21.8113H10.9137Z" fill="#FE4120"/>
<path id="Vector_104" d="M9.99962 21.3508C9.20268 21.5437 8.39081 21.4438 7.58469 21.468C7.35387 21.2635 7.00593 21.4668 6.78201 21.2383C6.74411 21.1235 6.70507 21.0086 6.66718 20.8938C6.72574 20.8433 6.79464 20.7927 6.86928 20.8019C7.59158 20.8938 8.30698 20.7858 9.02354 20.7238C9.1556 20.7124 9.2888 20.7353 9.41512 20.7824C9.48976 20.8214 9.5644 20.8616 9.63904 20.9007C9.79177 21.0247 10.0318 21.0787 9.99962 21.3508Z" fill="#FE451F"/>
<path id="Vector_105" d="M8.61128 19.4021C8.65033 19.5169 8.69052 19.6318 8.72956 19.7466C8.04056 20.2174 6.32726 20.284 5.74966 19.8614C5.16401 19.7581 4.72305 19.3252 4.16382 19.1644C4.46698 18.9405 4.68746 19.2379 4.94698 19.2884C5.88057 19.3045 6.81186 19.223 7.74545 19.2333C8.04286 19.2367 8.35635 19.1805 8.61128 19.4032V19.4021Z" fill="#FE501C"/>
<path id="Vector_106" d="M5.74966 19.8614C6.7556 20.1474 7.73971 19.8637 8.72957 19.7466C8.80765 19.8614 8.88574 19.9751 8.96383 20.09C9.00057 20.2048 9.03847 20.3196 9.07521 20.4345C8.93512 20.5929 8.74105 20.5998 8.55502 20.601C8.06469 20.6044 7.57895 20.6366 7.09206 20.6986C6.77053 20.7399 6.45014 20.6986 6.20899 20.4345C5.99541 20.2921 5.77837 20.152 5.74966 19.8603V19.8614Z" fill="#FE4C1E"/>
<path id="Vector_107" d="M6.20898 20.4345C6.88075 20.7284 7.55138 20.3656 8.2243 20.4299C8.50564 20.4574 8.79272 20.4345 9.07635 20.4345C9.16477 20.5746 9.37262 20.5987 9.41626 20.7824C8.50678 20.9845 7.59501 21.1154 6.66831 20.8938C6.58564 20.7594 6.45013 20.7835 6.32382 20.779C6.28592 20.702 6.24688 20.6262 6.20898 20.5493V20.4345Z" fill="#FE481E"/>
<path id="Vector_108" d="M5.29035 18.9428C5.13188 18.5983 4.62777 18.7384 4.48767 18.3686C4.65877 18.1952 4.87006 18.2274 5.08021 18.248C5.66126 18.3422 6.24116 18.3284 6.82336 18.2492C7.32633 18.1803 7.83389 18.1378 8.33571 18.2802C8.47466 18.3514 8.54356 18.4731 8.57571 18.6201C8.5849 18.7349 8.56078 18.8371 8.46317 18.9118C7.40901 19.2276 6.3514 19.2322 5.29035 18.9416V18.9428Z" fill="#FE591C"/>
<path id="Vector_109" d="M5.29033 18.9428C6.35597 18.8992 7.42966 19.0484 8.48841 18.8291C8.64459 18.9485 8.69511 19.1001 8.62162 19.2873C8.61818 19.3263 8.61473 19.3642 8.61129 19.4033C7.75923 19.4435 6.90487 19.3252 6.05282 19.5043C5.67961 19.5824 5.31789 19.3539 4.94583 19.2884C4.94928 19.0634 5.14334 19.0278 5.29033 18.9439V18.9428Z" fill="#FE541D"/>
<path id="Vector_110" d="M5.06182 18.3698C4.87005 18.3698 4.67943 18.3698 4.48766 18.3698C4.29703 18.2538 4.06392 18.2101 3.91464 18.0253C4.1822 18.0253 4.44976 18.0253 4.71732 18.0253C4.92632 18.0459 5.09857 18.1022 5.06182 18.3698Z" fill="#FE5B1A"/>
<path id="Vector_111" d="M10.4544 10.4509C11.1089 10.5623 11.6785 10.227 12.2894 10.1064C12.2894 10.1834 12.2894 10.2591 12.2905 10.3361C12.3445 10.7805 11.9908 10.916 11.6968 10.9769C10.5083 11.2203 10.0513 11.4224 9.30718 10.2224C9.21532 10.173 9.19465 10.0869 9.19235 9.99274C9.42661 10.142 9.64709 10.3235 9.89972 10.4291C10.0605 10.4957 10.2637 10.6886 10.4544 10.4521V10.4509Z" fill="#FEA110"/>
<path id="Vector_112" d="M4.14315 17.4511C4.25798 17.4511 4.37281 17.4511 4.48764 17.4511C5.79099 17.3604 7.09319 17.0836 8.40114 17.4178C8.5263 17.5878 8.52745 17.76 8.41262 17.9345C8.28975 18.0379 8.13932 18.0758 7.98774 18.0723C7.18851 18.0574 6.39616 18.1573 5.59922 18.1952C5.27769 18.2101 4.94697 18.1987 4.71616 17.9093C4.52095 17.7612 4.19252 17.7795 4.142 17.45L4.14315 17.4511Z" fill="#FE601B"/>
<path id="Vector_113" d="M4.71734 17.9104C5.1514 18.1263 5.63025 18.0769 6.05973 18.0023C6.83714 17.8679 7.60997 17.9449 8.38394 17.9104C8.52289 18.0608 8.52174 18.2136 8.39198 18.3686C7.45609 18.2848 6.53284 18.5271 5.5981 18.4823C5.41437 18.4731 5.21111 18.5443 5.06068 18.3686C4.94585 18.2538 4.83102 18.1389 4.71619 18.0241C4.71619 17.9862 4.71619 17.9472 4.71619 17.9093L4.71734 17.9104Z" fill="#FE5C1B"/>
<path id="Vector_114" d="M8.39656 17.4534C7.44919 17.4867 6.49952 17.3696 5.55445 17.5556C5.20306 17.6245 4.83445 17.5763 4.48766 17.4511C4.42335 17.2926 4.24192 17.1916 4.25799 16.9918C5.64287 16.9711 7.02201 16.6966 8.41148 16.8907C8.55388 16.9539 8.60555 17.0733 8.61244 17.2191C8.61015 17.2857 8.59407 17.3489 8.56306 17.4086C8.52058 17.4706 8.46546 17.4855 8.39656 17.4534Z" fill="#FE641A"/>
<path id="Vector_115" d="M8.50105 16.9918C7.30449 16.908 6.11712 17.1284 4.92172 17.1078C4.6932 17.1043 4.46354 17.1192 4.25799 16.9918C4.14889 16.9481 4.07196 16.8712 4.02832 16.7621C4.15464 16.7587 4.29014 16.7828 4.37282 16.6473C5.60842 16.4831 6.84976 16.4325 8.09339 16.49C8.29894 16.4991 8.51942 16.5279 8.57224 16.7954C8.57224 16.8701 8.54813 16.9355 8.4999 16.9918H8.50105Z" fill="#FE671A"/>
<path id="Vector_116" d="M3.12918 14.7078C3.12918 14.632 3.12688 14.5573 3.12573 14.4815C3.27387 14.5148 3.422 14.5481 3.57013 14.5814C4.17186 14.7778 4.76669 15.0568 5.40516 14.7009C6.04707 14.7457 6.68899 14.7686 7.3332 14.7594C7.6375 14.7548 7.93377 14.7491 8.222 14.6228C8.66985 14.4264 9.11655 14.6745 9.56784 14.6469C9.90659 14.6262 10.2511 14.6228 10.5898 14.6561C10.8 14.6768 11.0756 14.6503 11.0584 14.9994C10.7437 15.3072 10.3188 15.2107 9.94449 15.2946C9.70908 15.3474 9.45875 15.3359 9.23253 15.4415C9.13951 15.4737 9.0442 15.4794 8.94774 15.4634C8.49071 15.2739 8.00956 15.2968 7.54219 15.3646C6.42487 15.5265 5.30296 15.3543 4.18564 15.4473C3.69415 15.4886 3.56439 14.9925 3.22449 14.8111C3.19234 14.7767 3.16018 14.7422 3.12803 14.7078H3.12918Z" fill="#FE7817"/>
<path id="Vector_117" d="M3.22565 14.8123C3.92383 15.4748 4.79311 15.2394 5.61416 15.2739C6.45933 15.3095 7.29761 15.2394 8.13589 15.1636C8.4356 15.1361 8.75024 15.1131 8.96842 15.3991C9.08325 15.6012 9.03617 15.739 8.80766 15.8056C7.51464 15.7057 6.23081 15.9537 4.93895 15.9055C4.49569 15.8882 4.06392 15.8802 3.68383 15.6161C3.5311 15.3485 3.37837 15.081 3.22565 14.8134V14.8123Z" fill="#FE7318"/>
<path id="Vector_118" d="M8.50681 16.885C8.45743 16.5715 8.20824 16.645 8.01762 16.6519C7.13571 16.6863 6.25035 16.568 5.36844 16.7472C5.05035 16.8115 4.68978 16.8333 4.37284 16.6484C4.18451 16.4543 3.9181 16.3384 3.79868 16.0742C3.79868 16.0363 3.79868 15.9973 3.79868 15.9594C5.16403 16.3774 6.54432 15.902 7.91427 16.0283C8.15887 16.0513 8.4092 15.995 8.64691 16.0915C8.74451 16.1363 8.79619 16.2155 8.80882 16.32C8.80423 16.5095 8.76748 16.6909 8.66758 16.8551C8.62164 16.9068 8.56767 16.916 8.50566 16.8838L8.50681 16.885Z" fill="#FE6C19"/>
<path id="Vector_119" d="M3.68497 15.6149C5.1709 15.8768 6.65568 15.6609 8.14162 15.6149C8.38736 15.6069 8.6354 15.5966 8.85817 15.7309C8.95693 15.8515 8.94774 15.9721 8.85817 16.0926C8.79272 16.1179 8.72956 16.1156 8.66755 16.0835C7.51119 16.0616 6.35368 16.0226 5.2019 16.1615C4.6909 16.2236 4.21434 16.1857 3.80095 15.8435C3.76305 15.7665 3.72401 15.6907 3.68612 15.6138L3.68497 15.6149Z" fill="#FE7018"/>
<path id="Vector_120" d="M3.7998 15.8446C4.33378 16.0903 4.86775 16.0605 5.44765 15.9824C6.43521 15.8515 7.44689 16.0651 8.44134 15.8641C8.58947 15.8343 8.67789 15.9571 8.73875 16.0834C8.76287 16.1087 8.76976 16.1328 8.75942 16.1558C8.74909 16.1776 8.73875 16.1879 8.72957 16.1879C7.47674 16.1925 6.22277 16.1569 4.97339 16.3005C4.54047 16.3499 4.14775 16.2224 3.80095 15.9583C3.80095 15.9204 3.80095 15.8813 3.80095 15.8434L3.7998 15.8446Z" fill="#FE6F18"/>
<path id="Vector_121" d="M3.91348 12.8612C4.54047 13.2115 5.19731 12.9944 5.85071 12.9876C7.7443 12.968 9.63559 12.8716 11.5269 12.7866C11.6934 12.7786 11.7692 12.8578 11.8335 12.983C11.9012 13.0461 11.9058 13.1231 11.8794 13.2057C11.8163 13.3056 11.737 13.3711 11.6096 13.3378C11.574 13.0656 11.3661 13.0794 11.1778 13.0944C9.61377 13.2207 8.04171 13.1529 6.47769 13.3011C5.70602 13.3734 4.92171 13.3183 4.14315 13.3217C4.16037 13.1219 3.97779 13.022 3.91348 12.8624V12.8612Z" fill="#FE8B14"/>
<path id="Vector_122" d="M3.57014 13.7787C4.64382 14.4184 5.81282 14.0543 6.94047 14.0739C7.17243 14.0785 7.42507 13.9981 7.66966 14.0107C8.90296 14.075 10.1294 13.9108 11.3592 13.8936C11.4385 13.9774 11.4362 14.0658 11.3742 14.1577C11.3225 14.199 11.2651 14.2289 11.2019 14.2473C10.7897 14.3254 10.3602 14.214 9.95368 14.3598C9.61952 14.4149 9.28306 14.3897 8.9466 14.3988C8.26679 14.4276 7.58353 14.3265 6.90717 14.4689C6.63387 14.5252 6.35712 14.5056 6.08038 14.5137C5.53263 14.5091 4.98373 14.5171 4.43597 14.5091C4.1466 14.524 3.91119 14.3931 3.68267 14.2381C3.6999 14.0716 3.64593 13.9223 3.56784 13.7787H3.57014Z" fill="#FE8016"/>
<path id="Vector_123" d="M3.68499 14.2381C3.91465 14.276 4.14432 14.315 4.37283 14.3529C4.947 14.4494 5.52001 14.4494 6.09417 14.3529H6.89685C7.37915 14.2323 7.86948 14.3311 8.35408 14.2955C8.55733 14.2806 8.76862 14.3529 8.96154 14.2381H9.99389C10.3602 14.1232 10.7334 14.2002 11.1032 14.1956C11.1663 14.2369 11.1973 14.2943 11.1985 14.3701C11.1893 14.4448 11.1525 14.5022 11.0894 14.5424C10.6289 14.7215 10.1432 14.6653 9.67924 14.6251C8.93398 14.5596 8.21054 14.6802 7.47905 14.7514C6.59599 14.8375 5.70489 14.5918 4.82068 14.8375C4.51867 14.9213 4.227 14.756 3.95484 14.6124C3.89054 14.578 3.83886 14.5298 3.79867 14.4689C3.76078 14.392 3.72173 14.3162 3.68384 14.2392L3.68499 14.2381Z" fill="#FE7E16"/>
<path id="Vector_124" d="M3.79867 14.4677C3.83656 14.4677 3.8756 14.4677 3.9135 14.4677C4.30393 14.8559 4.81493 14.7629 5.29034 14.8122C4.72307 15.1809 4.16843 15.1074 3.569 14.5826C3.61838 14.4896 3.7045 14.47 3.79867 14.4677Z" fill="#FE7A16"/>
<path id="Vector_125" d="M9.30718 10.2213C9.47598 10.3705 9.64823 10.5164 9.81244 10.6714C10.4383 11.2582 11.8013 11.0756 12.2894 10.3361C12.3261 10.3361 12.364 10.3361 12.4008 10.3372C12.4019 10.5267 12.4042 10.7173 12.4054 10.9068C12.1309 11.3719 11.6417 11.4224 11.1916 11.4695C10.6714 11.5235 10.1317 11.5522 9.65053 11.2536C9.5357 10.9091 9.42086 10.5646 9.30603 10.2213H9.30718Z" fill="#FE9C11"/>
<path id="Vector_126" d="M11.822 13.1885C11.8254 13.1196 11.8289 13.0507 11.8323 12.9818C11.9747 12.9118 12.054 12.7992 12.0631 12.6385C12.2561 12.5225 12.3996 12.356 12.5282 12.1734C12.6901 12.0482 12.774 12.1527 12.8475 12.2836C12.8589 12.3227 12.8704 12.3617 12.8819 12.4019C12.9014 12.6408 13.192 12.7292 13.1977 12.9761C13.1322 13.0519 13.0461 13.0875 12.9497 13.1012C12.6453 13.1437 12.3858 13.2471 12.3629 13.6054C12.3445 13.9062 12.4364 14.1818 12.7039 14.3426C13.014 14.5298 13.2425 14.3288 13.4515 14.1233C13.5479 14.0291 13.6444 13.9418 13.7776 13.9051C13.8143 13.9028 13.8511 13.9051 13.8878 13.9131C13.9303 14.0199 13.9717 14.1267 14.0142 14.2323C13.9579 14.8708 13.6995 15.1315 13.0082 15.2452C12.4972 15.329 12.0758 15.0993 11.8909 14.5768C11.7313 14.1278 11.6578 13.6593 11.8231 13.1874L11.822 13.1885Z" fill="#FEE303"/>
<path id="Vector_127" d="M13.7776 13.9051C13.7581 13.9372 13.742 13.9728 13.719 14.0027C13.4607 14.3322 13.2115 14.7032 12.7051 14.5412C12.3962 14.4425 12.0804 13.7569 12.2032 13.4274C12.3755 12.9646 12.782 12.9416 13.1977 12.9761C13.2402 13.0117 13.2827 13.0461 13.3252 13.0817C13.4767 13.3562 13.6272 13.6306 13.7776 13.9051Z" fill="#FEE803"/>
<path id="Vector_128" d="M20.8754 15.5012C19.6099 15.5012 18.3732 15.7814 17.1192 15.8997C16.6714 15.9422 16.2258 16.0272 15.778 16.0674C15.5621 16.0869 15.3577 16.0869 15.2612 16.3257C15.2153 16.3464 15.1694 16.343 15.1269 16.3165C15.0568 16.2488 15.004 16.1661 14.9454 16.0892C14.8984 16.0295 14.8582 15.9652 14.8283 15.8951C14.7824 15.724 14.663 15.5552 14.8157 15.3795C15.1361 15.0063 15.6092 15.1372 15.9985 15.0752C17.512 14.8341 19.0392 14.6767 20.5619 14.485C20.7755 14.4586 20.8949 14.5309 20.8915 14.7571C20.888 15.0052 20.8811 15.2532 20.8754 15.5012Z" fill="#FE5627"/>
<path id="Vector_129" d="M11.1445 14.4678C11.1514 14.4322 11.1571 14.3966 11.1606 14.361C11.4718 14.4253 11.4052 14.7112 11.458 14.9064C11.7336 15.9227 11.9506 16.1087 12.9807 16.1558C13.0186 16.1569 13.0564 16.1581 13.0943 16.1604C14.0658 16.2304 14.1313 16.1811 14.3299 15.2211C14.3529 15.1085 14.3736 14.996 14.4723 14.9202C14.6101 15.035 14.679 15.1866 14.7123 15.3577C14.8432 15.6758 14.7858 15.9985 14.702 16.3097C14.6009 16.684 14.3701 16.97 13.9636 17.0124C13.4136 17.0699 12.8589 17.071 12.3089 17.0033C11.9897 16.9631 11.7497 16.7966 11.582 16.5083C11.3799 16.1615 11.2306 15.7906 11.0607 15.4289C11.0159 15.2968 11.0193 15.1648 11.0675 15.0339C11.1204 14.849 10.9642 14.6354 11.1456 14.4678H11.1445Z" fill="#FECC02"/>
<path id="Vector_130" d="M14.4723 14.919C14.4712 15.1085 14.485 15.3003 14.4643 15.4886C14.3908 16.1478 13.9786 16.4394 13.3148 16.3223C13.2034 16.3028 13.0886 16.3062 12.9749 16.3039C11.884 16.2821 11.6245 16.0605 11.3328 15.004C11.2743 14.7904 11.3374 14.5401 11.1606 14.3598C11.1571 14.3196 11.1537 14.2794 11.1502 14.2392C11.1502 14.1646 11.2295 14.1669 11.2616 14.1244C11.2961 14.1198 11.3317 14.1152 11.3661 14.1106C11.6578 14.3724 11.6233 14.7732 11.7818 15.0959C11.9793 15.4967 12.2331 15.747 12.7074 15.6976C12.8199 15.6861 12.9359 15.6976 13.0496 15.7011C13.7983 15.7298 13.943 15.6184 14.0957 14.8984C14.1152 14.8042 14.1324 14.7112 14.1841 14.6285C14.2059 14.6101 14.2277 14.5918 14.2496 14.5734C14.284 14.578 14.3173 14.5849 14.3518 14.5929C14.392 14.7009 14.4333 14.81 14.4735 14.9179L14.4723 14.919Z" fill="#FED202"/>
<path id="Vector_131" d="M11.1433 15.3841C11.4454 15.6678 11.4913 16.0903 11.7014 16.4291C11.8622 16.6886 12.0609 16.8402 12.3238 16.8563C12.8739 16.8896 13.4285 16.8953 13.9786 16.8643C14.2898 16.8471 14.4804 16.5922 14.5562 16.3085C14.6389 15.9996 14.6618 15.6747 14.71 15.3566C14.7445 15.3669 14.7789 15.3749 14.8145 15.3795C14.8536 15.569 14.8926 15.7596 14.9317 15.9491C15.0212 16.8149 14.3552 17.5097 13.5411 17.4006C13.2207 17.3581 12.898 17.3638 12.5776 17.3765C12.1539 17.3937 11.7922 17.2869 11.5234 16.9413C11.4821 16.8965 11.4477 16.8471 11.4178 16.7943C11.342 16.6036 11.2444 16.4222 11.1548 16.2362C11.1055 15.9525 10.8988 15.6712 11.1411 15.3841H11.1433Z" fill="#FEC602"/>
<path id="Vector_132" d="M12.8475 12.2848C12.7407 12.248 12.6339 12.2113 12.5282 12.1745C12.565 12.0677 12.6327 11.9908 12.7418 11.9552C12.7774 12.0654 12.813 12.1757 12.8475 12.2859V12.2848Z" fill="#FEDB03"/>
<path id="Vector_133" d="M11.822 13.1885C11.8634 13.5767 11.8817 13.9694 11.9541 14.3518C12.0345 14.7732 12.302 15.1372 12.7303 15.1258C13.1541 15.1154 13.6639 15.0775 13.8637 14.5401C13.9028 14.4345 13.9636 14.3357 14.0142 14.2335C14.0923 14.3472 14.1703 14.462 14.2484 14.5757L14.2335 14.5895C13.9384 15.7125 13.4124 15.8021 12.4329 15.5816C11.69 15.414 11.3202 14.4207 11.5992 13.5457C11.6027 13.4756 11.6061 13.4056 11.6096 13.3355C11.6808 13.2861 11.752 13.2368 11.822 13.1874V13.1885Z" fill="#FEDD03"/>
<path id="Vector_134" d="M15.1579 16.3028C15.1923 16.3097 15.2268 16.3166 15.2612 16.3257C15.2647 16.4325 15.2693 16.5382 15.2727 16.645C15.4943 17.4166 14.8777 18.3789 13.8993 18.4065C12.8543 18.4352 11.8071 18.4421 10.7632 18.3927C9.67923 18.341 8.72267 17.3742 8.72841 16.4107C8.72841 16.3361 8.72841 16.2626 8.72726 16.1879C8.73415 16.1535 8.73645 16.1179 8.73645 16.0834C8.77205 16.0777 8.8088 16.072 8.84439 16.0685C8.92822 16.1202 8.96497 16.2098 9.02124 16.2844C9.35195 16.7231 9.37377 16.7219 9.74698 16.281C9.99616 16.2327 10.0961 16.444 10.2454 16.5692C10.413 16.7093 10.5692 16.8942 10.8241 16.7403C10.9252 16.6691 10.9447 16.4877 11.1204 16.5187C11.3535 16.7196 11.2662 16.9665 11.2111 17.2031C11.1456 17.4832 11.2754 17.6899 11.5211 17.7095C12.4237 17.7818 13.3298 17.8117 14.2312 17.6934C14.3208 17.6819 14.3851 17.5889 14.4517 17.5223C14.8742 17.2249 14.8559 16.6714 15.1567 16.3028H15.1579Z" fill="#FEB902"/>
<path id="Vector_135" d="M8.72956 16.4119C9.14525 17.6808 9.91808 18.2549 11.2145 18.2549C11.9977 18.2549 12.7809 18.2549 13.564 18.2549C14.6721 18.2549 15.1946 17.7623 15.2739 16.6461C15.4484 16.808 15.3623 17.0308 15.4082 17.2226C15.4048 17.2972 15.4002 17.3719 15.3967 17.4477C15.0901 18.325 14.5389 18.72 13.6088 18.7545C12.4846 18.7958 11.3707 18.6281 10.2476 18.6212C9.46104 18.6167 8.61817 17.6452 8.61588 16.87C8.62736 16.7104 8.57798 16.5359 8.73071 16.4119H8.72956Z" fill="#FEB502"/>
<path id="Vector_136" d="M8.4999 17.4453C8.49875 17.4097 8.4999 17.373 8.50564 17.3374C8.83636 17.3879 8.92593 17.6899 9.08325 17.9104C9.44038 18.4122 9.89741 18.6913 10.5301 18.6706C11.5211 18.6373 12.5121 18.7062 13.5043 18.7257C14.2989 18.7418 14.8593 18.4341 15.2429 17.7577C15.2968 17.6624 15.3428 17.5441 15.4921 17.5694C15.4955 17.7209 15.5001 17.8725 15.5035 18.0241C14.942 19.045 14.0739 19.5456 12.921 19.4182C12.2354 19.3424 11.5556 19.3229 10.8712 19.332C10.4256 19.3378 9.99961 19.2907 9.5977 19.0897C8.99712 18.8945 8.76746 18.3479 8.45626 17.8783C8.45971 17.7324 8.40574 17.5808 8.50105 17.4442L8.4999 17.4453Z" fill="#FEAC02"/>
<path id="Vector_137" d="M8.49991 17.4454C8.50106 17.6004 8.50221 17.7554 8.50336 17.9104C8.82718 18.5374 9.27159 19.0427 9.93302 19.3298C9.9847 19.3527 10.0306 19.4102 10.0823 19.4113C11.3099 19.4354 12.5363 19.649 13.7661 19.4549C14.4425 19.1954 14.9524 18.6948 15.5024 18.2538C15.5001 18.4077 15.4978 18.5615 15.4955 18.7154C15.0247 19.5732 14.2335 19.9809 13.3229 20.0808C12.6098 20.1589 11.8783 20.1669 11.1537 20.1302C10.552 20.0992 9.99159 19.9338 9.46795 19.6398C9.10163 19.3321 8.64575 19.1081 8.48843 18.6029C8.39656 18.5501 8.39656 18.4582 8.39082 18.3698C8.38852 18.217 8.38623 18.0643 8.38278 17.9116C8.38623 17.7589 8.39082 17.6073 8.39427 17.4546C8.42871 17.4546 8.46431 17.4511 8.49876 17.4454H8.49991Z" fill="#FEA201"/>
<path id="Vector_138" d="M15.492 17.5694C15.3898 17.7279 15.3037 17.9013 15.182 18.0436C14.7617 18.5328 14.3047 18.8911 13.5755 18.844C12.5868 18.7809 11.59 18.8234 10.5979 18.8302C9.87558 18.8348 9.30372 18.6029 8.95692 17.9196C8.84783 17.7049 8.65836 17.5303 8.50563 17.3374C8.50448 17.2226 8.50219 17.1078 8.50104 16.9929C8.50678 16.9573 8.50793 16.9217 8.50678 16.885C8.54238 16.8804 8.57912 16.8746 8.61472 16.8701C9.08783 17.9529 9.75042 18.6006 10.7965 18.5064C11.621 18.4329 12.4651 18.5546 13.2987 18.6006C14.1462 18.6477 14.8432 18.4283 15.2199 17.5855C15.2463 17.5246 15.3359 17.4924 15.3956 17.4465C15.4277 17.4867 15.4599 17.528 15.492 17.5682V17.5694Z" fill="#FEB102"/>
<path id="Vector_139" d="M9.42087 19.5169C10.6852 20.1864 12.0609 19.9946 13.3906 19.9453C14.2358 19.9131 14.9213 19.347 15.4978 18.7154C15.5035 18.7912 15.5093 18.8681 15.515 18.9439C15.507 18.983 15.4978 19.022 15.4898 19.0599C14.7181 19.8878 13.7753 20.3288 12.6339 20.3196C12.2515 20.4103 11.8691 20.4103 11.4867 20.3196H11.1422C10.8195 20.1451 10.4394 20.2335 10.1099 20.0899C10.072 20.052 10.0329 20.013 9.99503 19.9751C9.80785 19.8166 9.42316 19.9051 9.42087 19.5158V19.5169Z" fill="#FE9E01"/>
<path id="Vector_140" d="M15.5047 18.2538C15.0787 18.8153 14.5665 19.2654 13.8959 19.5169C13.5732 19.6731 13.223 19.6651 12.8911 19.6203C12.0792 19.5112 11.2662 19.5181 10.4509 19.5135C10.0364 19.5112 9.6758 19.3987 9.53571 18.9428C10.7024 19.4067 11.9437 19.0415 13.1392 19.2712C13.9361 19.4239 14.5436 18.921 15.1016 18.4203C15.2406 18.2963 15.3175 18.1045 15.5036 18.0241C15.5036 18.101 15.5036 18.1768 15.5036 18.2538H15.5047Z" fill="#FEA902"/>
<path id="Vector_141" d="M12.4054 9.18889C12.4054 9.11195 12.4054 9.03616 12.4054 8.95923C13.1242 8.81569 13.8362 8.60439 14.5837 8.72956C14.7767 8.75712 14.9971 8.65262 15.1579 8.84439C14.2461 9.00057 13.3298 9.12803 12.4054 9.18889Z" fill="#FE8021"/>
<path id="Vector_142" d="M9.99961 21.3508C9.87904 21.2004 9.75961 21.0511 9.63904 20.9007C10.5588 21.3037 11.5005 21.5564 12.5271 21.4794C13.1185 21.4346 13.641 21.1211 14.2323 21.12C13.9246 21.4691 13.4733 21.5805 13.0909 21.8078C12.3652 21.9766 11.6394 21.9755 10.9125 21.8113C10.6082 21.6574 10.3039 21.5047 9.99846 21.3508H9.99961Z" fill="#FE7C01"/>
<path id="Vector_143" d="M9.42087 19.5169C9.52077 19.7845 9.85149 19.7627 9.99503 19.9763C9.40938 20.0015 9.12919 19.4182 8.62278 19.2873C8.57914 19.1345 8.53436 18.9818 8.49072 18.8291C8.49072 18.7533 8.49072 18.6775 8.49072 18.6017C8.72613 18.983 9.21072 19.1104 9.42201 19.5158L9.42087 19.5169Z" fill="#FE9C01"/>
<path id="Vector_144" d="M10.1099 20.0911C10.4647 20.1187 10.8551 19.9866 11.1422 20.3208C10.8276 20.3483 10.5233 20.2978 10.2247 20.2059C10.1868 20.168 10.1478 20.129 10.1099 20.0911Z" fill="#FE9C01"/>
<path id="Vector_145" d="M11.4867 20.3208H12.6339C12.2515 20.4999 11.8691 20.4999 11.4867 20.3208Z" fill="#FE9C01"/>
<path id="Vector_146" d="M11.5992 13.5457C11.6107 13.8293 11.5809 14.121 11.6417 14.3943C11.7623 14.9363 12.0126 15.4048 12.6362 15.4955C13.4503 15.6149 13.6685 15.4955 14.0957 14.764C14.1324 14.7009 14.1864 14.6469 14.2324 14.5883C14.2588 14.9168 14.2565 15.244 14.0498 15.5231C13.8672 15.7711 13.6731 16.018 13.3022 15.8595C13.2689 15.8458 13.2264 15.8515 13.1885 15.8458C12.7832 15.786 12.3009 16.0249 11.9816 15.6815C11.5843 15.2555 11.4316 14.6905 11.365 14.1106C11.3627 14.0383 11.3604 13.9659 11.3581 13.8936C11.3638 13.8178 11.3707 13.7409 11.3765 13.6651C11.45 13.6249 11.5246 13.5847 11.5981 13.5457H11.5992Z" fill="#FED802"/>
<path id="Vector_147" d="M11.1445 14.4677C11.1434 14.6572 11.1411 14.8455 11.1399 15.035C11.1215 15.0511 11.1032 15.0683 11.0848 15.0844C11.0653 15.0695 11.0446 15.0557 11.0251 15.0408C11.0101 14.942 10.9745 14.8352 10.8689 14.8295C10.057 14.7847 9.21761 14.6756 8.4379 14.7663C7.76498 14.8432 7.09321 14.9087 6.41799 14.919C6.04364 14.9248 5.66699 14.8501 5.29148 14.8122C4.77014 14.9489 4.27751 14.9661 3.91464 14.4677C4.44861 14.756 5.00555 14.6009 5.56823 14.6044C7.42967 14.617 9.28421 14.3862 11.1456 14.4666L11.1445 14.4677Z" fill="#FE7B17"/>
<path id="Vector_148" d="M9.76765 16.297C9.70908 16.5026 9.69875 16.8299 9.42889 16.7839C9.08899 16.7265 8.83291 16.475 8.84554 16.0685C8.84899 15.956 8.85358 15.8435 8.85702 15.7309C8.9776 15.6482 8.96152 15.5185 8.96841 15.3979C9.04305 15.3933 9.11655 15.3887 9.19119 15.3841C9.41167 15.4289 9.48516 15.6276 9.60229 15.7803C9.68382 15.9009 9.76535 16.0226 9.80899 16.1638C9.81817 16.2144 9.80324 16.2591 9.76765 16.2959V16.297Z" fill="#FEBB02"/>
<path id="Vector_149" d="M9.53685 15.8423C9.42202 15.6896 9.30718 15.538 9.19235 15.3853C9.21073 15.2279 9.30259 15.1659 9.45762 15.1556C9.9801 15.1223 10.5026 15.0787 11.0251 15.0396L11.0331 15.0442C11.1089 15.1579 11.0882 15.2785 11.0561 15.399C10.955 15.5931 10.769 15.6379 10.5795 15.639C10.2167 15.6402 9.87675 15.7378 9.53685 15.8423Z" fill="#FE7418"/>
<path id="Vector_150" d="M8.96267 14.2381C8.28631 14.493 7.58468 14.2863 6.89798 14.3529C7.57434 14.098 8.27597 14.3047 8.96267 14.2381Z" fill="#FE7F16"/>
<path id="Vector_151" d="M6.09417 14.3529C5.52001 14.5401 4.947 14.5401 4.37283 14.3529H6.09417Z" fill="#FE7F16"/>
<path id="Vector_152" d="M11.2616 14.1244C11.2249 14.1623 11.187 14.2013 11.1503 14.2392C10.7656 14.2392 10.3809 14.2381 9.99619 14.2369C10.3992 13.9924 10.8425 14.1807 11.2628 14.1233L11.2616 14.1244Z" fill="#FE7F16"/>
<path id="Vector_153" d="M15.1579 16.3028C15.0959 16.7828 15.0098 17.2513 14.5837 17.5659C14.3667 17.7439 14.1221 17.8059 13.8396 17.799C13.2861 17.7853 12.7315 17.7968 12.178 17.7945C11.3971 17.791 11.2662 17.6647 11.2042 16.8678C11.1985 16.792 11.2008 16.715 11.2019 16.6392C11.2915 16.5252 11.386 16.5665 11.4855 16.7633C11.6647 17.2088 11.977 17.3857 12.4674 17.3478C12.9003 17.3145 13.3389 17.3282 13.7776 17.3845C14.2932 17.45 14.5676 17.0745 14.7801 16.6817C14.8869 16.4842 14.9259 16.2511 15.0488 16.057C15.1384 16.1156 15.1556 16.2063 15.1579 16.3039V16.3028Z" fill="#FEBF02"/>
<path id="Vector_154" d="M15.05 16.0559C14.8685 17.1663 14.539 17.4511 13.4354 17.4511C13.0346 17.4511 12.6327 17.427 12.2343 17.4568C11.7129 17.4959 11.4959 17.2524 11.4879 16.7621C11.8611 17.1847 12.3376 17.2915 12.8773 17.2237C13.0094 17.2077 13.1449 17.2168 13.2781 17.2226C14.3437 17.2628 14.431 17.2088 14.8536 16.2212C14.8903 16.1351 14.9087 16.0398 14.9351 15.9491C14.9742 15.9847 15.0132 16.0203 15.0523 16.0547L15.05 16.0559Z" fill="#FEC302"/>
<path id="Vector_155" d="M11.0228 15.3876C11.0262 15.2739 11.0285 15.1591 11.0319 15.0454C11.0675 15.0431 11.1031 15.0396 11.1387 15.035C11.1399 15.1522 11.1422 15.2681 11.1433 15.3853C11.1812 15.6919 11.2191 15.9973 11.257 16.3039C11.2306 16.3108 11.2053 16.3166 11.1789 16.3235C11.0687 16.2821 11.0113 16.1925 10.9619 16.0949C10.9401 16.0444 10.9252 15.9916 10.9137 15.9388C10.9033 15.8848 10.8987 15.8297 10.8987 15.7746C10.8987 15.6322 10.9447 15.5058 11.0228 15.3887V15.3876Z" fill="#FEC302"/>
<path id="Vector_156" d="M11.4867 16.7621C11.4098 16.6852 11.334 16.6094 11.257 16.5324C11.1881 16.4555 11.1858 16.3797 11.257 16.3028C11.466 16.39 11.497 16.5657 11.4867 16.7621Z" fill="#FEC302"/>
<path id="Vector_157" d="M11.257 16.3039C11.257 16.3809 11.257 16.4567 11.257 16.5336C11.3317 17.6061 11.4109 17.6957 12.4811 17.6762C13.1828 17.6635 13.8924 17.7807 14.5849 17.5659C14.4517 17.8404 14.2277 17.9196 13.9338 17.9139C13.2528 17.9001 12.5707 17.9127 11.8897 17.9093C11.0974 17.9047 10.978 17.7589 11.1215 17.0056C11.1525 16.8413 11.1927 16.6645 11.0308 16.5325C10.893 16.3786 10.893 16.2258 11.0331 16.0731C11.1077 16.1501 11.1835 16.227 11.2582 16.3028L11.257 16.3039Z" fill="#FEBD02"/>
<path id="Vector_158" d="M11.0159 15.8457C11.0159 15.8859 11.0136 15.9261 11.0124 15.9652C10.8896 16.2637 11.0492 16.591 10.9171 16.8873C10.5738 17.1698 10.3705 16.8517 10.1569 16.6852C10.0168 16.5761 9.93989 16.3855 9.76765 16.2959C9.76535 16.2614 9.7642 16.227 9.76191 16.1925C9.76076 15.801 10.0697 15.8285 10.3142 15.8055C10.5462 15.7837 10.7908 15.685 11.0159 15.8446V15.8457Z" fill="#FE6B18"/>
<path id="Vector_159" d="M10.9183 16.8884C10.955 16.5818 10.8126 16.2557 11.0136 15.9663C11.0205 16.0019 11.0274 16.0387 11.032 16.0743C11.032 16.227 11.0308 16.3809 11.0297 16.5336C11.0159 16.6587 11.0365 16.7965 10.9183 16.8884Z" fill="#FE7018"/>
<path id="Vector_160" d="M9.53568 18.9428C9.79061 19.2896 10.1305 19.4343 10.5623 19.4044C11.6773 19.3263 12.7809 19.5962 13.8959 19.5169C13.6513 19.8109 13.3022 19.7925 12.9979 19.7351C12.1286 19.5721 11.257 19.6605 10.3866 19.6306C9.66429 19.6054 8.58028 18.6086 8.50449 17.9104C8.96496 18.1378 9.03272 18.759 9.53568 18.9439V18.9428Z" fill="#FEA602"/>
<path id="Vector_161" d="M11.0159 15.8458C10.6346 16.0938 10.0857 15.7378 9.76191 16.1937C9.68727 16.0766 9.61148 15.9594 9.53683 15.8423C9.65741 15.4921 9.9709 15.5288 10.2431 15.5047C10.506 15.4806 10.7805 15.5414 11.0239 15.3876C11.0216 15.5403 11.0193 15.693 11.017 15.8458H11.0159Z" fill="#FE7018"/>
</g>
</svg>
