<svg width="24" height="24" viewBox="0 0 24 24" fill="none" xmlns="http://www.w3.org/2000/svg">
<g id="Plane">
<path id="Vector" d="M22 4.56C22.01 3.87 21.74 3.23 21.26 2.74C20.77 2.25 20.12 2.03 19.44 2C18.75 2.01 18.11 2.28 17.64 2.78L14.17 6.39L5.38 3.47C5.1 3.39 4.81 3.46 4.61 3.66L2.67 5.6C2.51 5.76 2.43 5.99 2.45 6.21C2.48 6.44 2.61 6.65 2.81 6.77L9.72 11.03L6.74001 14.13L4.63 13.79C4.39 13.75 4.15 13.83 3.97 14L2.22 15.75C2.04 15.94 1.96 16.2 2.02 16.45C2.08 16.7 2.26 16.91 2.5 16.99L5.84 18.16L7.01 21.5C7.09 21.74 7.3 21.92 7.55 21.98C7.6 21.99 7.66 22 7.72 22C7.91 22 8.1 21.92 8.25 21.78L10 20.02C10.17 19.85 10.25 19.61 10.21 19.37L9.86 17.26L12.97 14.28L17.23 21.19C17.35 21.39 17.56 21.52 17.78 21.55C18.01 21.57 18.24 21.49 18.4 21.33L20.34 19.39C20.54 19.19 20.61 18.89 20.52 18.62L17.61 9.82L21.22 6.36C21.72 5.89 21.99 5.25 22 4.56Z" fill="#2E9ED5"/>
</g>
</svg>
