<svg width="24" height="24" viewBox="0 0 24 24" fill="none" xmlns="http://www.w3.org/2000/svg">
<g id="Sale 1" clip-path="url(#clip0_99_40878)">
<g id="Layer 1">
<g id="Group">
<path id="Vector" d="M4.36937 0.00802612H19.6318C20.5516 0.14927 21.445 0.299701 22.2052 0.949653C23.2272 1.82353 23.9093 2.83291 23.9345 4.21434C23.9357 4.30736 23.9173 4.40611 23.992 4.4842V4.59903C23.8679 5.08477 23.9426 5.57855 23.9391 6.06774C23.9265 7.49166 23.9345 8.91559 23.9345 10.3384C23.8966 10.8631 23.6406 10.5324 23.4499 10.4612C22.9079 9.92956 22.4015 9.35654 21.7481 8.94889C21.7091 8.90755 21.6804 8.85932 21.662 8.80535C21.6241 8.58257 21.6494 8.35635 21.6356 8.13243C21.6011 7.55941 21.445 7.4331 20.8559 7.4997C20.7422 7.51233 20.632 7.51233 20.5298 7.45147C20.4792 7.41587 20.4402 7.36879 20.4126 7.31367C20.0452 6.38123 19.3516 5.93683 18.3812 6.02755C16.5233 6.20209 14.6595 6.32037 12.8096 6.59023C12.3778 6.65338 11.9299 6.56841 11.5028 6.7108C11.2524 6.72458 11.009 6.78429 10.7632 6.82908C9.54488 6.8463 8.34488 7.05185 7.13684 7.17587C6.77856 7.17587 6.42258 7.20573 6.07234 7.28611C5.3133 7.28611 4.56689 7.40439 3.81818 7.51118C3.45875 7.533 3.09818 7.5376 2.74335 7.63061C1.93492 7.84075 1.59732 8.20133 1.5732 9.02123C1.55023 9.7975 1.5399 10.5726 1.44459 11.3454C1.42392 11.5142 1.45378 11.6911 1.2999 11.8186C0.894541 11.9552 0.488034 12.1745 0.0838234 11.8163C0.0378904 9.65396 0.0780818 7.49051 0.0608569 5.32822C0.0597086 5.12382 0.11368 4.91023 0.0057373 4.71386V4.36937C0.202101 3.68496 0.145833 2.94889 0.578752 2.30697C1.50086 0.948505 2.69512 0.0964472 4.36937 0.00802612Z" fill="#FE5C38"/>
<path id="Vector_2" d="M4.59788 23.9919H4.48305C4.07424 23.8473 3.62639 23.9081 3.22104 23.7703C2.81223 23.6325 2.30123 23.5751 2.3219 22.9504C2.50907 22.5186 2.91788 22.498 3.28993 22.4739C6.01491 22.2993 8.73644 22.0742 11.4591 21.8584C14.7146 21.6 17.9747 21.4059 21.2256 21.0959C21.6815 21.0522 22.142 21.0729 22.5979 21.0074C22.8103 20.9764 23.0193 21.012 23.1801 21.1808C23.4614 21.6172 23.195 21.9364 22.9424 22.2534C21.9916 23.4408 20.7594 24.0092 19.2344 23.9334C14.5607 23.9334 9.88936 23.9334 5.21683 23.9357C5.01127 23.9357 4.79654 23.8829 4.59903 23.9908L4.59788 23.9919Z" fill="#FE3633"/>
<path id="Vector_3" d="M0.00802612 19.6318V19.4021C0.236543 19.1862 0.523624 19.1943 0.810706 19.1724C2.67099 19.0312 4.53128 18.8876 6.39157 18.751C8.11865 18.6247 9.84573 18.4869 11.574 18.3652C13.3217 18.2423 15.0683 18.1022 16.8138 17.9587C17.0216 17.9414 17.2295 17.8656 17.4155 18.0264C17.6096 18.5742 17.427 18.8337 16.7334 18.9921C16.475 18.9175 16.2201 18.9129 15.9456 18.9485C14.4689 19.1414 12.9807 19.2046 11.4982 19.3275C9.67348 19.4779 7.84649 19.6088 6.02181 19.7546C4.36707 19.8867 2.71004 19.9797 1.0576 20.129C0.809557 20.1508 0.561519 20.1232 0.315777 20.0854C0.0137677 20.0704 0.112524 19.7822 0.00802612 19.6318Z" fill="#FE4235"/>
<path id="Vector_4" d="M17.4408 18.1401C15.6 18.2836 13.7592 18.4283 11.9185 18.5707C10.7793 18.6591 9.64019 18.7418 8.50105 18.8291C6.60287 18.9749 4.70698 19.1472 2.80651 19.2563C1.87521 19.3102 0.947368 19.4653 0.00918579 19.4021V19.2873C0.0861236 19.1736 0.070047 19.0163 0.182583 18.9186C0.710813 18.4846 1.36536 18.6247 1.93952 18.6453C2.76402 18.6764 3.57014 18.5604 4.37856 18.5052C6.86354 18.3341 9.33818 18.0379 11.8232 17.8507C13.494 17.7255 15.1659 17.6004 16.8356 17.4591C17.1514 17.4327 17.4901 17.3397 17.7278 17.667C17.8071 17.9299 17.7003 18.0815 17.4408 18.1389V18.1401Z" fill="#FE4335"/>
<path id="Vector_5" d="M23.992 19.6318C23.7451 19.8109 23.8691 20.1554 23.6681 20.3564C22.7747 20.6584 21.8354 20.6101 20.9167 20.6894C20.3162 20.741 19.7156 20.8513 19.107 20.8191C18.8647 20.8065 18.6109 20.8398 18.3962 20.679C18.2182 20.5068 18.2032 20.2852 18.3364 20.1118C18.6809 19.6651 19.0105 19.1747 19.68 19.2C20.9076 19.0898 22.1397 19.045 23.3673 18.929C23.5211 18.9141 23.6693 18.9554 23.8002 19.0438C23.8898 19.1047 23.938 19.1977 23.9908 19.2884V19.6329L23.992 19.6318Z" fill="#FE3C34"/>
<path id="Vector_6" d="M19.4124 23.8898C19.4033 23.9231 19.3998 23.9575 19.4021 23.992H4.5979C4.68173 23.8438 4.82757 23.8794 4.95503 23.8794C9.7734 23.8817 14.5918 23.8863 19.4113 23.8898H19.4124Z" fill="#FE9998"/>
<path id="Vector_7" d="M0.0080453 4.71387C0.176849 4.93205 0.119433 5.18813 0.120581 5.43042C0.128619 7.56286 0.132064 9.6953 0.135509 11.8277C0.250342 11.9644 0.282495 12.1079 0.176849 12.2653C0.126323 12.3181 0.0700549 12.325 0.00689697 12.2871V4.71387H0.0080453Z" fill="#FE8369"/>
<path id="Vector_8" d="M23.8702 10.5634C23.8725 8.79386 23.8725 7.02544 23.8794 5.25587C23.8794 5.0331 23.822 4.79539 23.992 4.59903V10.6806C23.9541 10.7219 23.9104 10.7265 23.8634 10.6978C23.8358 10.6507 23.8381 10.6059 23.8714 10.5623L23.8702 10.5634Z" fill="#FE8369"/>
<path id="Vector_9" d="M23.9919 19.2873C23.9495 19.2494 23.907 19.2115 23.8645 19.1724C23.5418 18.8899 23.6383 18.5144 23.6394 18.1607C23.4936 17.3707 23.8185 16.5715 23.5981 15.7826C23.5694 15.3715 23.6302 14.9753 23.8082 14.6009C23.8645 14.5504 23.9265 14.5435 23.9919 14.5814V19.2861V19.2873Z" fill="#FE7166"/>
<path id="Vector_10" d="M23.992 14.5826C23.938 14.586 23.884 14.5906 23.8301 14.5941C23.5062 14.4677 23.6234 14.1795 23.5923 13.9464C23.8255 13.0886 23.5016 12.2113 23.6831 11.3523C23.7313 11.1227 23.636 10.8448 23.8944 10.6806C23.9265 10.6806 23.9598 10.6806 23.992 10.6806V14.5826Z" fill="#FE7E68"/>
<path id="Vector_11" d="M0.00802612 12.2871C0.0424759 12.2871 0.0757773 12.2871 0.110227 12.2871C0.486878 12.4972 0.335299 12.8578 0.359414 13.1678C0.370897 13.6513 0.468505 14.1382 0.290514 14.6124C0.270993 14.679 0.23884 14.7388 0.194055 14.7916C0.137787 14.8433 0.0757773 14.8501 0.00802612 14.8122V12.2871Z" fill="#FE7E68"/>
<path id="Vector_12" d="M0.00802612 14.8122C0.0424759 14.8122 0.0757773 14.8122 0.110227 14.8122C0.567261 15.1464 0.328409 15.6218 0.362859 16.0421C0.342189 16.4325 0.499509 16.8459 0.21128 17.2019C0.148122 17.2524 0.0815189 17.2593 0.00917445 17.2237V14.8134L0.00802612 14.8122Z" fill="#FE7868"/>
<path id="Vector_13" d="M0.00802612 17.2214C0.0413276 17.2214 0.074629 17.2214 0.10793 17.2214C0.172237 17.2513 0.221615 17.2984 0.257213 17.3604C0.429462 17.6877 0.369749 18.0356 0.353672 18.3801C0.376639 18.635 0.311184 18.8624 0.141232 19.0565C0.0975955 19.1334 0.0528108 19.2103 0.00917445 19.2873C0.00917445 18.5983 0.00917445 17.9104 0.00917445 17.2214H0.00802612Z" fill="#FE7467"/>
<path id="Vector_14" d="M20.5481 7.32746C21.404 7.24784 21.8312 7.63904 21.8296 8.50105C21.8296 8.6331 21.84 8.76401 21.8457 8.89607C21.8951 9.02813 21.8457 9.12459 21.7378 9.19923C21.4438 9.29339 21.1406 9.30717 20.834 9.30602C20.5286 9.30602 20.2461 9.47023 20.0348 9.43464C20.354 9.44153 20.7502 9.24631 21.1762 9.30258C21.3496 9.30717 21.5184 9.22564 21.6941 9.27617C22.0283 9.43004 21.9835 9.73435 21.9858 10.018C21.9962 11.3213 21.8917 11.4316 20.6032 11.4844C20.5458 11.4867 20.4884 11.4844 20.4344 11.4844C20.462 11.4844 20.485 11.4844 20.5171 11.4844C20.7514 11.4947 20.9684 11.4431 21.19 11.3983C21.7573 11.2834 21.9227 11.4155 21.9939 12C22.0122 12.147 22.0765 12.2905 22.0409 12.4444C22.0122 12.5719 21.9996 12.7005 21.9985 12.8302C21.9881 12.9577 21.9881 13.0863 21.9674 13.2126C21.9181 13.3286 21.8641 13.4423 21.7722 13.533C21.6666 13.6088 21.5391 13.5996 21.4197 13.6191C21.2716 13.6329 21.1315 13.6869 20.9845 13.7121C20.834 13.7213 20.6836 13.7351 20.5332 13.7409C20.4379 13.7477 20.3437 13.7581 20.2495 13.7742C19.5089 13.9051 18.7556 13.9315 18.0184 14.0876C17.8381 14.1255 17.6417 14.0831 17.4695 13.9866C17.3374 13.8477 17.1835 13.7099 17.1847 13.5043C17.1893 12.7234 16.9883 11.9518 17.1158 11.1617C17.2536 10.3097 17.1571 9.44382 17.1801 8.58487C17.2076 7.55942 17.2846 7.46985 18.2848 7.40899C18.4398 7.3998 18.5879 7.37569 18.7303 7.31942C19.0909 7.26889 19.4561 7.24708 19.8155 7.18047C19.9452 7.17932 20.075 7.17932 20.2036 7.18162C20.3368 7.18621 20.4528 7.23559 20.5504 7.32631L20.5481 7.32746Z" fill="#FEFCB6"/>
<path id="Vector_15" d="M1.2735 11.714C1.29303 10.7276 1.40901 9.74582 1.39752 8.75481C1.38948 8.08304 1.7937 7.67539 2.49188 7.47328C2.91905 7.34926 3.35427 7.34467 3.79293 7.35156C3.97896 7.30103 4.18566 7.17127 4.27752 7.47788C4.09264 7.70984 3.83312 7.74773 3.56097 7.75462C3.31293 7.76151 3.06719 7.78103 2.82489 7.8396C2.08078 8.01759 1.82585 8.29548 1.80058 9.06486C1.76384 10.1879 1.84652 11.3156 1.77417 12.434C1.68575 13.8006 1.69264 15.1671 1.66508 16.5336C1.65475 17.071 1.72939 17.5544 2.1003 17.9598C2.21398 18.085 2.2714 18.2113 2.15657 18.3651C1.90623 18.5604 1.70527 18.4478 1.5158 18.2618C1.22527 17.9977 1.07025 17.6716 1.06336 17.2765C0.953121 16.8344 1.03465 16.3889 1.04384 15.9456C0.970346 15.492 1.02891 15.035 1.0048 14.5803C0.948527 14.0796 1.07025 13.5801 1.0048 13.0794C1.03465 12.6132 0.863551 12.1056 1.27465 11.714H1.2735Z" fill="#FE332B"/>
<path id="Vector_16" d="M11.4832 6.5489C12.3847 6.43407 13.2838 6.30201 14.1876 6.21014C15.5862 6.06775 16.9918 5.98277 18.387 5.81053C18.9967 5.73474 19.471 5.87483 19.8901 6.29282C20.1198 6.52134 20.3495 6.74986 20.5745 6.98297C20.663 7.07368 20.725 7.17359 20.5447 7.23789C20.253 7.2999 20.1083 7.07713 19.9384 6.91636C19.7087 6.69818 19.5009 6.45359 19.1793 6.36057C18.5007 6.15158 17.8254 6.31349 17.1502 6.3801C16.0398 6.48804 14.9271 6.56612 13.8212 6.70852C13.6674 6.72804 13.5123 6.72115 13.3585 6.72689C13.1162 6.72689 12.8808 6.76938 12.6476 6.83024C12.3801 6.85091 12.1263 6.9933 11.8484 6.92785C11.6739 6.85321 11.543 6.73608 11.4844 6.55005L11.4832 6.5489Z" fill="#FE562F"/>
<path id="Vector_17" d="M1.27348 11.714C1.27348 12.1734 1.27348 12.6316 1.27348 13.0909C0.850899 13.5387 0.612048 13.5628 0.136641 13.2057C0.127454 12.8991 0.119416 12.5925 0.110229 12.2859C0.118268 12.1332 0.127454 11.9805 0.135493 11.8277C0.505253 11.7014 0.888794 11.7072 1.27233 11.714H1.27348Z" fill="#FE5737"/>
<path id="Vector_18" d="M23.8944 10.6794C23.8898 11.5682 23.8875 12.4559 23.8783 13.3447C23.876 13.5675 23.9231 13.8017 23.7772 14.0038C23.4235 13.8339 23.5085 13.4503 23.3845 13.1713C23.2237 12.8107 23.1204 12.426 22.9987 12.0494C23.0033 11.8266 23.1433 11.636 23.1514 11.4144C23.3994 11.0986 23.3914 10.6886 23.5395 10.3361C23.76 10.2522 23.768 10.4773 23.8714 10.5634C23.8794 10.6025 23.8875 10.6415 23.8955 10.6806L23.8944 10.6794Z" fill="#FE5539"/>
<path id="Vector_19" d="M21.7068 9.09818C21.7527 9.03043 21.7987 8.96383 21.8446 8.89722C21.8641 8.89148 21.8848 8.88689 21.9054 8.88229C22.4957 9.20382 22.839 9.77454 23.2834 10.2442C23.2972 10.4578 23.2593 10.6473 23.0423 10.7495C22.8 10.7793 22.6312 10.5761 22.4061 10.5485C22.3246 10.521 22.2396 10.5014 22.1604 10.4647C21.9146 10.041 21.9043 9.53914 21.7068 9.09933V9.09818Z" fill="#FCCD11"/>
<path id="Vector_20" d="M7.12307 7.00821C8.34144 6.82792 9.55981 6.65338 10.7966 6.66371C10.9458 6.5684 11.0343 6.61433 11.0687 6.78314C11.0515 6.88649 10.9975 6.96228 10.9068 7.01395C10.6565 7.10123 10.3946 7.04955 10.1386 7.07596C9.9112 7.08055 9.69302 7.14831 9.46909 7.17816C8.80651 7.30792 8.13819 7.31366 7.46756 7.28955C7.29991 7.25969 7.10814 7.26084 7.12192 7.00936L7.12307 7.00821Z" fill="#FE412E"/>
<path id="Vector_21" d="M23.1767 10.2499C22.7529 9.79289 22.3292 9.33701 21.9055 8.87997C22.1282 8.75481 22.2132 8.96265 22.32 9.06945C22.7334 9.48399 23.1342 9.91232 23.5395 10.3349C23.7657 10.7793 23.5567 11.1364 23.3076 11.4844C23.3443 11.6738 23.2341 11.7382 23.0733 11.7588C22.955 11.7175 22.8919 11.6314 22.8746 11.5108C23.0182 11.1008 23.3765 10.7426 23.1778 10.2499H23.1767Z" fill="#FE4432"/>
<path id="Vector_22" d="M5.39369 4.80919C5.73359 4.77818 5.73704 5.09971 5.87943 5.27426C6.01263 5.66354 5.95981 6.04479 5.83235 6.42259C5.70718 6.57416 5.70373 6.86699 5.39254 6.80153C5.16402 6.13665 5.16058 5.47292 5.39369 4.80919Z" fill="#FEDE11"/>
<path id="Vector_23" d="M4.25455 7.46754C4.11905 7.35616 3.95484 7.35386 3.79178 7.35156C4.54852 7.18391 5.31561 7.11501 6.08958 7.1219C6.23771 7.14486 6.42833 7.08285 6.47312 7.31367C6.45245 7.38027 6.41341 7.4308 6.35369 7.46754C5.86565 7.54678 5.37417 7.59041 4.88269 7.63175C4.66565 7.65013 4.41762 7.69491 4.25341 7.46754H4.25455Z" fill="#FE372A"/>
<path id="Vector_24" d="M5.83235 6.42256C5.71292 6.03442 5.67158 5.64859 5.87943 5.27423C6.29513 5.6172 6.27943 5.99997 5.83235 6.42256Z" fill="#FEE714"/>
<path id="Vector_25" d="M19.6214 4.19482C19.4228 4.10066 19.0863 4.30391 19.0863 4.00535C19.0863 3.71712 19.4182 3.84688 19.6008 3.84458C19.7833 3.84229 20.1175 3.72171 20.1141 4.01109C20.1106 4.32343 19.7627 4.06851 19.6226 4.19597L19.6214 4.19482Z" fill="#FEE6E0"/>
<path id="Vector_26" d="M18.4444 3.00172C18.5018 2.82947 18.3479 2.51483 18.5868 2.51368C18.9416 2.51139 18.7671 2.86277 18.7763 3.0534C18.7854 3.22335 18.9083 3.56325 18.5891 3.5311C18.3273 3.50469 18.5133 3.17742 18.4432 3.00057L18.4444 3.00172Z" fill="#FEE6E0"/>
<path id="Vector_27" d="M19.4021 6.20554C19.7834 6.55003 20.1646 6.89338 20.5447 7.23788C20.5447 7.26774 20.5458 7.29874 20.5481 7.3286C20.4482 7.33434 20.3495 7.34008 20.2496 7.34582C20.0808 7.27118 19.9028 7.21836 19.7397 7.12994C19.5893 6.85549 19.2184 6.72917 19.2184 6.35367C19.2494 6.26755 19.324 6.23424 19.401 6.20668L19.4021 6.20554Z" fill="#FE4D30"/>
<path id="Vector_28" d="M17.6314 4.1799C17.4626 4.10296 17.1261 4.30162 17.1227 4.0088C17.1204 3.72172 17.4534 3.84459 17.636 3.84459C17.8117 3.84459 18.1366 3.71712 18.1194 4.03521C18.1056 4.28325 17.8025 4.12019 17.6302 4.1799H17.6314Z" fill="#FEE6E0"/>
<path id="Vector_29" d="M18.7958 4.98488C18.7372 5.16402 18.906 5.4867 18.6178 5.50277C18.3468 5.51885 18.449 5.20306 18.4662 5.04804C18.4869 4.85742 18.2905 4.51177 18.6385 4.50258C18.8762 4.49569 18.7487 4.81148 18.7958 4.98488Z" fill="#FEE6E0"/>
<path id="Vector_30" d="M5.03999 5.35923C5.05722 5.2065 5.16746 5.12153 5.27884 5.03885C5.38334 5.551 5.38908 6.06315 5.27655 6.57416C5.20305 6.48918 5.13071 6.40421 5.05722 6.31923C4.85626 6.00229 4.81492 5.68306 5.03999 5.35923Z" fill="#FED30D"/>
<path id="Vector_31" d="M6.43407 7.23788C6.31923 7.19884 6.2044 7.16094 6.08957 7.1219C6.41684 6.93128 6.77742 7.03692 7.12306 7.00822C7.23789 7.04611 7.35273 7.08515 7.46756 7.12305C7.17588 7.62946 6.80383 7.42391 6.43522 7.23788H6.43407Z" fill="#FE3C2C"/>
<path id="Vector_32" d="M5.03999 5.35922C5.04573 5.67961 5.05147 5.99884 5.05721 6.31922C4.93893 6.21243 4.82066 6.10563 4.70123 5.99999C4.61396 5.87138 4.62774 5.74276 4.70468 5.6153C4.78161 5.48554 4.89415 5.40056 5.03884 5.35922H5.03999Z" fill="#FEC90B"/>
<path id="Vector_33" d="M5.27654 6.57415C5.27654 6.062 5.27884 5.55099 5.27884 5.03884C5.31673 4.9619 5.35463 4.88496 5.39252 4.80917C5.39252 5.47291 5.39252 6.13779 5.39137 6.80152C5.35233 6.72573 5.31443 6.64994 5.27539 6.57415H5.27654Z" fill="#FED70F"/>
<path id="Vector_34" d="M11.0251 6.7797C10.9493 6.74066 10.8723 6.70276 10.7965 6.66372C11.0067 6.51099 11.2501 6.56152 11.4832 6.54889C11.6337 6.573 11.7508 6.6465 11.8323 6.77626C11.5636 7.01396 11.2949 7.01166 11.0251 6.7797Z" fill="#FE4331"/>
<path id="Vector_35" d="M4.70583 5.6153C4.70468 5.74276 4.70353 5.87137 4.70238 5.99884C4.35674 5.86678 4.43597 5.74046 4.70583 5.6153Z" fill="#FEB909"/>
<path id="Vector_36" d="M18.3812 20.5504C19.9361 20.5527 21.4771 20.3621 23.0216 20.2254C23.2513 20.2048 23.4787 20.1864 23.6681 20.3564C23.5682 20.7146 23.4821 21.0786 23.2157 21.3623C22.9194 21.2647 22.6255 21.2957 22.3166 21.3221C20.5906 21.4656 18.8612 21.569 17.1342 21.6999C15.3508 21.8354 13.5686 21.9904 11.7853 22.1294C10.6082 22.2212 9.4312 22.3016 8.25416 22.3854C6.56498 22.5072 4.87464 22.6197 3.18546 22.7564C2.91215 22.7782 2.6044 22.8034 2.41723 23.0733C2.04058 22.8919 1.73857 22.6243 1.49168 22.2901C1.33206 21.8216 1.62833 21.7068 1.99005 21.6769C3.0178 21.592 4.04555 21.5012 5.0733 21.4312C7.4733 21.267 9.87101 21.0695 12.2687 20.8834C13.8293 20.7617 15.3922 20.6584 16.9516 20.5229C17.1629 20.5045 17.3707 20.5435 17.5751 20.5906C17.845 20.6354 18.1079 20.493 18.3801 20.5516L18.3812 20.5504Z" fill="#FE3933"/>
<path id="Vector_37" d="M0.653388 21.1384C0.436355 20.7835 0.259513 20.4138 0.230804 19.99C0.706211 19.7317 1.24248 19.8304 1.74315 19.781C3.50353 19.6065 5.27425 19.5318 7.03923 19.3975C8.76516 19.2666 10.4899 19.1024 12.2159 18.9703C13.525 18.8704 14.8364 18.7958 16.1477 18.7142C16.3556 18.7016 16.5692 18.6959 16.7621 18.8061C16.8046 19.0025 16.8046 19.2023 16.9527 19.3745C17.1123 19.5594 17.1353 19.7787 16.9401 19.9762C16.4624 20.2048 15.9399 20.2025 15.4335 20.2358C12.6982 20.4184 9.96631 20.6606 7.23214 20.8513C5.29492 20.9868 3.36229 21.1785 1.42277 21.283C1.15635 21.2968 0.886498 21.3083 0.653388 21.1372V21.1384Z" fill="#FE3F34"/>
<path id="Vector_38" d="M17.0056 19.7409C16.8035 19.4756 16.5014 19.3619 16.2029 19.2276C16.3235 18.9921 16.5899 18.9611 16.7621 18.8073C17.0756 18.6729 17.3145 18.4639 17.4408 18.1389C17.5235 18.031 17.6073 17.9231 17.69 17.8151C17.7187 17.5717 17.6314 17.2582 17.9862 17.1893C18.3365 17.1204 18.3985 17.4224 18.5064 17.6521C18.5386 17.7198 18.5925 17.7726 18.6396 17.8289C18.8773 18.0838 19.0967 18.356 19.3344 18.6132C19.44 18.7269 19.6054 18.7349 19.7202 18.8348C19.9992 19.076 19.9591 19.2299 19.5732 19.3849C19.0404 19.6341 18.6408 20.0199 18.3824 20.5504C18.2791 20.7296 18.1757 20.9087 18.0678 21.0947C17.876 21.0913 17.9403 20.8421 17.7991 20.7789C17.4396 20.5056 16.9814 20.3081 17.0056 19.742V19.7409Z" fill="#FEFDFD"/>
<path id="Vector_39" d="M18.4869 18.0138C18.2928 17.8048 18.2055 17.5326 18.0815 17.2742C17.8289 17.3833 17.8943 17.6968 17.6899 17.8163C16.9573 17.5487 16.227 17.822 15.4989 17.8461C14.2461 17.8874 12.9967 18.0402 11.7451 18.1389C9.88707 18.2859 8.02793 18.4318 6.16879 18.5718C4.95386 18.6637 3.73664 18.7188 2.52516 18.8371C1.73051 18.9152 0.925538 18.8739 0.141232 19.0564C0.140084 18.8279 0.138935 18.5983 0.137787 18.3697C0.579892 17.9678 1.08745 17.9816 1.61683 18.1389C1.76956 18.2159 1.92228 18.2928 2.07501 18.3697C2.15884 18.364 2.23922 18.3399 2.31961 18.3146C2.61013 18.1676 2.93511 18.2078 3.24171 18.1458C3.38755 18.1745 3.53453 18.1918 3.68267 18.1918C3.95712 18.1975 4.22812 18.1826 4.48994 18.0919C4.70238 18.0769 4.91597 18.0861 5.12956 18.0758C5.34085 18.0712 5.5441 18.0195 5.74965 17.9782C5.9265 17.9644 6.10334 17.9713 6.28018 17.9621C6.48458 17.9575 6.68209 17.9116 6.87846 17.8645C6.96458 17.8553 7.05185 17.853 7.13913 17.8519C7.40324 17.8553 7.66047 17.814 7.91539 17.7485C8.00496 17.7393 8.09568 17.737 8.18525 17.7336C8.43673 17.7336 8.67673 17.6555 8.92362 17.6256C10.3786 17.4855 11.8381 17.4029 13.2827 17.1778C13.7386 17.1663 14.1944 17.1422 14.6434 17.0515C14.7399 17.048 14.8375 17.048 14.934 17.0469C15.2578 17.0572 15.5747 17.0009 15.8905 16.9389C16.9872 16.8207 18.0838 16.7116 19.1793 16.5864C19.6478 16.5921 20.1049 16.4658 20.5745 16.4807C20.8455 16.4888 21.0476 16.5623 21.1498 16.8275C21.1866 17.1031 21.2119 17.3799 21.1188 17.6509C20.6813 17.9782 20.1531 17.8656 19.6651 17.938C19.2781 17.9954 18.8773 17.9414 18.4857 18.0126L18.4869 18.0138Z" fill="#FE4435"/>
<path id="Vector_40" d="M17.0055 19.7408C17.3742 20.0073 17.6624 20.3334 17.799 20.7778C15.8607 20.9248 13.9223 21.0718 11.9839 21.2176C10.862 21.3014 9.74009 21.3818 8.61933 21.4679C6.71885 21.6126 4.81952 21.7619 2.91904 21.9043C2.63311 21.9261 2.34602 21.925 2.06009 21.9273C1.79253 21.9296 1.56057 21.9801 1.49397 22.2901C1.10583 21.9847 0.855498 21.5793 0.654541 21.1384C1.35502 20.9133 2.0911 20.9776 2.8065 20.9156C5.55215 20.6767 8.30469 20.5171 11.0538 20.3104C12.8739 20.1738 14.6905 20.0118 16.5095 19.8545C16.6771 19.8396 16.8413 19.7799 17.0067 19.7408H17.0055Z" fill="#FE3C34"/>
<path id="Vector_41" d="M19.5721 19.3849C19.5881 19.2792 19.9349 19.2689 19.6582 19.0794C19.4917 18.9657 19.3275 18.8486 19.1621 18.7338C19.1173 18.1929 19.556 18.1963 19.8844 18.1332C20.3874 18.0356 20.9064 18.1435 21.4163 18.0838C21.7332 18.1206 22.0191 17.9345 22.3338 17.9586C22.6335 17.9805 22.9229 17.8863 23.2203 17.8863C23.4683 17.8863 23.7049 17.9139 23.8622 18.1412C23.8622 18.4857 23.8622 18.8291 23.8622 19.1736C22.4314 19.2402 21.0086 19.4825 19.5698 19.3849H19.5721Z" fill="#FE3F34"/>
<path id="Vector_42" d="M22.2339 18.1263C21.9812 18.1676 21.7286 18.2101 21.476 18.2515C21.236 18.124 20.7835 18.1814 20.9776 17.6773C20.9891 17.4132 21.0006 17.1491 21.012 16.885C20.9822 16.5428 20.8111 16.1776 21.1682 15.8974C21.399 15.36 21.6999 14.8582 21.9732 14.3426C22.1213 13.8075 22.483 13.3366 22.4394 12.7464C22.4394 12.6327 22.436 12.519 22.4256 12.4054C22.4153 12.2905 22.3866 12.1803 22.3636 12.0677C22.4061 11.7807 22.3843 11.4982 22.3097 11.2191C22.2683 11.0193 22.1535 10.8448 22.1167 10.6438C22.1167 10.5129 22.181 10.4176 22.2855 10.3464C22.3602 10.3487 22.4348 10.351 22.5106 10.3521C22.7632 10.4991 22.823 10.7965 23.0159 10.9906C23.0825 11.1617 23.0021 11.3213 22.9768 11.4844L23.0894 11.7106C23.1709 11.768 23.125 11.8794 23.1904 11.9437C23.3925 12.6293 23.6739 13.2919 23.7795 14.005C23.7749 14.2036 23.7129 14.4069 23.8323 14.5952C23.8151 14.9765 23.7979 15.3577 23.7807 15.7401C23.8151 16.1627 23.7497 16.5761 23.6027 16.9654C23.365 17.5958 22.9183 18.0069 22.2362 18.1275L22.2339 18.1263Z" fill="#FEFAF9"/>
<path id="Vector_43" d="M22.2339 18.1263C23.1009 17.5579 23.5315 16.707 23.7784 15.7378C23.9839 16.5324 23.8369 17.3397 23.8634 18.1401C23.3202 18.1355 22.777 18.1309 22.2339 18.1252V18.1263Z" fill="#FE4235"/>
<path id="Vector_44" d="M0.136658 13.2057C0.520198 13.2138 0.902591 13.2103 1.2735 13.0909C1.2735 13.5881 1.2735 14.0853 1.2735 14.5826C0.904887 15.0327 0.624696 15.0614 0.137806 14.6985C0.137806 14.2013 0.137806 13.7041 0.137806 13.2069L0.136658 13.2057Z" fill="#FE5337"/>
<path id="Vector_45" d="M0.136652 14.6974C0.516748 14.6779 0.908327 14.7571 1.27235 14.5814C1.27235 15.0408 1.27235 15.5001 1.27235 15.9594C0.806126 16.4119 0.610911 16.4314 0.137801 16.0742C0.128614 15.6528 0.119427 15.2314 0.111389 14.8099C0.120576 14.772 0.128614 14.7341 0.137801 14.6974H0.136652Z" fill="#FE4F36"/>
<path id="Vector_46" d="M0.136649 16.0754C0.522486 16.1087 0.894544 16.0168 1.27119 15.9606C1.27119 16.4199 1.27119 16.8781 1.27119 17.3374C0.893395 17.7049 0.515596 17.667 0.136649 17.3374C0.127462 17.2984 0.117127 17.2593 0.107941 17.2214C0.117127 16.839 0.126314 16.4578 0.136649 16.0754Z" fill="#FE4A36"/>
<path id="Vector_47" d="M0.137787 17.3374C0.515586 17.3374 0.893385 17.3374 1.27233 17.3374C1.38716 17.605 1.502 17.8725 1.61683 18.1401C1.14716 18.364 0.644198 18.3789 0.137787 18.3709C0.137787 18.0264 0.137787 17.683 0.137787 17.3386V17.3374Z" fill="#FE4735"/>
<path id="Vector_48" d="M18.8635 7.4928C18.8291 7.50888 18.7969 7.53414 18.7613 7.54103C17.9016 7.69567 17.4641 8.20285 17.4488 9.06256C17.4224 10.467 17.3937 11.8702 17.3569 13.2735C17.35 13.5169 17.3914 13.7248 17.5763 13.8901C17.466 14.0072 17.3386 14.0118 17.2008 13.951C16.9711 13.6582 16.9343 13.2872 16.8023 12.9542C16.5772 12.3824 16.3108 12.2021 15.7229 12.2767C15.058 12.3617 14.9742 12.3089 14.9914 11.6451C15.0132 10.7724 14.903 9.89625 15.0855 9.02352C15.1912 8.5194 14.9684 8.29089 14.4459 8.24036C13.6547 8.16457 13.2654 8.49873 13.2643 9.26467C13.262 10.6013 13.2643 11.9368 13.2632 13.2735C13.2632 13.6375 13.2873 13.9981 13.3964 14.3483C13.2873 14.7341 13.0576 14.8157 12.7177 14.6159C12.573 13.3711 11.9357 12.3077 11.4431 11.1916C11.1973 10.6346 11.0411 10.0421 10.7759 9.49433C10.622 9.1751 10.5118 8.7617 10.0697 8.76629C9.60459 8.77089 9.32095 9.06945 9.15674 9.50467C8.72497 10.6438 8.23693 11.7588 7.76382 12.8807C7.66851 13.1058 7.60306 13.3527 7.3688 13.4894C7.31023 13.502 7.25396 13.4939 7.20114 13.4675C7.00133 13.1219 7.03234 12.6832 6.75444 12.3686C6.52822 11.8943 6.0643 11.7462 5.63023 11.5636C5.40286 11.4683 5.15597 11.4201 4.94928 11.2777C4.831 11.1973 4.75521 11.0848 4.79999 10.9378C4.84593 10.7896 4.97569 10.7517 5.11693 10.746C5.19272 10.7426 5.26851 10.746 5.3443 10.7575C6.271 10.9045 6.42373 10.8115 6.75674 9.91003C6.77167 9.56668 6.53511 9.44151 6.26526 9.37031C5.15712 9.07979 4.14774 9.25892 3.27042 10.026C3.10736 10.1684 2.9799 10.4394 2.74334 10.1121C2.69167 9.42773 3.04765 8.77548 3.70679 8.6239C4.23272 8.50333 4.75062 8.32763 5.31559 8.31156C6.65913 8.27366 7.99923 8.1439 9.32669 7.90046C9.8331 7.80744 10.3544 7.88208 10.87 7.8706C11.0986 7.86486 11.3305 7.88897 11.4959 7.67309C11.5682 7.57778 11.6865 7.5284 11.8013 7.53988C12.7418 7.63979 13.6421 7.26773 14.5745 7.29758C15.8124 7.33663 17.0193 6.92323 18.2653 7.06447C18.5581 7.09778 18.8624 7.07366 18.8658 7.49395L18.8635 7.4928Z" fill="#FEEB14"/>
<path id="Vector_49" d="M17.6877 11.5992C17.6854 10.4911 17.69 9.38181 17.6773 8.27368C17.6739 8.00152 17.7899 7.90277 18.039 7.87406C19.1208 7.75119 20.2025 7.62257 21.2842 7.48937C21.507 7.46181 21.6103 7.5353 21.5977 7.76152C21.5954 7.79942 21.5977 7.83846 21.6 7.87635C21.6322 8.54009 21.3244 8.90678 20.6767 8.97645C20.3162 9.01549 19.9556 9.07176 19.5939 9.09358C19.2471 9.11425 19.1311 9.27616 19.1724 9.61147C19.2184 9.98238 19.4676 9.81932 19.6478 9.80324C20.1233 9.76076 20.5987 9.71023 21.0729 9.64707C21.3864 9.60573 21.5483 9.70104 21.5219 10.0409C21.5093 10.212 21.5104 10.3854 21.5219 10.5565C21.5449 10.8804 21.4323 11.0423 21.0798 11.0653C20.5849 11.0974 20.0945 11.1962 19.5996 11.2364C19.3125 11.2605 19.1426 11.3167 19.1483 11.6647C19.1552 12.0609 19.4262 11.9322 19.6272 11.9621C19.4894 12.3433 19.2356 12.2492 18.9738 12.1229C18.8475 11.9139 18.6775 11.8094 18.4168 11.8209C18.1562 11.8323 17.8852 11.8209 17.6888 11.5969L17.6877 11.5992Z" fill="#FE5C38"/>
<path id="Vector_50" d="M12.743 14.4574C12.9657 14.6423 13.1414 14.4999 13.3194 14.3759C13.4687 14.114 13.7535 14.137 13.9808 14.1118C14.9466 14.0027 15.9089 13.8649 16.8792 13.8006C16.9975 13.7925 17.1077 13.7914 17.1962 13.8844C17.3225 13.8867 17.4488 13.889 17.5751 13.8913C18.4869 13.7879 19.3986 13.6834 20.3104 13.5801C20.0635 14.1588 19.525 14.3253 18.9944 14.3919C18.0631 14.5091 17.1307 14.6365 16.1994 14.7192C15.3944 14.7904 14.5952 14.9156 13.7879 14.9776C13.0025 15.0373 12.2193 15.1877 11.4316 15.2624C10.5921 15.3416 9.75731 15.4599 8.91788 15.5391C8.13357 15.6138 7.35156 15.7206 6.5707 15.8228C5.73242 15.9318 4.89415 16.0524 4.05128 16.1064C3.69644 16.1294 3.36113 16.3705 2.99137 16.2006C2.41606 15.9732 2.39539 15.9204 2.52171 14.9925C2.67788 14.7594 2.87884 14.8547 3.06601 14.9294C3.34046 15.0396 3.60687 15.1717 3.90429 15.2176C4.26946 15.3267 4.63577 15.3519 5.00439 15.2302C5.45912 15.1774 5.84152 14.9374 6.23998 14.7399C6.41683 14.6561 6.57415 14.5033 6.79692 14.5768C7.36419 14.9696 7.9751 14.9523 8.61128 14.5229C9.40247 13.7121 10.2809 13.6352 11.2203 14.2863C11.4936 14.4115 11.7669 14.4092 12.0574 14.3391C12.294 14.2817 12.55 14.23 12.7452 14.4597L12.743 14.4574Z" fill="#FEEB14"/>
<path id="Vector_51" d="M3.10621 16.0742C4.3154 15.91 5.52114 15.6953 6.73492 15.5931C8.21052 15.4691 9.67004 15.2153 11.1491 15.1165C12.2905 15.0407 13.4216 14.803 14.5608 14.6698C15.6976 14.5366 16.8413 14.4666 17.9759 14.3219C18.7923 14.2174 19.6501 14.1967 20.3104 13.5778C20.3897 13.5732 20.47 13.5686 20.5493 13.564C20.7043 14.0555 20.2771 14.1852 20.0084 14.3908C19.8706 14.4964 19.6708 14.5297 19.5077 14.617C19.4113 14.6365 19.3137 14.648 19.2161 14.6572C17.1939 14.8478 15.1786 15.1028 13.1644 15.3473C10.7345 15.6413 8.30353 15.9204 5.87368 16.2143C5.01014 16.3188 4.14774 16.4899 3.27042 16.4761C3.06372 16.4727 2.84669 16.5117 2.66411 16.3659C2.58832 16.2798 2.57109 16.1845 2.62047 16.0788C2.78238 15.9858 2.9443 15.9916 3.10736 16.0742H3.10621Z" fill="#FEE612"/>
<path id="Vector_52" d="M18.8635 7.4928C18.6649 7.28151 18.4122 7.25051 18.1355 7.23328C16.7449 7.14831 15.3887 7.51692 13.9969 7.52725C13.386 7.53185 12.6304 7.48017 12.1114 7.74314C11.133 8.23807 10.0697 7.79137 9.12917 8.23118C9.07865 8.25414 9.01549 8.26792 8.96152 8.26218C7.73855 8.11979 6.55807 8.61701 5.3374 8.50103C4.78965 8.44936 4.28669 8.67673 3.79176 8.82142C3.24056 8.98333 2.75941 9.484 2.88114 10.2327C2.99023 10.5221 3.04764 10.7839 2.59635 10.7839C2.35176 10.3981 2.52975 9.97089 2.47578 9.56668C2.46774 8.97988 2.75712 8.55615 3.30027 8.41031C3.80783 8.27481 4.3085 8.05089 4.85625 8.09912C6.12975 8.18869 7.36764 7.71099 8.64573 7.86716C9.47023 7.27003 10.5072 7.73395 11.3684 7.31941C12.6201 7.24017 13.8706 7.10811 15.1119 6.96917C16.1742 6.85089 17.2318 6.844 18.2917 6.78658C18.898 6.75443 19.4446 6.96343 19.9028 7.37453C19.5663 7.50658 19.2126 7.48132 18.8624 7.4928H18.8635Z" fill="#FEE613"/>
<path id="Vector_53" d="M19.9028 7.37453C18.8211 6.89798 17.6612 6.90716 16.5439 7.03807C15.2762 7.18621 13.9878 7.11846 12.7338 7.4308C12.302 7.53759 11.8255 7.46181 11.3696 7.4687C11.0664 7.63635 10.7564 7.62602 10.4429 7.4997C10.3016 7.11616 10.5749 7.08975 10.8264 7.07482C11.257 7.04841 11.69 7.07941 12.1206 7.05185C12.3675 7.03578 12.5983 6.95999 12.8256 6.86812C14.1141 6.88879 15.3703 6.48803 16.6691 6.59367C17.1089 6.62927 17.5166 6.33759 17.9931 6.36171C18.5592 6.39042 19.0909 6.41913 19.5319 6.83137C19.626 6.9198 19.7707 6.94621 19.8947 6.99558C20.013 7.11271 20.1313 7.2287 20.2496 7.34582C20.1347 7.35501 20.0188 7.36535 19.9028 7.37453Z" fill="#FDDD12"/>
<path id="Vector_54" d="M22.6312 12.3996C22.6737 12.5156 22.6783 12.6316 22.6209 12.7453C22.4107 13.2666 22.2304 13.8052 21.7286 14.1428C21.6138 14.2197 21.5839 14.3598 21.5334 14.4815C21.1613 15.0235 20.6389 15.4427 20.2932 16.0065C20.0429 16.4406 19.6237 16.6254 19.1724 16.7621C18.0678 16.9183 16.9596 17.0423 15.8458 17.1077C15.5541 17.2616 15.2188 17.0676 14.9271 17.2214C14.8502 17.2214 14.7744 17.2214 14.6974 17.2214C14.5918 17.1537 14.4965 17.0825 14.5803 16.9366C14.6216 16.8919 14.6722 16.8609 14.7296 16.8425C15.8584 16.6587 16.9987 16.5841 18.1355 16.475C18.7613 16.4153 19.2735 16.1833 19.6559 15.6792C19.9797 15.2543 20.3185 14.8421 20.6435 14.4184C20.942 14.0291 21.2452 13.641 21.6873 13.3952C21.7263 13.3309 21.7642 13.2677 21.8033 13.2034C21.9365 13.022 21.9996 12.8004 22.1305 12.6189C22.25 12.4513 22.3763 12.271 22.6301 12.4008L22.6312 12.3996Z" fill="#FE552F"/>
<path id="Vector_55" d="M21.4771 13.1127C20.2254 13.3757 18.9634 13.5399 17.6819 13.5422C17.5935 13.3366 17.5935 13.1311 17.683 12.9255C17.8829 12.7349 18.1148 12.6235 18.3973 12.6316C19.1931 12.6557 19.9854 12.5948 20.7766 12.519C21.0189 12.4961 21.275 12.4869 21.4633 12.6982C21.5495 12.8337 21.5426 12.9726 21.476 13.1127H21.4771Z" fill="#FE4135"/>
<path id="Vector_56" d="M22.2855 10.3441C22.2855 10.4429 22.2832 10.5416 22.2832 10.6415C22.2695 10.7701 22.2809 10.8964 22.312 11.0216C22.3694 11.497 22.4865 11.9793 22.0949 12.3858C22.0145 12.4696 21.9468 12.55 21.817 12.5167C21.809 12.4226 21.7975 12.3284 21.7952 12.2331C21.7734 11.4511 21.7642 11.4499 20.9581 11.5717C20.7158 11.6084 20.4666 11.5946 20.2209 11.6038C20.0383 11.7221 19.8201 11.6004 19.6341 11.6934C19.564 11.6876 19.463 11.7244 19.4503 11.6187C19.4342 11.4763 19.5629 11.4855 19.6455 11.4855C20.2151 11.4878 20.7617 11.3179 21.3232 11.2616C21.5667 11.2375 21.7343 11.1629 21.7332 10.8999C21.7309 10.4096 21.8377 9.91577 21.693 9.43003C21.5127 9.30257 21.3198 9.36228 21.128 9.39213C20.6032 9.43692 20.0876 9.60228 19.417 9.50582C20.2277 9.15788 20.9891 9.23826 21.7068 9.09702C22.0593 9.43807 22.0915 9.9284 22.2855 10.3429V10.3441Z" fill="#FDDE18"/>
<path id="Vector_57" d="M21.6873 13.3952C20.9776 14.2932 20.2714 15.1935 19.5571 16.088C19.3057 16.4027 18.9543 16.5749 18.5673 16.6163C17.2777 16.7552 15.9858 16.8689 14.6951 16.9918C14.5768 16.9252 14.4976 16.8436 14.586 16.7001C14.8203 16.5428 15.0798 16.4693 15.3623 16.4762C15.4542 16.4762 15.5449 16.4762 15.6368 16.4762C15.9376 16.4635 16.2465 16.5232 16.5324 16.3797C17.3799 16.2775 18.2584 16.3625 19.0611 15.9789C19.2505 15.8664 19.3654 15.6873 19.4768 15.5058C19.6892 15.2785 19.8982 15.0499 20.098 14.8122C20.547 14.377 20.7881 13.7454 21.391 13.4584C21.4898 13.4377 21.5885 13.417 21.6873 13.3964V13.3952Z" fill="#FE4232"/>
<path id="Vector_58" d="M21.4771 13.1127C21.4633 12.9921 21.4507 12.8716 21.4369 12.751C21.2141 12.4065 20.8651 12.503 20.5596 12.5317C19.7868 12.6063 19.0151 12.6453 18.24 12.635C18.0069 12.6316 17.7818 12.635 17.644 12.4019C17.6245 12.2446 17.5866 12.0861 17.6762 11.9357L17.6739 11.9403C18.1332 11.6808 18.5914 11.8082 19.0496 11.9472C19.2379 12.0861 19.4296 12.0838 19.626 11.9632C20.1324 11.9012 20.6434 11.8587 21.1452 11.7692C21.4978 11.706 21.5919 11.8461 21.5632 12.1573C21.5334 12.4754 21.5058 12.7935 21.476 13.1116L21.4771 13.1127Z" fill="#FE5138"/>
<path id="Vector_59" d="M21.817 12.5167C22.1501 12.0252 22.1937 11.4717 22.1592 10.901C22.3648 10.8402 22.3981 11.0205 22.4808 11.1318C22.5738 11.427 22.6553 11.7232 22.6128 12.0379C22.4096 12.3881 22.2683 12.7923 21.8205 12.9232C21.8193 12.7877 21.8182 12.6522 21.8159 12.5179L21.817 12.5167Z" fill="#FCD012"/>
<path id="Vector_60" d="M21.391 13.4572C21.0408 13.982 20.6389 14.4677 20.2094 14.9294C19.9579 14.9937 19.8212 15.3841 19.4767 15.1889C19.4033 15.1234 19.3677 15.0385 19.3585 14.942C19.355 14.8513 19.3642 14.7617 19.4124 14.6813C20.0486 14.4425 20.493 13.9384 20.9971 13.5192C21.128 13.4986 21.2589 13.4779 21.3899 13.4572H21.391Z" fill="#FDCC0E"/>
<path id="Vector_61" d="M20.9983 13.5192C20.6216 14.0601 20.3104 14.6813 19.5169 14.6986C19.4549 14.6216 19.4469 14.5447 19.5169 14.4677C19.8258 14.1267 20.392 14.0796 20.5504 13.5652C20.6997 13.5502 20.8501 13.5353 20.9994 13.5192H20.9983Z" fill="#FDDC11"/>
<path id="Vector_62" d="M19.0507 11.946C18.5914 12.1665 18.1332 12.0046 17.675 11.9391C17.6796 11.8255 17.6842 11.7118 17.6888 11.5981C18.0057 11.5981 18.3227 11.6015 18.6385 11.6004C18.8739 11.6004 19.0392 11.6808 19.0507 11.9449V11.946Z" fill="#FE5337"/>
<path id="Vector_63" d="M21.8205 12.9221C22.0846 12.627 22.3487 12.3319 22.6128 12.0367C22.6817 12.155 22.6691 12.2767 22.63 12.3996C22.2718 12.5822 22.1776 13.0369 21.8033 13.2023C21.809 13.1081 21.8147 13.0151 21.8205 12.921V12.9221Z" fill="#FE492F"/>
<path id="Vector_64" d="M17.6762 11.9357C17.6877 12.0964 17.698 12.2561 17.7095 12.4168C17.8737 12.604 17.8565 12.7912 17.7106 12.9795C17.7014 13.1667 17.6911 13.355 17.6819 13.5422C17.559 13.0071 17.5969 12.4719 17.6762 11.9357Z" fill="#FE5337"/>
<path id="Vector_65" d="M21.1281 9.39213C21.3244 9.2796 21.5139 9.26811 21.693 9.43003C21.5047 9.4174 21.3164 9.40476 21.1281 9.39213Z" fill="#FEEC25"/>
<path id="Vector_66" d="M19.6341 11.6922C19.8166 11.5763 20.0188 11.5935 20.2209 11.6027C20.036 11.7003 19.8362 11.7049 19.6341 11.6922Z" fill="#FEEC22"/>
<path id="Vector_67" d="M3.6781 18.3663C3.52537 18.3663 3.37379 18.3675 3.22106 18.3686C2.89034 18.5213 2.52173 18.3342 2.18987 18.4811C2.15082 18.4433 2.11293 18.4065 2.07388 18.3686C1.0691 16.9654 1.50546 15.3577 1.54451 13.8511C1.5847 12.3066 1.5801 10.7621 1.61111 9.21876C1.63408 8.06469 2.01647 7.65014 3.17743 7.5801C3.538 7.55828 3.89628 7.50431 4.2557 7.46526C4.98604 7.49397 5.70374 7.28038 6.43522 7.35043C6.58451 7.33321 6.58451 7.41129 6.54202 7.51694C6.09991 7.80861 5.61073 7.90507 5.08824 7.86718C4.93436 7.86718 4.77934 7.86603 4.62546 7.87177C4.05475 7.98316 3.46795 7.95904 2.89609 8.07388C2.41953 8.17034 2.10604 8.4023 2.05207 8.91215C1.97513 10.1145 2.03369 11.3167 2.01762 12.519C2.10144 13.5319 2.06814 14.5458 2.07388 15.5598C2.01188 15.933 2.02336 16.3062 2.08077 16.6771C2.06355 16.8597 2.03714 17.0423 2.08422 17.2237C2.19561 17.6762 2.49647 17.8151 2.93628 17.76C3.34738 17.7095 3.76766 17.7451 4.17188 17.6268C4.26144 17.6211 4.35101 17.6211 4.44173 17.6199C5.14566 17.6199 5.83695 17.5028 6.53054 17.4029C6.95427 17.4029 7.3757 17.3512 7.80058 17.3673C7.93149 17.4419 7.99695 17.5464 7.94872 17.7003C7.90623 17.752 7.85226 17.7899 7.7891 17.8128C6.70393 17.9173 5.62566 18.1011 4.5336 18.1389C4.25111 18.2205 3.93877 18.1929 3.67924 18.364L3.6781 18.3663Z" fill="#FE3026"/>
<path id="Vector_68" d="M19.4021 6.20553C19.3516 6.25032 19.3011 6.29625 19.2494 6.34103C19.1989 6.3996 19.1368 6.46161 19.0611 6.45816C17.4316 6.38008 15.8343 6.7039 14.2209 6.83252C14.1244 6.84055 14.0314 6.82677 13.9407 6.79462C13.8431 6.74065 13.7868 6.66027 13.7765 6.54888C14.3162 6.32036 14.8984 6.43175 15.4588 6.34677C16.4681 6.1929 17.4959 6.155 18.5144 6.0528C18.8302 6.02065 19.1162 6.09299 19.401 6.20668L19.4021 6.20553Z" fill="#FE4331"/>
<path id="Vector_69" d="M13.7776 6.54773C13.8178 6.59022 13.8568 6.63385 13.897 6.67634C13.8993 6.79003 13.8281 6.875 13.7305 6.86811C13.1541 6.82218 12.6189 7.11385 12.0448 7.06677C11.7922 7.06448 11.5453 7.15519 11.2903 7.115C11.1399 7.08055 10.9837 7.05644 10.9091 6.89338C10.947 6.85548 10.986 6.81759 11.0239 6.77854C11.2926 6.77854 11.5625 6.77625 11.8312 6.7751C12.0965 6.7372 12.3629 6.69931 12.6281 6.66141C12.8406 6.51787 13.1058 6.69471 13.3183 6.54888C13.471 6.54888 13.6237 6.54888 13.7765 6.54773H13.7776Z" fill="#FE3C2C"/>
<path id="Vector_70" d="M13.3194 6.55004C13.1081 6.70392 12.8647 6.65454 12.6293 6.66258C12.8406 6.511 13.0852 6.55808 13.3194 6.55004Z" fill="#FE4331"/>
<path id="Vector_71" d="M23.1893 11.9426C23.156 11.8645 23.1227 11.7875 23.0882 11.7094C23.1617 11.6348 23.2341 11.5602 23.3076 11.4844C23.5855 11.7186 23.195 11.7806 23.1893 11.9426Z" fill="#FE5C38"/>
<path id="Vector_72" d="M22.9757 11.4832C22.9217 11.3386 22.8677 11.1939 22.8138 11.0492C22.7942 10.8919 22.8195 10.7541 22.9803 10.6783C23.0457 10.5359 23.1112 10.3923 23.1766 10.2499C23.5441 10.7288 23.5051 10.9699 22.9757 11.4832Z" fill="#FCC411"/>
<path id="Vector_73" d="M22.9814 10.6783C22.9263 10.8023 22.87 10.9251 22.8149 11.0492C22.7139 10.8161 22.6128 10.5829 22.5106 10.3498C22.7575 10.3315 22.8574 10.5221 22.9814 10.6783Z" fill="#FE4940"/>
<path id="Vector_74" d="M6.54888 7.45606C6.51099 7.42161 6.47195 7.38716 6.43405 7.35271C6.43405 7.31482 6.43405 7.27692 6.43405 7.23788C6.77855 7.20688 7.14027 7.32056 7.4664 7.12305C8.15998 7.18046 8.84324 7.03578 9.53223 7.00822C9.71597 6.89683 9.91807 6.97377 10.1098 6.9508C10.2695 6.97262 10.4429 6.89683 10.5875 7.0197C10.3946 7.41702 10.0099 7.23214 9.71252 7.31482C9.51501 7.36994 9.31979 7.41817 9.11424 7.41243C8.50219 7.49855 7.88094 7.50544 7.27233 7.62372C7.14142 7.63979 7.01051 7.63865 6.87845 7.63176C6.7418 7.62142 6.61549 7.59271 6.54774 7.45491L6.54888 7.45606Z" fill="#FE332B"/>
<path id="Vector_75" d="M10.5807 7.01395C10.4233 7.01165 10.2649 7.0105 10.1075 7.0082C10.0295 6.97031 10.0295 6.93241 10.1075 6.89452C10.3751 6.89452 10.6427 6.89452 10.9102 6.89337C11.0251 6.92667 11.1399 6.95883 11.2536 6.99213C11.0354 7.18619 10.8092 7.15749 10.5807 7.01395Z" fill="#FE372A"/>
<path id="Vector_76" d="M10.1075 6.89452C10.1075 6.93242 10.1075 6.97031 10.1075 7.00821C9.91578 7.00821 9.72516 7.00821 9.53339 7.00821C9.70564 6.875 9.91004 6.89682 10.1075 6.89452Z" fill="#FE3C2C"/>
<path id="Vector_77" d="M11.9552 6.92554C12.6063 6.87042 13.2643 6.86927 13.897 6.6775C15.4082 6.69013 16.893 6.38238 18.3973 6.29855C18.6878 6.28248 18.9669 6.29626 19.2494 6.34104C19.4641 6.55922 19.6788 6.77741 19.8947 6.99444C19.641 7.0243 19.4124 6.96803 19.1851 6.83942C18.5156 6.46047 17.8186 6.42602 17.1043 6.71769C17.0354 6.7464 16.955 6.77396 16.8827 6.76707C15.5276 6.62238 14.2105 7.08975 12.8601 7.00822C12.5443 7.13109 12.2251 7.28611 11.9529 6.92439L11.9552 6.92554Z" fill="#FDD511"/>
<path id="Vector_78" d="M20.9776 17.6773C21.0523 17.9483 21.2509 18.1114 21.476 18.2515C20.996 18.3617 20.5068 18.3537 20.0199 18.3893C19.7122 18.4111 19.3711 18.4283 19.1621 18.7338C18.875 18.5523 18.6477 18.3146 18.4857 18.0149C18.5225 17.8806 18.5868 17.7244 18.728 17.7301C19.479 17.7565 20.222 17.4511 20.9765 17.6785L20.9776 17.6773Z" fill="#FE4235"/>
<path id="Vector_79" d="M19.1713 16.7621C19.5146 16.4934 19.8201 16.1868 20.09 15.8446C20.3506 15.6907 20.6285 15.5747 20.9294 15.5541C21.2234 15.5345 21.4565 15.6149 21.3657 15.995C21.1556 16.2545 21.1694 16.6036 21.0121 16.885C20.7112 16.5703 20.3414 16.8195 20.0073 16.7713C19.734 16.7311 19.4503 16.7632 19.1713 16.7632V16.7621Z" fill="#FE4735"/>
<path id="Vector_80" d="M13.3206 17.3374C12.4697 17.5556 11.5889 17.5487 10.7242 17.6693C10.1041 17.7554 9.47139 17.7566 8.8444 17.7967C8.72038 17.8381 8.69971 17.76 8.69397 17.6658C8.73646 17.5476 8.82947 17.4798 8.93627 17.427C9.02124 17.4029 9.10852 17.3971 9.19579 17.3914C9.40134 17.3845 9.59655 17.3179 9.79866 17.2869C9.94794 17.2777 10.0984 17.2788 10.2477 17.2697C10.6427 17.226 11.0331 17.1342 11.435 17.1583C11.6509 17.156 11.8588 17.102 12.0689 17.0607C12.1941 17.0515 12.3181 17.0503 12.4421 17.0664C12.7234 17.1939 13.0886 17.0538 13.3217 17.3374H13.3206Z" fill="#FE492E"/>
<path id="Vector_81" d="M4.36936 18.0253C5.51654 17.9104 6.66372 17.7956 7.81204 17.6808C7.89702 17.8002 8.20018 17.5935 8.15424 17.9093H7.92688C7.67539 18.0631 7.37453 17.8725 7.12305 18.0241C7.04726 18.0241 6.97032 18.0241 6.89453 18.0241C6.72343 18.1642 6.49147 18 6.31922 18.1389C6.1286 18.1389 5.93683 18.1389 5.74621 18.1401C5.57511 18.2779 5.34429 18.1148 5.17204 18.2538C4.94238 18.2538 4.71271 18.2526 4.48305 18.2515C4.38889 18.2044 4.30046 18.1539 4.36936 18.0253Z" fill="#FE3528"/>
<path id="Vector_82" d="M13.3206 17.3374C13.0128 17.311 12.6901 17.4075 12.4019 17.2226C12.449 17.133 12.5271 17.0848 12.6235 17.0641C12.9899 17.0147 13.3493 16.9033 13.7259 16.9309C13.9384 16.9309 14.1462 16.8861 14.3552 16.862C14.4494 16.8746 14.524 16.9217 14.5826 16.9952C14.6205 17.071 14.6584 17.1468 14.6963 17.2214C14.2473 17.3719 13.7811 17.3328 13.3194 17.3374H13.3206Z" fill="#FE502F"/>
<path id="Vector_83" d="M4.36938 18.0252C4.40728 18.101 4.44517 18.1768 4.48307 18.2515C4.22814 18.3847 3.95254 18.3697 3.67809 18.3663C3.68498 18.2894 3.31981 18.24 3.65398 18.147C3.88594 18.0827 4.13053 18.0643 4.36938 18.0252Z" fill="#FE332B"/>
<path id="Vector_84" d="M8.15424 17.9093C8.04056 17.8335 7.92573 17.7565 7.81204 17.6808C7.84994 17.6808 7.88783 17.6808 7.92573 17.6808C8.04056 17.5246 8.20821 17.5154 8.38046 17.5177C8.51941 17.5246 8.65032 17.5475 8.72955 17.6831C8.76745 17.7209 8.80534 17.7588 8.84439 17.7967C8.63309 17.9506 8.3885 17.9012 8.15424 17.9104V17.9093Z" fill="#FE4335"/>
<path id="Vector_85" d="M2.18985 18.4811C2.51712 18.2871 2.87655 18.3996 3.22105 18.3686C2.89492 18.565 2.53435 18.4536 2.18985 18.4811Z" fill="#FE332B"/>
<path id="Vector_86" d="M14.9259 17.2214C15.2142 17.0366 15.5368 17.1319 15.8446 17.1077C15.5564 17.2915 15.2348 17.1985 14.9259 17.2214Z" fill="#FE502F"/>
<path id="Vector_87" d="M7.12192 18.0241C7.3711 17.8541 7.65474 17.9265 7.92575 17.9093C7.67656 18.0815 7.39292 18.0069 7.12192 18.0241Z" fill="#FE4335"/>
<path id="Vector_88" d="M6.31808 18.1389C6.49033 18.0057 6.69474 18.0264 6.8934 18.0241C6.72115 18.1585 6.51675 18.1355 6.31808 18.1389Z" fill="#FE4335"/>
<path id="Vector_89" d="M5.1709 18.2538C5.34315 18.1206 5.5464 18.1424 5.74506 18.1401C5.57281 18.2733 5.36956 18.2503 5.1709 18.2538Z" fill="#FE4335"/>
<path id="Vector_90" d="M23.3328 16.1971C23.1445 16.885 22.7655 17.4362 22.1546 17.814C21.9364 17.9483 21.6907 18.0356 21.4519 17.8955C21.1958 17.7462 21.2107 17.4706 21.2509 17.2272C21.3129 16.8517 21.4254 16.4865 21.6517 16.1684C22.0295 15.9548 22.4337 15.8848 22.862 15.9376C23.0561 15.9617 23.2432 15.9893 23.334 16.1971H23.3328Z" fill="#FE4536"/>
<path id="Vector_91" d="M23.2697 13.0921C23.3845 13.7765 23.6877 14.4379 23.528 15.1556C22.9413 15.6046 22.5152 15.6057 22.1845 15.159C22.5129 14.493 22.7805 13.8063 22.9045 13.0702C23.0308 13.0036 23.1537 12.9898 23.2697 13.0909V13.0921Z" fill="#FE4B37"/>
<path id="Vector_92" d="M21.3657 15.995C21.2899 15.7573 21.1188 15.7791 20.919 15.8032C20.6457 15.8377 20.3667 15.8319 20.0899 15.8446C20.4861 15.3267 20.8685 14.7973 21.3519 14.3529C21.6563 14.1875 21.9732 13.9441 22.1638 14.485C21.9445 15.0132 21.6792 15.5173 21.3657 15.9962V15.995Z" fill="#FE4A36"/>
<path id="Vector_93" d="M22.1845 15.1602C22.6323 15.3761 23.079 15.0603 23.528 15.1567C23.4993 15.5104 23.5188 15.8733 23.334 16.1983C22.7747 16.1213 22.2098 16.3028 21.6517 16.1696C21.786 15.8101 21.956 15.4702 22.1856 15.1613L22.1845 15.1602Z" fill="#FE4836"/>
<path id="Vector_94" d="M22.1638 14.4838C21.9169 14.2909 21.6264 14.3713 21.352 14.3518C21.693 13.7512 22.1937 13.2769 22.6197 12.7441C22.6381 13.3688 22.4842 13.9476 22.1638 14.4827V14.4838Z" fill="#FE4F37"/>
<path id="Vector_95" d="M23.2696 13.092C23.1479 13.0851 23.0262 13.0783 22.9045 13.0714C22.924 12.8658 22.9424 12.6591 22.9699 12.3651C23.1709 12.6178 23.2019 12.8635 23.2696 13.092Z" fill="#FE523A"/>
<path id="Vector_96" d="M22.4808 11.1319C22.374 11.0549 22.266 10.978 22.1592 10.9011C22.1546 10.792 22.1914 10.7035 22.2832 10.6404C22.4107 10.7793 22.4693 10.9458 22.4819 11.1307L22.4808 11.1319Z" fill="#FE6459"/>
<path id="Vector_97" d="M17.1962 13.8833C15.9043 14.0475 14.6124 14.2105 13.3194 14.3747C13.0553 14.2886 13.0714 14.067 13.0725 13.8568C13.0829 12.1401 13.1001 10.4233 13.1035 8.7066C13.1035 8.32421 13.262 8.18067 13.6421 8.13588C15.4185 7.92804 15.2658 7.80287 15.182 9.55177C15.1475 10.2752 15.1785 11.0021 15.151 11.7255C15.1372 12.0988 15.275 12.2078 15.6207 12.1171C15.7309 12.0884 15.848 12.0896 15.9594 12.0666C16.4451 11.9667 16.7747 12.1033 16.8907 12.6293C16.9837 13.0484 17.3167 13.4101 17.195 13.8821L17.1962 13.8833Z" fill="#FEFCB6"/>
<path id="Vector_98" d="M8.73073 14.8122C8.21628 15.0476 7.65819 15.0155 7.11503 15.0672C6.8647 15.0913 6.80154 14.8995 6.78087 14.694C6.50642 14.338 7.05877 14.1749 6.97494 13.8626C7.03695 13.6651 7.14833 13.5089 7.34585 13.4251C7.93149 11.9988 8.5447 10.5818 9.0913 9.14065C9.30833 8.56649 9.75388 8.58716 10.1937 8.53319C10.6301 8.48037 10.707 8.85013 10.8276 9.14295C11.0974 9.7929 11.3581 10.4451 11.6234 11.0963C11.667 11.1904 11.6234 11.2513 11.5453 11.2984C11.1939 11.3408 11.0848 11.0675 10.9814 10.8298C10.8287 10.4807 10.6725 10.1328 10.5256 9.78027C10.4119 9.50926 10.3625 9.1418 9.96173 9.15443C9.6069 9.16592 9.54833 9.49319 9.42546 9.74927C9.07982 10.4716 8.86508 11.2513 8.45628 11.946C8.42298 12.0425 8.37819 12.1355 8.35522 12.2354C8.32077 12.4088 8.17034 12.5305 8.14508 12.7085C8.08192 12.8371 7.99924 12.9588 7.99695 13.1093C7.96824 13.2011 7.90508 13.2758 7.86604 13.3619C7.83503 13.4262 7.79484 13.4848 7.75809 13.5456C7.6892 13.6478 7.67082 13.7661 7.6513 13.8855C7.64671 13.9361 7.64097 13.9866 7.63522 14.0371C7.49398 14.3839 7.56518 14.5424 7.97628 14.4666C8.21628 14.4229 8.4712 14.4 8.68135 14.586C8.73417 14.6538 8.77436 14.7238 8.73073 14.8122Z" fill="#FEFBB4"/>
<path id="Vector_99" d="M2.65953 10.8253C2.73302 10.6277 2.80652 10.4302 2.88001 10.2316C3.82279 9.07176 5.36384 8.68593 6.64996 9.29798C6.94049 9.43578 7.26891 9.57703 7.01398 10.0065C6.93475 10.0019 6.85436 10.0008 6.77972 9.9686C6.43408 9.78947 6.08728 9.61148 5.69341 9.56325C5.44996 9.52535 5.20537 9.5288 4.96078 9.56325C4.57149 9.59884 4.22011 9.7309 3.89858 9.95597C3.08212 10.5267 2.9581 11.4166 3.57819 12.3066C3.64594 12.4042 3.68958 12.5098 3.6735 12.6327C3.65743 12.6936 3.62642 12.7441 3.58049 12.7877C3.08901 12.9611 2.95465 12.5064 2.68709 12.2825C2.6136 12.1079 2.45743 11.9667 2.4735 11.7554C2.53207 11.4454 2.32422 11.0836 2.65609 10.8276L2.65953 10.8253Z" fill="#FEF9AE"/>
<path id="Vector_100" d="M6.88076 9.87328C6.92554 9.91807 6.97033 9.9617 7.01511 10.0065C6.94966 10.1213 6.87961 10.2327 6.82104 10.351C6.52133 10.9562 6.1309 11.3328 5.40171 10.9665C5.27425 10.9022 5.10659 10.9033 4.88267 11.0101C5.60037 11.4189 6.48573 11.4878 6.91061 12.2584C6.96573 12.3594 6.91061 12.4203 6.83253 12.4731C6.67176 12.5362 6.55348 12.4547 6.44095 12.356C6.31693 12.2411 6.19635 12.1217 6.04363 12.0425C5.71406 11.7921 5.29262 11.791 4.92745 11.636C4.61396 11.5028 4.3108 11.3558 4.36822 10.955C4.42793 10.5347 4.75635 10.4015 5.12611 10.4337C5.69339 10.483 6.22277 10.4945 6.56956 9.92495C6.62698 9.83079 6.76363 9.81357 6.88076 9.87213V9.87328Z" fill="#FEF9B1"/>
<path id="Vector_101" d="M11.4936 11.2536C11.5361 11.2008 11.5786 11.1491 11.6222 11.0963C12.031 12.0287 12.4409 12.9611 12.8497 13.8947C12.9416 14.1049 12.9324 14.2978 12.7441 14.4574C12.1722 14.439 11.6141 14.6744 11.0365 14.5562C10.978 14.3851 11.1031 14.2955 11.1962 14.191C11.5131 13.9923 11.9586 14.1244 12.2216 13.7891C12.2526 13.6363 12.1734 13.51 12.1217 13.378C12.0919 13.2551 12.0367 13.1414 11.9965 13.0231C11.9518 12.8164 11.7944 12.6683 11.7164 12.4788C11.6865 12.2584 11.4993 12.1033 11.4672 11.884C11.4304 11.6727 11.2283 11.4534 11.4936 11.2547V11.2536Z" fill="#FEF9B2"/>
<path id="Vector_102" d="M6.77972 12.4031C6.82335 12.3548 6.86699 12.3078 6.90948 12.2595C7.21378 12.5983 7.2333 13.014 7.23216 13.4366C7.1713 13.5709 7.21149 13.7294 7.1311 13.8603C7.15177 14.1967 6.89914 14.4172 6.77857 14.6951C6.62469 14.7663 6.47082 14.8375 6.31694 14.9087C6.24689 14.8593 6.19637 14.7962 6.17455 14.7123C6.11484 14.4299 6.39503 14.3001 6.46278 14.075C6.49493 13.982 6.57991 13.9166 6.59943 13.8167C6.6224 13.6777 6.65685 13.5411 6.71426 13.4113C6.7533 13.2769 6.7912 13.1426 6.71771 13.0071C6.69015 12.9405 6.65914 12.875 6.6534 12.8015C6.66374 12.7051 6.6534 12.6063 6.68326 12.5122C6.70852 12.4697 6.74067 12.4341 6.77972 12.4031Z" fill="#FEF7AA"/>
<path id="Vector_103" d="M7.13225 13.8591C7.12536 13.7087 7.12881 13.5594 7.23331 13.4354C7.2712 13.4354 7.30795 13.432 7.34469 13.4239C7.27465 13.5686 7.20345 13.7133 7.1334 13.858L7.13225 13.8591Z" fill="#FEF56B"/>
<path id="Vector_104" d="M2.66869 11.7841C2.73874 11.9116 2.80879 12.039 2.87998 12.1653C3.09128 12.4892 2.94659 12.821 2.89147 13.1471C2.85013 13.3883 2.82027 13.6283 2.81912 13.8717C2.83175 14.1611 2.61817 14.4241 2.71463 14.7249C2.72496 14.8065 2.70429 14.8788 2.64458 14.9385C2.67673 15.3669 2.48496 15.8859 3.1062 16.0754C2.95348 16.0754 2.7996 16.0754 2.64687 16.0754C2.31845 16.2534 2.1818 16.08 2.14161 15.7814C1.99003 14.6377 2.08994 13.4939 2.15424 12.3514C2.17147 12.0562 2.44821 11.9299 2.66869 11.7852V11.7841Z" fill="#FEE614"/>
<path id="Vector_105" d="M11.2547 14.3793C11.1812 14.4379 11.1089 14.4964 11.0354 14.555C10.6117 13.7202 9.89741 14.0968 9.27387 14.1496C8.90526 14.1807 9.0178 14.6756 8.73072 14.8122C8.68593 14.7709 8.64115 14.7296 8.59521 14.6882C8.4356 14.3862 8.45397 14.1163 8.7422 13.8982C9.00631 13.6857 9.33818 13.6903 9.64478 13.6134C10.0788 13.6616 10.5175 13.4985 10.9504 13.6409C11.1675 13.8396 11.3018 14.0716 11.2547 14.3793Z" fill="#FEF6AE"/>
<path id="Vector_106" d="M2.64459 14.9374C2.60784 14.888 2.57109 14.8387 2.53435 14.7881C2.43559 14.6503 2.50219 14.5677 2.62736 14.5034C2.87081 14.462 3.06602 14.5826 3.26698 14.6894C4.02258 15.0878 4.78851 15.1028 5.57052 14.7629C5.80478 14.6607 6.03789 14.4712 6.31234 14.6745C6.31464 14.7525 6.31693 14.8295 6.31808 14.9076C5.93224 15.1177 5.57971 15.4094 5.1043 15.3956C4.6909 15.4714 4.27636 15.4702 3.86296 15.3956C3.38296 15.4369 3.04765 15.0959 2.64459 14.9363V14.9374Z" fill="#FEF6AF"/>
<path id="Vector_107" d="M3.86298 15.3967C4.27637 15.3967 4.68977 15.3967 5.10432 15.3967C4.69092 15.5276 4.27752 15.5403 3.86298 15.3967Z" fill="#FEF6AD"/>
<path id="Vector_108" d="M19.5158 14.4677C19.5158 14.5447 19.5158 14.6216 19.5158 14.6986C19.5158 14.7743 19.5158 14.8501 19.5146 14.9259C18.8957 15.3244 18.2113 15.4702 17.4855 15.5816C16.4199 15.7458 15.3267 15.6861 14.2806 15.9916C14.0796 16.0501 13.8637 16.0122 13.6547 16.018C12.968 16.0455 12.2652 15.9181 11.6061 16.2247C11.3351 16.2637 11.0618 16.2419 10.7896 16.2476C9.69414 16.1787 8.63654 16.6254 7.53644 16.4785C6.92094 16.4945 6.32037 16.591 5.74046 16.8046C5.36151 16.8517 4.97568 16.7828 4.60017 16.8758C4.32572 16.8999 4.05013 16.9206 3.78027 16.9918C3.71367 16.9849 3.65395 16.9608 3.59998 16.9206C3.49549 16.8149 3.46218 16.6955 3.52534 16.5554C4.1351 16.2442 4.81606 16.2901 5.46486 16.2052C7.02544 16.0019 8.58946 15.8205 10.1535 15.6459C11.9265 15.4484 13.6984 15.2463 15.4691 15.0293C16.7449 14.872 18.0482 14.8731 19.2884 14.4677C19.3653 14.4677 19.4411 14.4677 19.5181 14.4677H19.5158Z" fill="#FEDD0F"/>
<path id="Vector_109" d="M19.2873 14.4677C19.1173 14.7135 18.8486 14.7663 18.5845 14.7985C16.0513 15.1085 13.5169 15.4174 10.9826 15.7183C8.63771 15.9962 6.29054 16.2614 3.94451 16.537C3.81589 16.552 3.69188 16.6094 3.56671 16.6473C3.41972 16.8597 3.1981 16.8103 2.99025 16.8103C2.92939 16.8069 2.87312 16.7897 2.82144 16.7587C2.7181 16.653 2.62278 16.5416 2.61475 16.3831C2.62623 16.3567 2.63771 16.3292 2.6492 16.3028C4.40958 16.3039 6.13781 15.9732 7.87982 15.7918C10.0582 15.5644 12.232 15.2922 14.408 15.0385C16.0352 14.849 17.6624 14.6572 19.2884 14.4677H19.2873Z" fill="#FEE110"/>
<path id="Vector_110" d="M2.66871 11.7841C1.9602 13.0542 2.43216 14.4299 2.31847 15.7527C2.30125 15.9583 2.45168 16.0547 2.64804 16.0743C2.64804 16.1512 2.64804 16.227 2.64804 16.3039C2.56996 16.4302 2.44938 16.467 2.30929 16.4635C2.08192 16.4498 1.97168 16.3269 1.96249 16.1018C1.95675 15.9342 1.97627 15.7585 1.8534 15.6161C1.8534 14.5849 1.85225 13.5537 1.8511 12.5213C1.86029 12.3858 2.00498 12.6959 1.98087 12.4834C1.9556 12.2584 1.93608 12.0367 2.00383 11.814C2.17723 11.2834 2.11292 10.7357 2.13244 10.1937C2.14048 9.95713 2.06929 9.70105 2.26221 9.49665C2.39886 9.41397 2.52632 9.43809 2.64575 9.5334C2.65034 9.96402 2.65378 10.3946 2.65838 10.8253C2.66182 11.1445 2.66412 11.4649 2.66756 11.7841H2.66871Z" fill="#FDDF12"/>
<path id="Vector_111" d="M10.4509 7.46756C10.7575 7.46756 11.063 7.46756 11.3696 7.46756C11.2628 7.7156 11.04 7.68804 10.831 7.69723C9.38756 7.76038 7.97627 8.06928 6.5466 8.23809C5.98048 8.30469 5.40172 8.26335 4.82871 8.27139C4.75751 8.18641 4.75292 8.09455 4.80574 7.99924C5.14909 7.7512 5.54067 7.89244 5.90928 7.87981C6.18947 7.86947 6.43177 7.83043 6.62584 7.61914C6.72115 7.58584 6.82105 7.58699 6.91981 7.58469C7.65014 7.48134 8.40344 7.61225 9.12115 7.36766C9.56555 7.39751 10.0341 7.10699 10.4521 7.46986L10.4509 7.46756Z" fill="#FDE012"/>
<path id="Vector_112" d="M4.82755 8.04171C4.82755 8.11865 4.82755 8.19444 4.82755 8.27138C4.35559 8.37358 3.87674 8.45052 3.41396 8.58372C2.95349 8.71463 2.7353 9.08209 2.64803 9.53453C2.5332 9.53453 2.41837 9.53453 2.30353 9.53453C2.02794 9.02238 2.47463 8.19903 3.09473 8.11176C3.39674 8.06927 3.6999 8.05319 3.98583 7.93492C4.07999 7.90047 4.1776 7.87865 4.27865 7.87635C4.47616 7.88439 4.69205 7.83387 4.8287 8.04286L4.82755 8.04171Z" fill="#FDDE12"/>
<path id="Vector_113" d="M10.4509 7.46756C9.99157 7.46756 9.53339 7.46756 9.07406 7.46756C9.05913 7.44574 9.04305 7.42392 9.02812 7.40211C9.01779 7.34584 9.03501 7.29876 9.07406 7.25856C9.56784 7.12995 10.0972 7.21263 10.5795 7.01397C10.8034 7.00708 11.0285 7.00019 11.2524 6.99215C11.497 7.08287 11.7141 6.8911 11.9541 6.92555C12.2457 7.06335 12.5581 6.98871 12.8612 7.00938C12.7567 7.25167 12.5397 7.2356 12.333 7.23675C11.8817 7.23904 11.4304 7.23675 10.9791 7.24019C10.7724 7.24134 10.5554 7.22526 10.4509 7.46756Z" fill="#FDD711"/>
<path id="Vector_114" d="M14.5826 16.9952C14.5056 16.9952 14.4298 16.9941 14.3529 16.9929C14.1818 17.1319 13.9498 16.9688 13.7787 17.1066C13.3952 17.1445 13.0117 17.1824 12.6281 17.2203C12.5569 17.0871 12.1493 17.2892 12.3215 16.9125C13.0679 16.7472 13.8143 16.6002 14.5803 16.7782C14.6182 16.8494 14.6561 16.9206 14.694 16.9918C14.6561 16.9918 14.6193 16.9941 14.5814 16.9952H14.5826Z" fill="#FE3E2C"/>
<path id="Vector_115" d="M17.7106 12.9795C17.7106 12.7923 17.7095 12.604 17.7095 12.4168C18.7269 12.364 19.7432 12.2986 20.7606 12.2653C21.0775 12.2549 21.5047 12.1849 21.4369 12.751C20.199 12.8911 18.9462 12.7877 17.7106 12.9795Z" fill="#FE4635"/>
<path id="Vector_116" d="M14.5814 16.7782C13.8189 16.8551 13.0553 16.9309 12.2928 17.0078C12.186 17.164 12.0161 17.2214 11.8519 17.2099C11.2857 17.1732 10.7391 17.3604 10.1765 17.3408C9.69531 17.4431 9.20842 17.4718 8.71809 17.4718C8.59062 17.3041 8.64115 17.156 8.76976 17.0182C8.82373 16.9768 8.88459 16.9516 8.9512 16.9389C9.55981 16.9102 10.1856 17.0228 10.7656 16.7334C10.9252 16.6989 11.0882 16.7093 11.2501 16.7058C11.8565 16.6897 12.4777 16.7908 13.0473 16.4831C13.1483 16.4762 13.2505 16.4773 13.3516 16.4762C13.7007 16.4762 14.0486 16.4762 14.3977 16.4762C14.7365 16.5382 15.1269 16.32 15.4151 16.6622C15.1522 16.8092 14.857 16.7253 14.5814 16.7782Z" fill="#FDB606"/>
<path id="Vector_117" d="M19.5169 15.1556C19.7592 15.112 19.9476 14.9064 20.2105 14.9282C20.0934 15.2256 19.7948 15.3646 19.6203 15.6126C19.4871 15.6884 19.3998 15.8113 19.3079 15.9284C19.107 16.0444 18.8601 16.049 18.6695 16.1914C18.6189 16.2155 18.5661 16.2304 18.511 16.2385C18.3652 16.2499 18.2193 16.2465 18.0735 16.2465C17.8289 16.2247 17.5694 16.3062 17.3443 16.1443C17.2478 16.0237 17.2777 15.9089 17.3558 15.7952C17.3983 15.7504 17.4488 15.7183 17.5074 15.6987C17.8404 15.6528 18.1918 15.6884 18.4949 15.4932C18.6672 15.4323 18.8429 15.3749 18.9899 15.2589C19.1357 15.2038 19.2907 15.1958 19.4411 15.1625C19.4664 15.1613 19.4917 15.159 19.5181 15.1579L19.5169 15.1556Z" fill="#FDC008"/>
<path id="Vector_118" d="M19.2815 16.0685C18.6959 16.5887 17.9391 16.3579 17.2708 16.5187C17.0354 16.5749 16.7793 16.5462 16.5336 16.5565C16.4578 16.4061 16.5198 16.2959 16.6346 16.2006C17.0848 16.0352 17.5384 16.2591 17.9897 16.1879C18.1987 16.181 18.4157 16.2178 18.5983 16.0731C18.7889 15.9181 18.999 15.9433 19.2138 16.0042C19.2367 16.026 19.2586 16.0467 19.2815 16.0685Z" fill="#FCAF07"/>
<path id="Vector_119" d="M15.4151 16.6611C15.0603 16.6565 14.7055 16.6519 14.3518 16.6473C14.2966 16.1788 14.7135 16.2683 14.9477 16.142C15.2693 16.119 15.5988 15.9663 15.9055 16.1983C16.1317 16.5554 15.7803 16.5382 15.6161 16.6427C15.5495 16.6484 15.4817 16.6542 15.4151 16.6611Z" fill="#FDB706"/>
<path id="Vector_120" d="M15.6172 16.6438C15.7309 16.5301 15.8446 16.4164 15.9594 16.3039C15.9801 16.2775 16.0008 16.2511 16.0203 16.2247C16.2476 16.1133 16.4647 16.0811 16.6484 16.3051C16.6105 16.3889 16.5715 16.4727 16.5336 16.5577C16.2373 16.6897 15.9238 16.6335 15.6172 16.6438Z" fill="#FDB406"/>
<path id="Vector_121" d="M19.2861 15.8434C19.3344 15.6758 19.4618 15.6218 19.6191 15.6126C19.5721 15.8136 19.4469 15.9571 19.2804 16.0685L19.2712 16.0582C19.2172 15.9824 19.2195 15.9112 19.2861 15.8434Z" fill="#FCAF07"/>
<path id="Vector_122" d="M13.6639 15.8446C14.6343 15.5552 15.6517 15.608 16.6427 15.4829C17.6188 15.3588 18.5569 15.1016 19.5158 14.9248C19.5158 15.0017 19.5158 15.0786 19.5158 15.1556C19.3929 15.298 19.1954 15.2486 19.0507 15.3359C18.7878 15.5104 18.4639 15.5483 18.201 15.7217C17.9908 15.7355 17.7807 15.7252 17.5705 15.7309C17.195 15.7608 16.8379 15.8595 16.49 16.0019C15.716 15.9743 14.9742 16.2534 14.2025 16.2442C13.9981 16.2419 13.7868 16.2764 13.5962 16.165C13.4457 16.0226 13.5365 15.9296 13.6628 15.8446H13.6639Z" fill="#FED10B"/>
<path id="Vector_123" d="M4.25339 8.04057C4.1776 8.04057 4.10067 8.04057 4.02488 8.04057C3.80784 8.21856 3.55062 8.14507 3.30832 8.15311C2.68134 8.17263 2.20478 8.62851 2.19215 9.26124C2.17837 9.92842 2.19445 10.5967 2.18526 11.2639C2.18296 11.4649 2.25301 11.6899 2.05779 11.853C1.79138 11.7577 1.91311 11.5315 1.90622 11.3638C1.87177 10.4888 1.9487 9.61033 1.86258 8.73531C1.91425 8.24612 2.21741 7.97971 2.67215 7.91426C3.30947 7.82239 3.95253 7.77875 4.5933 7.71445C4.63923 7.9889 4.32344 7.8844 4.25339 8.03942V8.04057Z" fill="#FCCD10"/>
<path id="Vector_124" d="M1.8557 17.3351C1.84995 17.1433 1.84421 16.9527 1.83847 16.7609C1.96938 16.692 2.08881 16.7219 2.20249 16.8034C2.39656 17.071 2.65837 17.1663 2.98794 17.1629C3.57704 17.1571 4.16613 17.1606 4.75637 17.1629C5.02048 17.1916 5.30756 17.0882 5.54067 17.2972C5.59809 17.3994 5.59464 17.4982 5.52459 17.5935C5.18699 17.7542 4.82871 17.6475 4.48077 17.6796C3.71943 17.7244 2.95924 17.8013 2.1979 17.6819C2.01416 17.6348 1.96708 17.4522 1.8557 17.334V17.3351Z" fill="#FDC308"/>
<path id="Vector_125" d="M4.25339 8.04056C4.29243 7.85568 4.46583 7.80975 4.59329 7.71559C4.74717 7.7087 4.90104 7.70181 5.05377 7.69492C5.59119 7.66277 6.12745 7.49626 6.66487 7.69607C6.63961 8.00152 6.42602 8.03942 6.18143 8.03942C5.73013 8.03827 5.27884 8.03942 4.82755 8.04056C4.63578 8.04056 4.44516 8.04056 4.25339 8.04056Z" fill="#FDD711"/>
<path id="Vector_126" d="M5.51425 17.5648L5.51655 17.3363C5.94028 16.9987 6.43636 17.2352 6.89454 17.164C7.31138 17.1652 7.72707 17.156 8.14392 17.1698C8.34602 17.1766 8.57798 17.1514 8.6377 17.4339C8.37129 17.6475 8.09339 17.574 7.81435 17.4683C7.40095 17.6256 6.96803 17.5349 6.5443 17.5648C6.20095 17.6578 5.8576 17.6578 5.51425 17.5648Z" fill="#FDB507"/>
<path id="Vector_127" d="M1.86257 8.73645C2.06927 9.48171 1.9085 10.2431 1.95903 10.9964C1.9774 11.2765 1.90276 11.5682 2.07271 11.8277C2.10257 11.853 2.11291 11.8794 2.10257 11.9047C2.09338 11.9311 2.08305 11.9437 2.07386 11.9437V13.1322C1.96133 12.8233 1.90621 12.6718 1.85109 12.5202C1.81664 11.2582 1.79712 9.99731 1.86257 8.73645Z" fill="#FDD411"/>
<path id="Vector_128" d="M2.07388 17.5648C2.87656 17.5648 3.68039 17.5659 4.48307 17.5671C4.55886 17.6991 4.44173 17.7324 4.37053 17.7898C4.30393 17.7956 4.23733 17.8002 4.17073 17.8059C3.66776 17.9035 3.15561 17.8438 2.64805 17.8955C2.42068 17.9184 2.15886 17.8599 2.07388 17.5659V17.5648Z" fill="#FDB507"/>
<path id="Vector_129" d="M2.07388 16.8781C1.99579 16.839 1.91656 16.8 1.83847 16.761C1.84421 16.3786 1.84881 15.9962 1.85455 15.6149C2.19445 15.7206 1.9533 16.2052 2.30354 16.3039C2.41263 16.4704 2.65034 16.4808 2.7422 16.6691C2.76747 16.7587 2.75483 16.8436 2.7089 16.9252C2.47809 17.1675 2.27369 17.0515 2.07388 16.8781Z" fill="#FDD30E"/>
<path id="Vector_130" d="M2.07386 17.5648C2.47693 17.9322 2.97415 17.7565 3.43348 17.7933C3.67807 17.8128 3.92496 17.8025 4.17071 17.8059C3.66315 17.8725 3.15673 17.9827 2.64918 17.9931C2.24726 18.0011 1.90621 17.8128 1.85568 17.3362C1.97166 17.3718 2.04401 17.4488 2.07386 17.5659V17.5648Z" fill="#FDB507"/>
<path id="Vector_131" d="M7.81436 17.4683C8.07618 17.4499 8.33685 17.4327 8.59867 17.4143C8.6469 17.3822 8.69053 17.3891 8.72958 17.4316C9.16938 17.2203 9.66776 17.4304 10.1099 17.2375C10.1891 17.2857 10.2982 17.319 10.2201 17.4499C10.0674 17.4499 9.9158 17.4511 9.76307 17.4522C9.59197 17.59 9.36001 17.427 9.18776 17.5659C9.11197 17.5659 9.03503 17.5659 8.95924 17.5659C8.78699 17.7037 8.55618 17.5418 8.38508 17.6796C8.23235 17.6796 8.07848 17.6796 7.92575 17.6796C7.889 17.6084 7.85111 17.5383 7.81436 17.4672V17.4683Z" fill="#FE3528"/>
<path id="Vector_132" d="M4.37051 17.7898C4.40841 17.7152 4.4463 17.6417 4.48305 17.5671C4.8264 17.5671 5.1709 17.5671 5.51425 17.5659C5.8576 17.5659 6.20094 17.5659 6.54429 17.5659C5.82889 17.7313 5.10429 17.8082 4.37051 17.791V17.7898Z" fill="#FDB507"/>
<path id="Vector_133" d="M6.66487 7.6972C6.12746 7.6972 5.59119 7.6972 5.05377 7.69605C5.53262 7.4951 6.06659 7.63749 6.54889 7.45605C6.66372 7.46639 6.77856 7.47672 6.89339 7.48706C6.96229 7.55711 6.95999 7.62715 6.89339 7.6972C6.8176 7.6972 6.74066 7.6972 6.66487 7.6972Z" fill="#FDD411"/>
<path id="Vector_134" d="M6.8934 7.69721C6.8934 7.62716 6.8934 7.55712 6.8934 7.48707C7.00938 7.48133 7.12536 7.47444 7.24134 7.4687C7.85225 7.43195 8.46316 7.26315 9.07407 7.46755C8.96843 7.71214 8.7491 7.69377 8.54125 7.69492C7.99235 7.69721 7.4423 7.69606 6.8934 7.69606V7.69721Z" fill="#FDD711"/>
<path id="Vector_135" d="M9.07406 7.46754C8.46315 7.46754 7.85224 7.46754 7.24133 7.46869C7.8442 7.32744 8.45741 7.27921 9.07406 7.25854C9.07406 7.32744 9.07406 7.39749 9.07406 7.46639V7.46754Z" fill="#FDD411"/>
<path id="Vector_136" d="M10.2201 17.4499C10.1834 17.3787 10.1466 17.3087 10.1099 17.2375C10.8379 17.1606 11.5648 17.0836 12.2928 17.0067C12.4042 17.0779 12.5168 17.1479 12.6281 17.2191C12.5524 17.2203 12.4777 17.2214 12.4019 17.2226C12.2871 17.2226 12.1723 17.2226 12.0574 17.2214C11.8863 17.3604 11.6555 17.1973 11.4833 17.3351C11.0618 17.373 10.6415 17.4109 10.2201 17.4499Z" fill="#FE392A"/>
<path id="Vector_137" d="M9.1889 17.5659C9.36115 17.4316 9.56555 17.4545 9.76422 17.4522C9.59197 17.5854 9.38871 17.5636 9.1889 17.5659Z" fill="#FE392A"/>
<path id="Vector_138" d="M8.38506 17.6808C8.55731 17.5476 8.76056 17.5705 8.95922 17.5671C8.88228 17.605 8.80535 17.644 8.72841 17.6819C8.61358 17.6819 8.49874 17.6808 8.38391 17.6796L8.38506 17.6808Z" fill="#FE392A"/>
<path id="Vector_139" d="M11.4832 17.3362C11.6555 17.203 11.8587 17.226 12.0574 17.2226C11.8852 17.3558 11.6819 17.334 11.4832 17.3362Z" fill="#FE3E2C"/>
<path id="Vector_140" d="M13.7787 17.1066C13.951 16.9734 14.1542 16.9964 14.3529 16.9929C14.1807 17.1261 13.9774 17.1043 13.7787 17.1066Z" fill="#FE4232"/>
<path id="Vector_141" d="M13.3389 11.8289C13.3458 10.8574 13.3573 9.88706 13.3573 8.91558C13.3573 8.5596 13.4664 8.39194 13.8706 8.3506C14.9478 8.24036 14.95 8.2151 14.942 9.25663C14.9363 10.0754 14.9179 10.8953 14.9053 11.714C14.516 12.0689 13.8534 12.1171 13.3378 11.8289H13.3389Z" fill="#FE5C38"/>
<path id="Vector_142" d="M16.8643 13.3206C17.0147 13.5353 17.0457 13.7041 16.7104 13.7431C15.6746 13.8637 14.6423 14.0153 13.6042 14.0922C13.053 14.1324 13.3918 13.6696 13.3274 13.4354C13.3699 13.3975 13.4101 13.3366 13.4607 13.3332C14.5125 13.2608 15.5598 13.0771 16.6197 13.1828C16.7139 13.1919 16.7942 13.2539 16.8631 13.3206H16.8643Z" fill="#FE3C35"/>
<path id="Vector_143" d="M16.5301 12.5167C16.5807 12.6281 16.6323 12.7395 16.6829 12.8498C16.3889 13.1954 15.9571 13.0484 15.6115 13.0829C14.8559 13.1575 14.0727 13.3137 13.3275 12.9761C13.332 12.9003 13.3355 12.8233 13.3401 12.7476C13.6731 12.4088 14.106 12.4283 14.516 12.4685C15.1877 12.534 15.8618 12.4076 16.5301 12.5179V12.5167Z" fill="#FE4735"/>
<path id="Vector_144" d="M13.3263 12.9761C14.4448 12.9347 15.5633 12.8922 16.6817 12.8509C16.7104 12.9301 16.7391 13.0094 16.7667 13.0897C16.2787 13.3676 15.7401 13.2287 15.2245 13.2677C14.5929 13.316 13.9613 13.4067 13.3252 13.3217C13.3252 13.2069 13.3252 13.092 13.3252 12.9772L13.3263 12.9761Z" fill="#FE4435"/>
<path id="Vector_145" d="M16.5301 12.5167C15.476 12.7315 14.3908 12.4995 13.3389 12.7464C13.3389 12.6316 13.3389 12.5167 13.3389 12.4019C13.9211 12.0941 14.6136 12.0941 14.9294 12.4007C15.3267 12.3651 15.7229 12.3204 16.1202 12.2997C16.2855 12.2905 16.5324 12.1871 16.5301 12.5167Z" fill="#FE4D37"/>
<path id="Vector_146" d="M13.3263 13.3206C14.4632 13.0829 15.6287 13.2804 16.7679 13.0898C16.8 13.1667 16.8322 13.2436 16.8643 13.3206C15.6827 13.2746 14.5102 13.5319 13.3275 13.4354C13.3275 13.3975 13.3275 13.3585 13.3275 13.3206H13.3263Z" fill="#FE4034"/>
<path id="Vector_147" d="M13.3389 11.8289C13.8649 11.8392 14.3896 11.8392 14.9064 11.7141C14.9064 11.8668 14.9064 12.0195 14.9064 12.1734C14.3839 12.2078 13.8614 12.3812 13.3389 12.1734C13.3389 12.0585 13.3389 11.9437 13.3389 11.8289Z" fill="#FE5537"/>
<path id="Vector_148" d="M13.3401 12.1734C13.8626 12.0965 14.3851 12.0965 14.9076 12.1734C14.9156 12.2492 14.9225 12.3261 14.9305 12.4019C14.4 12.201 13.8706 12.503 13.3401 12.4031C13.3401 12.3261 13.3401 12.2503 13.3401 12.1734Z" fill="#FE5036"/>
<path id="Vector_149" d="M11.4936 11.2536C11.5567 11.4453 11.6199 11.6371 11.6842 11.8289C11.3052 12.2342 10.8218 12.1585 10.3475 12.1183C10.0237 11.9437 9.71941 12.1986 9.40017 12.1676C9.02123 12.0275 8.56419 12.2802 8.22888 11.9299C8.60209 11.0159 8.99596 10.1098 9.33816 9.18429C9.49548 8.75941 9.83769 8.86161 10.1294 8.79042C10.4612 8.70889 10.4853 8.98448 10.5818 9.1797C10.9171 9.85721 11.0985 10.6025 11.4947 11.2536H11.4936Z" fill="#FE5C38"/>
<path id="Vector_150" d="M11.9242 12.403C12.0023 12.5937 12.0815 12.7854 12.1596 12.9761C12.1045 13.0197 12.0402 13.0438 11.9701 13.0473C10.7116 12.9784 9.46219 13.2379 8.20248 13.1495C8.05549 13.1391 7.89587 13.2138 7.76611 13.084C7.80286 12.9244 7.81549 12.7533 7.9487 12.6327C8.20592 12.3743 8.52401 12.4214 8.84554 12.4306C9.04879 12.4363 9.25549 12.387 9.4576 12.3399C9.68497 12.3123 9.902 12.2262 10.1328 12.2228C10.738 12.1998 11.365 11.9529 11.9231 12.403H11.9242Z" fill="#FE4C36"/>
<path id="Vector_151" d="M8.84898 14.0176C8.76401 14.2415 8.68018 14.4643 8.5952 14.6882C8.222 14.7273 7.84879 14.7617 7.47788 14.8088C7.16554 14.8478 6.9864 14.803 7.17702 14.4367C7.27118 14.2564 7.34468 14.0658 7.42851 13.8798C7.71674 13.68 8.06008 13.6673 8.38736 13.6295C8.64229 13.5996 8.88458 13.6651 8.84898 14.0187V14.0176Z" fill="#FE3A35"/>
<path id="Vector_152" d="M10.8942 13.8052C10.4819 13.6513 10.0662 13.8741 9.65397 13.796C8.93053 13.6938 8.20479 13.8247 7.48019 13.7799C7.52498 13.6651 7.56976 13.5514 7.6134 13.4366C8.22431 13.3435 8.84096 13.3022 9.45646 13.2666C10.1328 13.2287 10.8126 13.3114 11.489 13.1633C11.7554 13.1047 12.0597 13.1001 12.2974 13.3171C12.4157 13.4492 12.4789 13.6042 12.503 13.7776C11.9713 14.0383 11.4327 13.9361 10.8942 13.8063V13.8052Z" fill="#FE4035"/>
<path id="Vector_153" d="M12.2974 13.316C11.0538 13.3906 9.81015 13.4629 8.56651 13.541C8.24154 13.5617 7.92345 13.541 7.6134 13.4354C7.63637 13.3952 7.65819 13.3539 7.68115 13.3137C7.94182 13.1265 8.25646 13.0909 8.54929 13.1035C9.72288 13.1506 10.8861 12.9393 12.0574 12.9761C12.0919 12.9761 12.1263 12.9761 12.1596 12.9761C12.2412 13.0748 12.3009 13.1828 12.2974 13.316Z" fill="#FE4435"/>
<path id="Vector_154" d="M12.0574 12.9761C11.5522 13.1931 11.0021 13.1368 10.4808 13.1747C9.55063 13.2413 8.61244 13.2264 7.68115 13.3148C7.70986 13.2379 7.73857 13.1609 7.76728 13.084C7.91541 13.0507 8.06469 12.9841 8.21053 12.9898C9.31407 13.0358 10.4084 12.8647 11.5085 12.8612C11.6991 12.8612 11.8909 12.8566 12.0563 12.9761H12.0574Z" fill="#FE4735"/>
<path id="Vector_155" d="M9.42431 12.5006C8.95005 12.7395 8.44594 12.6373 7.94986 12.6316C8.01187 12.4754 7.99694 12.2894 8.13818 12.1642C8.51713 11.9678 8.92019 12.0804 9.31292 12.0827C9.44268 12.0827 9.49551 12.2021 9.50354 12.3272C9.49551 12.3927 9.46909 12.4513 9.42431 12.5006Z" fill="#FE5137"/>
<path id="Vector_156" d="M7.48019 13.7787C8.00727 13.7615 8.52517 13.6134 9.05914 13.6616C9.26584 13.68 9.47828 13.6524 9.65397 13.796C9.41512 13.9774 9.07981 13.8098 8.84899 14.0176C8.66871 13.7317 8.41378 13.8166 8.15081 13.8568C7.91426 13.8924 7.66852 13.8741 7.42737 13.8787C7.43541 13.8408 7.45263 13.8075 7.48019 13.7787Z" fill="#FE3E36"/>
<path id="Vector_157" d="M9.41741 12.3996C9.05568 11.9655 8.55387 12.2997 8.13702 12.1653C8.16688 12.0873 8.19674 12.0092 8.22774 11.9311C8.66411 12.0023 9.13147 11.8174 9.54487 12.0861C9.61722 12.2377 9.68267 12.3858 9.41741 12.4008V12.3996Z" fill="#FE5939"/>
<path id="Vector_158" d="M6.88075 9.8733C6.84171 9.91464 6.79003 9.94909 6.76592 9.99732C6.45587 10.6197 6.06085 11.0549 5.28458 10.7024C5.22142 10.6737 5.13415 10.6966 5.05721 10.6978C4.83903 10.6978 4.59329 10.7162 4.53587 10.955C4.46927 11.2329 4.74372 11.2823 4.9286 11.3523C5.37185 11.52 5.84611 11.613 6.21817 11.9368C6.15845 12.209 5.94486 12.2251 5.72898 12.2274C4.96649 12.2343 4.21434 12.3916 3.45185 12.3985C2.92132 12.0367 2.83864 11.5062 2.93396 10.9321C3.06372 10.1558 3.5908 9.71023 4.28094 9.43578C4.48994 9.35311 4.72305 9.33244 4.94582 9.28306C5.21108 9.22564 5.47635 9.22105 5.74161 9.28535C6.14008 9.44382 6.65223 9.38296 6.8796 9.87215L6.88075 9.8733Z" fill="#FE5C38"/>
<path id="Vector_159" d="M2.64343 13.9912C2.63424 13.3711 2.62046 12.751 2.87998 12.1653C3.08668 12.3847 3.25893 12.6442 3.56668 12.743C4.02027 12.7005 4.40726 12.9301 4.81491 13.0656C4.95156 13.1116 5.10659 13.2034 5.07558 13.3906C5.04343 13.5801 4.87577 13.6008 4.7219 13.6008C4.42104 13.5985 4.11443 13.6513 3.82046 13.5468C3.63214 13.4802 3.45185 13.4664 3.27615 13.5732C3.02008 13.6432 3.02008 14.1014 2.64572 13.99L2.64343 13.9912Z" fill="#FEEB17"/>
<path id="Vector_160" d="M3.08898 13.4067C3.21644 13.1207 3.42199 13.1472 3.65855 13.2551C4.04668 13.4331 4.4486 13.5272 4.94352 13.4113C4.5129 13.0461 3.94333 13.0828 3.56553 12.7429C3.56783 12.6993 3.56898 12.6545 3.57128 12.6109C3.6218 12.5362 3.69415 12.4938 3.78257 12.4823C4.00305 12.5225 4.22467 12.5627 4.43022 12.6568C4.5462 12.7429 4.67367 12.8027 4.81721 12.8291C5.02046 12.9427 5.31788 12.898 5.41778 13.1873C5.44764 13.2815 5.44994 13.378 5.4419 13.4756C5.3374 13.7408 5.1353 13.8982 4.87692 13.9946C4.7196 14.013 4.56113 14.0072 4.40266 14.0038C3.99616 13.8499 3.59424 13.68 3.15443 13.6398C3.08553 13.5755 3.04879 13.5008 3.08898 13.4055V13.4067Z" fill="#FEF9AF"/>
<path id="Vector_161" d="M3.79635 12.6052C3.72171 12.6075 3.64707 12.6097 3.57243 12.612C3.53224 12.5408 3.49205 12.4697 3.453 12.3985C4.04095 11.9805 4.74257 12.2147 5.37989 12.0689C5.65205 12.0069 5.95291 12.0735 6.21932 11.9368C6.35252 11.9724 6.45817 12.0413 6.51214 12.1745C6.41798 12.4524 6.18487 12.4386 5.95176 12.4628C5.2352 12.5363 4.5175 12.5868 3.7975 12.6052H3.79635Z" fill="#FE5938"/>
<path id="Vector_162" d="M5.74278 9.28651C5.47752 9.28651 5.21225 9.28421 4.94699 9.28421C5.21225 9.1533 5.47752 9.15101 5.74278 9.28651Z" fill="#FEF7AE"/>
<path id="Vector_163" d="M3.79636 12.6052C3.89052 12.3468 4.09492 12.3709 4.31425 12.3847C5.05607 12.4306 5.78411 12.3054 6.511 12.1745C6.60057 12.2503 6.69014 12.3273 6.77971 12.403C6.77971 12.4409 6.77741 12.48 6.77626 12.5179C6.57301 12.7544 6.30085 12.79 6.01033 12.7969C5.46372 12.8107 4.91597 12.7717 4.37167 12.8406C4.16956 12.7866 3.95712 12.759 3.79636 12.6052Z" fill="#FE5437"/>
<path id="Vector_164" d="M10.8942 13.8052C11.427 13.595 11.9621 13.5502 12.503 13.7764C12.6729 14.0256 12.7407 14.2174 12.3158 14.245C11.961 14.2679 11.6084 14.3334 11.2547 14.3793C10.9711 14.2897 10.955 14.0337 10.8942 13.8052Z" fill="#FE3935"/>
<path id="Vector_165" d="M11.9242 12.403C11.3029 12.387 10.6829 12.4019 10.0674 12.4949C9.94793 12.2618 10.0145 12.0815 10.2247 11.9414C10.7139 11.9437 11.1904 11.7692 11.6842 11.8277C11.7646 12.0195 11.845 12.2101 11.9253 12.4019L11.9242 12.403Z" fill="#FE5638"/>
<path id="Vector_166" d="M6.31233 14.6744C5.0687 15.4473 3.83999 15.5564 2.63999 14.5826C2.58257 14.3265 2.68937 14.1669 2.93396 14.0888C3.99157 14.0854 5.04343 13.9246 6.10219 13.9521C6.32152 13.9579 6.56726 13.8901 6.71654 14.1359C6.58219 14.315 6.44783 14.4942 6.31348 14.6733L6.31233 14.6744Z" fill="#FE3733"/>
<path id="Vector_167" d="M6.71539 14.137C5.42467 14.0589 4.14314 14.338 2.85127 14.2289C2.76745 13.9785 2.91099 13.8499 3.1085 13.7489C3.54601 13.6536 3.98123 13.7787 4.41759 13.7627C4.53587 13.7627 4.65529 13.7627 4.77357 13.7627C5.27883 13.6983 5.76113 13.4825 6.28706 13.5468C6.53969 13.5766 6.79692 13.5686 6.79692 13.9257C6.76936 13.9958 6.7418 14.0658 6.71424 14.1359L6.71539 14.137Z" fill="#FE3B34"/>
<path id="Vector_168" d="M6.79807 13.9269C6.52132 13.7041 6.18946 13.7627 5.884 13.7925C5.50965 13.8293 5.14333 13.8086 4.77472 13.765C4.93778 13.6318 5.22371 13.6949 5.30754 13.4331C5.72668 13.0036 6.66946 13.0277 6.91749 13.4744C6.91864 13.6364 6.91979 13.7983 6.79807 13.928V13.9269Z" fill="#FE4236"/>
<path id="Vector_169" d="M5.26622 13.2149C5.08364 13.1288 4.90106 13.0415 4.71847 12.9554C4.70584 12.852 4.74718 12.7326 4.8379 12.7338C5.47063 12.7361 6.08498 12.5064 6.7223 12.596C6.79924 12.6063 6.84287 12.6775 6.87847 12.7441C6.89455 12.8176 6.91177 12.8922 6.92785 12.9657C6.81646 13.1942 6.60517 13.2034 6.39503 13.2034C6.01838 13.2011 5.64287 13.2161 5.26622 13.2149Z" fill="#FE4C36"/>
<path id="Vector_170" d="M5.2662 13.2149C5.79673 12.9761 6.39501 13.1885 6.92783 12.9657C7.01281 13.1368 7.0174 13.3056 6.9175 13.4733C6.38697 13.2161 5.84841 13.2815 5.30754 13.4319C5.29376 13.3596 5.27998 13.2873 5.2662 13.2149Z" fill="#FE4938"/>
<path id="Vector_171" d="M6.87731 12.7441C6.13549 12.5891 5.41434 12.6419 4.71731 12.9554C4.60133 12.9175 4.48649 12.8796 4.37051 12.8406C4.93664 12.457 5.60726 12.6867 6.21358 12.5259C6.38927 12.4788 6.58678 12.5179 6.77511 12.5179C6.85205 12.5741 6.8842 12.6499 6.87616 12.7441H6.87731Z" fill="#FE5238"/>
<path id="Vector_172" d="M3.0775 13.8821C3.00286 13.9981 2.92707 14.114 2.85243 14.2289C2.733 14.3173 2.68018 14.4471 2.63999 14.5826C2.60439 14.6515 2.56994 14.7192 2.53434 14.7881C2.253 14.4792 2.5619 14.2507 2.64344 13.9912C2.79157 13.796 2.94085 13.6007 3.08899 13.4067C3.13262 13.4549 3.17626 13.502 3.22104 13.5502C3.30832 13.719 3.20267 13.8051 3.0775 13.8821Z" fill="#FEF4A9"/>
<path id="Vector_173" d="M2.6469 16.8781C2.6469 16.8011 2.6469 16.7254 2.6469 16.6484C2.72384 16.5876 2.79962 16.5795 2.87656 16.6484C3.12001 16.8115 3.44269 16.6932 3.68039 16.8781C3.71828 16.8781 3.75618 16.8781 3.79522 16.8781C4.00422 16.7403 4.28326 16.8138 4.48422 16.6484C4.90451 16.6484 5.32594 16.6484 5.74623 16.6484C5.93915 16.5669 6.13321 16.4865 6.33302 16.6312C6.38814 16.7931 6.32039 16.9045 6.18833 16.9918C5.16058 17.1135 4.13742 17.2995 3.09704 17.218C2.89034 17.2019 2.5447 17.3236 2.6469 16.8792V16.8781Z" fill="#FED90D"/>
<path id="Vector_174" d="M7.46755 16.3039C8.59176 16.436 9.67119 15.9411 10.7954 16.0743C10.862 16.227 10.7954 16.3338 10.6771 16.4222C10.5175 16.5026 10.3453 16.4658 10.1776 16.475C9.5644 16.4567 8.98334 16.5623 8.38736 16.7437C7.81779 16.9171 7.18392 16.9011 6.58449 16.7242C6.44554 16.3786 6.7533 16.4211 6.91521 16.3694C7.08975 16.3131 7.29186 16.413 7.46755 16.3028V16.3039Z" fill="#FED90D"/>
<path id="Vector_175" d="M10.6794 16.3039C10.7173 16.2281 10.7564 16.1512 10.7942 16.0754C11.0618 16.0754 11.3294 16.0754 11.5969 16.0754C12.0815 15.8825 12.5753 15.9376 13.0702 16.0249C13.1609 16.1099 13.1701 16.2098 13.1276 16.32C13.0323 16.4509 12.8945 16.4762 12.7464 16.4739C12.2515 16.4785 11.7565 16.4762 11.2616 16.4762C11.0549 16.4612 10.8253 16.5256 10.6794 16.3039Z" fill="#FED20C"/>
<path id="Vector_176" d="M13.0909 16.0742C12.5937 16.0742 12.0953 16.0742 11.5981 16.0742C11.8289 15.755 12.1734 15.8584 12.4811 15.848C12.875 15.8354 13.27 15.8446 13.6639 15.8446C13.626 15.9215 13.587 15.9973 13.5491 16.0742C13.3964 16.2304 13.2436 16.1983 13.0909 16.0742Z" fill="#FED50C"/>
<path id="Vector_177" d="M7.46756 16.3039C7.19081 16.4968 6.78775 16.3533 6.55004 16.6484C6.47311 16.7093 6.39732 16.7208 6.32038 16.6484C6.12861 16.6484 5.93799 16.6484 5.74622 16.6484C6.27445 16.3074 6.87502 16.3269 7.46756 16.3039Z" fill="#FEDB0E"/>
<path id="Vector_178" d="M3.68038 16.8769C3.38986 16.8815 3.10048 16.8792 2.87656 16.6473C3.10622 16.6473 3.33589 16.6473 3.56555 16.6473C3.60345 16.7242 3.64249 16.8 3.68038 16.8769Z" fill="#FEDB0E"/>
<path id="Vector_179" d="M4.48419 16.6484C4.31654 16.9102 4.04898 16.8735 3.7952 16.8781C3.98467 16.6817 4.22697 16.6438 4.48419 16.6484Z" fill="#FEDB0E"/>
<path id="Vector_180" d="M2.87769 16.6473C2.80075 16.6473 2.72496 16.6473 2.64803 16.6473C2.4264 16.6404 2.31157 16.5256 2.30353 16.3039C2.41836 16.3039 2.53319 16.3039 2.64803 16.3039C2.72496 16.4188 2.80075 16.5336 2.87769 16.6484V16.6473Z" fill="#FEDB0E"/>
<path id="Vector_181" d="M2.07386 11.9437C2.07386 11.9047 2.07386 11.8656 2.07271 11.8266C2.07271 10.9504 2.07041 10.0742 2.07386 9.19807C2.0773 8.4218 2.43788 8.05893 3.22448 8.04171C3.49089 8.03596 3.7573 8.04171 4.02486 8.04171C3.93644 8.25759 3.74812 8.25874 3.55635 8.27137C2.80075 8.32419 2.36783 8.764 2.30467 9.53338C2.30467 10.1397 2.30697 10.7472 2.30238 11.3535C2.30008 11.5751 2.34601 11.822 2.07501 11.9437H2.07386Z" fill="#FDD610"/>
<path id="Vector_182" d="M11.2524 16.8769C11.0997 16.8769 10.947 16.8769 10.7943 16.8769C10.4773 17.0745 10.1259 16.9631 9.79063 16.9906C9.51043 17.0136 9.21646 16.9298 8.95809 17.1055C8.92019 17.1055 8.8823 17.1055 8.84326 17.1055C8.24383 17.3041 7.63637 17.2398 7.0289 17.156C6.93818 17.0722 6.93015 16.9723 6.97838 16.8643C6.9933 16.8528 7.00823 16.831 7.02316 16.831C7.91196 16.839 8.75598 16.5324 9.6356 16.4739C10.0834 16.4773 10.5313 16.4658 10.9791 16.4819C11.0836 16.4911 11.1812 16.5187 11.2593 16.5933C11.3236 16.6886 11.3271 16.7828 11.2513 16.8746L11.2524 16.8769Z" fill="#FDC709"/>
<path id="Vector_183" d="M7.00822 17.1077C7.62028 17.1077 8.23233 17.1077 8.84439 17.1077C8.8065 17.2157 8.76745 17.3248 8.72956 17.4327C8.68592 17.427 8.64229 17.4212 8.59865 17.4155C8.03597 17.2513 7.46066 17.3765 6.89224 17.3363C6.82678 17.2674 6.82334 17.1916 6.86353 17.1089C6.91176 17.0698 6.95884 17.071 7.00822 17.1077Z" fill="#FDBA07"/>
<path id="Vector_184" d="M11.2524 16.8769C11.2524 16.8011 11.2536 16.7254 11.2547 16.6484C11.4775 16.3717 11.7899 16.5152 12.0632 16.4762C12.4065 16.5313 12.7912 16.3338 13.0898 16.6484C12.952 16.9435 12.6798 16.8689 12.4444 16.8746C12.0471 16.8838 11.6498 16.8769 11.2524 16.8769Z" fill="#FDBA07"/>
<path id="Vector_185" d="M14.9259 16.3039C14.7525 16.4486 14.4723 16.4142 14.3518 16.6473C14.0073 16.6473 13.6639 16.6473 13.3194 16.6473C13.2471 16.3866 13.3837 16.2637 13.6122 16.1994C14.0509 16.2281 14.5034 16.0788 14.9271 16.3039H14.9259Z" fill="#FDBE07"/>
<path id="Vector_186" d="M8.95923 17.1066C9.26583 16.7322 9.69071 16.9171 10.0651 16.8815C10.3062 16.8585 10.552 16.8769 10.7954 16.8769C10.4888 17.2524 10.0639 17.0664 9.68956 17.102C9.44842 17.125 9.20267 17.1066 8.95923 17.1066Z" fill="#FDBA07"/>
<path id="Vector_187" d="M13.5502 16.305C13.4733 16.4199 13.3964 16.5336 13.3194 16.6484C13.2425 16.6484 13.1667 16.6484 13.0897 16.6484C12.7453 16.6484 12.4008 16.6484 12.0574 16.6484C12.132 16.2235 12.5489 16.4842 12.7464 16.305C12.8612 16.305 12.9749 16.305 13.0897 16.305C13.2436 16.1914 13.3975 16.1615 13.5502 16.3062V16.305Z" fill="#FDC408"/>
<path id="Vector_188" d="M13.5502 16.3051C13.3964 16.3051 13.2436 16.3051 13.0898 16.3039C13.0898 16.2281 13.0898 16.1512 13.0909 16.0754C13.2436 16.0754 13.3964 16.0754 13.5491 16.0754C14.5608 16.2224 15.5231 15.7194 16.5324 15.8457C16.839 15.6861 17.1445 15.6654 17.4511 15.8457C17.4132 15.9215 17.3742 15.9984 17.3363 16.0742C17.1146 16.2763 16.8436 16.1592 16.5956 16.1879C16.3809 16.212 16.1489 16.1374 15.9594 16.3039C15.6149 16.3039 15.2716 16.3039 14.9271 16.3039C14.4677 16.3039 14.0096 16.3039 13.5502 16.3039V16.3051Z" fill="#FDC909"/>
<path id="Vector_189" d="M15.9583 16.3028C16.3556 15.8538 16.8804 16.173 17.3351 16.0731C17.6027 16.0731 17.8714 16.0731 18.139 16.0743C18.2067 16.15 18.2067 16.227 18.139 16.3028C17.6417 16.3028 17.1457 16.3028 16.6484 16.3039C16.4188 16.3039 16.1891 16.3039 15.9583 16.3028Z" fill="#FDB706"/>
<path id="Vector_190" d="M17.4511 15.8446C17.1445 15.8446 16.839 15.8446 16.5324 15.8446C16.8023 15.4335 17.2203 15.6884 17.5659 15.6161C17.6337 15.693 17.6325 15.7688 17.5659 15.8446C17.528 15.8446 17.4901 15.8446 17.4511 15.8446Z" fill="#FECF0B"/>
<path id="Vector_191" d="M17.5659 15.8446C17.5659 15.7688 17.5659 15.6919 17.5659 15.6161C17.7956 15.6161 18.0241 15.6161 18.2538 15.6161C18.3686 15.5357 18.4834 15.5127 18.5983 15.6161C18.3169 15.9778 17.9173 15.801 17.5648 15.8457L17.5659 15.8446Z" fill="#FDC909"/>
<path id="Vector_192" d="M18.5983 15.6149C18.4834 15.6149 18.3686 15.6149 18.2538 15.6149C18.449 15.3324 18.782 15.3703 19.0565 15.2716C19.0863 15.2968 19.0955 15.3233 19.0863 15.3485C19.0771 15.3738 19.0668 15.3876 19.0576 15.3876C18.9784 15.6126 18.7878 15.6126 18.5983 15.6161V15.6149Z" fill="#FECF0B"/>
<path id="Vector_193" d="M19.2861 15.8434C19.2815 15.9146 19.2758 15.987 19.2712 16.0582C19.0461 16.0628 18.8222 16.0685 18.5983 16.0743C18.7453 15.7527 19.0415 15.8744 19.2861 15.8446V15.8434Z" fill="#FDB406"/>
<path id="Vector_194" d="M19.0576 15.3864C19.0576 15.3474 19.0576 15.3095 19.0576 15.2704C19.1931 15.1602 19.3539 15.1556 19.5169 15.1556C19.4389 15.3818 19.2482 15.3818 19.0588 15.3852L19.0576 15.3864Z" fill="#FDCA0B"/>
<path id="Vector_195" d="M18.1389 16.3028C18.1389 16.227 18.1389 16.1512 18.1389 16.0742C18.2917 16.0742 18.4444 16.0742 18.5971 16.0742C18.4926 16.2476 18.3284 16.3028 18.1378 16.3028H18.1389Z" fill="#FDB406"/>
<path id="Vector_196" d="M7.00823 17.1077H6.95081H6.89339C6.57875 17.319 6.22507 17.1858 5.89091 17.2214C5.49818 17.2639 5.08823 17.1261 4.71272 17.3363C4.08689 17.3363 3.46105 17.3305 2.83521 17.3385C2.47808 17.3431 2.20248 17.2386 2.07272 16.8781C2.26449 16.8781 2.45512 16.8781 2.64689 16.8781C2.76746 17.1479 3.0155 17.0802 3.23483 17.1089C4.24191 17.2444 5.19847 16.7495 6.2044 16.8769C6.47196 16.7391 6.74067 16.6943 7.00823 16.8769C7.00823 16.9539 7.00823 17.0296 7.00823 17.1066V17.1077Z" fill="#FDCB0B"/>
<path id="Vector_197" d="M4.71271 17.3362C4.90907 17.0538 5.20764 17.1123 5.48438 17.1089C5.95405 17.1031 6.42371 17.1077 6.89453 17.1077C6.89453 17.1835 6.89338 17.2605 6.89223 17.3362C6.43405 17.3362 5.97587 17.3362 5.51768 17.3374C5.25012 17.3374 4.98142 17.3374 4.71386 17.3374L4.71271 17.3362Z" fill="#FDC709"/>
<path id="Vector_198" d="M10.2247 11.9426C10.2235 12.1412 10.475 12.4123 10.0674 12.4961C9.85263 12.4984 9.6379 12.4995 9.42431 12.5018C9.42431 12.4685 9.42201 12.4341 9.41742 12.4008C9.51273 12.3169 9.53799 12.2056 9.54488 12.0861C9.71943 11.8944 9.69531 11.5889 9.93072 11.4132C10.0306 11.5946 10.1271 11.768 10.2235 11.9426H10.2247Z" fill="#FEF3AF"/>
<path id="Vector_199" d="M3.0775 13.8821C3.12573 13.7719 3.17281 13.6605 3.22104 13.5502C3.67348 13.3229 4.01109 13.7363 4.4176 13.7638C3.98009 13.912 3.52994 13.9085 3.07635 13.8833L3.0775 13.8821Z" fill="#FE4236"/>
<path id="Vector_200" d="M7.00823 16.8781C6.74067 16.8781 6.47197 16.8781 6.20441 16.8781C6.2423 16.8012 6.28134 16.7254 6.31924 16.6484C6.39618 16.6484 6.47197 16.6484 6.5489 16.6484C7.38374 16.6461 8.22201 16.7047 9.02814 16.3809C9.40479 16.2293 9.82163 16.3166 10.2212 16.3039C10.1994 16.7024 9.78029 16.436 9.64709 16.6473C8.76517 16.7047 7.90508 16.9998 7.00823 16.8781Z" fill="#FED10B"/>
<path id="Vector_201" d="M9.64708 16.6473C9.76651 16.413 10.0478 16.4486 10.2212 16.3039C10.374 16.3039 10.5267 16.3039 10.6794 16.3039C10.8712 16.3039 11.063 16.3039 11.2536 16.3039C11.3581 16.5393 11.1204 16.5462 11.0228 16.6473C10.5634 16.6473 10.1053 16.6473 9.64594 16.6473H9.64708Z" fill="#FECE0A"/>
<path id="Vector_202" d="M11.0239 16.6473C11.1009 16.5324 11.1778 16.4188 11.2547 16.3039C11.752 16.3039 12.2492 16.3039 12.7464 16.3039C12.5167 16.4188 12.2871 16.5336 12.0574 16.6484C11.7899 16.6484 11.5223 16.6484 11.2547 16.6484C11.1778 16.6484 11.1009 16.6484 11.0239 16.6473Z" fill="#FDC809"/>
</g>
</g>
</g>
<defs>
<clipPath id="clip0_99_40878">
<rect width="24" height="24" fill="white"/>
</clipPath>
</defs>
</svg>
