<svg width="24" height="24" viewBox="0 0 24 24" fill="none" xmlns="http://www.w3.org/2000/svg">
<g id="Sot">
<g id="Layer 1">
<g id="Group">
<path id="Vector" d="M17.4534 0.00803804C17.9782 0.45244 18.155 1.02775 18.0942 1.69608C18.0471 2.20364 18.3147 2.86277 17.9805 3.18431C17.6498 3.50124 16.9964 3.28077 16.4865 3.28191C13.1598 3.2911 9.83197 3.27273 6.50528 3.30029C5.96901 3.30488 5.79331 3.14641 5.84958 2.6377C5.87714 2.39196 5.86566 2.13933 5.84384 1.89244C5.78298 1.17933 5.92537 0.536268 6.43867 0.00803804H17.4534Z" fill="#019FD0"/>
<path id="Vector_2" d="M19.4193 23.8989C19.4193 23.9311 19.4136 23.961 19.4032 23.992H4.60248C4.60937 23.9564 4.60592 23.9219 4.59329 23.8886C4.80114 23.6647 5.08018 23.6934 5.34315 23.6934C9.78717 23.6877 14.2323 23.6877 18.6764 23.6934C18.9382 23.6934 19.2184 23.6624 19.4193 23.8989Z" fill="#7FCEE7"/>
<path id="Vector_3" d="M19.4193 23.8989C17.0147 23.8921 14.6113 23.8794 12.2067 23.8783C9.6689 23.8771 7.13111 23.8852 4.59331 23.8886C4.02029 23.7233 3.82278 23.2834 3.82278 22.7518C3.81589 18.1826 3.78833 13.6134 3.83426 9.04421C3.85264 7.20804 4.46125 5.52459 5.57972 4.04211C5.80479 3.74469 6.04479 3.60344 6.43752 3.60574C10.1834 3.62182 13.9303 3.61952 17.6762 3.60919C18.0138 3.60919 18.2239 3.70565 18.4329 3.98813C19.6237 5.59234 20.222 7.38488 20.2232 9.37952C20.2243 13.7765 20.2243 18.1734 20.2232 22.5715C20.2232 23.4155 20.0739 23.6509 19.4182 23.9012L19.4193 23.8989Z" fill="#009ED0"/>
<path id="Vector_4" d="M11.9357 2.25416C10.3682 2.25416 8.79961 2.23923 7.23214 2.2645C6.82219 2.27139 6.73607 2.10488 6.782 1.76153C6.82219 1.46182 6.6086 1.04842 7.21836 1.05187C10.3923 1.06794 13.5652 1.06679 16.7391 1.05187C17.2972 1.04957 17.141 1.42278 17.1755 1.71675C17.2168 2.07617 17.141 2.27254 16.6966 2.26565C15.1097 2.24038 13.5227 2.25531 11.9368 2.25531L11.9357 2.25416Z" fill="#FBFDFD"/>
<path id="Vector_5" d="M4.69896 15.5839C4.69896 13.5192 4.70011 11.4545 4.69896 9.38985C4.69782 7.76038 5.13648 6.26526 6.03906 4.90335C6.22509 4.62201 6.42605 4.4911 6.77973 4.4934C9.79983 4.50718 12.8199 4.50718 15.8389 4.49569C16.2511 4.49454 16.3809 4.53703 16.173 4.98373C15.4806 6.47426 15.1579 8.04402 15.1671 9.6999C15.1889 13.9625 15.1568 18.2251 15.1705 22.4888C15.1717 22.9596 15.0649 23.0905 14.5815 23.0859C11.4856 23.0618 8.38853 23.063 5.29265 23.0859C4.80117 23.0894 4.68633 22.9298 4.69093 22.467C4.7116 20.1726 4.70011 17.8794 4.70011 15.5851L4.69896 15.5839Z" fill="#FEFEFE"/>
<path id="Vector_6" d="M16.0766 15.6723C16.0766 13.4733 16.0662 11.2731 16.08 9.07407C16.0892 7.5445 16.529 6.14584 17.388 4.87005C17.6463 4.48651 17.7692 4.54048 18.0035 4.88498C18.96 6.29282 19.3746 7.86029 19.3803 9.53799C19.3941 13.8224 19.3803 18.1056 19.3929 22.39C19.3941 22.8815 19.3011 23.1296 18.7292 23.0859C18.0253 23.0331 17.3145 23.048 16.6082 23.0825C16.1903 23.1032 16.0593 22.9998 16.0651 22.5554C16.0904 20.2611 16.0766 17.9656 16.0766 15.67V15.6723Z" fill="#FEFEFE"/>
<path id="Vector_7" d="M9.99159 10.1064C11.2697 10.1064 12.5478 10.1064 13.8259 10.1064C14.1428 10.1064 14.4827 10.0984 14.4896 10.5336C14.4965 10.9964 14.1451 11.009 13.8029 11.009C11.2662 11.009 8.72843 11.009 6.19178 11.009C5.84958 11.009 5.49016 10.9941 5.49705 10.5393C5.50508 10.0697 5.88518 10.1064 6.2136 10.1064C7.47217 10.1064 8.73188 10.1064 9.99044 10.1064H9.99159Z" fill="#029FD1"/>
<path id="Vector_8" d="M9.99734 13.2241C8.7181 13.2241 7.44002 13.2218 6.16078 13.2264C5.8381 13.2264 5.49475 13.2161 5.48327 12.8038C5.47064 12.3525 5.82547 12.333 6.17341 12.333C8.71236 12.3365 11.2513 12.333 13.7891 12.3365C14.1164 12.3365 14.4907 12.3135 14.4942 12.7889C14.4965 13.1759 14.2037 13.2264 13.8913 13.2264C12.5937 13.2241 11.2949 13.2264 9.99734 13.2264V13.2241Z" fill="#04A0D1"/>
<path id="Vector_9" d="M9.99045 15.4519C8.80768 15.4519 7.6249 15.4519 6.44098 15.4519C6.30777 15.4519 6.17342 15.4542 6.04021 15.4496C5.74739 15.4392 5.48787 15.352 5.48327 15.0098C5.47868 14.6297 5.74739 14.5596 6.07007 14.5608C7.82586 14.5654 9.5805 14.5631 11.3363 14.5631C12.1378 14.5631 12.9394 14.5596 13.7409 14.5654C14.075 14.5677 14.5034 14.485 14.4873 15.0132C14.4712 15.5219 14.0429 15.4484 13.711 15.4507C12.4708 15.4576 11.2306 15.453 9.99045 15.4542V15.4519Z" fill="#04A0D1"/>
</g>
</g>
</g>
</svg>
