<svg width="24" height="24" viewBox="0 0 24 24" fill="none" xmlns="http://www.w3.org/2000/svg">
<g id="sushi 1" clip-path="url(#clip0_111_444)">
<g id="Layer 1">
<g id="Group">
<g id="Group_2">
<path id="Vector" opacity="0.22" d="M11.5292 14.7913L8.63914 15.1685L6.59491 16.4393L11.7059 17.5222L17.7324 17.6164L22.843 16.3451L20.0938 14.7913H11.5292Z" fill="black"/>
<path id="Vector_2" opacity="0.33" d="M19.6956 15.0446L20.8988 16.101L17.4266 16.9734L11.2712 16.928L8.86398 16.4219L10.5833 14.9986L19.6956 15.0446Z" fill="black"/>
<g id="Group_3">
<path id="Vector_3" d="M20.2085 3.63207L22.1575 6.83712L21.9999 9.92094L22.3674 12.9263L20.5982 15.4505L17.145 16.2899L12.7576 15.9397L10.2555 16.2028L8.94336 14.741L7.49993 13.9232L6.64716 9.42356L8.09262 4.79351L11.3911 3.15147L16.1298 2.87112L20.2085 3.63207Z" fill="#F5ECE0"/>
<path id="Vector_4" d="M14.2727 10.5617L13.1242 11.038L12.1077 10.7555L12.1345 11.9012L13.7663 11.3622L14.2731 10.5617H14.2727ZM17.1713 11.3854L18.4964 11.9196L18.6419 9.80295L17.1713 11.3854ZM9.18237 12.9782L9.33024 14.1207L10.4646 14.4942L11.5005 13.6591H9.65879L9.18237 12.9782ZM15.1566 14.0531L13.8497 13.2597L12.841 14.1494L14.5068 14.8081L15.2514 14.1938L16.9914 14.2641L15.7506 13.2066L15.1562 14.0525L15.1566 14.0531Z" fill="#EBD8C0"/>
<path id="Vector_5" d="M9.21237 8.95271L8.68329 11.4363L9.57779 12.2568L10.2276 10.5947L9.98574 8.95162L9.21278 8.95271H9.21237ZM12.4663 10.4805L11.4669 10.5374L10.4557 11.5473L10.8187 12.3824L11.8063 12.365L11.7472 13.9719L12.6773 14.1586L13.7659 11.3622L12.2398 11.6382L12.4663 10.48V10.4805ZM16.8306 9.93446L17.1713 11.3855L19.0936 9.64383L18.4329 8.53922L19.2346 8.83905L18.7634 7.16617L17.5501 6.76892L17.527 8.20042L18.3061 8.4916L16.8302 9.93446H16.8306ZM15.9868 12.384L16.7297 13.8204L18.1938 13.7484L18.3441 12.7596L16.5248 11.4601L15.9868 12.384ZM12.1377 9.87223L11.9157 8.12303L11.1748 7.19972L10.335 7.79614L11.2959 9.89983L12.1377 9.87223ZM18.8125 10.5238L19.0494 12.6356L20.0967 11.6869L20.1988 10.316L18.812 10.5238H18.8125ZM16.8557 9.09721L16.2173 8.15334L14.3744 9.42627L14.3626 8.14739L13.238 7.99747L13.0334 9.83272L14.3027 9.68442L14.6669 10.5298L13.983 11.3519L14.2808 13.3744L15.0882 13.8718L15.533 12.8142L14.9403 10.4378L15.9207 10.2857L16.8557 9.09775V9.09721Z" fill="white"/>
</g>
<path id="Vector_6" d="M22.0327 9.27853L22.1575 6.83713L21.8804 6.38197L17.3301 3.34253L8.06021 4.89743L6.64716 9.42358L6.86025 10.5493L8.36324 8.31626H9.69445L10.3742 6.93671L15.102 7.48117L17.7928 6.13788L19.8577 8.02563L20.646 7.51743L22.0327 9.27853Z" fill="#EBD8C0"/>
<path id="Vector_7" d="M18.6423 4.92556L21.2322 6.35219L23.2983 7.64948L24 6.24341L21.0471 1.95323L14.5859 0L8.15339 2.07067L5.04938 5.69625L5.13729 8.1961L9.33755 5.70003L14.5263 5.5972L18.6423 4.92556Z" fill="#FFA785"/>
<path id="Vector_8" d="M5.6842 5.95008L8.09061 2.79645L14.5162 0.695465L20.578 2.52205L23.2931 6.10379L20.0311 3.67862L14.1974 2.4912L8.68289 4.34918L5.6842 5.95008Z" fill="#FFC5A0"/>
<path id="Vector_9" d="M19.7191 1.55111L17.9516 3.19369L18.5244 5.39154L18.5329 5.38992L19.2038 5.75524L18.7707 3.35443L20.4228 1.76381L19.7191 1.55111ZM9.90472 1.50673L9.2379 1.72051L8.18216 4.72964L9.69244 6.12976L10.5286 6.12272L9.02035 4.36811L9.90431 1.50619L9.90472 1.50673ZM7.39339 2.95772L6.80273 3.64884L6.32834 6.05994L7.44606 7.09582L8.21214 6.73158L6.88538 5.62048L7.3938 2.95772H7.39339ZM12.651 0.622393L11.9498 0.847536L10.5416 4.14189L12.3358 6.10919L13.0687 6.10324L11.4101 3.86912L12.6506 0.621851L12.651 0.622393ZM15.1713 0.176976L14.5859 0L12.9881 3.21425L14.8091 6.03396L15.418 5.92897L13.8453 2.94527L15.1713 0.176976ZM17.1685 0.779885L15.5387 2.922L16.69 5.70869L17.2908 5.60478L16.4186 2.89385L17.8276 0.979592L17.1685 0.779885ZM22.1571 3.56604L20.4872 4.23227L20.4467 6.43283L20.979 6.72238L21.2116 4.76807L22.5233 4.09805L22.1571 3.56658V3.56604Z" fill="#F59470"/>
<path id="Vector_10" d="M9.46923 6.13246L14.4688 6.09295L18.5329 5.38992L20.9794 6.72238L23.2983 7.64947L18.4612 4.0975L14.4023 4.53859L9.1824 4.98455L5.1373 8.19609L9.46923 6.13246Z" fill="#F59470"/>
<path id="Vector_11" d="M9.1824 4.98455L8.79187 5.29412L9.69245 6.12975H9.71716L10.5282 6.12271L9.52432 4.95532L9.1824 4.98455ZM11.1557 4.81569L12.3358 6.10918L12.6875 6.10648L13.0687 6.10323L12.0555 4.73884L11.1561 4.81569H11.1557ZM16.1286 4.35025L16.6896 5.70869L17.2904 5.60478L16.8614 4.27123L16.1286 4.35025ZM14.4019 4.53859L13.8716 4.58351L14.8083 6.03396L15.4172 5.92896L14.6685 4.50991L14.4019 4.53913V4.53859ZM20.4621 5.56743L20.4463 6.43229L20.9786 6.72238L21.0633 6.00852L20.4621 5.56743ZM18.4608 4.0975L18.1943 4.12673L18.524 5.39154L18.5325 5.38992L19.2034 5.75523L18.9721 4.4731L18.4612 4.09804L18.4608 4.0975ZM7.01948 6.70127L7.44526 7.09581L7.46187 7.08878L8.21093 6.73158L7.61257 6.23042L7.01907 6.70127H7.01948Z" fill="#EC7755"/>
</g>
<g id="Group_4">
<path id="Vector_12" opacity="0.22" d="M6.47946 21.1749L3.58976 21.5516L1.54553 22.8229L6.6561 23.9058L12.683 24L17.7936 22.7293L15.0445 21.1749H6.47946Z" fill="black"/>
<path id="Vector_13" opacity="0.33" d="M14.6462 21.4276L15.8494 22.4846L12.3768 23.3576L6.22181 23.311L3.815 22.8056L5.53392 21.3822L14.6462 21.4276Z" fill="black"/>
<g id="Group_5">
<path id="Vector_14" d="M15.1591 10.0151L17.1081 13.2202L16.9497 16.304L17.318 19.3104L15.5484 21.8336L12.0952 22.6735L7.70817 22.3228L5.20616 22.5858L3.89399 21.1251L2.45055 20.3073L1.59778 15.8077L3.04324 11.1766L6.34171 9.534L11.0804 9.25473L15.1591 10.0151Z" fill="#F5ECE0"/>
<path id="Vector_15" d="M9.22331 16.9453L8.0748 17.4216L7.05836 17.1391L7.08469 18.2854L8.71651 17.7453L9.22331 16.9448V16.9453ZM12.1219 17.7691L13.4471 18.3032L13.5921 16.1877L12.1215 17.7691H12.1219ZM4.1326 19.3629L4.28047 20.5044L5.4152 20.8783L6.45109 20.0438H4.60942L4.1326 19.3629ZM10.1073 20.4372L8.80037 19.6438L7.79122 20.5341L9.45666 21.1922L10.2021 20.578L11.9417 20.6494L10.7008 19.5908L10.1069 20.4372H10.1073Z" fill="#EBD8C0"/>
<path id="Vector_16" d="M4.163 15.3358L3.63391 17.8194L4.52841 18.6409L5.17782 16.9789L4.93637 15.3352L4.1634 15.3363L4.163 15.3358ZM7.4169 16.8641L6.41748 16.921L5.40671 17.9303L5.76929 18.7654L6.75697 18.7486L6.69782 20.355L7.62756 20.5433L8.71652 17.7458L7.19044 18.0223L7.4169 16.8641ZM11.7812 16.3175L12.1219 17.7685L14.0438 16.0274L13.3835 14.9217L14.1852 15.2221L13.7141 13.5492L12.5007 13.152L12.4776 14.5829L13.2567 14.8752L11.7808 16.317L11.7812 16.3175ZM10.9374 18.767L11.6804 20.2045L13.1445 20.132L13.2944 19.1437L11.4754 17.8432L10.9374 18.767ZM7.08795 16.2558L6.86554 14.5072L6.12498 13.5828L5.28477 14.1803L6.24611 16.2845L7.08795 16.2558ZM13.7627 16.9069L13.9997 19.0198L15.0473 18.07L15.1494 16.6991L13.7627 16.9074V16.9069ZM11.806 15.4808L11.1675 14.5375L9.3246 15.8104L9.31245 14.5304L8.18825 14.3811L7.98326 16.2169L9.25249 16.068L9.61669 16.9134L8.93245 17.736L9.23062 19.758L10.0376 20.2559L10.4828 19.1978L9.89015 16.8225L10.8709 16.6704L11.806 15.4819V15.4808Z" fill="white"/>
</g>
<path id="Vector_17" d="M16.9829 15.6621L17.1081 13.2202L16.831 12.7661L12.2807 9.72665L3.01083 11.2816L1.59778 15.8077L1.81087 16.9334L3.31345 14.6993H4.64508L5.32446 13.3203L10.0526 13.8653L12.7434 12.522L14.8083 14.4092L15.5962 13.9016L16.9829 15.6621Z" fill="#EBD8C0"/>
<path id="Vector_18" d="M13.5925 11.3097L16.1828 12.7352L18.2489 14.0325L18.9506 12.627L15.9977 8.33629L9.53607 6.38306L3.10361 8.45373L0 12.0804L0.0875055 14.5802L4.28777 12.0836L9.47692 11.9803L13.5925 11.3097Z" fill="#FFA785"/>
<path id="Vector_19" d="M0.634827 12.3331L3.04123 9.17949L9.4668 7.07959L15.5282 8.90509L18.2437 12.4874L14.9813 10.0627L9.14757 8.87533L3.63351 10.7322L0.634827 12.3331Z" fill="#FFC5A0"/>
<path id="Vector_20" d="M14.6693 7.93526L12.9018 9.57783L13.4742 11.7752L13.4831 11.7735L14.154 12.1383L13.7209 9.73749L15.3726 8.14687L14.6693 7.93472V7.93526ZM4.85492 7.89034L4.1881 8.1052L3.13196 11.1132L4.64264 12.5139L5.47881 12.5079L3.97015 10.7528L4.85452 7.89034H4.85492ZM2.3436 9.34241L1.75253 10.0325L1.27814 12.4441L2.39626 13.4805L3.16234 13.1152L1.83558 12.0046L2.344 9.34241H2.3436ZM7.60122 7.00708L6.89996 7.23223L5.49217 10.5266L7.28644 12.4939L8.0189 12.4879L6.36034 10.2533L7.60081 7.00708H7.60122ZM10.1219 6.56058L9.53606 6.38361L7.93828 9.5984L9.75928 12.4181L10.3678 12.3126L8.79551 9.32942L10.1223 6.56058H10.1219ZM12.1191 7.16457L10.4889 9.30615L11.6402 12.0923L12.241 11.9884L11.3692 9.278L12.7782 7.36374L12.1191 7.16403V7.16457ZM17.1077 9.95073L15.4378 10.6164L15.3969 12.817L15.9292 13.1071L16.1618 11.1522L17.4735 10.4827L17.1073 9.95073H17.1077Z" fill="#F59470"/>
<path id="Vector_21" d="M4.41942 12.5155L9.41898 12.4766L13.4835 11.7735L15.9296 13.106L18.2489 14.0325L13.4118 10.4817L9.35295 10.9217L4.1326 11.3682L0.0874939 14.5802L4.41942 12.5155Z" fill="#F59470"/>
<path id="Vector_22" d="M4.13262 11.3682L3.74249 11.6788L4.64307 12.5139H4.66778L5.47883 12.5074L4.47454 11.3395L4.13262 11.3682ZM6.10636 11.1998L7.28647 12.4933L7.63811 12.4906L8.01892 12.4874L7.00572 11.123L6.10636 11.1993V11.1998ZM11.0792 10.7355L11.6399 12.0923L12.2407 11.9884L11.812 10.6548L11.0792 10.7349V10.7355ZM9.35257 10.9222L8.82227 10.9671L9.7589 12.4181L10.3674 12.3126L9.61913 10.8935L9.35257 10.9227V10.9222ZM15.4127 11.951L15.3969 12.8164L15.9293 13.1065L16.0143 12.3932L15.4131 11.9516L15.4127 11.951ZM13.411 10.4822L13.1445 10.5103L13.4738 11.7752L13.4827 11.7735L14.1536 12.1383L13.9223 10.8567L13.4114 10.4817L13.411 10.4822ZM1.9701 13.0849L2.39629 13.4794L2.41249 13.4713L3.16196 13.1141L2.5636 12.6129L1.9697 13.0843L1.9701 13.0849Z" fill="#EC7755"/>
</g>
</g>
</g>
</g>
<defs>
<clipPath id="clip0_111_444">
<rect width="24" height="24" fill="white"/>
</clipPath>
</defs>
</svg>
