<svg width="24" height="24" viewBox="0 0 24 24" fill="none" xmlns="http://www.w3.org/2000/svg">
<g id="tuoi song 1">
<g id="Layer 1">
<g id="Group">
<path id="Vector" d="M20.214 7.01373C19.9924 9.14744 19.177 11.0389 17.8324 12.7052C15.8871 15.1154 13.3895 16.8469 10.7185 18.3509C9.07867 19.2743 7.39637 20.1177 5.62795 20.7772C5.3581 20.7566 5.12499 20.9017 4.87006 20.9543C4.59216 21.0114 4.34298 21.0389 4.16039 20.7829C3.96058 20.504 4.16958 20.296 4.29819 20.072C4.4268 19.8492 4.70011 19.7177 4.71159 19.4217C7.08518 16.7977 8.69972 13.7806 9.47025 10.3257C9.82164 8.75202 10.0433 7.14859 10.5669 5.61601C11.0664 4.15544 11.7347 2.7863 12.9118 1.73487C13.5399 1.17259 14.2645 0.776015 15.1269 0.688015C15.5242 0.614872 15.9215 0.608015 16.3177 0.690301C18.689 1.07087 20.0854 3.80573 20.2059 5.82059C20.2955 6.2183 20.2771 6.61601 20.2128 7.01373H20.214Z" fill="#0191C9"/>
<path id="Vector_2" d="M6.43637 21.7212C8.01187 21.1966 9.5334 20.544 11.0262 19.8172C12.8773 18.9154 14.4976 17.6663 16.1707 16.4983C16.8299 16.0377 17.5085 15.6137 18.2802 15.376C19.378 15.0377 20.4287 15.0537 21.337 15.88C22.2718 16.7314 22.3315 17.8286 22.0812 18.9349C21.6482 20.8492 20.2622 21.9292 18.534 22.6366C17.5384 23.0434 16.5072 23.3383 15.4105 23.3132C15.066 23.4343 14.6997 23.2892 14.3541 23.3989C13.8924 23.3989 13.4308 23.3977 12.968 23.3966C12.5845 23.2903 12.1814 23.4354 11.799 23.3132L11.133 23.2823C10.939 23.1966 10.7196 23.296 10.5256 23.2023C9.13379 23.1943 7.79254 22.84 6.43407 22.6023C6.18029 22.3097 6.18259 22.016 6.43407 21.7234L6.43637 21.7212Z" fill="#0192C9"/>
<path id="Vector_3" d="M6.67177 12.1326C6.42144 14.2012 5.41091 15.9337 4.23732 17.5954C3.67924 17.8652 3.48746 17.7783 3.44727 17.2389C3.6666 15.7406 3.37608 14.3052 3.04536 12.8434C2.8111 11.8092 2.83981 10.6834 3.70565 9.81944C4.15924 9.36801 4.68287 9.11887 5.33282 9.34515C5.96555 9.56572 6.43981 9.94287 6.55349 10.6514C6.57646 10.7932 6.63043 10.9303 6.66947 11.0697C6.74756 11.424 6.74756 11.7783 6.66947 12.1337L6.67177 12.1326Z" fill="#0291C8"/>
<path id="Vector_4" d="M4.71273 19.4206C4.87923 19.8228 4.38201 19.9337 4.33837 20.2583C4.3177 20.4171 4.06392 20.5348 4.26603 20.744C4.42105 20.904 4.57837 20.8594 4.77474 20.8434C5.05837 20.8206 5.33053 20.5817 5.62794 20.7771C4.45091 21.3394 3.21186 21.7383 1.9556 22.1257C2.89608 21.2388 3.84919 20.376 4.71158 19.4217L4.71273 19.4206Z" fill="#028FC7"/>
<path id="Vector_5" d="M3.44726 17.2377C3.52649 17.76 3.90888 17.6172 4.2373 17.5943C3.8951 18.2892 3.38525 18.8594 2.81912 19.4114C3.02927 18.6869 3.23826 17.9623 3.4484 17.2377H3.44726Z" fill="#048FC7"/>
<path id="Vector_6" d="M6.43637 21.7211C6.37092 22.0137 6.36977 22.3074 6.43637 22.6C5.91503 22.4857 5.39254 22.3703 4.78049 22.2354C5.39254 22.0446 5.91388 21.8823 6.43637 21.72V21.7211Z" fill="#0391C9"/>
<path id="Vector_7" d="M16.3189 0.690292C15.9215 0.690292 15.5254 0.688006 15.1281 0.688006C15.5254 0.548577 15.9227 0.542863 16.3189 0.690292Z" fill="#0291C9"/>
<path id="Vector_8" d="M20.214 7.01373C20.2117 6.61602 20.2094 6.2183 20.2071 5.82059C20.3231 6.21716 20.3127 6.61487 20.214 7.01373Z" fill="#0291C9"/>
<path id="Vector_9" d="M11.8013 23.3131C12.1918 23.3371 12.5925 23.2114 12.9703 23.3966C12.5787 23.3977 12.1837 23.448 11.8013 23.3131Z" fill="#0391C9"/>
<path id="Vector_10" d="M6.67178 12.1326C6.67178 11.7783 6.67178 11.424 6.67178 11.0686C6.80154 11.4229 6.79465 11.7771 6.67178 12.1326Z" fill="#0492C9"/>
<path id="Vector_11" d="M14.3552 23.3977C14.694 23.208 15.0591 23.3383 15.4117 23.312C15.0683 23.4423 14.7101 23.3988 14.3552 23.3977Z" fill="#0391C9"/>
<path id="Vector_12" d="M8.84556 13.5989C8.85704 13.4674 8.83637 13.3223 8.8846 13.2057C9.5713 11.5326 9.86757 9.76343 10.227 8.00686C10.4923 6.70972 10.8149 5.40343 11.419 4.23543C12.1826 2.75658 13.2425 1.45372 14.9581 0.993148C15.9537 0.725719 16.9527 0.970291 17.7428 1.63658C19.6903 3.27886 20.299 5.39658 19.8144 7.85829C19.2494 10.728 17.5545 12.872 15.3749 14.7063C15.143 14.9017 14.9225 15.1097 14.6963 15.312C14.617 15.3726 14.5355 15.3851 14.4517 15.3211C14.4103 15.0217 14.64 14.8823 14.8214 14.7257C16.1225 13.6 17.3294 12.3931 18.232 10.912C19.1334 9.43315 19.6823 7.84115 19.5778 6.10515C19.4802 4.46058 18.9244 2.97829 17.5303 1.95086C16.0949 0.892576 14.6595 1.19429 13.4136 2.28115C12.0884 3.43772 11.435 4.99429 10.9688 6.64115C10.4923 8.32229 10.281 10.0663 9.75503 11.7349C9.66776 11.9326 9.56096 12.1246 9.55063 12.3486C9.51962 12.5337 9.46451 12.7109 9.39331 12.8846C9.30719 13.0411 9.21187 13.1943 9.17628 13.3737C9.14068 13.4766 9.08671 13.5657 8.99025 13.624C8.93628 13.6434 8.8869 13.6366 8.84326 13.5989H8.84556Z" fill="#0097CC"/>
<path id="Vector_13" d="M14.4666 15.3109H14.6963C13.8833 16.1406 12.9026 16.7497 11.9219 17.3474C10.9585 17.9349 9.95944 18.4674 8.96384 19C8.45398 19.2731 7.95102 19.584 7.35389 19.6503C7.34585 19.6229 7.33781 19.5954 7.32977 19.5669C7.34585 19.4789 7.39178 19.408 7.45838 19.3497C8.59178 18.6537 9.86528 18.2217 10.9826 17.4926C11.9656 16.8503 12.9761 16.2491 13.92 15.5486C14.0785 15.4309 14.2186 15.24 14.4666 15.3109Z" fill="#0094CA"/>
<path id="Vector_14" d="M7.35387 19.6503C6.73722 20.1269 5.98507 20.2617 5.25473 20.4171C5.01014 20.4697 4.76095 20.256 4.92516 19.9337C5.32019 19.1554 5.80823 18.4389 6.43636 17.824C6.57875 17.9806 6.46966 18.1234 6.41454 18.2709C6.39158 18.3189 6.36287 18.3646 6.33301 18.4091C6.18947 18.6103 6.03789 18.808 5.93339 19.032C5.83464 19.2457 5.60268 19.4674 5.80823 19.7074C6.00804 19.9406 6.26182 19.7771 6.49722 19.7074C6.77627 19.624 7.05186 19.408 7.35502 19.6526L7.35387 19.6503Z" fill="#0094CA"/>
<path id="Vector_15" d="M6.32153 18.28C6.35943 18.128 6.39847 17.976 6.43637 17.8229C7.25742 16.7726 7.87522 15.608 8.40689 14.392C8.52747 14.1166 8.69857 13.8617 8.8467 13.5977H8.96153C9.1246 13.7737 9.03273 13.952 8.96383 14.128C8.41148 15.5394 7.59043 16.7989 6.72689 18.032C6.63158 18.168 6.54201 18.3337 6.32383 18.2789L6.32153 18.28Z" fill="#0098CD"/>
<path id="Vector_16" d="M12.8601 19.3074C13.0955 18.9863 13.4802 18.8617 13.7776 18.6228C14.1336 18.4114 14.485 18.1943 14.81 17.9383C14.8478 17.9006 14.8869 17.8617 14.9248 17.824C15.1028 17.6777 15.3095 17.5737 15.4921 17.4331C16.1236 16.9623 16.7816 16.5303 17.4488 16.112C17.7198 16.0068 17.9851 15.8857 18.2515 15.7691C18.7636 15.6263 19.27 15.4811 19.8189 15.584C21.5368 15.9063 22.0651 17.5428 21.716 18.8526C21.2567 20.5703 20.0624 21.6503 18.4662 22.2731C16.4475 23.0606 14.3414 23.2674 12.1791 23.0354C11.2536 22.936 10.3211 22.9017 9.40134 22.7463C9.27617 22.6526 9.12804 22.5714 9.18775 22.3737C9.82163 22.2297 10.4268 22.464 11.0389 22.5417C13.5881 22.864 16.0926 22.792 18.4938 21.7863C19.8155 21.232 20.8364 20.3268 21.2165 18.8983C21.4232 18.1211 21.4519 17.3234 20.8203 16.648C20.2071 15.992 19.4676 15.9223 18.6637 16.1246C17.8346 16.3326 17.1238 16.7828 16.4406 17.2754C15.5437 17.9223 14.6274 18.5417 13.7202 19.1748C13.4767 19.3451 13.2299 19.5554 12.8877 19.464C12.8302 19.4217 12.8211 19.3703 12.8589 19.3108L12.8601 19.3074Z" fill="#0099CD"/>
<path id="Vector_17" d="M9.41857 22.6194C9.71139 22.8411 10.08 22.7783 10.3992 22.8171C11.5074 22.9509 12.6293 23.0834 13.7409 23.056C15.4278 23.0149 17.1227 22.8206 18.6729 22.1029C20.1347 21.4263 21.321 20.3737 21.6482 18.7394C22.0364 16.8034 20.7617 15.3211 18.7625 15.7326C18.5971 15.7669 18.4226 15.7577 18.2515 15.7691C19.5273 14.9817 21.3451 15.6549 21.7872 17.1577C22.1455 18.376 21.7987 19.472 21.0511 20.4606C19.8523 22.0457 18.147 22.664 16.2626 22.976C13.773 23.3886 11.3122 23.1371 8.8536 22.7371C8.8157 22.7314 8.77436 22.7337 8.74106 22.7189C8.34029 22.5406 7.65704 22.568 7.66508 22.0514C7.67197 21.5851 8.25532 21.3737 8.72958 21.2503C8.77551 21.3474 8.73647 21.4297 8.68594 21.5097C8.28403 22.1417 8.30125 22.1851 9.00058 22.4697C9.13838 22.5257 9.28881 22.5429 9.41742 22.6206L9.41857 22.6194Z" fill="#0194CA"/>
<path id="Vector_18" d="M9.41855 22.6194C9.28534 22.6171 9.14295 22.6434 9.02008 22.6057C8.69396 22.5051 8.31501 22.4183 8.19444 22.0651C8.08879 21.7566 8.45396 21.6423 8.59979 21.4354C8.64343 21.3737 8.68707 21.312 8.72956 21.2503C9.03386 21.096 9.36688 20.9966 9.64707 20.7931H9.87673C10.3188 20.5726 10.7173 20.2537 11.2283 20.1829C11.35 20.5017 11.0687 20.5554 10.8941 20.6606C10.4061 20.9543 9.85147 21.1177 9.36343 21.4126C8.76056 21.7749 8.75367 21.8251 9.19003 22.392C9.26697 22.4686 9.34276 22.544 9.4197 22.6206L9.41855 22.6194Z" fill="#0098CC"/>
<path id="Vector_19" d="M11.2547 20.2206C10.7954 20.4103 10.3372 20.6011 9.8779 20.7909C10.5956 20.2103 11.4523 19.8926 12.2871 19.5349C12.2951 19.5611 12.3043 19.5863 12.3123 19.6126C12.0907 20.0411 11.7256 20.2217 11.2547 20.2194V20.2206Z" fill="#0294CA"/>
<path id="Vector_20" d="M17.4499 16.1109C16.885 16.688 16.1627 17.0423 15.5001 17.4812C15.4622 17.5246 15.4231 17.5246 15.3853 17.4812C15.9973 16.9097 16.6427 16.3897 17.4499 16.1109Z" fill="#0194CA"/>
<path id="Vector_21" d="M14.8111 17.9371C14.5504 18.2903 14.2048 18.5166 13.7787 18.6217C14.0681 18.312 14.4103 18.08 14.8111 17.9371Z" fill="#0295CB"/>
<path id="Vector_22" d="M9.64822 20.792C9.41741 21.0937 9.10162 21.2263 8.73071 21.2491C8.98105 20.9863 9.29799 20.856 9.64822 20.792Z" fill="#0194CA"/>
<path id="Vector_23" d="M18.2526 15.768C18.0253 15.976 17.7669 16.1109 17.45 16.1109C17.6773 15.9029 17.9357 15.768 18.2526 15.768Z" fill="#0194CA"/>
<path id="Vector_24" d="M15.3841 17.4811H15.4989C15.329 17.6297 15.1705 17.7989 14.9248 17.824C15.0258 17.6411 15.151 17.4903 15.3841 17.4811Z" fill="#0295CB"/>
<path id="Vector_25" d="M12.8601 19.3074C12.8601 19.3451 12.8601 19.384 12.8601 19.4217C12.7143 19.6834 12.519 19.7029 12.2871 19.536C12.4364 19.3543 12.6362 19.3006 12.8601 19.3074Z" fill="#0295CB"/>
<path id="Vector_26" d="M3.68269 14.512C3.5667 13.8057 3.37379 13.1166 3.28996 12.4011C3.20613 11.6789 3.28996 11.0114 3.68498 10.4034C4.11446 9.74171 4.6312 9.50628 5.19618 9.66971C5.9024 9.87428 6.38814 10.48 6.43637 11.2011C6.49149 12.0251 6.35139 12.8206 6.09187 13.5989C5.81972 14.1977 5.62106 14.8309 5.24556 15.3806C5.12843 15.5509 5.03886 15.736 4.8712 15.8766C4.41072 16.2617 3.98584 16.1394 3.86527 15.5623C3.79292 15.2149 3.77111 14.8571 3.68269 14.512Z" fill="#0096CB"/>
<path id="Vector_27" d="M3.68269 14.512C3.85034 14.7303 3.88365 14.9966 3.90202 15.2503C3.92499 15.576 4.00537 15.9074 4.32575 15.9646C4.65073 16.0229 4.89876 15.7611 5.08939 15.4823C5.4936 14.8903 5.65666 14.1726 6.09188 13.5977C5.87599 14.7246 5.28116 15.6491 4.51408 16.4754C4.20977 16.8034 3.97781 16.7223 3.88824 16.2971C3.76422 15.7086 3.6758 15.1154 3.68269 14.5109V14.512Z" fill="#0093CA"/>
<path id="Vector_28" d="M6.32154 18.28C7.24709 17.1543 8.00728 15.9246 8.59752 14.5966C8.73991 14.2777 8.9891 13.9829 8.96039 13.5977C8.99829 13.5211 9.03733 13.4457 9.07523 13.3691C9.16365 13.2229 9.17972 13.0411 9.30489 12.912C9.34278 12.7211 9.38183 12.5314 9.41972 12.3406C9.56671 12.1783 9.54374 11.9486 9.64939 11.7691C10.2913 9.34286 10.498 6.79658 11.6119 4.50058C12.3296 3.02058 13.2907 1.76915 14.9765 1.25143C16.2477 0.860577 17.7267 1.61029 18.4467 2.58401C19.8075 4.42286 20.0486 6.45029 19.409 8.62629C18.6523 11.1989 16.947 13.0766 14.9765 14.7737C14.7893 14.9349 14.5929 15.088 14.4689 15.3086C12.6339 16.6309 10.7943 17.9429 8.68709 18.8251C8.27255 18.9989 7.92575 19.3211 7.46987 19.4183C7.18738 19.5714 6.87389 19.6343 6.56613 19.7131C6.31924 19.776 6.12173 19.6709 5.9713 19.4857C5.82317 19.3029 5.85073 19.1029 5.95752 18.9074C6.07465 18.6949 6.19293 18.4823 6.32269 18.2766L6.32154 18.28Z" fill="#009ACE"/>
<path id="Vector_29" d="M9.64824 11.7714C9.64709 11.992 9.68613 12.2286 9.41857 12.3429C9.41168 12.1189 9.46565 11.92 9.64824 11.7714Z" fill="#0098CD"/>
<path id="Vector_30" d="M9.30372 12.9131C9.28535 13.0937 9.22334 13.2537 9.07406 13.3703C9.06372 13.1749 9.09473 13 9.30372 12.9131Z" fill="#0098CD"/>
<path id="Vector_31" d="M6.32153 18.28C6.25263 18.4549 6.18832 18.632 6.11253 18.8034C6.02067 19.0114 5.87368 19.2286 6.07808 19.432C6.27674 19.6286 6.52019 19.7006 6.81071 19.5863C7.01971 19.504 7.24823 19.4743 7.46871 19.4217C7.43081 19.4983 7.39177 19.5737 7.35387 19.6503C6.99789 19.6251 6.68555 19.768 6.3732 19.9074C6.11024 20.024 5.8622 20.0503 5.63942 19.8217C5.42009 19.5966 5.5889 19.3989 5.68765 19.2034C5.85646 18.8686 6.00115 18.5143 6.32153 18.28Z" fill="#0098CD"/>
<path id="Vector_32" d="M12.2871 19.536C12.488 19.5486 12.6832 19.5303 12.8601 19.4217C13.7604 19.1486 14.3988 18.4617 15.1659 17.9783C16.2396 17.3006 17.1847 16.408 18.4364 16.0286C19.254 15.7806 20.036 15.7589 20.7491 16.36C21.5713 17.0526 21.6161 17.9566 21.383 18.8606C20.9535 20.528 19.7225 21.4572 18.186 22.0869C16.8448 22.6366 15.4082 22.8297 14.013 22.8869C12.4111 22.9532 10.7805 22.7212 9.18889 22.3909C8.89492 22.3657 8.73416 22.168 8.69167 21.9154C8.64688 21.6526 8.86047 21.5223 9.07636 21.416C9.63904 21.1406 10.1994 20.8617 10.7575 20.5783C10.9401 20.4857 11.1606 20.4389 11.2536 20.2206C11.6038 20.0012 12.062 19.944 12.2859 19.536H12.2871Z" fill="#009ACE"/>
<path id="Vector_33" d="M6.20671 11.896C6.04479 12.9189 5.76345 14.0366 5.07101 15.0309C4.69551 15.5703 4.26948 15.4846 4.08575 14.8994C3.73092 13.768 3.44269 12.6 3.57934 11.3943C3.68269 10.4789 4.50833 9.82515 5.23063 10.0366C5.77608 10.1954 6.19867 10.9406 6.20556 11.8971L6.20671 11.896Z" fill="#009BCE"/>
<path id="Vector_34" d="M19.5319 6.45485C19.3642 8.44685 18.7269 10.2549 17.4683 11.7909C16.227 13.3063 14.826 14.6743 13.2161 15.816C11.4741 17.0514 9.62525 18.1074 7.69147 19.0091C7.34009 19.1737 6.87387 19.4651 6.53626 19.0674C6.21013 18.6846 6.65224 18.36 6.84171 18.0697C7.74315 16.6834 8.58257 15.2686 9.20612 13.7303C9.91463 11.9829 10.3051 10.1531 10.6829 8.31885C11.0331 6.61942 11.5223 4.97028 12.488 3.504C12.929 2.83428 13.5135 2.28114 14.2025 1.86285C15.5253 1.06057 17.2329 1.49714 18.3054 2.87085C19.1345 3.93257 19.4159 5.17028 19.5319 6.45485Z" fill="#009ED0"/>
<path id="Vector_35" d="M13.6674 22.7657C12.4513 22.6377 11.2628 22.5154 10.0754 22.384C9.9445 22.3691 9.81819 22.3154 9.69187 22.272C9.48517 22.2 9.28307 22.0754 9.26584 21.8594C9.24862 21.6309 9.46106 21.5211 9.65168 21.4126C10.7587 20.784 11.9702 20.3497 13.0335 19.6423C14.2519 18.8331 15.4565 18.0023 16.6576 17.168C17.21 16.7851 17.8013 16.4926 18.4249 16.2446C19.3413 15.88 20.2174 16.0137 20.7835 16.6366C21.3899 17.3051 21.5035 18.304 21.1269 19.1337C20.4448 20.6354 19.2609 21.5326 17.7301 22.0491C16.4027 22.4971 15.019 22.5886 13.6662 22.7634L13.6674 22.7657Z" fill="#009ED0"/>
<path id="Vector_36" d="M5.74623 11.9406C5.82432 12.7154 5.51427 13.4286 5.18355 14.1314C5.07331 14.3657 4.91944 14.6354 4.6048 14.5943C4.31542 14.5566 4.258 14.2697 4.19484 14.0354C3.99848 13.3086 3.80671 12.5657 3.85379 11.816C3.88594 11.2983 4.10298 10.7886 4.59446 10.4834C4.99982 10.232 5.67848 10.6674 5.74164 11.2263C5.7669 11.4503 5.74623 11.68 5.74623 11.9406Z" fill="#009ED0"/>
</g>
</g>
</g>
</svg>
